<svg id="Layer_1" data-name="Layer 1" xmlns="http://www.w3.org/2000/svg" xmlns:xlink="http://www.w3.org/1999/xlink" viewBox="0 0 300 345"><defs><style>.cls-1{fill:url(#linear-gradient);}.cls-2{fill:#8dc63f;}.cls-3,.cls-7{fill:none;stroke-miterlimit:10;stroke-width:7px;}.cls-3{stroke:#15141a;stroke-linecap:square;}.cls-4{fill:#15141a;}.cls-5{fill:#d6cce5;}.cls-6{fill:#2f2c38;}.cls-7{stroke:#7aad41;stroke-linecap:round;}</style><linearGradient id="linear-gradient" x1="150" y1="431.45" x2="150" y2="102.96" gradientUnits="userSpaceOnUse"><stop offset="0.11" stop-color="#8dc63f"/><stop offset="0.39" stop-color="#439347"/></linearGradient></defs><g id="space"><path class="cls-1" d="M263.62,345H36.38A36.38,36.38,0,0,1,0,308.62V259.14H300v49.48A36.38,36.38,0,0,1,263.62,345Z"/><path class="cls-2" d="M263.62,45H36.38A36.38,36.38,0,0,0,0,81.38V262a36.38,36.38,0,0,0,36.38,36.38H67.14a41.69,41.69,0,0,1,33.73,16.91C107.56,324.46,121.4,345,150,345s42.44-20.54,49.13-29.7a41.69,41.69,0,0,1,33.73-16.91h30.76A36.38,36.38,0,0,0,300,262V81.38A36.38,36.38,0,0,0,263.62,45Z"/><line class="cls-3" x1="139.95" y1="330.32" x2="160.05" y2="330.32"/><ellipse class="cls-4" cx="242.54" cy="199.73" rx="84.65" ry="38.9" transform="translate(2.66 402.65) rotate(-79.7)"/><ellipse class="cls-5" cx="257.49" cy="138.47" rx="12.43" ry="14.95" transform="translate(-8.75 259.27) rotate(-52.67)"/><circle class="cls-5" cx="270.47" cy="166.98" r="8.16"/><ellipse class="cls-6" cx="234.88" cy="243.02" rx="32.17" ry="22.86" transform="translate(-53.61 419.08) rotate(-77.37)"/><ellipse class="cls-4" cx="57.74" cy="199.65" rx="38.9" ry="84.65" transform="translate(-36.47 14.4) rotate(-10.83)"/><ellipse class="cls-5" cx="49.6" cy="137.12" rx="12.43" ry="14.95" transform="translate(-95.91 146.5) rotate(-73.8)"/><circle class="cls-5" cx="71.98" cy="159.03" r="8.16"/><ellipse class="cls-6" cx="66.2" cy="242.78" rx="22.86" ry="32.17" transform="translate(-35.14 12.45) rotate(-8.5)"/><path class="cls-4" d="M127.27,304.88a11,11,0,0,1,4.7.62,13.34,13.34,0,0,1,3.67,2,13.53,13.53,0,0,1,2.89,3,11.15,11.15,0,0,1,1.85,4.37,11.2,11.2,0,0,1-4.71-.61,13.58,13.58,0,0,1-3.66-2,13.8,13.8,0,0,1-2.89-3A11.17,11.17,0,0,1,127.27,304.88Z"/><path class="cls-4" d="M172.73,304.88a11.17,11.17,0,0,1-1.85,4.36,13.8,13.8,0,0,1-2.89,3,13.58,13.58,0,0,1-3.66,2,11.2,11.2,0,0,1-4.71.61,11.15,11.15,0,0,1,1.85-4.37,13.53,13.53,0,0,1,2.89-3,13.34,13.34,0,0,1,3.67-2A11,11,0,0,1,172.73,304.88Z"/><path class="cls-7" d="M124,89.78s7.51,8,26,8,26-8,26-8"/><path class="cls-7" d="M109.19,112.94S121,125.42,150,125.42s40.81-12.48,40.81-12.48"/></g></svg>