<svg id="Layer_1" data-name="Layer 1" xmlns="http://www.w3.org/2000/svg" xmlns:xlink="http://www.w3.org/1999/xlink" viewBox="0 0 300 345"><defs><style>.cls-1{fill:url(#linear-gradient);}.cls-2{fill:#8a9143;}.cls-3{fill:url(#linear-gradient-2);}.cls-4{fill:#5b4e23;}.cls-5{fill:url(#linear-gradient-3);}.cls-6{fill:url(#linear-gradient-4);}.cls-7{fill:url(#linear-gradient-5);}.cls-8{fill:#443818;}.cls-9{fill:url(#linear-gradient-6);}.cls-10{fill:url(#linear-gradient-7);}.cls-11{fill:url(#linear-gradient-8);}.cls-12{fill:url(#linear-gradient-9);}.cls-13{fill:#707230;}.cls-14{fill:#f9ed32;}.cls-15{fill:#414042;}.cls-16{fill:#fff;}.cls-17{fill:#4f5021;}</style><linearGradient id="linear-gradient" x1="150" y1="356.11" x2="150" y2="161.16" gradientUnits="userSpaceOnUse"><stop offset="0" stop-color="#8a9143"/><stop offset="0.36" stop-color="#61642b"/></linearGradient><linearGradient id="linear-gradient-2" x1="59.6" y1="327.75" x2="59.9" y2="294.84" gradientUnits="userSpaceOnUse"><stop offset="0" stop-color="#5b4e23"/><stop offset="1" stop-color="#443818"/></linearGradient><linearGradient id="linear-gradient-3" x1="150.75" y1="327.75" x2="151.05" y2="294.84" xlink:href="#linear-gradient-2"/><linearGradient id="linear-gradient-4" x1="239.87" y1="327.75" x2="240.17" y2="294.84" xlink:href="#linear-gradient-2"/><linearGradient id="linear-gradient-5" x1="150" y1="287.14" x2="150" y2="125.44" xlink:href="#linear-gradient"/><linearGradient id="linear-gradient-6" x1="103.22" y1="271.33" x2="103.53" y2="238.43" xlink:href="#linear-gradient-2"/><linearGradient id="linear-gradient-7" x1="194.37" y1="271.33" x2="194.68" y2="238.43" xlink:href="#linear-gradient-2"/><linearGradient id="linear-gradient-8" x1="129.49" y1="230.28" x2="129.49" y2="99.85" gradientTransform="matrix(-1, 0, 0, 1, 279.49, 0)" xlink:href="#linear-gradient"/><linearGradient id="linear-gradient-9" x1="221.73" y1="147.04" x2="153.01" y2="148.06" gradientUnits="userSpaceOnUse"><stop offset="0" stop-color="#8a9143"/><stop offset="0.35" stop-color="#7f853d"/><stop offset="0.97" stop-color="#63662c"/><stop offset="1" stop-color="#61642b"/></linearGradient></defs><title>blook_anaconda</title><g id="tropical"><path class="cls-1" d="M263.62,345H36.38A36.38,36.38,0,0,1,0,308.62V259.14H300v49.48A36.38,36.38,0,0,1,263.62,345Z"/><rect class="cls-2" y="221.18" width="300" height="77.21" rx="36.38"/><path class="cls-3" d="M59.87,322.72c16,0,23.88-10.35,25.83-24.27H34C36,312.37,43.82,322.72,59.87,322.72Z"/><path class="cls-4" d="M59.87,259.44c-19.6,0-26.33,14.17-26.33,31.64a53.32,53.32,0,0,0,.5,7.37H85.7a53.35,53.35,0,0,0,.49-7.37C86.19,273.61,79.46,259.44,59.87,259.44Z"/><path class="cls-5" d="M151,322.72c16,0,23.88-10.35,25.83-24.27H125.19C127.13,312.37,135,322.72,151,322.72Z"/><path class="cls-4" d="M151,259.44c-19.6,0-26.33,14.17-26.33,31.64a53.32,53.32,0,0,0,.5,7.37h51.66a53.35,53.35,0,0,0,.49-7.37C177.34,273.61,170.61,259.44,151,259.44Z"/><path class="cls-6" d="M240.13,322.72c16.05,0,23.89-10.35,25.83-24.27H214.3C216.25,312.37,224.09,322.72,240.13,322.72Z"/><path class="cls-4" d="M240.13,259.44c-19.59,0-26.32,14.17-26.32,31.64a53.35,53.35,0,0,0,.49,7.37H266a53.32,53.32,0,0,0,.5-7.37C266.46,273.61,259.73,259.44,240.13,259.44Z"/><path class="cls-7" d="M233,274H67A36.38,36.38,0,0,1,30.6,237.61V202.78H269.4v34.83A36.38,36.38,0,0,1,233,274Z"/><rect class="cls-2" x="30.6" y="164.82" width="238.79" height="77.21" rx="36.38"/><path class="cls-4" d="M68.31,200.06c0-17.64-11-24.85-25.41-26.11A36.26,36.26,0,0,0,30.6,201.2v4.46a36.22,36.22,0,0,0,6.48,20.71l.9,0C54.73,226.39,68.31,219.66,68.31,200.06Z"/><path class="cls-8" d="M37.08,226.37a36.22,36.22,0,0,1-6.48-20.71V239.1C30.71,239.11,35,226.33,37.08,226.37Z"/><path class="cls-8" d="M262.92,226.37c2.23,0,6.48,12.78,6.48,12.78V205.66A36.19,36.19,0,0,1,262.92,226.37Z"/><path class="cls-4" d="M269.4,201.2A36.3,36.3,0,0,0,257.13,174c-.73.07-1.46.16-2.18.26-13.34,1.94-23.26,9.79-23.26,25.83S241.61,224,255,225.89a49.24,49.24,0,0,0,7.07.5l.9,0a36.19,36.19,0,0,0,6.48-20.71Z"/><path class="cls-9" d="M103.49,266.3c16,0,23.89-10.35,25.83-24.26H77.66C79.61,256,87.45,266.3,103.49,266.3Z"/><path class="cls-4" d="M103.49,203c-19.59,0-26.32,14.16-26.32,31.63a53.6,53.6,0,0,0,.49,7.38h51.66a53.58,53.58,0,0,0,.5-7.38C129.82,217.19,123.09,203,103.49,203Z"/><path class="cls-10" d="M194.64,266.3c16.05,0,23.89-10.35,25.83-24.26H168.81C170.76,256,178.6,266.3,194.64,266.3Z"/><path class="cls-4" d="M194.64,203c-19.59,0-26.32,14.16-26.32,31.63a53.6,53.6,0,0,0,.49,7.38h51.66a53.58,53.58,0,0,0,.5-7.38C221,217.19,214.24,203,194.64,203Z"/><path class="cls-11" d="M113.55,219.68h72.9a36.38,36.38,0,0,0,36.38-36.38V162.24H77.17V183.3A36.38,36.38,0,0,0,113.55,219.68Z"/><path class="cls-2" d="M245.32,93.35c-26.69-15.3-35.46-16.88-35.46-16.88,0-21.86-34.29-24.28-58.92-23.61-.28,0-.55,0-.83.08h0c-78.86,0-73,109.28-73,109.28a36.6,36.6,0,0,0,36.51,36.51h72.81A36.48,36.48,0,0,0,223,162.24h0a36.48,36.48,0,0,0-36.48-36.48l-36.36.06V113.1h84.42A7.59,7.59,0,0,0,242.1,106C244.76,104.69,249.74,95.88,245.32,93.35Z"/><path class="cls-12" d="M150.11,125.82v43s58,9.7,58-23.13c0-9.81-5.18-15.53-12.44-18.72a36.44,36.44,0,0,0-9.16-1.16Z"/><path class="cls-13" d="M242.1,106c-.23.12-18.76,1.09-40.86-4.57a1,1,0,0,0-.51.08,6,6,0,0,0-3.3,8.85l0,0a5.49,5.49,0,0,0,4.71,2.66h32.37A7.59,7.59,0,0,0,242.1,106Z"/><path class="cls-4" d="M91.32,119.58a38.33,38.33,0,0,0-10.06-1.39,185,185,0,0,0-4.21,38.71c1.3.48,2.66.91,4.06,1.28,12.81,3.39,24.66.59,28.3-13.17S104.13,123,91.32,119.58Z"/><path class="cls-4" d="M100.65,76.33l-.77-.19C93.31,84.36,88.63,94,85.28,103.83a29.68,29.68,0,0,0,7.32,2.91c10.1,2.67,19.44.47,22.31-10.37S110.75,79,100.65,76.33Z"/><path class="cls-13" d="M191.07,76.13S173.73,67.53,153,79c-14.6,8.06-34.5,11.45-34.5,11.45s16.78,12.55,34.25,3.63C176.24,82.06,184.82,76.1,191.07,76.13Z"/><circle class="cls-13" cx="178.86" cy="75.34" r="15.79"/><circle class="cls-14" cx="178.86" cy="79.72" r="15.79"/><path class="cls-15" d="M186.18,79.72a24.19,24.19,0,0,1-4.11,12.67,4.17,4.17,0,0,1-6.94,0A24.19,24.19,0,0,1,171,79.72a24.18,24.18,0,0,1,4.11-12.66,4.17,4.17,0,0,1,6.94,0A24.18,24.18,0,0,1,186.18,79.72Z"/><circle class="cls-16" cx="185.08" cy="71.47" r="4.47"/><ellipse class="cls-16" cx="173.43" cy="87.72" rx="4.96" ry="3.33"/><path class="cls-17" d="M241.37,95.85s-5.2,3.22-2.31,4.65S241.37,95.85,241.37,95.85Z"/></g></svg>