<svg id="Layer_1" data-name="Layer 1" xmlns="http://www.w3.org/2000/svg" xmlns:xlink="http://www.w3.org/1999/xlink" viewBox="0 0 300 345"><defs><style>.cls-1{fill:url(#linear-gradient);}.cls-2{fill:#dae6f5;}.cls-3,.cls-4{fill:#7ca1d5;}.cls-3{fill-opacity:0.2;}.cls-5{fill:url(#radial-gradient);}.cls-6{fill:none;stroke:#414042;stroke-linecap:round;stroke-miterlimit:10;stroke-width:10px;}.cls-7{fill:#414042;}.cls-8{fill:#9dc6ea;}.cls-9{fill:#fff;}.cls-10{fill:#5179b8;}.cls-11{fill:#c7d6ee;}</style><linearGradient id="linear-gradient" x1="150" y1="356.11" x2="150" y2="161.16" gradientUnits="userSpaceOnUse"><stop offset="0" stop-color="#9dc6ea"/><stop offset="0.69" stop-color="#416eb5"/></linearGradient><radialGradient id="radial-gradient" cx="150" cy="256.76" r="41.85" gradientUnits="userSpaceOnUse"><stop offset="0" stop-color="#414042"/><stop offset="1" stop-color="#bfe7fb" stop-opacity="0"/></radialGradient></defs><title>blook_arctic-fox</title><path class="cls-1" d="M263.62,345H36.38A36.38,36.38,0,0,1,0,308.62V259.14H300v49.48A36.38,36.38,0,0,1,263.62,345Z"/><path class="cls-2" d="M300,81.38A36.38,36.38,0,0,0,263.62,45H36.38A36.38,36.38,0,0,0,0,81.38V185.53H0V262a36.38,36.38,0,0,0,36.38,36.38H263.62A36.38,36.38,0,0,0,300,262V246.74h0Z"/><path class="cls-3" d="M263.62,45H36.38A36.38,36.38,0,0,0,0,81.38V246.73a36.41,36.41,0,0,0,.6,6.57l9.23-15s20.7-34.64,59.38-34.64c76.67,0,34.64,51.53,80.79,51.53s4.49-51.53,80.79-51.53c38.68,0,59.38,34.64,59.38,34.64l9.23,15a36.41,36.41,0,0,0,.6-6.57V81.38A36.38,36.38,0,0,0,263.62,45Z"/><path class="cls-4" d="M149,70.8c1.54,1.71,3,3.43,4.47,5.14s3.08,3.27,4.68,4.81L160.57,83c.41.37.8.77,1.23,1.12l1.28,1c.86.68,1.7,1.39,2.57,2l2.67,1.88A59.27,59.27,0,0,0,179.69,95c1,.33,2,.78,3,1,.5.15,1,.29,1.5.46l1.52.37c.51.14,1,.24,1.53.33s1,.23,1.52.28,1,.17,1.51.21,1.05.1,1.38.13l6.5.5-4.57,3.81h0a29.62,29.62,0,0,1-3.24,2.9,41.67,41.67,0,0,1-3.48,2.43,42.89,42.89,0,0,1-7.59,3.76A41.82,41.82,0,0,1,162.54,114a37.56,37.56,0,0,1-16-4.54,48.42,48.42,0,0,1-12.69-10.17l3.24,2.39c1.13.72,2.19,1.52,3.36,2.17s2.28,1.33,3.48,1.88a38.16,38.16,0,0,0,3.59,1.6,36.91,36.91,0,0,0,15.07,2.56,39.28,39.28,0,0,0,7.49-1.13,46.41,46.41,0,0,0,7.13-2.51,66.13,66.13,0,0,0,6.73-3.51c1.08-.65,2.16-1.33,3.21-2s2.12-1.47,3-2.14h0l1.92,4.31a19.23,19.23,0,0,1-2,.13c-.64,0-1.25,0-1.87-.06s-1.22-.12-1.83-.19a13.39,13.39,0,0,1-1.81-.29l-1.79-.37-1.75-.51a34.47,34.47,0,0,1-3.41-1.2,46.16,46.16,0,0,1-12.11-7.49l-2.65-2.33c-.83-.82-1.62-1.69-2.42-2.54l-1.2-1.27c-.4-.42-.74-.9-1.1-1.35L156,82.64a12.89,12.89,0,0,1-1-1.41L154,79.78l-1.87-2.89Q150.49,73.86,149,70.8Z"/><path class="cls-4" d="M136.79,89a45,45,0,0,0-.66,5.71,43.93,43.93,0,0,0,.14,5.63,48.15,48.15,0,0,0,.83,5.51c.38,1.82.85,3.6,1.38,5.38a94,94,0,0,0,4,10.34c.75,1.69,1.56,3.36,2.37,5l2.48,4.9,3,6-5.87-2.23h0a38,38,0,0,1-6.23-2.1,48.55,48.55,0,0,1-5.79-3,52.6,52.6,0,0,1-10.31-8,30.88,30.88,0,0,1-7.2-11,21.42,21.42,0,0,1-.68-12.72,24.27,24.27,0,0,0,.61,6.16,22.39,22.39,0,0,0,2.21,5.59,30.25,30.25,0,0,0,7.83,8.88,57.12,57.12,0,0,0,10.18,6.31c3.56,1.8,7.32,3.46,10.87,5.07h0l-2.81,3.79a38.5,38.5,0,0,1-3.33-5.08,54.65,54.65,0,0,1-2.62-5.39,54.07,54.07,0,0,1-3.35-11.53,43.5,43.5,0,0,1-.49-12,34.23,34.23,0,0,1,1.15-5.87A28.55,28.55,0,0,1,136.79,89Z"/><circle class="cls-5" cx="150" cy="256.76" r="41.85"/><polyline class="cls-6" points="162.7 278.15 150 259.4 137.3 278.15"/><path class="cls-7" d="M127.83,248.24c0,9.41,12.87,18.24,22.17,18.24s22.17-10,22.17-18.24S127.83,238.83,127.83,248.24Z"/><path class="cls-8" d="M5.73,165.18A63.74,63.74,0,0,0,0,177.61v33A61.4,61.4,0,0,0,14.32,233.8a77.8,77.8,0,0,1,54.89-19,69.12,69.12,0,0,1,18.12,3.08l8.4-1.85C95.73,142.23,20.65,140,5.73,165.18Z"/><path class="cls-8" d="M300,177.61a63.74,63.74,0,0,0-5.73-12.43c-14.92-25.22-90-23-90,50.86l8.4,1.85a69.12,69.12,0,0,1,18.12-3.08,77.8,77.8,0,0,1,54.89,19A61.4,61.4,0,0,0,300,210.58Z"/><path class="cls-4" d="M96.47,211A36.45,36.45,0,0,1,60,247.42c-54.17,0-36.45-72.91-36.45-72.91H60A36.46,36.46,0,0,1,96.47,211Z"/><path class="cls-9" d="M96.47,221.09c0,20.13-16.32,29.67-36.46,29.67-48.89,0-40.44-65.07-40.44-65.07s20.31-1.06,40.44-1.06A36.46,36.46,0,0,1,96.47,221.09Z"/><path class="cls-7" d="M90.29,212.88a16.49,16.49,0,0,1-24-22.35,29.75,29.75,0,0,0-4-.28,28.6,28.6,0,1,0,28,22.63Zm-40,24.66a6.81,6.81,0,1,1,6.8-6.81A6.81,6.81,0,0,1,50.3,237.54Z"/><path class="cls-4" d="M203.53,211A36.45,36.45,0,0,0,240,247.42c54.17,0,36.45-72.91,36.45-72.91H240A36.46,36.46,0,0,0,203.53,211Z"/><path class="cls-9" d="M203.53,221.09c0,20.13,16.32,29.67,36.46,29.67,48.89,0,40.44-65.07,40.44-65.07s-20.31-1.06-40.44-1.06A36.46,36.46,0,0,0,203.53,221.09Z"/><path class="cls-7" d="M209.08,218.86a28.61,28.61,0,1,0,28.61-28.61,29.75,29.75,0,0,0-4,.28,16.49,16.49,0,0,1-23.95,22.35A28.75,28.75,0,0,0,209.08,218.86Zm33.82,11.87a6.81,6.81,0,1,1,6.8,6.81A6.79,6.79,0,0,1,242.9,230.73Z"/><path class="cls-2" d="M14.48,264.11S1.71,282.92,11.76,293c5.38,5.39,12.19,2.55,17.35-1.24,2,4.48,5.22,8.42,10.49,9.5,13.92,2.85,16.22-20.91,16.22-20.91"/><path class="cls-10" d="M14.48,264.11A62.46,62.46,0,0,0,10.85,276c-.73,3.93-.79,7.91.49,11a10.13,10.13,0,0,0,2.81,3.87,6.41,6.41,0,0,0,3.76,1.65,9.62,9.62,0,0,0,4.45-.87,26,26,0,0,0,4.69-2.72l3.53-2.48,1.71,3.87a20.59,20.59,0,0,0,2.31,4,11.52,11.52,0,0,0,3.13,2.81,9.89,9.89,0,0,0,3.91,1.3,7.32,7.32,0,0,0,1.93,0,7,7,0,0,0,1.85-.64c2.49-1.24,4.64-4.13,6.28-7.25a61.58,61.58,0,0,0,4.12-10.2,31.83,31.83,0,0,1-.08,5.69,33.09,33.09,0,0,1-1,5.69,24.07,24.07,0,0,1-2.21,5.6,14.92,14.92,0,0,1-4.28,5,11.61,11.61,0,0,1-6.79,2.18,15,15,0,0,1-6.76-1.55,16.52,16.52,0,0,1-5.37-4.25A22.28,22.28,0,0,1,27.41,296a28.3,28.3,0,0,1-1.48-2.83l5.24,1.4a27.75,27.75,0,0,1-6.2,3.55,15.47,15.47,0,0,1-7.85,1.13,12.6,12.6,0,0,1-7.34-3.78A15.18,15.18,0,0,1,6,288.75a18.32,18.32,0,0,1-.38-7.26A27.31,27.31,0,0,1,7.42,275a36.78,36.78,0,0,1,3.08-5.79A34.38,34.38,0,0,1,14.48,264.11Z"/><path class="cls-2" d="M244.18,280.64s2.3,23.77,16.22,20.92c5.27-1.09,8.51-5,10.49-9.51,5.16,3.8,12,6.63,17.35,1.25,10.05-10.05-2.72-28.86-2.72-28.86"/><path class="cls-10" d="M244.18,280.64a60.84,60.84,0,0,0,4.12,10.21c1.63,3.11,3.78,6,6.27,7.25a7.12,7.12,0,0,0,1.86.65,7.78,7.78,0,0,0,1.93,0,9.89,9.89,0,0,0,3.91-1.3,11.26,11.26,0,0,0,3.13-2.82,20,20,0,0,0,2.31-4l1.71-3.88,3.53,2.48a26,26,0,0,0,4.69,2.72,9.74,9.74,0,0,0,4.44.87,6.43,6.43,0,0,0,3.76-1.66,9.92,9.92,0,0,0,2.81-3.86c1.28-3.08,1.22-7.07.49-11a62.73,62.73,0,0,0-3.62-11.89,34.44,34.44,0,0,1,4,5.06,36.78,36.78,0,0,1,3.08,5.79,27.26,27.26,0,0,1,1.85,6.54,18.33,18.33,0,0,1-.38,7.26,15.38,15.38,0,0,1-3.83,6.69,12.67,12.67,0,0,1-7.35,3.77,14.31,14.31,0,0,1-4.14-.07,18.22,18.22,0,0,1-3.72-1.07,27.52,27.52,0,0,1-6.19-3.55l5.24-1.4a27.25,27.25,0,0,1-1.48,2.83,22.28,22.28,0,0,1-1.93,2.67,16.55,16.55,0,0,1-5.38,4.25,15.06,15.06,0,0,1-6.75,1.55,12.55,12.55,0,0,1-3.58-.56,11.78,11.78,0,0,1-3.2-1.63,14.71,14.71,0,0,1-4.28-5,24,24,0,0,1-2.21-5.59,35.89,35.89,0,0,1-1.08-11.38Z"/><path class="cls-2" d="M19.05,230.73S-.1,243.14,4.82,256s24.5.91,30.76-.45"/><path class="cls-10" d="M19.05,230.73c-1.83,2.15-3.57,4.24-5.18,6.37a48,48,0,0,0-4.22,6.47,18,18,0,0,0-2.18,6.48,10.16,10.16,0,0,0,.11,3,9.48,9.48,0,0,0,1,2.69,4.92,4.92,0,0,0,1.56,1.79,6.06,6.06,0,0,0,2.4.95,21.06,21.06,0,0,0,7-.16c2.53-.38,5.14-1,7.81-1.56,1.34-.28,2.69-.58,4.07-.81a20.56,20.56,0,0,1,4.23-.4c-2.42,1.41-4.62,3-7,4.41a44.59,44.59,0,0,1-7.68,3.68A21.32,21.32,0,0,1,11.63,265a12.31,12.31,0,0,1-5.26-1.72,11.64,11.64,0,0,1-3.91-4.18A14.68,14.68,0,0,1,.93,249a19.78,19.78,0,0,1,4.16-8.46,30.83,30.83,0,0,1,6.43-5.9,31.56,31.56,0,0,1,3.65-2.2A25.73,25.73,0,0,1,19.05,230.73Z"/><path class="cls-2" d="M281,230.82s19.15,12.41,14.23,25.25-24.5.91-30.76-.45"/><path class="cls-10" d="M281,230.82a25.73,25.73,0,0,1,3.88,1.69,31.56,31.56,0,0,1,3.65,2.2,31.11,31.11,0,0,1,6.43,5.9,19.78,19.78,0,0,1,4.16,8.46,14.68,14.68,0,0,1-1.53,10.16,11.56,11.56,0,0,1-3.91,4.18,12.31,12.31,0,0,1-5.26,1.72,21.48,21.48,0,0,1-9.22-1.41,46.11,46.11,0,0,1-7.68-3.68c-2.43-1.41-4.63-3-7.05-4.42a20.56,20.56,0,0,1,4.23.4c1.38.23,2.73.53,4.07.81,2.67.57,5.28,1.18,7.81,1.56a21.06,21.06,0,0,0,7,.16,5.92,5.92,0,0,0,2.4-.95,4.92,4.92,0,0,0,1.56-1.79,9.48,9.48,0,0,0,1-2.69,10.16,10.16,0,0,0,.11-3,18,18,0,0,0-2.18-6.48,48.61,48.61,0,0,0-4.22-6.47C284.52,235.06,282.78,233,281,230.82Z"/><ellipse class="cls-4" cx="54.54" cy="156.12" rx="18.85" ry="12.66"/><ellipse class="cls-4" cx="245.46" cy="156.12" rx="18.85" ry="12.66"/><path class="cls-11" d="M10.45,115.37S-31.81,27.42,58.76,0c0,0,27.17,47.45,27.17,115.37Z"/><path class="cls-11" d="M289.55,115.37S331.81,27.42,241.24,0c0,0-27.17,47.45-27.17,115.37Z"/><path class="cls-8" d="M64,10.68C36.28,21.93,24.18,40.57,19.53,58.55A39.74,39.74,0,0,0,58,108.22H85.83A262.2,262.2,0,0,0,64,10.68Z"/><path class="cls-8" d="M236,10.68a262.2,262.2,0,0,0-21.82,97.54H242c25.52,0,44.76-23.79,38.74-48.58C276.3,41.32,264.28,22.16,236,10.68Z"/><path class="cls-4" d="M45.88,69.09A31.31,31.31,0,0,0,76.2,108.22h9.63A265.54,265.54,0,0,0,73.25,35C56.77,43.93,49.09,56.7,45.88,69.09Z"/><path class="cls-4" d="M254.35,69.94c-3.07-12.65-10.73-25.82-27.59-35a265.21,265.21,0,0,0-12.59,73.25h9.66C243.93,108.22,259.09,89.48,254.35,69.94Z"/><path class="cls-7" d="M85.93,115.37c-.71-2.49-1.32-5-1.85-7.42s-1-4.92-1.56-7.35c-1.11-4.87-1.94-9.72-3.06-14.52C77.55,76.45,75.35,67,73.2,57.45c-.58-2.37-1.12-4.75-1.65-7.12s-1.2-4.73-1.75-7.11L66.21,29,62.52,14.64C61.26,9.83,60,5,58.76,0a78.94,78.94,0,0,1,9.18,12.31A128.23,128.23,0,0,1,75.1,25.82c1,2.32,2.12,4.64,3,7s1.84,4.76,2.64,7.18,1.52,4.86,2.28,7.29,1.27,4.94,1.88,7.41A152.11,152.11,0,0,1,88.8,85a129.57,129.57,0,0,1-.42,15.26,75.35,75.35,0,0,1-1,7.59Q86.81,111.63,85.93,115.37Z"/><path class="cls-7" d="M241.24,0l-7.47,29-3.59,14.24c-.53,2.38-1.16,4.74-1.74,7.1s-1.07,4.76-1.64,7.13c-2.13,9.5-4.34,19-6.24,28.63-1.12,4.8-1.95,9.65-3.06,14.52-.62,2.43-1,4.89-1.58,7.35s-1.14,4.93-1.85,7.42c-.59-2.49-1.08-5-1.49-7.52a75.35,75.35,0,0,1-1-7.59A127.46,127.46,0,0,1,211.18,85a150.68,150.68,0,0,1,3.93-30.27c.61-2.47,1.22-4.95,1.89-7.4s1.48-4.88,2.28-7.3,1.72-4.8,2.64-7.17,2-4.71,3-7a128.31,128.31,0,0,1,7.17-13.51A79.37,79.37,0,0,1,241.24,0Z"/></svg>