<svg id="Layer_1" data-name="Layer 1" xmlns="http://www.w3.org/2000/svg" xmlns:xlink="http://www.w3.org/1999/xlink" viewBox="0 0 300 345"><defs><style>.cls-1{fill:url(#linear-gradient);}.cls-2{fill:#dae6f5;}.cls-3{fill:#414042;}.cls-4{fill:#fff;}.cls-5{fill:url(#radial-gradient);}.cls-6,.cls-7{fill:none;stroke:#414042;stroke-linecap:round;stroke-miterlimit:10;}.cls-6{stroke-width:7.96px;}.cls-7{stroke-width:8.25px;}.cls-8{fill:url(#linear-gradient-2);}.cls-9{fill:url(#linear-gradient-3);}.cls-10{fill:#f6a9cb;}.cls-11{fill:#416eb5;}</style><linearGradient id="linear-gradient" x1="150" y1="356.11" x2="150" y2="161.16" gradientUnits="userSpaceOnUse"><stop offset="0" stop-color="#9dc6ea"/><stop offset="0.69" stop-color="#416eb5"/></linearGradient><radialGradient id="radial-gradient" cx="149.92" cy="246.13" r="41.85" gradientUnits="userSpaceOnUse"><stop offset="0" stop-color="#414042"/><stop offset="1" stop-color="#bfe7fb" stop-opacity="0"/></radialGradient><linearGradient id="linear-gradient-2" x1="232.94" y1="25.25" x2="235.36" y2="214.84" xlink:href="#linear-gradient"/><linearGradient id="linear-gradient-3" x1="66.56" y1="27.64" x2="65.96" y2="211.79" xlink:href="#linear-gradient"/></defs><title>blook_arctic-hare</title><path class="cls-1" d="M263.62,345H36.38A36.38,36.38,0,0,1,0,308.62V259.14H300v49.48A36.38,36.38,0,0,1,263.62,345Z"/><rect class="cls-2" y="70.78" width="300" height="227.62" rx="36.38"/><circle class="cls-3" cx="242.58" cy="209.68" r="36.45"/><circle class="cls-3" cx="57.42" cy="209.68" r="36.45"/><circle class="cls-4" cx="242.58" cy="219.8" r="36.45"/><circle class="cls-4" cx="57.42" cy="219.8" r="36.45"/><path class="cls-3" d="M89.18,214.51A13.21,13.21,0,0,1,70,196.6a23,23,0,1,0,19.19,17.91Zm-32,19.76a5.46,5.46,0,1,1,5.45-5.46A5.46,5.46,0,0,1,57.14,234.27Z"/><path class="cls-3" d="M255.63,214.38a13.22,13.22,0,0,1-19.07-17.77,24.25,24.25,0,0,0-3.32-.24,23,23,0,1,0,22.39,18Zm-32.22,19.89a5.46,5.46,0,1,1,5.46-5.46A5.46,5.46,0,0,1,223.41,234.27Z"/><circle class="cls-5" cx="149.92" cy="246.13" r="41.85"/><line class="cls-6" x1="150" y1="244.55" x2="150" y2="256.99"/><polyline class="cls-7" points="165.56 273.42 150 256.99 134.44 273.42"/><path class="cls-7" d="M170.9,232.61s-11.12,11.94-20.9,11.94-20.9-11.94-20.9-11.94"/><path class="cls-8" d="M185.93,70.78c10.29,43.61,32.41,81.1,64,69.87,25.29-9,33.45-35.88,31-66.25A36.23,36.23,0,0,0,265,70.78Z"/><path class="cls-9" d="M37.77,70.78A36.3,36.3,0,0,0,19,76C17,105.7,25.26,131.81,50.12,140.65c31.54,11.23,53.66-26.26,64-69.87Z"/><path class="cls-2" d="M83.65,1.13C37.24-13.95-18.19,126.89,41,148,95.15,167.22,115.42,11.45,83.65,1.13Z"/><path class="cls-2" d="M216.35,1.13C262.76-13.95,318.19,126.89,259,148,204.85,167.22,184.58,11.45,216.35,1.13Z"/><path class="cls-10" d="M67.69,83.35C48.25,77,25,129.34,49.84,138.18,72.51,146.24,81,87.67,67.69,83.35Z"/><path class="cls-10" d="M232.31,83.35c19.44-6.32,42.67,46,17.85,54.83C227.49,146.24,219,87.67,232.31,83.35Z"/><path class="cls-3" d="M83.67,1.15c-12.45-4-25.55,3.13-36.91,16.2,3.32,13,10.77,23.27,23.63,27.84,10.79,3.85,20.24.72,28.2-6.83C97.61,19,92.78,4.11,83.67,1.15Z"/><path class="cls-3" d="M253.13,17.18c-11.32-13-24.36-20.06-36.76-16-9.14,3-14,18-14.93,37.38,7.92,7.42,17.31,10.48,28,6.66C242.37,40.6,249.84,30.31,253.13,17.18Z"/><path class="cls-2" d="M14.48,274.7s-12.77,18.81-2.72,28.86c5.38,5.38,12.19,2.55,17.35-1.24,2,4.47,5.22,8.42,10.49,9.5,13.92,2.85,16.22-20.92,16.22-20.92"/><path class="cls-11" d="M14.48,274.7a62.77,62.77,0,0,0-3.63,11.89c-.73,3.92-.79,7.91.49,11a10.1,10.1,0,0,0,2.81,3.86,6.36,6.36,0,0,0,3.76,1.66,9.77,9.77,0,0,0,4.45-.88,24.82,24.82,0,0,0,4.69-2.72L30.58,297l1.71,3.88a20.51,20.51,0,0,0,2.31,4,11.56,11.56,0,0,0,3.13,2.82,9.89,9.89,0,0,0,3.91,1.3,7.77,7.77,0,0,0,1.93,0,7.05,7.05,0,0,0,1.85-.65c2.49-1.23,4.64-4.13,6.28-7.24a61.69,61.69,0,0,0,4.12-10.21,31.83,31.83,0,0,1-.08,5.69,33,33,0,0,1-1,5.7,24,24,0,0,1-2.21,5.59,14.82,14.82,0,0,1-4.28,5,12,12,0,0,1-3.21,1.63,12.21,12.21,0,0,1-3.58.56,15,15,0,0,1-6.76-1.55,16.52,16.52,0,0,1-5.37-4.25,23.11,23.11,0,0,1-1.93-2.67,29.43,29.43,0,0,1-1.48-2.83l5.24,1.39a27,27,0,0,1-6.2,3.55,15.47,15.47,0,0,1-7.85,1.14A12.65,12.65,0,0,1,9.78,306,15.29,15.29,0,0,1,6,299.35a18.33,18.33,0,0,1-.38-7.26,27.52,27.52,0,0,1,1.85-6.54,36.68,36.68,0,0,1,3.08-5.78A35,35,0,0,1,14.48,274.7Z"/><path class="cls-2" d="M244.18,291.24s2.3,23.76,16.22,20.91c5.27-1.08,8.51-5,10.49-9.5,5.16,3.79,12,6.63,17.35,1.24,10.05-10-2.72-28.85-2.72-28.85"/><path class="cls-11" d="M244.18,291.24a61.18,61.18,0,0,0,4.12,10.21c1.63,3.11,3.78,6,6.27,7.25a7.47,7.47,0,0,0,1.86.64,7.32,7.32,0,0,0,1.93,0,9.89,9.89,0,0,0,3.91-1.3,11.58,11.58,0,0,0,3.13-2.82,19.82,19.82,0,0,0,2.31-4l1.71-3.87,3.53,2.48a26,26,0,0,0,4.69,2.72,9.74,9.74,0,0,0,4.44.87,6.43,6.43,0,0,0,3.76-1.66,10,10,0,0,0,2.81-3.86c1.28-3.09,1.22-7.07.49-11A62.64,62.64,0,0,0,285.52,275a34.44,34.44,0,0,1,4,5.06,36.68,36.68,0,0,1,3.08,5.78,27.52,27.52,0,0,1,1.85,6.54,18.32,18.32,0,0,1-.38,7.26,15.27,15.27,0,0,1-3.83,6.69,12.62,12.62,0,0,1-7.35,3.78,14,14,0,0,1-4.14-.08A17.59,17.59,0,0,1,275,309a27.17,27.17,0,0,1-6.19-3.56l5.24-1.39a28.3,28.3,0,0,1-1.48,2.83,23.11,23.11,0,0,1-1.93,2.67,16.69,16.69,0,0,1-5.38,4.25,15,15,0,0,1-6.75,1.54,11.89,11.89,0,0,1-3.58-.56,11.75,11.75,0,0,1-3.2-1.62,14.81,14.81,0,0,1-4.28-5,24,24,0,0,1-2.21-5.59,35.89,35.89,0,0,1-1.08-11.38Z"/><path class="cls-2" d="M19.05,241.33S-.1,253.73,4.82,266.58s24.5.91,30.76-.45"/><path class="cls-11" d="M19.05,241.33c-1.83,2.15-3.57,4.23-5.18,6.37a48,48,0,0,0-4.22,6.47,17.88,17.88,0,0,0-2.18,6.48,10.19,10.19,0,0,0,.11,3,9.31,9.31,0,0,0,1,2.68,4.92,4.92,0,0,0,1.56,1.79,6.07,6.07,0,0,0,2.4,1,20.82,20.82,0,0,0,7-.17c2.53-.37,5.14-1,7.81-1.55,1.34-.28,2.69-.59,4.07-.81a19.89,19.89,0,0,1,4.23-.4c-2.42,1.4-4.62,3-7,4.41a44.94,44.94,0,0,1-7.68,3.68,21.32,21.32,0,0,1-9.22,1.42,12.47,12.47,0,0,1-5.26-1.73,11.61,11.61,0,0,1-3.91-4.17,15.82,15.82,0,0,1-1.69-5,15.62,15.62,0,0,1,.16-5.16,19.78,19.78,0,0,1,4.16-8.46,30.56,30.56,0,0,1,6.43-5.9A33.11,33.11,0,0,1,15.17,243,24.71,24.71,0,0,1,19.05,241.33Z"/><path class="cls-2" d="M281,241.42s19.15,12.41,14.23,25.25-24.5.91-30.76-.45"/><path class="cls-11" d="M281,241.42a24.75,24.75,0,0,1,3.88,1.69,31.56,31.56,0,0,1,3.65,2.2,30.56,30.56,0,0,1,6.43,5.9,19.78,19.78,0,0,1,4.16,8.46,14.7,14.7,0,0,1-1.53,10.16,11.61,11.61,0,0,1-3.91,4.17,12.33,12.33,0,0,1-5.26,1.73,21.32,21.32,0,0,1-9.22-1.42,44.59,44.59,0,0,1-7.68-3.68c-2.43-1.4-4.63-3-7.05-4.41a20.56,20.56,0,0,1,4.23.4c1.38.23,2.73.53,4.07.81,2.67.57,5.28,1.18,7.81,1.55a20.82,20.82,0,0,0,7,.17,5.92,5.92,0,0,0,2.4-1,4.88,4.88,0,0,0,1.56-1.78,9.48,9.48,0,0,0,1-2.69,10.19,10.19,0,0,0,.11-3,17.88,17.88,0,0,0-2.18-6.48,48,48,0,0,0-4.22-6.47C284.52,245.65,282.78,243.57,281,241.42Z"/></svg>