<svg id="Layer_1" data-name="Layer 1" xmlns="http://www.w3.org/2000/svg" xmlns:xlink="http://www.w3.org/1999/xlink" viewBox="0 0 300 345"><defs><style>.cls-1{fill:url(#linear-gradient);}.cls-2{fill:url(#linear-gradient-2);}.cls-3{fill:#ecf7fe;}.cls-4{fill:#00c0f3;}.cls-5{fill:#fff;}.cls-6{fill:#ffcd05;}.cls-12,.cls-7{fill:none;}.cls-7{stroke:#cd8e2a;stroke-width:8.99px;}.cls-12,.cls-20,.cls-7{stroke-miterlimit:10;}.cls-8{fill:#fabc2e;}.cls-9{fill:#414042;}.cls-10{fill:#66402d;}.cls-11{fill:#2f2c38;}.cls-12{stroke:#2f2c38;stroke-width:6px;}.cls-13{opacity:0.5;}.cls-14{fill:#c88b4b;}.cls-15{fill:#e9b894;}.cls-16{fill:#6eb8cc;}.cls-17{fill:#9bd4ee;}.cls-18{fill:#352215;}.cls-19{fill:#a36934;}.cls-20{fill:#fff0a4;stroke:#fff;stroke-width:2px;}.cls-21{fill:#4990a0;}</style><linearGradient id="linear-gradient" x1="150" y1="356.11" x2="150" y2="161.16" gradientUnits="userSpaceOnUse"><stop offset="0" stop-color="#c7eaf7"/><stop offset="0.69" stop-color="#6eb8cc"/></linearGradient><linearGradient id="linear-gradient-2" x1="150" y1="347.83" x2="150" y2="258.91" gradientUnits="userSpaceOnUse"><stop offset="0.36" stop-color="#6eb8cc"/><stop offset="1" stop-color="#4f9cb9"/></linearGradient></defs><g id="space"><path class="cls-1" d="M263.62,345H36.38A36.38,36.38,0,0,1,0,308.62V259.14H300v49.48A36.38,36.38,0,0,1,263.62,345Z"/><path class="cls-2" d="M263.62,311.65H36.38A36.38,36.38,0,0,1,0,275.27V261.38H300v13.89A36.38,36.38,0,0,1,263.62,311.65Z"/><rect class="cls-3" y="45" width="300" height="253.39" rx="36.38"/><rect class="cls-4" x="259.09" y="194.36" width="41.06" height="40.11"/><path class="cls-5" d="M281.73,227.25h-8.11a7.77,7.77,0,0,1-2.48-.26.84.84,0,0,1-.62-.81v-23.8q0-1.77,10.69-1.77c4.09,0,6.92.39,8.47,1.18a5.83,5.83,0,0,1,3,3.11,8.38,8.38,0,0,1,.37,2.59,7.68,7.68,0,0,1-1,4.33,3.35,3.35,0,0,1-2.12,1.63,5.08,5.08,0,0,1,2.88,1.7c.77.89,1.15,2.39,1.15,4.51q0,3.71-2.26,5.48a11.41,11.41,0,0,1-6,2C284.62,227.2,283.28,227.25,281.73,227.25Zm.95-15.87c1.69,0,2.54-1,2.54-2.89a3,3,0,0,0-.67-2.15,2.05,2.05,0,0,0-1.52-.71h-4v5.75ZM279,221.79h3.67c1.69,0,2.54-1,2.54-2.9a3,3,0,0,0-.67-2.15A2,2,0,0,0,283,216h-4Z"/><rect class="cls-6" x="35.37" y="83.62" width="229.26" height="177.77" rx="27.8"/><path class="cls-7" d="M125.1,222.54s8.47,6.51,24.9,6.51,24.9-6.51,24.9-6.51"/><circle class="cls-8" cx="219.97" cy="176.4" r="27.55"/><circle class="cls-8" cx="80.03" cy="176.4" r="27.55"/><circle class="cls-5" cx="219.97" cy="184.05" r="27.55"/><circle class="cls-5" cx="80.03" cy="184.05" r="27.55"/><path class="cls-9" d="M104,180.05a10,10,0,0,1-14.51-13.53,17.73,17.73,0,0,0-2.44-.18,17.32,17.32,0,1,0,17,13.71ZM79.82,195a4.12,4.12,0,1,1,4.12-4.12A4.11,4.11,0,0,1,79.82,195Z"/><path class="cls-9" d="M229.83,180a10,10,0,0,1-14.42-13.42,17.33,17.33,0,1,0,14.82,17.14A17.52,17.52,0,0,0,229.83,180Zm-24.35,15a4.12,4.12,0,1,1,4.12-4.12A4.12,4.12,0,0,1,205.48,195Z"/><ellipse class="cls-10" cx="76.82" cy="127.14" rx="23.6" ry="13.68"/><ellipse class="cls-10" cx="223.18" cy="127.14" rx="23.6" ry="13.68"/><ellipse class="cls-11" cx="178.55" cy="227.86" rx="17.21" ry="10.75"/><path class="cls-12" d="M178.37,227.05s72.8,13,83.21-39.11"/><g class="cls-13"><rect class="cls-14" x="35.37" y="83.62" width="229.26" height="177.77" rx="27.8"/><polygon class="cls-15" points="114.84 261.38 127.03 261.38 229.66 83.61 217.48 83.61 114.84 261.38"/><path class="cls-15" d="M142.11,261.38h30.71l90.82-157.3A27.85,27.85,0,0,0,244.18,84.6Z"/></g><path class="cls-16" d="M202.08,45.74c0,16.09-23.85,23.47-52.08,23.47S97.92,61.83,97.92,45.74c0-.25,0-.49,0-.74l-9.27,0c0,.23,0,.45,0,.68,0,18.49,29.27,29.5,61.35,29.5s61.35-11,61.35-29.5c0-.23,0-.45,0-.68l-9.27,0C202.06,45.25,202.08,45.49,202.08,45.74Z"/><path class="cls-16" d="M290.26,56.62,253,94.43l4.27,4.21L294,61.37A36.7,36.7,0,0,0,290.26,56.62Z"/><path class="cls-16" d="M6,61.37,42.69,98.64,47,94.43,9.74,56.62A36.7,36.7,0,0,0,6,61.37Z"/><path class="cls-17" d="M196,45c-4,12.27-20.86,18.21-45.95,18.21S108.09,57.27,104.05,45H93.39c4,17.43,27.4,24.21,56.61,24.21S202.65,62.43,206.61,45Z"/><path class="cls-17" d="M287.22,53.71,253,88.43l4.27,4.21L291.45,58A36.91,36.91,0,0,0,287.22,53.71Z"/><path class="cls-17" d="M8.55,58,42.69,92.64,47,88.43,12.78,53.71A36.91,36.91,0,0,0,8.55,58Z"/><path class="cls-18" d="M236.83,98.6a19.84,19.84,0,0,1,19.82,19.82V240.58a19.84,19.84,0,0,1-19.82,19.82H63.17a19.84,19.84,0,0,1-19.82-19.82V118.42A19.84,19.84,0,0,1,63.17,98.6H236.83m0-8H63.17a27.8,27.8,0,0,0-27.8,27.8V240.58a27.8,27.8,0,0,0,27.8,27.8H236.83a27.8,27.8,0,0,0,27.8-27.8V118.42a27.8,27.8,0,0,0-27.8-27.8Z"/><path class="cls-19" d="M236.83,91.6a19.84,19.84,0,0,1,19.82,19.82V233.58a19.84,19.84,0,0,1-19.82,19.82H63.17a19.84,19.84,0,0,1-19.82-19.82V111.42A19.84,19.84,0,0,1,63.17,91.6H236.83m0-8H63.17a27.8,27.8,0,0,0-27.8,27.8V233.58a27.8,27.8,0,0,0,27.8,27.8H236.83a27.8,27.8,0,0,0,27.8-27.8V111.42a27.8,27.8,0,0,0-27.8-27.8Z"/><path class="cls-16" d="M288.47,188.62H275.76a8.06,8.06,0,0,1-8.07-8.06V126.75s0-13.34,14.42-13.34,14.42,13.34,14.42,13.34v53.81A8.06,8.06,0,0,1,288.47,188.62Z"/><path class="cls-17" d="M288.47,177.76H275.76a8.06,8.06,0,0,1-8.07-8.06V115.88s0-13.33,14.42-13.33,14.42,13.33,14.42,13.33V169.7A8.06,8.06,0,0,1,288.47,177.76Z"/><circle class="cls-20" cx="282.11" cy="134.56" r="9.28"/><circle class="cls-16" cx="282.11" cy="158.26" r="9.28"/><rect class="cls-21" x="273.07" y="110.33" width="18.09" height="9.81" rx="3.81"/><path class="cls-16" d="M24.24,188.62H11.53a8.06,8.06,0,0,1-8.06-8.06V126.75s0-13.34,14.42-13.34,14.42,13.34,14.42,13.34v53.81A8.06,8.06,0,0,1,24.24,188.62Z"/><path class="cls-17" d="M24.24,177.76H11.53a8.06,8.06,0,0,1-8.06-8.06V115.88s0-13.33,14.42-13.33,14.42,13.33,14.42,13.33V169.7A8.06,8.06,0,0,1,24.24,177.76Z"/><circle class="cls-20" cx="17.89" cy="134.56" r="9.28"/><circle class="cls-16" cx="17.89" cy="158.26" r="9.28"/><rect class="cls-21" x="8.84" y="110.33" width="18.09" height="9.81" rx="3.81"/></g></svg>