<svg id="Layer_1" data-name="Layer 1" xmlns="http://www.w3.org/2000/svg" xmlns:xlink="http://www.w3.org/1999/xlink" viewBox="0 0 300 345"><defs><style>.cls-1{fill:url(#linear-gradient);}.cls-2{fill:#414042;}.cls-3{fill:#dae6f5;}.cls-4{fill:#9dc6ea;}.cls-5{fill:#fff;}.cls-6{fill:#231f20;}</style><linearGradient id="linear-gradient" x1="150" y1="379.96" x2="150" y2="185.01" gradientUnits="userSpaceOnUse"><stop offset="0" stop-color="#a7a9ac"/><stop offset="0.45" stop-color="#58595b"/></linearGradient></defs><title>blook_baby-penguin</title><path class="cls-1" d="M263.62,345H36.38A36.38,36.38,0,0,1,0,308.62V259.14H300v49.48A36.38,36.38,0,0,1,263.62,345Z"/><path class="cls-2" d="M230.46,65.22c2.22-4.8,2.06-9.57.95-11.53-2.57-4.52-7.85-9.73-16.9,1.14a17.23,17.23,0,0,1-1.59,1.61l0,0c7.31-7.81,5.8-17.92,3.44-20.59-3.45-3.9-9.69-7.91-16.31,4.6-1.82,3.45-5.31,6.43-9.4,9A180.52,180.52,0,0,0,150,45C16.37,45,0,169.85,0,189.94V262a36.38,36.38,0,0,0,36.38,36.38H263.62A36.38,36.38,0,0,0,300,262V189.94C300,174.92,290.85,101.41,230.46,65.22Z"/><path class="cls-3" d="M236,124.25c-41.5-3.91-66,28.66-70,71.31a118.34,118.34,0,0,0-.51,14.12h-31a118.34,118.34,0,0,0-.51-14.12c-4-42.65-28.55-75.22-70-71.31S4.43,164.74,8.45,207.39c2.71,28.71,14.61,52.84,34.83,64.36h0C66.76,286.8,102.21,292,150,292s83.26-5.22,106.74-20.28c20.21-11.52,32.1-35.65,34.81-64.35C295.57,164.74,277.55,128.16,236,124.25Z"/><circle class="cls-4" cx="242.58" cy="199.56" r="36.45"/><circle class="cls-4" cx="57.42" cy="199.56" r="36.45"/><circle class="cls-5" cx="242.58" cy="209.68" r="36.45"/><circle class="cls-5" cx="57.42" cy="209.68" r="36.45"/><path class="cls-2" d="M88.47,203.7a15.13,15.13,0,0,1-22-20.51,26.53,26.53,0,0,0-3.7-.26A26.26,26.26,0,1,0,88.47,203.7Zm-36.7,22.62A6.25,6.25,0,1,1,58,220.08,6.24,6.24,0,0,1,51.77,226.32Z"/><path class="cls-2" d="M262.85,203.55A15.14,15.14,0,0,1,241,183.2a26.26,26.26,0,1,0,22.45,26A26.11,26.11,0,0,0,262.85,203.55ZM226,226.32a6.25,6.25,0,1,1,6.24-6.24A6.24,6.24,0,0,1,226,226.32Z"/><path class="cls-4" d="M150,211.29c-19.21,0-46.72,21.2-46.72,38.26,0,16.2,18.86,31.76,42.85,33.29h.18c.53,0,1.07.07,1.61.09.69,0,1.38,0,2.08,0s1.39,0,2.08,0c.54,0,1.08-.05,1.61-.09h.18c24-1.53,42.85-17.09,42.85-33.29C196.72,232.49,169.21,211.29,150,211.29Z"/><path class="cls-6" d="M196.72,236.68c0,17.07-20.92,33.43-46.72,33.43s-46.72-16.36-46.72-33.43,27.51-38.26,46.72-38.26S196.72,219.62,196.72,236.68Z"/><path class="cls-2" d="M150,257c-24,0-44.33-10.56-44.33-10.56,6.19,12.27,23.69,23.66,44.33,23.66s38.14-11.39,44.33-23.66C194.33,246.45,174,257,150,257Z"/><path class="cls-2" d="M166.18,219.37c-2.63,5.58-7.24,5.4-16.18,5.4s-13.51.33-16.19-5.4c-3.79-8.1,7.25-16.18,16.19-16.18S170,211.29,166.18,219.37Z"/><path class="cls-6" d="M122.87,72.13a67,67,0,0,0-6.65,5.47A35,35,0,0,0,111,83.69a18.75,18.75,0,0,0-1.65,3.2,10.43,10.43,0,0,0-.67,3.06,12.85,12.85,0,0,0,.11,2.78,11.76,11.76,0,0,0,.72,2.86,15.15,15.15,0,0,0,.7,1.48,15.37,15.37,0,0,0,.86,1.39,7.45,7.45,0,0,0,1.92,1.85,8.76,8.76,0,0,0,5.48,1.18,23.91,23.91,0,0,0,7-1.69c1.18-.46,2.36-1,3.51-1.58.58-.3,1.15-.6,1.71-.92s1.16-.68,1.55-.94l9.39-6.17-2.48,11.09-.2.87-.18,1c-.12.66-.22,1.34-.3,2a36.32,36.32,0,0,0-.26,4,21.08,21.08,0,0,0,1.09,7.34,9.09,9.09,0,0,0,3.63,4.78,9.94,9.94,0,0,0,2.87,1.22,16.21,16.21,0,0,0,3.44.47,9.8,9.8,0,0,0,5.94-1.6,12.91,12.91,0,0,0,4.19-5.16,29.87,29.87,0,0,0,2.41-7.47c.26-1.34.46-2.71.6-4.08.07-.69.12-1.38.16-2.06s.06-1.43.06-2h0l-3.11-12.52,11.07,9.44,1.39,1.19,1.51,1.23c1,.81,2.05,1.55,3.09,2.28a31.19,31.19,0,0,0,6.27,3.43,10.52,10.52,0,0,0,5.38.83,6.28,6.28,0,0,0,2.08-.75,8.8,8.8,0,0,0,2-1.64,8.23,8.23,0,0,0,1.47-2.12,7.93,7.93,0,0,0,.77-2.5,11.78,11.78,0,0,0-.88-5.85,22.74,22.74,0,0,0-3.7-6.11,54,54,0,0,0-6-6,17.84,17.84,0,0,1,4.67.14,20.26,20.26,0,0,1,4.58,1.39,19,19,0,0,1,7.78,6.39A18.36,18.36,0,0,1,204.23,100a17.7,17.7,0,0,1-1,5.82,18.16,18.16,0,0,1-7.33,9.14,16.57,16.57,0,0,1-5.86,2.29,18.06,18.06,0,0,1-6.05,0,23.62,23.62,0,0,1-5.27-1.56,34.74,34.74,0,0,1-8.41-5.25,45.94,45.94,0,0,1-3.46-3.21c-.55-.55-1.08-1.13-1.59-1.72s-1-1.15-1.56-1.9l8-3.08h0c0,1,0,1.75-.06,2.6s-.11,1.65-.19,2.47c-.16,1.64-.39,3.28-.7,4.91a38.93,38.93,0,0,1-3.16,9.79,22,22,0,0,1-7.25,8.7,17.94,17.94,0,0,1-5.51,2.5,20.72,20.72,0,0,1-5.79.65,25,25,0,0,1-5.54-.78A19.23,19.23,0,0,1,138,129a17,17,0,0,1-4.49-4.16,19.6,19.6,0,0,1-2.78-5.18,30.37,30.37,0,0,1-1.63-10.54,46.71,46.71,0,0,1,.34-5c.1-.83.23-1.66.37-2.48l.24-1.25c.1-.44.17-.8.31-1.35l6.91,4.92c-.81.53-1.42.89-2.13,1.29s-1.38.76-2.08,1.11c-1.41.71-2.85,1.36-4.34,1.94a32.57,32.57,0,0,1-9.7,2.27,20,20,0,0,1-5.5-.38,16,16,0,0,1-9.71-6.36c-.57-.82-1-1.46-1.45-2.24a25.08,25.08,0,0,1-1.21-2.37,17.82,17.82,0,0,1-1.5-5.42,14.36,14.36,0,0,1,.63-5.76,17.25,17.25,0,0,1,2.54-4.88,20.47,20.47,0,0,1,3.47-3.7,31.24,31.24,0,0,1,8-4.81A35.47,35.47,0,0,1,122.87,72.13Z"/></svg>