<svg xmlns="http://www.w3.org/2000/svg" viewBox="0 0 300 345"><defs><linearGradient id="A" x1="150" y1="356.11" x2="150" y2="161.16" gradientUnits="userSpaceOnUse"><stop offset="0" stop-color="#995b3c"/><stop offset=".69" stop-color="#51291b"/></linearGradient></defs><path d="M263.62,345H36.38A36.38,36.38,0,0,1,0,308.62V259.14H300v49.48A36.38,36.38,0,0,1,263.62,345Z" fill="url(#A)"/><rect y="45" width="300" height="253.39" rx="36.38" fill="#995b3c"/><path d="M207.36 280.5c16.63-18.68 6.4-129.9-57.42-129.9s-73.7 111.6-57.43 129.9 98.23 18.7 114.85 0z" fill="#c68366"/><path d="M115.8 200.12c0 14.52 19.87 28.14 34.2 28.14s34.2-15.4 34.2-28.14-68.42-14.52-68.42 0z" fill="#414042"/><g fill="#4c281b"><circle cx="242.58" cy="189.94" r="36.45"/><circle cx="57.42" cy="189.94" r="36.45"/></g><g fill="#fff"><circle cx="242.58" cy="200.06" r="36.45"/><circle cx="57.42" cy="200.06" r="36.45"/></g><path d="M89.18 194.77A13.21 13.21 0 0 1 70 176.86a23 23 0 1 0 19.19 17.91zm-32 19.76a5.46 5.46 0 1 1 5.45-5.45 5.45 5.45 0 0 1-5.49 5.45zm198.45-19.9a13.22 13.22 0 0 1-19.07-17.77 24.25 24.25 0 0 0-3.32-.24 23 23 0 1 0 22.39 18zm-32.22 19.9a5.46 5.46 0 1 1 5.46-5.45 5.45 5.45 0 0 1-5.46 5.45z" fill="#414042"/><path d="M131.57 246.1L150 226.93l18.43 19.17" fill="none" stroke="#414042" stroke-linecap="round" stroke-miterlimit="10" stroke-width="12"/><g fill="#c68366"><ellipse cx="76.39" cy="137.25" rx="12.66" ry="18.85" transform="matrix(.233954 -.972248 .972248 .233954 -74.93 179.4)"/><ellipse cx="223.61" cy="137.25" rx="18.85" ry="12.66" transform="matrix(.972248 -.233954 .233954 .972248 -25.91 56.14)"/></g><g fill="#995b3c"><circle cx="62.76" cy="40.08" r="40.08"/><circle cx="237.24" cy="40.08" r="40.08"/></g><path d="M82.38 48.58c0 12.28-37.68 12.28-37.68 0s8.43-22.24 18.84-22.24 18.84 9.95 18.84 22.24zm172.92 0c0 12.28-37.68 12.28-37.68 0s8.44-22.24 18.84-22.24 18.84 9.95 18.84 22.24z" fill="#f6a9cb"/></svg>