<svg id="Layer_1" data-name="Layer 1" xmlns="http://www.w3.org/2000/svg" xmlns:xlink="http://www.w3.org/1999/xlink" viewBox="0 0 300 345"><defs><style>.cls-1{fill:url(#linear-gradient);}.cls-2{fill:#2f2c38;}.cls-3{fill:#fbe2cd;}.cls-4{fill:#e0b0a6;}.cls-5{fill:#c48680;}.cls-6{fill:none;stroke:#513636;stroke-linecap:round;stroke-miterlimit:10;stroke-width:8px;}.cls-7{fill:#513636;}.cls-8{fill:#fff;}.cls-9{fill:#32160f;}</style><linearGradient id="linear-gradient" x1="150" y1="356.11" x2="150" y2="161.16" gradientUnits="userSpaceOnUse"><stop offset="0" stop-color="#2f2c38"/><stop offset="0.39" stop-color="#15141a"/></linearGradient></defs><title>blook_capuchin</title><g id="tropical"><path class="cls-1" d="M263.62,345H36.38A36.38,36.38,0,0,1,0,308.62V259.14H300v49.48A36.38,36.38,0,0,1,263.62,345Z"/><path class="cls-2" d="M300,259.14V81.38A36.38,36.38,0,0,0,263.62,45H238.44a68.56,68.56,0,0,0-2.22-15.21C213.77,33.12,209,40.13,209,40.13A23.12,23.12,0,0,0,206.07,23C191.81,23.61,185,35.91,185,35.91a23.85,23.85,0,0,0-2.93-16.38c-12.68-1.36-20,17.61-20,17.61S158.76,25.65,150,20.44c-8.76,5.21-12.07,16.7-12.07,16.7s-7.32-19-20-17.61A23.89,23.89,0,0,0,115,35.91S108.19,23.61,93.93,23a23.15,23.15,0,0,0-3,17.09s-4.75-7-27.21-10.34A92.53,92.53,0,0,0,64.94,45H36.38A36.38,36.38,0,0,0,0,81.38V259.14Z"/><path class="cls-3" d="M300,166.39H0V292.56c6.65-1.2,8.83-3.28,8.83-3.28A21,21,0,0,0,8.14,305c12.31,2.18,20.57-6.71,21.1-7.29h0a21.58,21.58,0,0,0-.55,15c11,3.65,21.1-11.72,21.1-11.72s.71,10.81,7.46,17.11c8.76-2.92,13.91-12.45,13.91-12.45s2.81,18.2,14.3,19.45a21.68,21.68,0,0,0,5.76-13.93s3.64,12.2,16.16,15.45a20.94,20.94,0,0,0,5.9-14.56s2.85,7.13,22.09,14.41a66.7,66.7,0,0,0,4-9.88,38.85,38.85,0,0,0,8.75,13.32,40.78,40.78,0,0,0,9-9.49q1.14,2.94,2.68,6.05C179.12,319.2,182,312.07,182,312.07a20.92,20.92,0,0,0,5.91,14.56c12.51-3.25,16.15-15.45,16.15-15.45a21.68,21.68,0,0,0,5.76,13.93c11.49-1.25,14.3-19.45,14.3-19.45s5.16,9.53,13.91,12.45c6.75-6.3,7.46-17.11,7.46-17.11s10.14,15.37,21.1,11.72a21.5,21.5,0,0,0-.31-14.43l.33,0c2.11,2.07,9.78,8.63,20.55,6.72a21.33,21.33,0,0,0-.34-14.92l.32-.28c1.4.9,5.13,2.74,12.89,3.4V264.81l-.11-.13c.07-.88.11-1.77.11-2.67Z"/><path class="cls-4" d="M199.1,119.32S190.83,61.8,246.45,61.8s55.38,80.37,10.56,80.37Z"/><path class="cls-5" d="M262.33,112.49c-.05,0-.13-.14-.21-.26l-.26-.35c-.17-.25-.33-.5-.53-.75-.33-.52-.74-1-1.1-1.51a36.26,36.26,0,0,0-2.43-2.81,26.63,26.63,0,0,0-5.85-4.68c-.55-.33-1.15-.58-1.74-.89-.3-.14-.58-.33-.89-.44l-.95-.35c-.63-.22-1.26-.53-1.93-.7l-2-.56c-1.37-.4-2.82-.54-4.3-.87-1.48-.18-3-.31-4.57-.57a40.5,40.5,0,0,1,4.36-1.86c.76-.22,1.54-.39,2.32-.59a12.24,12.24,0,0,1,2.39-.43l2.47-.22a23.52,23.52,0,0,1,2.51.07,15.61,15.61,0,0,1,2.53.31c.83.19,1.69.33,2.52.58a22.34,22.34,0,0,1,9.08,5.27,21.48,21.48,0,0,1,3.34,4.1,23,23,0,0,1,1.25,2.35c.18.4.34.83.5,1.26.08.21.15.43.22.67s.13.44.22.79Z"/><path class="cls-5" d="M238.92,128.75c0-.4,0-.6.06-.88l.09-.76c.07-.49.15-1,.24-1.46a24.91,24.91,0,0,1,.71-2.83,24.45,24.45,0,0,1,2.34-5.39,21.47,21.47,0,0,1,8.56-8.21,28.1,28.1,0,0,1,11-3,49,49,0,0,1,10.87.47l-4.15,3.12h0c.73-7.87-.64-17-5.42-22.66a21.26,21.26,0,0,0-9.54-6.24,35.86,35.86,0,0,0-11.64-1.67A27.16,27.16,0,0,0,221,89.2a37.2,37.2,0,0,0-6.19,11.13,63.65,63.65,0,0,0-3.07,12.93,51.86,51.86,0,0,1,.57-13.6,37.73,37.73,0,0,1,4.91-13.15,31.61,31.61,0,0,1,10.3-10.31,33.2,33.2,0,0,1,14.11-4.66,31.55,31.55,0,0,1,14.72,2.28A35.89,35.89,0,0,1,263,77.37a27.63,27.63,0,0,1,5.77,5.13,31.07,31.07,0,0,1,6.29,13.66,47.72,47.72,0,0,1,.92,7.21c.07,1.2.09,2.4.07,3.61a35.53,35.53,0,0,1-.22,3.73h0l-.47,3.7-3.68-.58a40.06,40.06,0,0,0-9.22-.55,21.17,21.17,0,0,0-8.28,2.16,14.39,14.39,0,0,0-5.82,5.52,16.06,16.06,0,0,0-1.63,3.83,16.58,16.58,0,0,0-.44,2.07c-.06.35-.09.7-.12,1l0,.49a2.28,2.28,0,0,0,0,.38Z"/><path class="cls-4" d="M100.9,119.32S109.17,61.8,53.55,61.8-1.83,142.17,43,142.17Z"/><path class="cls-5" d="M30.76,110.05c.09-.35.15-.56.22-.79s.14-.46.22-.67c.16-.43.32-.86.5-1.26A23,23,0,0,1,33,105a21.48,21.48,0,0,1,3.34-4.1,22.34,22.34,0,0,1,9.08-5.27c.83-.25,1.69-.39,2.52-.58a15.61,15.61,0,0,1,2.53-.31,23.52,23.52,0,0,1,2.51-.07l2.47.22a12.24,12.24,0,0,1,2.39.43c.78.2,1.56.37,2.32.59a40.5,40.5,0,0,1,4.36,1.86c-1.58.26-3.09.39-4.57.57-1.48.33-2.93.47-4.3.87l-2,.56c-.67.17-1.3.48-1.93.7l-1,.35c-.31.11-.59.3-.89.44-.59.31-1.19.56-1.74.89a26.63,26.63,0,0,0-5.85,4.68,36.26,36.26,0,0,0-2.43,2.81c-.36.51-.77,1-1.1,1.51-.2.25-.36.5-.53.75l-.26.35c-.08.12-.16.25-.21.26Z"/><path class="cls-5" d="M53.83,128.78a2.28,2.28,0,0,0,0-.38l0-.49c0-.34-.06-.69-.12-1a16.58,16.58,0,0,0-.44-2.07A16.06,16.06,0,0,0,51.61,121a14.39,14.39,0,0,0-5.82-5.52,21.17,21.17,0,0,0-8.28-2.16,40.06,40.06,0,0,0-9.22.55l-3.68.58-.47-3.7h0a35.53,35.53,0,0,1-.22-3.73c0-1.21,0-2.41.07-3.61a47.72,47.72,0,0,1,.92-7.21A31.07,31.07,0,0,1,31.2,82.5,27.63,27.63,0,0,1,37,77.37a35.89,35.89,0,0,1,6.67-3.55,31.55,31.55,0,0,1,14.72-2.28A33.2,33.2,0,0,1,72.47,76.2a31.61,31.61,0,0,1,10.3,10.31,37.73,37.73,0,0,1,4.91,13.15,51.86,51.86,0,0,1,.57,13.6,63.65,63.65,0,0,0-3.07-12.93A37.2,37.2,0,0,0,79,89.2a27.16,27.16,0,0,0-21.07-10A35.86,35.86,0,0,0,46.28,80.9a21.26,21.26,0,0,0-9.54,6.24c-4.78,5.7-6.15,14.79-5.42,22.66h0l-4.15-3.12A49,49,0,0,1,38,106.21a28.1,28.1,0,0,1,11,3,21.47,21.47,0,0,1,8.56,8.21A24.45,24.45,0,0,1,60,122.82a24.91,24.91,0,0,1,.71,2.83c.09.49.17,1,.24,1.46l.09.76c0,.28,0,.48.06.88Z"/><path class="cls-3" d="M270.9,145.06a23.14,23.14,0,0,0,3.7-16.94c-13.44-4.84-24.36,4-24.36,4a23.89,23.89,0,0,0,3.43-16.29c-11.23-6-25.15,8.8-25.15,8.8s1.25-11.89-4.91-20c-10.07,1.53-17.46,10.94-17.46,10.94s.34-20.33-11.92-23.84a23.9,23.9,0,0,0-8.87,14.08s-1.68-14-14.68-19.84A23.5,23.5,0,0,0,164,93.6c-1-4-14-16.78-14-16.78S137,89.57,136,93.6A23.5,23.5,0,0,0,129.32,86c-13,5.88-14.68,19.84-14.68,19.84a23.9,23.9,0,0,0-8.87-14.08c-12.26,3.51-11.92,23.84-11.92,23.84s-7.39-9.41-17.46-10.94c-6.16,8.12-4.91,20-4.91,20s-13.91-14.82-25.15-8.8a23.89,23.89,0,0,0,3.43,16.29s-10.92-8.85-24.36-4a23.14,23.14,0,0,0,3.7,16.94s-7-4.71-29.1.65c7.74,56.44,63.53,43.78,63.53,43.78H236.47s55.79,12.66,63.53-43.78C277.94,140.35,270.9,145.06,270.9,145.06Z"/><path class="cls-4" d="M236.26,159.34c-12.19-1.84-23.85-.69-33.7,3.65-12.23,2.13-15,6.07-15,6.07A14.94,14.94,0,0,0,185.82,158c-9.21.26-13.68,8.15-13.68,8.15a15.39,15.39,0,0,0-1.78-10.59c-8.17-1-13,11.22-13,11.22s-2.06-7.44-7.67-10.86c-5.69,3.3-7.91,10.69-7.91,10.69s-4.58-12.29-12.77-11.51a15.39,15.39,0,0,0-2,10.55s-4.3-8-13.5-8.45a14.93,14.93,0,0,0-2,11s-3-4.56-17.48-6.86v.28c-9.07-3.2-19.44-3.91-30.24-2.29-29.48,4.44-45.82,24.21-45.82,58.13,0,34.47,23.2,58.6,62.51,52.68,1.65-.25,3.22-.55,4.76-.88v.45a24.33,24.33,0,0,1,20.53,14,35.63,35.63,0,0,0-.59,5.79c0,23.81,11.82,43.12,44.87,43.12s44.87-19.31,44.87-43.12a35.63,35.63,0,0,0-.59-5.79,24.33,24.33,0,0,1,20.53-14v-.45c1.54.33,3.11.63,4.76.88,39.31,5.92,62.51-18.21,62.51-52.68C282.08,183.55,265.74,163.78,236.26,159.34Z"/><path class="cls-6" d="M126.2,313.9c17,0,23.8-8.46,23.8-8.46s6.44,8.46,23.8,8.46"/><path class="cls-7" d="M168.16,287c3.76,3.2,3.28,6.79.84,9.65s-5.6,4.18-9.66.73Z"/><path class="cls-7" d="M132,287.12c-3.77,3.2-3.32,6.74-.93,9.56s5.52,4.07,9.58.63Z"/><circle class="cls-5" cx="71.5" cy="208.52" r="36.45"/><circle class="cls-8" cx="71.5" cy="218.64" r="36.45"/><path class="cls-9" d="M98,212.47a15.64,15.64,0,0,1-22.72-21.2A28.27,28.27,0,0,0,71.5,191,27.15,27.15,0,1,0,98,212.47ZM60.1,235.86a6.46,6.46,0,1,1,6.46-6.45A6.45,6.45,0,0,1,60.1,235.86Z"/><circle class="cls-5" cx="228.5" cy="208.52" r="36.45"/><circle class="cls-8" cx="228.5" cy="218.64" r="36.45"/><path class="cls-9" d="M255.79,212.32a15.65,15.65,0,0,1-22.58-21,26.73,26.73,0,0,0-3.93-.29,27.18,27.18,0,1,0,26.51,21.32Zm-38.14,23.54a6.46,6.46,0,1,1,6.46-6.45A6.45,6.45,0,0,1,217.65,235.86Z"/></g></svg>