<svg xmlns="http://www.w3.org/2000/svg" viewBox="0 0 300 345"><defs><linearGradient id="A" x1="150" y1="356.11" x2="150" y2="161.16" gradientUnits="userSpaceOnUse"><stop offset="0" stop-color="#f49849"/><stop offset=".69" stop-color="#d25927"/></linearGradient></defs><path d="M263.62,345H36.38A36.38,36.38,0,0,1,0,308.62V259.14H300v49.48A36.38,36.38,0,0,1,263.62,345Z" fill="url(#A)"/><path d="M150 58.62C57.42 58.62 0 112.16 0 195v67a36.38 36.38 0 0 0 36.38 36.38h227.24A36.38 36.38 0 0 0 300 262v-67c0-82.84-57.42-136.38-150-136.38z" fill="#f49849"/><path d="M94.5 298.4h111.27s25.92-98.33-55.78-98.33-55.78 98.33-55.78 98.33z" fill="#fcc295"/><path d="M94.22 298.4h111.56V345H94.22z" fill="#f7aa74"/><path d="M174 266.93c-18.1-7.93-24-27.67-24-27.67s-5.85 19.74-24 27.67" fill="none" stroke="#414042" stroke-linecap="round" stroke-miterlimit="10" stroke-width="10"/><path d="M127.83 225.93c0 9.4 12.87 18.24 22.17 18.24s22.17-10 22.17-18.24-44.34-9.4-44.34 0z" fill="#414042"/><path d="M250.27 271.63l27.04 9.28m-27.2-23.9l30.38 1.28M49.73 271.63L22.7 280.9M49.88 257l-30.38 1.28" fill="none" stroke="#414042" stroke-linecap="round" stroke-miterlimit="10" stroke-width="7"/><path d="M276 208.67l-67.66 19.05s-32.3-54.33 17.4-68.3 50.44 49.23 50.44 49.23zm-252 0l67.66 19.05s32.3-54.33-17.4-68.3-50.44 49.23-50.44 49.23z" fill="#fcc295"/><path d="M93.87 208.8a36.45 36.45 0 0 1-72.9 0c0-20.14 16.32-30.4 36.45-30.4s36.45 10.26 36.45 30.4z" fill="#414042"/><path d="M93.87 216.56c0 18.83-16.32 34.1-36.45 34.1S21 235.4 21 216.56s16.32-28 36.45-28 36.42 9.17 36.42 28z" fill="#fff"/><path d="M73.44 216.23a13.18 13.18 0 0 1-10.95-20.52c-11.33.2-15.43 10.3-15.43 22.7s4.37 22.72 15.77 22.72S78.6 231 78.6 218.42c0-1.1 0-2.15-.1-3.2a13.22 13.22 0 0 1-5.07 1.01zm-16 17.16a5.46 5.46 0 1 1 5.45-5.46 5.46 5.46 0 0 1-5.47 5.46zM279 208.8a36.45 36.45 0 1 1-72.9 0c0-20.14 16.32-30.4 36.45-30.4S279 188.66 279 208.8z" fill="#414042"/><path d="M279 216.56c0 18.83-16.32 34.1-36.45 34.1s-36.45-15.27-36.45-34.1 16.32-28 36.45-28 36.45 9.17 36.45 28z" fill="#fff"/><path d="M248.53 216.23a13.17 13.17 0 0 1-10.94-20.52h-.42c-11.6 0-15.77 10.17-15.77 22.72s4.37 22.72 15.77 22.72 15.77-10.18 15.77-22.72c0-1 0-2-.08-2.93a13.21 13.21 0 0 1-4.33.73zm-16 17.16a5.46 5.46 0 1 1 5.46-5.46 5.46 5.46 0 0 1-5.48 5.46z" fill="#414042"/><path d="M200.87 93.86c19.8-37.9 79.38-55 79.38-55h-.06s20 58.7.18 96.6c0 0-14.23 2.23-43.7-13.17s-35.8-28.43-35.8-28.43zm-101.74 0c-19.8-37.9-79.38-55-79.38-55h.06s-20 58.7-.18 96.6c0 0 14.23 2.23 43.7-13.17s35.8-28.43 35.8-28.43z" fill="#f49849"/><path d="M69.68 92.2c-9.54-18.26-38.25-26.5-38.25-26.5s-9.6 28.3-.05 46.52c0 0 6.86 1.08 21.06-6.34S69.68 92.2 69.68 92.2zm160.64 0c9.54-18.26 38.25-26.5 38.25-26.5s9.62 28.28.08 46.54c0 0-6.86 1.08-21.06-6.34s-17.27-13.7-17.27-13.7z" fill="#dd7399"/><path d="M119.77 77.46l-18.24 40.42s30.57 4.35 49.85-19.22l-1.3 31.28s39.43-10.75 39.43-45" fill="#f49849"/><g fill="#d25927"><path d="M119.77 77.46a126.86 126.86 0 0 1-3.24 10.7l-3.8 10.45c-1.32 3.45-2.73 6.88-4.23 10.26s-3.06 6.73-4.85 10l-1.8-3.27a50.42 50.42 0 0 0 6.57.28 65 65 0 0 0 6.69-.47 60 60 0 0 0 13-3.1 55.82 55.82 0 0 0 6.09-2.66 48.82 48.82 0 0 0 15.37-12.44l4.42-5.37-.3 6.92-1.3 31.24-2.95-2.36c2.3-.82 4.74-1.9 7-3s4.6-2.3 6.82-3.62a62.86 62.86 0 0 0 12.18-9.18 43.26 43.26 0 0 0 8.85-12.16A67.88 67.88 0 0 0 189.5 85a27.71 27.71 0 0 1 .63 8.24 18.3 18.3 0 0 1-.23 2.09c-.1.7-.2 1.4-.33 2.08a31.93 31.93 0 0 1-1.18 4.06 32.75 32.75 0 0 1-1.66 3.91c-.68 1.24-1.35 2.5-2.14 3.67a42.69 42.69 0 0 1-5.22 6.66 56.62 56.62 0 0 1-13.23 10.24 65.41 65.41 0 0 1-7.48 3.65 53.49 53.49 0 0 1-8 2.61l-3.08.87L149 98.56l4.15 1.58a54.12 54.12 0 0 1-10.59 9.86 55.44 55.44 0 0 1-6.21 3.76 61 61 0 0 1-6.64 2.91 64.66 64.66 0 0 1-14 3.33 66.46 66.46 0 0 1-7.18.51h-3.62c-1.2 0-2.37-.12-3.7-.28L98.3 120l1.1-3c1.25-3.5 2.72-6.88 4.27-10.24s3.2-6.67 4.9-10S112 90.18 113.9 87s3.76-6.44 5.87-9.54z"/><ellipse cx="86.7" cy="165.1" rx="12.66" ry="18.85" transform="matrix(.233954 -.972248 .972248 .233954 -94.1 210.76)"/><ellipse cx="213.3" cy="165.15" rx="18.85" ry="12.66" transform="matrix(.972248 -.233954 .233954 .972248 -32.73 54.5)"/></g></svg>