<svg id="Layer_1" data-name="Layer 1" xmlns="http://www.w3.org/2000/svg" xmlns:xlink="http://www.w3.org/1999/xlink" viewBox="0 0 300 345"><defs><style>.cls-1{fill:url(#linear-gradient);}.cls-2{fill:#dae6f5;}.cls-12,.cls-3{fill:#b6cbe9;}.cls-3{fill-opacity:0.5;}.cls-4{fill:#7ca1d5;}.cls-5{fill:url(#radial-gradient);}.cls-6{fill:url(#radial-gradient-2);}.cls-7{fill:#fff;}.cls-8{fill:#414042;}.cls-9{fill:#fff0a4;}.cls-10{fill:#fcd765;}.cls-11{fill:#58595b;}</style><linearGradient id="linear-gradient" x1="150" y1="356.11" x2="150" y2="161.16" gradientUnits="userSpaceOnUse"><stop offset="0" stop-color="#dae6f5"/><stop offset="0.69" stop-color="#73a0d5"/></linearGradient><radialGradient id="radial-gradient" cx="255.32" cy="232.31" r="41.85" gradientUnits="userSpaceOnUse"><stop offset="0" stop-color="#f6a9cb" stop-opacity="0.5"/><stop offset="1" stop-color="#dae6f5" stop-opacity="0"/></radialGradient><radialGradient id="radial-gradient-2" cx="44.68" cy="232.31" r="41.85" xlink:href="#radial-gradient"/></defs><title>blook_cockatoo</title><g id="tropical"><path class="cls-1" d="M263.62,345H36.38A36.38,36.38,0,0,1,0,308.62V259.14H300v49.48A36.38,36.38,0,0,1,263.62,345Z"/><path class="cls-2" d="M150,45C16.37,45,0,169.85,0,189.94V262a36.38,36.38,0,0,0,36.38,36.38H263.62A36.38,36.38,0,0,0,300,262V189.94C300,169.85,283.63,45,150,45Z"/><path class="cls-3" d="M117.53,171.78l3.55.72,80-120.29C186.33,47.65,169.41,45,150,45c-5.67,0-11.12.24-16.38.67C118.31,68.3,92.87,78.54,91.21,110.54,89.18,150,117.53,171.78,117.53,171.78Z"/><path class="cls-3" d="M238.2,70.26a196.34,196.34,0,0,0-24.73,1.18L150,157.49a211.89,211.89,0,0,1,36.11-13.74c18.49-5.06,79.77-12.68,83.77-41.7A131.74,131.74,0,0,0,238.2,70.26Z"/><path class="cls-2" d="M32.66,273a34.58,34.58,0,0,0-4.55,32.19s19-4.26,26.16-16.44c0,0-7.87,9.55.76,27.28,0,0,21.9-4.81,22.34-23.33"/><path class="cls-4" d="M32.66,273c-.47,1.4-1,2.69-1.45,4a37,37,0,0,0-1.07,4,35.19,35.19,0,0,0-.89,7.9c0,.66,0,1.3,0,1.94l.14,1.93c.09.64.18,1.27.24,1.9s.21,1.26.29,1.89c.2,1.25.43,2.48.66,3.72l.35,1.83.17.91.08.43a2,2,0,0,1,0,.36l-3.88-2h0c1-.48,2.24-.94,3.37-1.39l3.47-1.33c2.3-.88,4.6-1.76,6.88-2.71s4.48-2,6.7-3.25a50.94,50.94,0,0,0,6.49-4.43h0a20.55,20.55,0,0,0-1.05,6.9,28.11,28.11,0,0,0,.8,6.52l.4,1.56c.16.52.34,1,.51,1.54.27,1,.74,2,1.06,3s.78,2,1.09,3.06a21.6,21.6,0,0,1,1,3.16l-3.8-1.84h0c.45-.23,1.13-.5,1.71-.76l1.81-.78c1.2-.52,2.4-1,3.58-1.59a44.36,44.36,0,0,0,6.78-3.78,22.72,22.72,0,0,0,5.58-5.45,24.7,24.7,0,0,0,3.61-7.63,18.18,18.18,0,0,1-.26,9.19,22.51,22.51,0,0,1-4.72,8.43,27.9,27.9,0,0,1-7.51,6,26.8,26.8,0,0,1-4.35,1.93c-.75.26-1.52.47-2.29.66a18.43,18.43,0,0,1-2.47.41h0l-2.08.73L52,317.55a27,27,0,0,1-1.87-3.37,31.35,31.35,0,0,1-1.24-3.69,25.45,25.45,0,0,1-.64-3.89c0-.66-.1-1.32-.12-2l0-2A24.45,24.45,0,0,1,49.82,295a15.2,15.2,0,0,1,4.45-6.17h0a19.68,19.68,0,0,1-3.64,7.64,32.54,32.54,0,0,1-6.19,5.88,36.58,36.58,0,0,1-7.38,4.1,32,32,0,0,1-4,1.36,23.85,23.85,0,0,1-4.23.79h0l-2.33.91L25,306.57l-.34-.63c-.1-.19-.19-.38-.27-.56a9.77,9.77,0,0,1-.46-1.12,20.28,20.28,0,0,1-.72-2.25,25,25,0,0,1-.69-4.63,30.4,30.4,0,0,1,1-9.22l.29-1.11.38-1.09c.26-.72.46-1.45.78-2.15a31.08,31.08,0,0,1,2.07-4,29.36,29.36,0,0,1,2.58-3.63,15.12,15.12,0,0,1,1.49-1.61C31.6,274,32.14,273.53,32.66,273Z"/><path class="cls-2" d="M224.76,296.71a34.56,34.56,0,0,0,24.16,21.75s7.07-18.14,1-30.88c0,0,3.51,11.86,23,14.6,0,0,8.25-20.85-6.87-31.55"/><path class="cls-4" d="M224.76,296.71c.9,1.17,1.65,2.36,2.53,3.45a37.52,37.52,0,0,0,2.72,3.12,34.91,34.91,0,0,0,6.06,5.15c.56.35,1.05.76,1.62,1.07l1.68,1c.58.27,1.15.56,1.71.86s1.16.52,1.72.81c1.16.53,2.31,1,3.46,1.53l1.72.74.84.36.41.17a1.49,1.49,0,0,1,.32.17l-3.81,2.11h0c.17-1.1.47-2.38.73-3.57l.83-3.61c.56-2.41,1.11-4.81,1.6-7.23s.81-4.86,1-7.37a53.09,53.09,0,0,0,0-7.86h0a20.57,20.57,0,0,0,5.13,4.73,27.78,27.78,0,0,0,5.85,3l1.53.54c.51.16,1,.3,1.56.44,1,.35,2.09.51,3.11.82s2.11.48,3.15.8a21.33,21.33,0,0,1,3.19.93l-3.65,2.12h0c.06-.51.21-1.22.32-1.84l.37-1.94c.24-1.29.47-2.58.68-3.87a45.74,45.74,0,0,0,.65-7.73,22.7,22.7,0,0,0-1.41-7.67,24.69,24.69,0,0,0-4.31-7.25,18.1,18.1,0,0,1,7.48,5.35,22.46,22.46,0,0,1,4.35,8.62,27.82,27.82,0,0,1,.82,9.59,28.43,28.43,0,0,1-.83,4.69c-.21.77-.46,1.52-.74,2.27a18.62,18.62,0,0,1-1,2.28h0l-.55,2.13h-3.09a27.37,27.37,0,0,1-3.84-.32,32.71,32.71,0,0,1-3.76-1,25.12,25.12,0,0,1-3.58-1.64c-.57-.34-1.15-.66-1.7-1L258,300.4a23.84,23.84,0,0,1-5.43-5.69,15,15,0,0,1-2.63-7.13h0a19.61,19.61,0,0,1,4.29,7.29,32.16,32.16,0,0,1,1.43,8.42,37.41,37.41,0,0,1-.72,8.4,33.28,33.28,0,0,1-1.09,4.06,24.33,24.33,0,0,1-1.71,3.95h0l-.54,2.44-3.27-.33-.71-.07a5.77,5.77,0,0,1-.62-.09,9.13,9.13,0,0,1-1.18-.24,17.43,17.43,0,0,1-2.27-.67,25.07,25.07,0,0,1-4.22-2,30.68,30.68,0,0,1-7.09-6l-.76-.87-.7-.91c-.45-.63-1-1.2-1.35-1.85a32,32,0,0,1-2.18-4,29.47,29.47,0,0,1-1.56-4.16,15.85,15.85,0,0,1-.51-2.14C225,298.14,224.88,297.42,224.76,296.71Z"/><path class="cls-2" d="M23,232.71A34.56,34.56,0,0,0,7.82,261.43s19.31,2.45,30.19-6.56c0,0-10.65,6.3-8.56,25.9,0,0,22.23,2.93,28.94-14.33"/><path class="cls-4" d="M23,232.71c-.91,1.15-1.89,2.17-2.73,3.29a39.94,39.94,0,0,0-2.37,3.4,35.51,35.51,0,0,0-3.52,7.13c-.2.62-.47,1.2-.64,1.83l-.53,1.86c-.13.63-.26,1.26-.41,1.87s-.24,1.26-.38,1.87c-.23,1.25-.44,2.49-.64,3.72l-.3,1.85-.14.91-.08.43a1.64,1.64,0,0,1-.08.36l-3-3.18h0c1.11-.11,2.42-.13,3.64-.17l3.71-.07c2.47,0,4.93-.09,7.4-.21s4.9-.39,7.4-.77a52.07,52.07,0,0,0,7.61-2h0A20.84,20.84,0,0,0,34.67,261a27.94,27.94,0,0,0-1.46,6.4L33.06,269c0,.54,0,1.08-.05,1.62-.09,1.06,0,2.16,0,3.22s.05,2.16,0,3.24a21.78,21.78,0,0,1-.12,3.32l-3-3h0c.51-.06,1.24-.09,1.87-.13l2-.12c1.32-.08,2.62-.17,3.92-.28a43.56,43.56,0,0,0,7.66-1.25,22.83,22.83,0,0,0,7.1-3.22,25,25,0,0,0,6-5.95A18.15,18.15,0,0,1,55,275a22.34,22.34,0,0,1-7.3,6.31,27.52,27.52,0,0,1-9.11,3.12,27,27,0,0,1-4.75.34c-.79,0-1.58-.08-2.38-.16a21.21,21.21,0,0,1-2.46-.45h0l-2.21,0-.74-3a27.23,27.23,0,0,1-.61-3.81,29.73,29.73,0,0,1,.09-3.89,25.72,25.72,0,0,1,.72-3.88c.19-.63.36-1.27.56-1.89l.72-1.86a24.17,24.17,0,0,1,4.2-6.65A15.08,15.08,0,0,1,38,254.87h0a19.65,19.65,0,0,1-6,5.94,32.06,32.06,0,0,1-7.82,3.43,36.47,36.47,0,0,1-8.32,1.34,31,31,0,0,1-4.2-.07,23.67,23.67,0,0,1-4.25-.7h0l-2.5.07-.48-3.25-.1-.7c0-.22,0-.42-.06-.62a10,10,0,0,1-.06-1.21,20.51,20.51,0,0,1,.1-2.36,24.56,24.56,0,0,1,.92-4.59,30.69,30.69,0,0,1,4.07-8.33l.66-.95.72-.9c.49-.58.93-1.2,1.47-1.75a31,31,0,0,1,3.31-3.08,29.1,29.1,0,0,1,3.66-2.53,15.1,15.1,0,0,1,2-1C21.71,233.28,22.39,233,23,232.71Z"/><path class="cls-2" d="M277,232.71a34.56,34.56,0,0,1,15.22,28.72s-19.31,2.45-30.19-6.56c0,0,10.65,6.3,8.56,25.9,0,0-22.23,2.93-28.94-14.33"/><path class="cls-4" d="M277,232.71c.65.29,1.33.57,2,.89a15.1,15.1,0,0,1,2,1,29.1,29.1,0,0,1,3.66,2.53,31,31,0,0,1,3.31,3.08c.54.55,1,1.17,1.47,1.75l.72.9.66.95a30.69,30.69,0,0,1,4.07,8.33,24.56,24.56,0,0,1,.92,4.59,18.48,18.48,0,0,1,.1,2.36,10,10,0,0,1-.06,1.21c0,.2,0,.4-.06.62l-.1.7-.48,3.25-2.5-.07h0a23.67,23.67,0,0,1-4.25.7,31,31,0,0,1-4.2.07,36.47,36.47,0,0,1-8.32-1.34,32.06,32.06,0,0,1-7.82-3.43,19.65,19.65,0,0,1-6-5.94h0a15.08,15.08,0,0,1,6.28,4.29,24.17,24.17,0,0,1,4.2,6.65l.72,1.86c.2.62.37,1.26.56,1.89a25.72,25.72,0,0,1,.72,3.88,29.73,29.73,0,0,1,.09,3.89,27.23,27.23,0,0,1-.61,3.81l-.74,3-2.21,0h0a21.59,21.59,0,0,1-2.46.45c-.8.08-1.59.14-2.38.16a27,27,0,0,1-4.75-.34,27.52,27.52,0,0,1-9.11-3.12A22.34,22.34,0,0,1,245,275a18.15,18.15,0,0,1-3.38-8.56,25,25,0,0,0,6,5.95,22.83,22.83,0,0,0,7.1,3.22,43.56,43.56,0,0,0,7.66,1.25c1.3.11,2.6.2,3.92.28l2,.12c.63,0,1.36.07,1.87.13h0l-2.95,3a21.78,21.78,0,0,1-.12-3.32c-.06-1.08,0-2.17,0-3.24s.05-2.16,0-3.22c0-.54,0-1.08-.05-1.62l-.15-1.61a27.94,27.94,0,0,0-1.46-6.4,20.84,20.84,0,0,0-3.34-6.13h0a52.07,52.07,0,0,0,7.61,2c2.5.38,4.94.62,7.4.77s4.93.17,7.4.21l3.71.07c1.22,0,2.53.06,3.64.17h0l-3,3.18a1.64,1.64,0,0,1-.08-.36l-.08-.43-.14-.91-.3-1.85c-.2-1.23-.41-2.47-.64-3.72-.14-.61-.24-1.24-.38-1.87s-.28-1.24-.41-1.87l-.53-1.86c-.17-.63-.44-1.21-.64-1.83a35.51,35.51,0,0,0-3.52-7.13,39.94,39.94,0,0,0-2.37-3.4C278.85,234.88,277.87,233.86,277,232.71Z"/><circle class="cls-5" cx="255.32" cy="232.31" r="41.85"/><circle class="cls-6" cx="44.68" cy="232.31" r="41.85"/><circle class="cls-4" cx="242.58" cy="189.94" r="36.45"/><circle class="cls-7" cx="242.58" cy="200.06" r="36.45"/><circle class="cls-8" cx="242.79" cy="199.3" r="31.4"/><circle class="cls-7" cx="267.28" cy="189.94" r="9.7"/><circle class="cls-4" cx="57.42" cy="189.94" r="36.45"/><circle class="cls-7" cx="57.42" cy="200.06" r="36.45"/><circle class="cls-8" cx="57.42" cy="199.3" r="31.4"/><circle class="cls-7" cx="82.25" cy="189.94" r="9.7"/><path class="cls-9" d="M241.61,90.6,260,88.44A102.25,102.25,0,0,0,265.82,80l-10.5-2.35,14.36-4.57a75,75,0,0,0,6.7-18.24c-64.9,51.34-81.74,23.88-118.19,46-14.23,8.62-25.55,21.11-32,33.44-8.81,16.7,12.64,32.91,26.43,20,10.08-9.42,25.94-20.07,50.22-27.38,22.87-6.89,39-18.26,50.19-30.12Z"/><path class="cls-10" d="M158.19,100.78c-1.38.84-2.73,1.73-4.06,2.64A87.31,87.31,0,0,0,137,132.88c-3.87,11.75,5,21.12,14.86,22,.24-.2.49-.4.72-.62a109,109,0,0,1,22.61-16c8.4-8.44,20-17.37,36.15-25.36a118.5,118.5,0,0,0,31-21.83l-.73-.39,1.29-.15a103.83,103.83,0,0,0,18-24.22C208.5,101.87,191.56,80.57,158.19,100.78Z"/><path class="cls-9" d="M239.17,68l15.35-9.16c.59-1.35,1.13-2.68,1.64-4H246l12.34-6.16a75.64,75.64,0,0,0,3.58-19.14C206.45,91,185.26,66.72,153,94.56c-12.59,10.87-21.66,25.08-26,38.32-5.9,17.94,18,30.34,29.41,15.32,8.36-11,22.22-24.12,44.93-35.38,26.09-12.93,41.17-30.77,49.75-46.89Z"/><path class="cls-10" d="M234.37,55.68C198.25,83.79,179.3,71.86,153,94.56a90.48,90.48,0,0,0-13.55,14.68c-6.64,12.78-10.12,26.53-10.36,38.45,6,8.26,19.52,10.72,27.3.51a109.81,109.81,0,0,1,21.51-21,153.25,153.25,0,0,1,21.46-22.27C218,88.91,228.6,71.54,234.37,55.68Z"/><path class="cls-9" d="M217.13,51.52l13-8.65a105.48,105.48,0,0,0,2.41-16.63l-7.44,4,7.58-13.16a66.84,66.84,0,0,0-1.37-12c-40.38,76.39-68,57.24-93.55,93.68-11.68,16.68-17.3,36.76-16.66,52.72.71,18,25.86,21.72,32.16,4.82,5.13-13.77,15.83-32.37,38.08-51.42C212.32,87,223.06,67.27,228.29,49.94Z"/><path class="cls-10" d="M137.79,98.76c-11.68,16.68-17.3,36.76-16.66,52.72.71,18,25.86,21.72,32.16,4.82.21-.56.43-1.13.66-1.7-1.68-13.48.74-35.6,24.93-58.85,20.73-19.92,29.47-41.21,32.62-58.86C181.47,76.51,158.9,68.62,137.79,98.76Z"/><path class="cls-4" d="M136.3,179.62c7.59-3,11.56-11.37,9.67-19.3-2.92-12.25-4.1-37.65,23.91-64.57,40.61-39,35.23-83.32,31.86-95.12-33.5,73.33-60.3,57-82.11,92.31-17.47,28.3-7.54,63.82-3.21,76.11a17.37,17.37,0,0,0,9.23,10.25A13.45,13.45,0,0,0,136.3,179.62Z"/><path class="cls-2" d="M121.08,185.87s-18.44-57.06,5-87.4c17.66-22.87,44.72-22.64,69-66.34,0,0-6.12,35-33.29,64.07-24,25.7-25.77,38.37-11.73,78.57Z"/><path class="cls-11" d="M184.43,251.26A15.1,15.1,0,0,0,183,235.17l-25.57-30.83a39,39,0,1,0-8.91,77.27l1.68,0a31.1,31.1,0,0,0,27.12-16.87Z"/><path class="cls-8" d="M183,235.17l-25.57-30.83a38.86,38.86,0,0,0-7.44-.72c-66.15,0-58.68,66.47-58.68,66.47s13.29-15.24,24.45-10.95c31.68,12.18,54.41-.18,65.52-9.1a10.59,10.59,0,0,0,1.79-14.78Z"/><path class="cls-2" d="M87.65,67.09S73.32,66.1,65,40.69c0,0-10.25,14.26-11.18,30.53A54.83,54.83,0,0,1,30.22,57.36s-6.54,28.79,12.3,44.84"/><path class="cls-12" d="M87.65,67.09a11.12,11.12,0,0,1-5,0,17.61,17.61,0,0,1-2.44-.66c-.79-.28-1.55-.64-2.33-1a25.85,25.85,0,0,1-7.81-6.29,37.76,37.76,0,0,1-5.4-8.24c-.65-1.48-1.27-3-1.81-4.5s-.88-3.08-1.18-4.65l6.17,1h0c-.65.94-1.39,2.1-2,3.2S64.56,48.2,64,49.36a72.28,72.28,0,0,0-3.19,7.14,56.16,56.16,0,0,0-2.27,7.39,47.57,47.57,0,0,0-1.13,7.53L57,75.82l-4.14-1.25a64.63,64.63,0,0,1-13.44-5.75,54.53,54.53,0,0,1-11.69-9l5.92-1.68h0l-.2,2.74c-.06,1-.13,1.9-.16,2.85-.09,1.91-.15,3.81-.14,5.71a73.54,73.54,0,0,0,.79,11.31,52.84,52.84,0,0,0,1.14,5.54,44.61,44.61,0,0,0,1.76,5.43,50.1,50.1,0,0,0,5.69,10.49A27.34,27.34,0,0,1,32.83,94a36.31,36.31,0,0,1-5.78-11.67,46.74,46.74,0,0,1-1.92-12.83A47.9,47.9,0,0,1,25.47,63c.15-1.07.29-2.14.52-3.2a29.34,29.34,0,0,1,.82-3.26h0l1.4-6.3,4.52,4.63a51.42,51.42,0,0,0,22.14,13L50.37,71a53.66,53.66,0,0,1,1.3-8.71A62.8,62.8,0,0,1,54.22,54a76.07,76.07,0,0,1,3.52-7.87c.66-1.27,1.35-2.52,2.08-3.76s1.46-2.42,2.37-3.73h0l2.73-5.15,3.45,6.11a41.36,41.36,0,0,1,1.9,3.91c.63,1.28,1.26,2.54,1.82,3.85,1.3,2.48,2.5,5,4,7.32A48.28,48.28,0,0,0,81,61.36l1.44,1.54c.51.47,1,1,1.57,1.48A22,22,0,0,0,87.65,67.09Z"/></g></svg>