<svg id="Layer_1" data-name="Layer 1" xmlns="http://www.w3.org/2000/svg" xmlns:xlink="http://www.w3.org/1999/xlink" viewBox="0 0 300 345"><defs><style>.cls-1{fill:url(#linear-gradient);}.cls-2{fill:url(#linear-gradient-2);}.cls-3{fill:#74cbcb;}.cls-4{fill:#00c0f3;}.cls-5{fill:#fff;}.cls-6{fill:#ffcd05;}.cls-12,.cls-7{fill:none;}.cls-7{stroke:#cd8e2a;stroke-width:8.99px;}.cls-12,.cls-18,.cls-7{stroke-miterlimit:10;}.cls-8{fill:#fabc2e;}.cls-9{fill:#414042;}.cls-10{fill:#66402d;}.cls-11{fill:#2f2c38;}.cls-12{stroke:#2f2c38;stroke-width:6px;}.cls-13{opacity:0.8;}.cls-14{fill:#7ca1d5;}.cls-15{fill:#9dc6ea;}.cls-16{fill:#278e7f;}.cls-17{fill:#38b4a5;}.cls-18{fill:#fff0a4;stroke:#fff;stroke-width:2px;}.cls-19{fill:#1f7266;}.cls-20{fill:#1d758a;}.cls-21{fill:#6eb8cc;}</style><linearGradient id="linear-gradient" x1="149.93" y1="355.43" x2="149.93" y2="160.48" gradientUnits="userSpaceOnUse"><stop offset="0" stop-color="#74cbcb"/><stop offset="0.03" stop-color="#6fc6c5"/><stop offset="0.23" stop-color="#4ca29c"/><stop offset="0.42" stop-color="#34887e"/><stop offset="0.58" stop-color="#24786c"/><stop offset="0.69" stop-color="#1f7266"/></linearGradient><linearGradient id="linear-gradient-2" x1="149.93" y1="350.54" x2="149.93" y2="261.63" gradientUnits="userSpaceOnUse"><stop offset="0.25" stop-color="#1f7266"/><stop offset="1" stop-color="#74cbcb"/></linearGradient></defs><g id="among_us" data-name="among us"><path class="cls-1" d="M263.54,345H36.31A36.38,36.38,0,0,1-.07,308.62V259.14h300v49.48A36.38,36.38,0,0,1,263.54,345Z"/><path class="cls-2" d="M263.54,311.65H36.31A36.38,36.38,0,0,1-.07,275.27V261.38h300v13.89A36.38,36.38,0,0,1,263.54,311.65Z"/><rect class="cls-3" x="-0.07" y="45" width="300" height="253.39" rx="36.38"/><rect class="cls-4" x="259.01" y="194.36" width="41.06" height="40.11"/><path class="cls-5" d="M281.65,227.25h-8.1a7.77,7.77,0,0,1-2.48-.26.85.85,0,0,1-.63-.81v-23.8q0-1.77,10.69-1.77c4.1,0,6.92.39,8.48,1.18a5.8,5.8,0,0,1,3,3.11,8.09,8.09,0,0,1,.37,2.59,7.77,7.77,0,0,1-1,4.33,3.34,3.34,0,0,1-2.13,1.63,5.14,5.14,0,0,1,2.89,1.7c.76.89,1.15,2.39,1.15,4.51a6.55,6.55,0,0,1-2.26,5.48,11.48,11.48,0,0,1-6,2C284.55,227.2,283.21,227.25,281.65,227.25Zm1-15.87c1.69,0,2.54-1,2.54-2.89a3,3,0,0,0-.68-2.15,2,2,0,0,0-1.51-.71h-4v5.75Zm-3.68,10.41h3.68c1.69,0,2.54-1,2.54-2.9a3,3,0,0,0-.68-2.15A2,2,0,0,0,283,216h-4Z"/><rect class="cls-6" x="35.29" y="83.62" width="229.26" height="177.77" rx="27.8"/><path class="cls-7" d="M125,222.54s8.46,6.51,24.9,6.51,24.9-6.51,24.9-6.51"/><circle class="cls-8" cx="219.89" cy="176.4" r="27.55"/><circle class="cls-8" cx="79.96" cy="176.4" r="27.55"/><circle class="cls-5" cx="219.89" cy="184.05" r="27.55"/><circle class="cls-5" cx="79.96" cy="184.05" r="27.55"/><path class="cls-9" d="M104,180.05a10,10,0,0,1-14.5-13.53,17.85,17.85,0,0,0-2.44-.18A17.37,17.37,0,1,0,104,180.05ZM79.74,195a4.12,4.12,0,1,1,4.13-4.12A4.12,4.12,0,0,1,79.74,195Z"/><path class="cls-9" d="M229.75,180a10,10,0,0,1-14.41-13.42,17.33,17.33,0,1,0,14.82,17.14A16.9,16.9,0,0,0,229.75,180Zm-24.34,15a4.12,4.12,0,1,1,4.12-4.12A4.11,4.11,0,0,1,205.41,195Z"/><ellipse class="cls-10" cx="207.86" cy="142.15" rx="23.6" ry="13.68" transform="translate(-40.49 100.51) rotate(-24.85)"/><ellipse class="cls-10" cx="92.14" cy="142.15" rx="13.68" ry="23.6" transform="translate(-75.57 166.02) rotate(-65.15)"/><ellipse class="cls-11" cx="178.48" cy="227.86" rx="17.21" ry="10.75"/><path class="cls-12" d="M178.3,227.05s72.79,13,83.21-39.11"/><g class="cls-13"><rect class="cls-14" x="35.29" y="83.62" width="229.26" height="177.77" rx="27.8"/><polygon class="cls-15" points="114.77 261.38 126.95 261.38 229.59 83.61 217.4 83.61 114.77 261.38"/><path class="cls-15" d="M142,261.38h30.71l90.82-157.3A27.86,27.86,0,0,0,244.1,84.6Z"/></g><path class="cls-16" d="M202,45.74c0,16.09-23.85,23.47-52.08,23.47S97.84,61.83,97.84,45.74c0-.25,0-.49,0-.74l-9.26,0c0,.23,0,.45,0,.68,0,18.49,29.27,29.5,61.35,29.5s61.34-11,61.34-29.5c0-.23,0-.45,0-.68L202,45C202,45.25,202,45.49,202,45.74Z"/><path class="cls-16" d="M290.19,56.62,253,94.43l4.28,4.21,36.68-37.27A35.79,35.79,0,0,0,290.19,56.62Z"/><path class="cls-16" d="M5.93,61.37,42.61,98.64l4.28-4.21L9.66,56.62A35.79,35.79,0,0,0,5.93,61.37Z"/><path class="cls-17" d="M195.87,45c-4,12.27-20.85,18.21-45.94,18.21S108,57.27,104,45H93.31c4,17.43,27.41,24.21,56.62,24.21S202.57,62.43,206.54,45Z"/><path class="cls-17" d="M287.15,53.71,253,88.43l4.28,4.21L291.38,58A36.91,36.91,0,0,0,287.15,53.71Z"/><path class="cls-17" d="M8.47,58,42.61,92.64l4.28-4.21L12.7,53.71A36.91,36.91,0,0,0,8.47,58Z"/><path class="cls-16" d="M288.39,188.62H275.68a8.06,8.06,0,0,1-8.06-8.06V126.75s0-13.34,14.42-13.34,14.42,13.34,14.42,13.34v53.81A8.06,8.06,0,0,1,288.39,188.62Z"/><path class="cls-17" d="M288.39,177.76H275.68a8.06,8.06,0,0,1-8.06-8.06V115.88s0-13.33,14.42-13.33,14.42,13.33,14.42,13.33V169.7A8.06,8.06,0,0,1,288.39,177.76Z"/><circle class="cls-18" cx="282.04" cy="134.56" r="9.28"/><circle class="cls-16" cx="282.04" cy="158.26" r="9.28"/><rect class="cls-19" x="272.99" y="110.33" width="18.09" height="9.81" rx="3.81"/><path class="cls-16" d="M24.17,188.62H11.46a8.06,8.06,0,0,1-8.07-8.06V126.75s0-13.34,14.42-13.34,14.42,13.34,14.42,13.34v53.81A8.06,8.06,0,0,1,24.17,188.62Z"/><path class="cls-17" d="M24.17,177.76H11.46a8.06,8.06,0,0,1-8.07-8.06V115.88s0-13.33,14.42-13.33,14.42,13.33,14.42,13.33V169.7A8.06,8.06,0,0,1,24.17,177.76Z"/><circle class="cls-18" cx="17.81" cy="134.56" r="9.28"/><circle class="cls-16" cx="17.81" cy="158.26" r="9.28"/><rect class="cls-19" x="8.77" y="110.33" width="18.09" height="9.81" rx="3.81"/><path class="cls-20" d="M236.75,98.6a19.84,19.84,0,0,1,19.82,19.82V240.58a19.84,19.84,0,0,1-19.82,19.82H63.1a19.84,19.84,0,0,1-19.82-19.82V118.42A19.84,19.84,0,0,1,63.1,98.6H236.75m0-8H63.1a27.8,27.8,0,0,0-27.81,27.8V240.58a27.8,27.8,0,0,0,27.81,27.8H236.75a27.8,27.8,0,0,0,27.81-27.8V118.42a27.8,27.8,0,0,0-27.81-27.8Z"/><path class="cls-21" d="M236.75,91.6a19.84,19.84,0,0,1,19.82,19.82V233.58a19.84,19.84,0,0,1-19.82,19.82H63.1a19.84,19.84,0,0,1-19.82-19.82V111.42A19.84,19.84,0,0,1,63.1,91.6H236.75m0-8H63.1a27.8,27.8,0,0,0-27.81,27.8V233.58a27.8,27.8,0,0,0,27.81,27.8H236.75a27.8,27.8,0,0,0,27.81-27.8V111.42a27.8,27.8,0,0,0-27.81-27.8Z"/></g></svg>