<svg xmlns="http://www.w3.org/2000/svg" viewBox="0 0 300 345"><defs><linearGradient id="A" x1="150" y1="356.11" x2="150" y2="161.16" gradientUnits="userSpaceOnUse"><stop offset="0" stop-color="#995b3c"/><stop offset=".69" stop-color="#51291b"/></linearGradient></defs><path d="M263.62,345H36.38A36.38,36.38,0,0,1,0,308.62V259.14H300v49.48A36.38,36.38,0,0,1,263.62,345Z" fill="url(#A)"/><path d="M263.62,45H182.87L180,28.13C164.6,28.13,151.32,39,151.32,39l8.15-23.85c-26.38,0-37.52,18.14-42,29.85H36.38A36.38,36.38,0,0,0,0,81.38V262a36.38,36.38,0,0,0,36.38,36.38H263.62A36.38,36.38,0,0,0,300,262V81.38A36.38,36.38,0,0,0,263.62,45Z" fill="#995b3c"/><path d="M94.25 298.4h111.8c-10.45-25.7-28.62-46.6-56.05-46.6s-45.6 20.9-56 46.6z" fill="#fbe2cd"/><path d="M93.95 298.4h112.1V345H93.95z" fill="#e7bf9a"/><path d="M207.43 279.08c16.62-18.7-16.85-129.9-57.43-129.9s-73.7 111.6-57.42 129.9 98.23 18.7 114.85 0z" fill="#fbe2cd"/><g fill="#4c281b"><circle cx="242.58" cy="189.94" r="36.45"/><circle cx="57.42" cy="189.94" r="36.45"/></g><g fill="#fff"><circle cx="242.58" cy="200.06" r="36.45"/><circle cx="57.42" cy="200.06" r="36.45"/></g><path d="M89.18 194.77A13.21 13.21 0 0 1 70 176.86a23 23 0 1 0 19.19 17.91zm-32 19.76a5.46 5.46 0 1 1 5.45-5.45 5.45 5.45 0 0 1-5.49 5.45zm198.45-19.9a13.22 13.22 0 0 1-19.07-17.77 24.25 24.25 0 0 0-3.32-.24 23 23 0 1 0 22.39 18zm-32.22 19.9a5.46 5.46 0 1 1 5.46-5.45 5.45 5.45 0 0 1-5.46 5.45z" fill="#414042"/><path d="M104.55 266C150 280.67 150 236.5 150 236.5s0 44.16 45.45 29.44" fill="none" stroke="#414042" stroke-linecap="round" stroke-miterlimit="10" stroke-width="12"/><path d="M125 219.84c0 10.62 14.53 20.58 25 20.58s25-11.27 25-20.58-50-10.6-50 0z" fill="#414042"/><g fill="#fbe2cd"><ellipse cx="62.04" cy="136.62" rx="12.66" ry="18.85" transform="matrix(.233954 -.972248 .972248 .233954 -85.3 164.97)"/><ellipse cx="237.96" cy="136.68" rx="18.85" ry="12.66" transform="matrix(.972248 -.233954 .233954 .972248 -25.38 59.48)"/></g><path d="M195.2 50.08c0 38 30.43 79.86 52.4 79.86S300 83.43 300 50.08c0-21.58-104.8-22.77-104.8 0zM0 50.08c0 38 30.43 79.86 52.4 79.86s52.4-46.5 52.4-79.86C104.8 28.5 0 27.3 0 50.08z" fill="#4c281b"/></svg>