<svg xmlns="http://www.w3.org/2000/svg" viewBox="0 0 300 345"><defs><linearGradient id="A" x1="150" y1="347.9" x2="150" y2="175.23" gradientUnits="userSpaceOnUse"><stop offset="0" stop-color="#4ab96d"/><stop offset=".69" stop-color="#1a673d"/></linearGradient><linearGradient id="B" x1="150" y1="352.13" x2="150" y2="227.12" gradientUnits="userSpaceOnUse"><stop offset="0" stop-color="#d0ebf6"/><stop offset=".69" stop-color="#6eb8cc"/></linearGradient></defs><path d="M263.62 338.06H36.38A36.38 36.38 0 0 1 0 301.68V262h300v39.67a36.38 36.38 0 0 1-36.38 36.39z" fill="url(#A)"/><path d="M263.62 326.33H36.38A36.38 36.38 0 0 1 0 290v18.67A36.38 36.38 0 0 0 36.38 345h227.24A36.38 36.38 0 0 0 300 308.62V290a36.38 36.38 0 0 1-36.38 36.33z" fill="url(#B)"/><rect y="45" width="300" height="253.39" rx="36.38" fill="#4ab96d"/><path d="M300 229.07V160a98.1 98.1 0 0 0-10.32-12c-35.72-35.72-70.3-24-98.8 4.47s-40 63.3-4.47 98.8 70.3 24.05 98.8-4.47A119 119 0 0 0 300 229.07zM10.32 148A97.36 97.36 0 0 0 0 160.06v69.05a119 119 0 0 0 14.79 17.72c28.52 28.52 63.3 40 98.8 4.46s24.05-70.3-4.47-98.8S46 112.3 10.32 148z" fill="#47bd9a"/><g fill="#e29a25"><ellipse cx="150" cy="246.06" rx="34.56" ry="31.53"/><path d="M206.84 280.5H184.5a63.47 63.47 0 0 0 .52-8.13H115a63.47 63.47 0 0 0 .52 8.13H93.28c3.85 9.76 14.76 16.52 29.37 20.12 5.86 8.68 15 14.15 27.35 14.15s21.33-5.37 27.2-13.92c14.8-3.45 25.88-10.12 29.64-20.35z"/></g><path d="M177.64 244c-5.7-8.6-14.82-14-27.64-14s-22.1 5.5-27.8 14.26c-18.12 4.58-30.4 14.07-30.4 28.14a22 22 0 0 0 1.53 8.13s17.37 6.34 56.73 6.34 56.84-6.34 56.84-6.34a23.33 23.33 0 0 0 1.42-8.13c0-14.85-12.42-24.1-30.68-28.4z" fill="#ffcd05"/><g fill="#e29a25"><ellipse cx="167.67" cy="253.64" rx="4.25" ry="8.5" transform="matrix(.972248 -.233954 .233954 .972248 -54.7 46.28)"/><ellipse cx="132.33" cy="253.64" rx="8.5" ry="4.25" transform="matrix(.233954 -.972248 .972248 .233954 -145.24 322.93)"/></g><g fill="#299370"><circle cx="242.58" cy="204.01" r="36.45"/><circle cx="57.42" cy="204.01" r="36.45"/></g><g fill="#fff"><circle cx="242.58" cy="214.14" r="36.45"/><circle cx="57.42" cy="214.14" r="36.45"/></g><path d="M89.18 208.85A13.21 13.21 0 0 1 70 190.94a23 23 0 1 0 19.19 17.91zm-32 19.75a5.45 5.45 0 1 1 5.45-5.45 5.45 5.45 0 0 1-5.49 5.45zm198.45-19.9a13.21 13.21 0 0 1-19.07-17.7 23 23 0 1 0 19.07 17.76zm-32.22 19.9a5.45 5.45 0 1 1 5.46-5.45 5.45 5.45 0 0 1-5.46 5.45z" fill="#414042"/><path d="M143.92 67.07a77.45 77.45 0 0 0-10.31 6.38 87.46 87.46 0 0 0-9.21 7.69 72 72 0 0 0-14.09 18.76 65 65 0 0 0-6.71 22 82.31 82.31 0 0 0 .72 23l-3.75-3.8.82.08.94.08 1.93.1h3.9a70.69 70.69 0 0 0 7.83-.68 67.8 67.8 0 0 0 15.12-3.92 60.87 60.87 0 0 0 13.63-7.36 63.41 63.41 0 0 0 11.38-10.53l11.24-13.23-2.65 17.74c0 .18-.06.4-.08.6 0 .4-.1.82-.12 1.25l-.14 2.6.13 5.26a57.57 57.57 0 0 0 1.69 10.43 55.2 55.2 0 0 0 3.55 10 49.9 49.9 0 0 0 2.43 4.71 23.76 23.76 0 0 0 1.41 2.26l1.46 2.23-4.5-1.5c.2 0 .62-.17.95-.28l1.07-.38 2.16-.88a39.55 39.55 0 0 0 4.2-2.15 40.94 40.94 0 0 0 7.57-5.64 37.24 37.24 0 0 0 6-7.3 39 39 0 0 0 4-8.69 46.5 46.5 0 0 0 1.92-9.61l.2-2.48v-2.5c.07-1.68-.1-3.35-.18-5s-.34-3.36-.5-5.06-.55-3.36-.87-5l-1.1-5q-.68-2.5-1.32-5a81.89 81.89 0 0 1 6.87 19.72 53.55 53.55 0 0 1 .18 21.41 41.81 41.81 0 0 1-10.11 19.6 45.46 45.46 0 0 1-8.5 7.28 48.73 48.73 0 0 1-4.84 2.85l-2.56 1.22-1.34.56-1.5.54-2.72.87-1.78-2.4a66.37 66.37 0 0 1-6.61-10.33 59.61 59.61 0 0 1-4.53-11.54 61.62 61.62 0 0 1-2.29-12.11c-.2-2.05-.28-4.1-.28-6.2l.1-3.14c0-.52.07-1.06.12-1.6 0-.26 0-.53.1-.82s.06-.54.13-.93l8.65 4a72.79 72.79 0 0 1-13.14 12.32 69.34 69.34 0 0 1-7.7 4.76 73.24 73.24 0 0 1-8.23 3.72 74.7 74.7 0 0 1-26.35 4.69c-1.5 0-3 0-4.5-.14l-2.26-.2-1.15-.13-1.26-.18-3.35-.56-.4-3.25a85.07 85.07 0 0 1 .5-25.53 67.76 67.76 0 0 1 9.21-23.79 69.56 69.56 0 0 1 7.74-10 73.9 73.9 0 0 1 9.31-8.4 75.07 75.07 0 0 1 10.46-6.65 60.45 60.45 0 0 1 5.57-2.66 52.17 52.17 0 0 1 5.76-2.15z" fill="#238250"/><g fill="#299370"><ellipse cx="62.04" cy="148.69" rx="12.66" ry="18.85" transform="matrix(.233954 -.972248 .972248 .233954 -97.04 174.21)"/><ellipse cx="237.96" cy="148.74" rx="18.85" ry="12.66" transform="matrix(.972248 -.233954 .233954 .972248 -28.2 59.82)"/></g></svg>