<svg id="Layer_1" data-name="Layer 1" xmlns="http://www.w3.org/2000/svg" xmlns:xlink="http://www.w3.org/1999/xlink" viewBox="0 0 300 345"><defs><style>.cls-1{fill:url(#linear-gradient);}.cls-2{fill:#416eb5;}.cls-3{fill:#2fa04a;}.cls-4{fill:#1a4a32;}.cls-5{fill:url(#linear-gradient-2);}.cls-6{fill:#0d2819;}.cls-7,.cls-8{fill:none;stroke-miterlimit:10;stroke-width:3px;}.cls-7{stroke:#1250a3;}.cls-8{stroke:#032657;}</style><linearGradient id="linear-gradient" x1="150" y1="356.11" x2="150" y2="161.16" gradientUnits="userSpaceOnUse"><stop offset="0.07" stop-color="#416eb5"/><stop offset="0.54" stop-color="#032657"/></linearGradient><linearGradient id="linear-gradient-2" x1="113.94" y1="369.95" x2="113.94" y2="226.1" gradientUnits="userSpaceOnUse"><stop offset="0" stop-color="#1f8e58"/><stop offset="1" stop-color="#104931"/><stop offset="1" stop-color="#176737"/></linearGradient></defs><g id="space"><path class="cls-1" d="M263.62,345H36.38A36.38,36.38,0,0,1,0,308.62V259.14H300v49.48A36.38,36.38,0,0,1,263.62,345Z"/><rect class="cls-2" y="45" width="300" height="253.39" rx="36.38"/><path class="cls-3" d="M263.62,45H225.89c-.81.23-1.6.48-2.32.73-14.54,5.13-26.51-1.21-36.47,6.08s-.61,13.54-8.76,15S173.21,72,166,71.63,165.66,56.3,160.23,53s-6,1.2-10.07,4.52-9.55.61-16.5,3.93-3,8.75-6.64,17.05S105.89,91,99.34,100.9s-3.11,18.19-5.86,27.36,3,13.17,11.2,14.92,21.74-9,24.46-14.92,6.94-3.74,13-4.34,3-6,11.47-4.59,4.53,8.51,5.13,19.79,10.27,7.74,18.42,13.46,12.07,29,3,39-22.65,3.91-44.68,3.59-36.23-5.72-50.64,4.24S79.63,232,81.4,239.58s3.36,14.15.34,30.15c-2.55,13.53,10,25.33,13.94,28.66H150.8c1-1.48,3.21-4.7,6.41-9.51,4.53-6.82,16.91-9.19,23.85-16.73S179.85,251,188,244s22,1.25,31.4.31,13.59-16.27,22.43-16.87,10.78,11.17,17.42,12.11,4.53-4.26,16.6-3.73c8.51.38,18.8,3.25,24.15,4.92V81.38A36.38,36.38,0,0,0,263.62,45Z"/><path class="cls-4" d="M162.5,61.17a27.14,27.14,0,0,0-.09-3.86A25.47,25.47,0,0,0,162.5,61.17Z"/><path class="cls-4" d="M177.14,146.1c-8-5.64-17.55-2.28-18.38-13a54.71,54.71,0,0,0,0,6c.6,11.28,10.27,7.74,18.42,13.46,4.29,3,7.4,10.88,8.07,19.11C186.09,161.44,182.55,149.9,177.14,146.1Z"/><path class="cls-4" d="M104.68,143.18c8.15,1.75,21.74-9,24.46-14.92s6.94-3.74,13-4.34,3-6,11.47-4.59c3.51.6,4.88,2.17,5.34,4.62.42-6.2.66-10.07-5.34-11.1-8.45-1.44-5.43,4-11.47,4.59s-10.27-1.57-13,4.35-16.31,16.67-24.46,14.92c-5.54-1.2-10-3.43-11.41-7.62C91.11,137.67,96.79,141.48,104.68,143.18Z"/><path class="cls-4" d="M259.25,233.1c-6.64-.94-8.57-12.71-17.42-12.11s-13.07,15.93-22.43,16.87-23.24-7.29-31.4-.31c-4.44,3.81-4,9.59-3.88,15.28.25-3.36,1.14-6.45,3.88-8.8,8.16-7,22,1.25,31.4.31s13.59-16.27,22.43-16.87,10.78,11.17,17.42,12.11,4.53-4.26,16.6-3.73c8.51.38,18.8,3.25,24.15,4.92v-6.48c-5.35-1.67-15.64-4.54-24.15-4.92C263.78,228.84,265.89,234,259.25,233.1Z"/><path class="cls-4" d="M150.8,298.39c1-1.48,3.21-4.7,6.41-9.51,4.53-6.82,16.91-9.19,23.85-16.73,3.52-3.83,3.16-9.22,3-14.5a12.67,12.67,0,0,1-3,8c-6.94,7.55-19.32,9.92-23.85,16.73-3.2,4.82-5.39,8-6.41,9.52l-5.14,6.47"/><path class="cls-4" d="M95.68,291.92c-3.25-2.75-12.35-11.26-14-21.74-2.2,13.33,10.11,24.92,14,28.21"/><path class="cls-4" d="M81.4,233.1c-.9-3.83-3.69-11.52-4.37-19.47-1,10,3.23,21.07,4.37,26A64.14,64.14,0,0,1,83.33,251C83.78,243.19,82.64,238.39,81.4,233.1Z"/><path class="cls-3" d="M54.3,45c-.07,4.77-.22,12.18,0,20.5C54.55,79.09,68.76,93,77.52,92.6s9.66-13.51,17.6-17.44S106.5,64.9,107.7,55.54c.46-3.51,2.36-7.25,4.56-10.54Z"/><path class="cls-4" d="M107.7,49.07c-1.2,9.36-4.64,15.69-12.58,19.62s-8.85,17.06-17.6,17.44S54.55,72.61,54.26,59c0-1.75-.06-3.45-.07-5.1,0,3.49,0,7.42.07,11.57C54.55,79.09,68.76,93,77.52,92.6s9.66-13.51,17.6-17.44S106.5,64.9,107.7,55.54c.46-3.51,2.36-7.25,4.56-10.54h-3.47A17.83,17.83,0,0,0,107.7,49.07Z"/><path class="cls-3" d="M48.65,92.68c-1.51-8.15-5.73-10.56-22-10.11A165.72,165.72,0,0,0,.17,85.82C.06,87,0,88.13,0,89.3V246.06c3.83-4.66,12.39-14.35,20.28-18.31C30.84,222.45,33,214,33.86,204.32s12.68-9.3,17.81-19.17,0-33.6-2.41-44.7,2.11-10.64,4.36-21.65S50.16,100.83,48.65,92.68Z"/><path class="cls-4" d="M53.62,112.32c-2.11,10.33-6.22,10.57-4.73,19.71.86-3.77,3.27-6.09,4.73-13.23a24.58,24.58,0,0,0,.3-8.26C53.84,111.12,53.75,111.71,53.62,112.32Z"/><path class="cls-4" d="M51.67,178.68c-5.13,9.87-16.9,9.44-17.81,19.16s-3,18.13-13.58,23.44c-7.89,4-16.45,13.65-20.28,18.31v6.47c3.83-4.66,12.39-14.35,20.28-18.31C30.84,222.45,33,214,33.86,204.32s12.68-9.3,17.81-19.17c2-3.75,2.42-9.52,2.12-15.84A23.82,23.82,0,0,1,51.67,178.68Z"/><path class="cls-5" d="M141.05,314c2.13-7.58,9.75-15.62,9.75-15.62H95.68s-13.41,21.06-16.93,36.76A96.25,96.25,0,0,0,77.08,345h33.63C115.6,333.13,134.71,336.66,141.05,314Z"/><path class="cls-6" d="M141.05,307.54c-6.34,22.64-25.45,19.11-30.34,31V345c4.89-11.87,24-8.34,30.34-31,2.13-7.58,9.75-15.62,9.75-15.62h-5.14A32.8,32.8,0,0,0,141.05,307.54Z"/><path class="cls-7" d="M221.65,269.69a5.73,5.73,0,0,0,7.13,0h0a5.71,5.71,0,0,1,7.12,0h0a5.71,5.71,0,0,0,7.12,0h0a5.73,5.73,0,0,1,7.13,0h0a5.71,5.71,0,0,0,7.12,0h0a5.7,5.7,0,0,1,7.11,0h0a5.7,5.7,0,0,0,7.11,0"/><path class="cls-8" d="M172,321.7a5.71,5.71,0,0,0,7.12,0h0a5.73,5.73,0,0,1,7.13,0h0a5.71,5.71,0,0,0,7.12,0h0a5.71,5.71,0,0,1,7.12,0h0a5.71,5.71,0,0,0,7.12,0h0a5.71,5.71,0,0,1,7.12,0h0a5.71,5.71,0,0,0,7.12,0"/><path class="cls-7" d="M126.29,175.08h0a5.71,5.71,0,0,0,7.12,0h0a5.71,5.71,0,0,1,7.12,0h0a5.74,5.74,0,0,0,7.12,0"/><path class="cls-7" d="M20.24,69h0a5.71,5.71,0,0,0,7.12,0h0a5.71,5.71,0,0,1,7.12,0h0a5.71,5.71,0,0,0,7.12,0"/><path class="cls-7" d="M80.21,161.79a5.71,5.71,0,0,0,7.12,0h0a5.71,5.71,0,0,1,7.12,0h0a5.71,5.71,0,0,0,7.12,0h0a5.71,5.71,0,0,1,7.12,0h0a5.73,5.73,0,0,0,7.13,0h0"/><path class="cls-7" d="M17.86,261.4a5.73,5.73,0,0,0,7.13,0h0a5.71,5.71,0,0,1,7.12,0h0a5.71,5.71,0,0,0,7.12,0h0a5.73,5.73,0,0,1,7.13,0h0a5.71,5.71,0,0,0,7.12,0h0"/><path class="cls-7" d="M42.8,240.3h0a5.71,5.71,0,0,0,7.12,0h0a5.74,5.74,0,0,1,7.12,0h0a5.7,5.7,0,0,0,7.11,0"/></g></svg>