<svg xmlns="http://www.w3.org/2000/svg" viewBox="0 0 300 345"><defs><linearGradient id="A" x1="150" y1="356.11" x2="150" y2="161.16" gradientUnits="userSpaceOnUse"><stop offset="0" stop-color="#f49849"/><stop offset=".69" stop-color="#d25927"/></linearGradient><linearGradient id="B" x1="150" y1="351.59" x2="150" y2="235.99" gradientUnits="userSpaceOnUse"><stop offset="0" stop-color="#bfe7fb"/><stop offset=".69" stop-color="#4cc9f5"/></linearGradient></defs><path d="M263.62,345H36.38A36.38,36.38,0,0,1,0,308.62V259.14H300v49.48A36.38,36.38,0,0,1,263.62,345Z" fill="url(#A)"/><path d="M66 345h168s10.52-50.9-40.47-50.9h-87C55.5 294.1 66 345 66 345z" fill="url(#B)"/><rect y="149.15" width="300" height="149.24" rx="36.38" fill="#e4f5fd"/><g fill="#f49849"><path d="M263.62 45H36.38A36.38 36.38 0 0 0 0 81.38v165.35a36.41 36.41 0 0 0 .6 6.57l9.23-15s20.7-34.64 59.38-34.64c76.67 0 34.64 51.53 80.8 51.53s4.5-51.53 80.8-51.53c38.67 0 59.37 34.64 59.37 34.64l9.23 15a36.41 36.41 0 0 0 .6-6.57V81.38A36.38 36.38 0 0 0 263.62 45z"/><path d="M129.6 51.37l24-32.9s27.78 29.88 3.93 47.1"/><path d="M140.68 62.58l36.6-37s23.7 16.75 1.5 38.94m-39.24-13.37l-20.15-23.1s-31.24 32.83 14.27 44.38"/></g><path d="M14.48 264.1S1.7 282.92 11.76 293c5.38 5.4 12.2 2.55 17.35-1.24 2 4.48 5.22 8.42 10.5 9.5 13.92 2.85 16.22-20.9 16.22-20.9" fill="#e4f5fd"/><path d="M14.48 264.1A62.46 62.46 0 0 0 10.85 276c-.73 3.93-.8 7.9.5 11a10.13 10.13 0 0 0 2.81 3.87 6.41 6.41 0 0 0 3.77 1.65 9.61 9.61 0 0 0 4.44-.87 26 26 0 0 0 4.69-2.72l3.53-2.48 1.7 3.87a20.22 20.22 0 0 0 2.31 4 11.4 11.4 0 0 0 3.13 2.82 9.89 9.89 0 0 0 3.91 1.3 7.32 7.32 0 0 0 1.93 0 7 7 0 0 0 1.85-.64c2.5-1.24 4.64-4.13 6.28-7.25a61.58 61.58 0 0 0 4.12-10.2 31.83 31.83 0 0 1-.08 5.69 33.09 33.09 0 0 1-1 5.69 24.07 24.07 0 0 1-2.21 5.6 14.92 14.92 0 0 1-4.28 5 11.61 11.61 0 0 1-6.79 2.18 15 15 0 0 1-6.76-1.55 16.52 16.52 0 0 1-5.37-4.25 22.28 22.28 0 0 1-1.92-2.71 28.3 28.3 0 0 1-1.48-2.83l5.24 1.4a27.75 27.75 0 0 1-6.2 3.55 15.47 15.47 0 0 1-7.85 1.13 12.6 12.6 0 0 1-7.34-3.78A15.18 15.18 0 0 1 6 288.75a18.32 18.32 0 0 1-.38-7.26 27.31 27.31 0 0 1 1.8-6.49 36.78 36.78 0 0 1 3.08-5.79 34.38 34.38 0 0 1 3.98-5.1z" fill="#4cc9f5"/><path d="M244.18 280.64s2.3 23.77 16.22 20.92c5.27-1.1 8.5-5 10.5-9.5 5.16 3.8 12 6.63 17.35 1.25 10.05-10.05-2.72-28.86-2.72-28.86" fill="#e4f5fd"/><path d="M244.18 280.64a60.84 60.84 0 0 0 4.12 10.21c1.63 3.1 3.78 6 6.27 7.25a7.12 7.12 0 0 0 1.86.65 7.78 7.78 0 0 0 1.93 0 9.89 9.89 0 0 0 3.91-1.3 11.26 11.26 0 0 0 3.13-2.82 20 20 0 0 0 2.31-4l1.7-3.88 3.53 2.48a26 26 0 0 0 4.69 2.72 9.74 9.74 0 0 0 4.44.87 6.43 6.43 0 0 0 3.76-1.66 9.92 9.92 0 0 0 2.81-3.86c1.28-3.08 1.22-7.07.5-11a62.73 62.73 0 0 0-3.62-11.89 34.44 34.44 0 0 1 4 5.06 36.78 36.78 0 0 1 3.08 5.79 27.26 27.26 0 0 1 1.85 6.54 18.33 18.33 0 0 1-.38 7.26 15.38 15.38 0 0 1-3.83 6.69 12.67 12.67 0 0 1-7.35 3.77 14.31 14.31 0 0 1-4.14-.07 18.22 18.22 0 0 1-3.72-1.07 27.52 27.52 0 0 1-6.19-3.55l5.24-1.4a27.25 27.25 0 0 1-1.48 2.83 22.28 22.28 0 0 1-1.93 2.67 16.55 16.55 0 0 1-5.38 4.25 15.06 15.06 0 0 1-6.75 1.55 12.55 12.55 0 0 1-3.58-.56 11.78 11.78 0 0 1-3.2-1.63 14.71 14.71 0 0 1-4.28-5 24 24 0 0 1-2.21-5.59 35.89 35.89 0 0 1-1.08-11.38z" fill="#4cc9f5"/><path d="M19.05 230.73S-.1 243.14 4.82 256s24.5.9 30.76-.45" fill="#e4f5fd"/><path d="M19.05 230.73l-5.18 6.37a48 48 0 0 0-4.22 6.47 18 18 0 0 0-2.18 6.48 10.16 10.16 0 0 0 .11 3 9.48 9.48 0 0 0 1 2.69 4.92 4.92 0 0 0 1.56 1.79 6.06 6.06 0 0 0 2.4.95 21.06 21.06 0 0 0 7-.16l11.88-2.37a20.56 20.56 0 0 1 4.23-.4l-7 4.4a45.74 45.74 0 0 1-7.68 3.69 21.48 21.48 0 0 1-9.34 1.35 12.31 12.31 0 0 1-5.26-1.72 11.64 11.64 0 0 1-3.91-4.18A14.68 14.68 0 0 1 .93 249a19.78 19.78 0 0 1 4.16-8.46 30.83 30.83 0 0 1 6.43-5.9 31.56 31.56 0 0 1 3.65-2.2 25.73 25.73 0 0 1 3.88-1.71z" fill="#4cc9f5"/><path d="M281 230.82s19.15 12.4 14.23 25.25-24.5.9-30.76-.45" fill="#e4f5fd"/><path d="M281 230.82a25.73 25.73 0 0 1 3.88 1.69 31.56 31.56 0 0 1 3.65 2.2 31.11 31.11 0 0 1 6.43 5.9 19.78 19.78 0 0 1 4.16 8.46 14.68 14.68 0 0 1-1.53 10.16 11.56 11.56 0 0 1-3.91 4.18 12.31 12.31 0 0 1-5.26 1.72 21.48 21.48 0 0 1-9.22-1.41 46.11 46.11 0 0 1-7.68-3.68l-7.05-4.42a20.56 20.56 0 0 1 4.23.4l4.07.8 7.8 1.56a21.06 21.06 0 0 0 7 .16 5.92 5.92 0 0 0 2.4-.95 4.92 4.92 0 0 0 1.56-1.79 9.48 9.48 0 0 0 1-2.69 10.16 10.16 0 0 0 .11-3 18 18 0 0 0-2.18-6.48 48.61 48.61 0 0 0-4.22-6.47l-5.25-6.35z" fill="#4cc9f5"/><path d="M162.7 278.15L150 259.4l-12.7 18.75" fill="none" stroke="#414042" stroke-linecap="round" stroke-miterlimit="10" stroke-width="10"/><path d="M127.83 248.24c0 9.4 12.87 18.24 22.17 18.24s22.17-10 22.17-18.24-44.34-9.4-44.34 0z" fill="#414042"/><path d="M5.73 165.18A63.74 63.74 0 0 0 0 177.61v33a61.4 61.4 0 0 0 14.32 23.19 77.8 77.8 0 0 1 54.89-19 69.12 69.12 0 0 1 18.12 3.08l8.4-1.85c0-73.8-75.08-76.03-90-50.85zM300 177.6a63.74 63.74 0 0 0-5.73-12.43c-14.92-25.22-90-23-90 50.86l8.4 1.85a69.13 69.13 0 0 1 18.13-3.08 77.79 77.79 0 0 1 54.88 19A61.4 61.4 0 0 0 300 210.58z" fill="#fcc295"/><path d="M96.47 211A36.45 36.45 0 0 1 60 247.42c-54.17 0-36.45-72.9-36.45-72.9H60A36.46 36.46 0 0 1 96.47 211z" fill="#d25927"/><path d="M96.47 221.1c0 20.13-16.32 29.67-36.46 29.67-48.9 0-40.44-65.07-40.44-65.07s20.3-1.06 40.44-1.06a36.46 36.46 0 0 1 36.46 36.46z" fill="#fff"/><path d="M90.3 212.88a16.49 16.49 0 0 1-24-22.35 29.75 29.75 0 0 0-4-.28 28.6 28.6 0 1 0 28 22.63zm-40 24.66a6.81 6.81 0 1 1 6.8-6.81 6.81 6.81 0 0 1-6.79 6.81z" fill="#414042"/><path d="M203.53 211A36.45 36.45 0 0 0 240 247.42c54.17 0 36.45-72.9 36.45-72.9H240A36.46 36.46 0 0 0 203.53 211z" fill="#d25927"/><path d="M203.53 221.1c0 20.13 16.32 29.67 36.46 29.67 48.9 0 40.44-65.07 40.44-65.07s-20.3-1.06-40.44-1.06a36.46 36.46 0 0 0-36.46 36.46z" fill="#fff"/><path d="M209.08 218.86a28.61 28.61 0 1 0 28.61-28.61 29.75 29.75 0 0 0-4 .28 16.49 16.49 0 0 1-23.95 22.35 28.75 28.75 0 0 0-.66 5.98zm33.82 11.87a6.81 6.81 0 1 1 6.8 6.81 6.79 6.79 0 0 1-6.8-6.81z" fill="#414042"/><g fill="#d25927"><ellipse cx="86.7" cy="162.62" rx="12.66" ry="18.85" transform="matrix(.233954 -.972248 .972248 .233954 -91.69 208.86)"/><ellipse cx="213.3" cy="162.68" rx="18.85" ry="12.66" transform="matrix(.972248 -.233954 .233954 .972248 -32.15 54.43)"/></g><path d="M10.45 115.37S-31.8 27.42 58.76 0c0 0 27.17 47.45 27.17 115.37zm279.1 0S331.8 27.42 241.24 0c0 0-27.17 47.45-27.17 115.37z" fill="#f49849"/><path d="M64 10.68c-27.72 11.25-39.82 29.9-44.47 47.87A39.74 39.74 0 0 0 58 108.22h27.83A262.2 262.2 0 0 0 64 10.68zm172 0a262.2 262.2 0 0 0-21.82 97.54H242c25.52 0 44.76-23.8 38.74-48.58-4.44-18.32-16.46-37.48-44.74-48.96z" fill="#f2d3ae"/><path d="M45.88 69.1a31.31 31.31 0 0 0 30.32 39.13h9.63A265.54 265.54 0 0 0 73.25 35C56.77 43.93 49.1 56.7 45.88 69.1zm208.47.84c-3.07-12.65-10.73-25.82-27.6-35a265.21 265.21 0 0 0-12.59 73.25h9.66c20.1.03 35.26-18.7 30.52-38.25z" fill="#e7bf9a"/><path d="M85.93 115.37l-1.85-7.42-1.56-7.35-3.06-14.52c-1.9-9.63-4.1-19.08-6.26-28.63l-1.65-7.12c-.53-2.37-1.2-4.73-1.75-7.1L66.2 29 58.76 0a78.94 78.94 0 0 1 9.18 12.31 128.23 128.23 0 0 1 7.16 13.51c1 2.32 2.12 4.64 3 7s1.84 4.76 2.64 7.18 1.52 4.86 2.28 7.3 1.27 4.94 1.88 7.4A152.11 152.11 0 0 1 88.8 85a129.57 129.57 0 0 1-.42 15.26 75.35 75.35 0 0 1-1 7.59q-.57 3.78-1.45 7.52zM241.24 0l-7.47 29-3.6 14.24-1.74 7.1-1.64 7.13-6.24 28.63c-1.12 4.8-1.95 9.65-3.06 14.52-.62 2.43-1 4.9-1.58 7.35s-1.14 4.93-1.85 7.42c-.6-2.5-1.08-5-1.5-7.52a75.35 75.35 0 0 1-1-7.59 127.46 127.46 0 0 1-.4-15.28 150.68 150.68 0 0 1 3.93-30.27l1.9-7.4c.67-2.45 1.48-4.88 2.28-7.3s1.72-4.8 2.64-7.17 2-4.7 3-7a129.16 129.16 0 0 1 7.17-13.5A79.37 79.37 0 0 1 241.24 0z" fill="#414042"/></svg>