<svg id="Layer_1" data-name="Layer 1" xmlns="http://www.w3.org/2000/svg" xmlns:xlink="http://www.w3.org/1999/xlink" viewBox="0 0 300 345"><defs><style>.cls-1{fill:url(#linear-gradient);}.cls-2{fill:url(#linear-gradient-2);}.cls-3{fill:#9dab4a;}.cls-4{fill:#80a55d;}.cls-5{fill:#56884b;}.cls-6{fill:#2f2c38;}.cls-7{fill:#15141a;}.cls-8{fill:#82934c;}.cls-9{fill:#3b6d41;}.cls-10{fill:#fff;}.cls-11{fill:#414042;}.cls-12{fill:#737d3c;}.cls-13{fill:#246341;}.cls-14{fill:#dd7399;}.cls-15{fill:#f6a9cb;}.cls-16{fill:#fcebde;}</style><linearGradient id="linear-gradient" x1="39.06" y1="356.11" x2="39.06" y2="161.16" gradientUnits="userSpaceOnUse"><stop offset="0" stop-color="#4c6a40"/><stop offset="0.69" stop-color="#27442c"/></linearGradient><linearGradient id="linear-gradient-2" x1="181.29" y1="356.11" x2="181.29" y2="161.16" gradientUnits="userSpaceOnUse"><stop offset="0" stop-color="#53824b"/><stop offset="0.69" stop-color="#425634"/></linearGradient></defs><g id="halloween"><path class="cls-1" d="M78.11,298.39H36.38A36.38,36.38,0,0,1,0,262v46.61A36.38,36.38,0,0,0,36.38,345H62.59l15.52-46.61Z"/><path class="cls-2" d="M263.62,298.39H78.11L62.59,345h201A36.38,36.38,0,0,0,300,308.62V262A36.38,36.38,0,0,1,263.62,298.39Z"/><path class="cls-3" d="M180.15,151.86c-7.55,12.77-23.25,13.58-32.76,29-7.75,12.59-2.46,60.87-.24,78.26h130.9A177.35,177.35,0,0,0,300,247.22V81.38A36.38,36.38,0,0,0,263.62,45H182C183.58,80.75,185.48,142.85,180.15,151.86Z"/><path class="cls-4" d="M278.05,259.14H147.15c.5,3.93.85,6.29.85,6.29H110.11l-32,33H263.62A36.38,36.38,0,0,0,300,262V247.22A177.35,177.35,0,0,1,278.05,259.14Z"/><path class="cls-5" d="M182,45H36.38A36.38,36.38,0,0,0,0,81.38V262a36.38,36.38,0,0,0,36.38,36.38H78.11l32-33H148s-.35-2.36-.85-6.29c-2.22-17.39-7.51-65.67.24-78.26,9.51-15.44,25.21-16.25,32.76-29C185.48,142.85,183.58,80.75,182,45Z"/><path class="cls-6" d="M169.43,146.69a13.45,13.45,0,0,1,6.23-.48,17.5,17.5,0,0,1,6,2c.46.28.93.51,1.36.83s.87.63,1.28,1,.79.72,1.17,1.1c.19.19.38.37.56.57l.49.63a12.25,12.25,0,0,1,2.58,5.73c-1.79-1.22-3.18-2.46-4.75-3.46-.73-.56-1.55-1-2.28-1.5s-1.53-.95-2.34-1.36c-1.58-.87-3.2-1.69-4.9-2.49S171.33,147.63,169.43,146.69Z"/><path class="cls-6" d="M162.64,156a11,11,0,0,1,5.85,0,14.6,14.6,0,0,1,5.33,2.55,14,14,0,0,1,3.9,4.46,11.41,11.41,0,0,1,1.52,5.64c-1.54-1.31-2.7-2.6-4-3.72a47.11,47.11,0,0,0-3.82-3.19c-1.3-1-2.66-1.93-4.12-2.84S164.33,157,162.64,156Z"/><path class="cls-6" d="M277.82,249.07a10.5,10.5,0,0,1,4,3.65,13.87,13.87,0,0,1,2.07,5,14.91,14.91,0,0,1,.28,2.75,12.68,12.68,0,0,1-.34,2.74,10,10,0,0,1-2.55,4.8c-.31-1.87-.34-3.45-.59-5-.06-.77-.23-1.53-.31-2.28s-.23-1.48-.41-2.22c-.29-1.48-.62-3-1-4.5S278.19,250.89,277.82,249.07Z"/><path class="cls-6" d="M267.92,250.22a8.75,8.75,0,0,1,3.51,3.7,11.73,11.73,0,0,1,1.34,5,11.38,11.38,0,0,1-.85,5.07,9.45,9.45,0,0,1-3.06,4.07,21,21,0,0,1,0-2.49c0-.78.05-1.51,0-2.25,0-1.44,0-2.82-.07-4.19s-.18-2.75-.33-4.2Z"/><path class="cls-6" d="M81.17,279.61l4,4.43c1.28,1.4,2.58,2.71,3.92,3.94.64.65,1.37,1.19,2,1.82s1.42,1.18,2.19,1.7c1.48,1.18,3.12,2.13,4.85,3.46a12.7,12.7,0,0,1-6.31-.68A16,16,0,0,1,89,292.89a18.81,18.81,0,0,1-2.56-2,17.08,17.08,0,0,1-3.81-5.13A13.13,13.13,0,0,1,81.17,279.61Z"/><path class="cls-6" d="M89.88,275.2c1.49,1.35,2.82,2.54,4.17,3.66a50.51,50.51,0,0,0,8.4,5.73c.74.48,1.55.82,2.36,1.29s1.67.82,2.54,1.4a10.82,10.82,0,0,1-1.47.35,8.3,8.3,0,0,1-1.49.17,13,13,0,0,1-3-.24,14.8,14.8,0,0,1-9.75-6.67A10.74,10.74,0,0,1,89.88,275.2Z"/><path class="cls-7" d="M285.21,300.43c-3.72,0-7.06,2.12-9.35,6.13a9.47,9.47,0,0,1-8.28,4.63h-2.42a9.62,9.62,0,0,0-9.62,9.62h0a9.62,9.62,0,0,0,9.62,9.62h2.42a9.49,9.49,0,0,1,8.28,4.63c2.29,4,5.63,6.13,9.35,6.13,6.91,0,12.51-6.43,12.51-20.38S292.12,300.43,285.21,300.43Z"/><ellipse class="cls-6" cx="286.64" cy="320.53" rx="7.07" ry="14.62"/><path class="cls-7" d="M14.79,300.43c3.72,0,7.06,2.12,9.35,6.13a9.47,9.47,0,0,0,8.28,4.63h2.42a9.62,9.62,0,0,1,9.62,9.62h0a9.62,9.62,0,0,1-9.62,9.62H32.42a9.49,9.49,0,0,0-8.28,4.63c-2.29,4-5.63,6.13-9.35,6.13-6.91,0-12.51-6.43-12.51-20.38S7.88,300.43,14.79,300.43Z"/><ellipse class="cls-6" cx="13.36" cy="320.53" rx="7.07" ry="14.62"/><path class="cls-8" d="M279,215.72a36.45,36.45,0,1,1-72.9,0C206.13,195.58,279,195.58,279,215.72Z"/><path class="cls-9" d="M93.87,215.72a36.45,36.45,0,0,1-72.9,0C21,195.58,93.87,195.58,93.87,215.72Z"/><path class="cls-10" d="M279,200.06a36.45,36.45,0,1,1-72.9,0C206.13,179.93,279,179.93,279,200.06Z"/><path class="cls-10" d="M93.87,200.06a36.45,36.45,0,0,1-72.9,0C21,179.93,93.87,179.93,93.87,200.06Z"/><path class="cls-11" d="M89.18,194.77a13.2,13.2,0,0,1-21.73-9.29,97,97,0,0,0-18.67-.13,22.93,22.93,0,1,0,40.4,9.42Zm-32,19.76a5.46,5.46,0,1,1,5.45-5.45A5.45,5.45,0,0,1,57.14,214.53Z"/><path class="cls-11" d="M247.61,197.37a13.23,13.23,0,0,1-13.17-12.07c-9.07.77-17.43,2.84-22.68,6.22a22.94,22.94,0,1,0,43.87,3.12A13.16,13.16,0,0,1,247.61,197.37Zm-24.2,17.16a5.46,5.46,0,1,1,5.46-5.45A5.45,5.45,0,0,1,223.41,214.53Z"/><path class="cls-12" d="M205.56,176.8S242,120.22,259.31,146,205.56,176.8,205.56,176.8Z"/><path class="cls-13" d="M94.44,176.8S58,120.22,40.69,146,94.44,176.8,94.44,176.8Z"/><path class="cls-14" d="M188.06,247.47a60.91,60.91,0,0,0-21.14-8.39,84.56,84.56,0,0,0-33.84,0,60.91,60.91,0,0,0-21.14,8.39c-10.7,7.12-15.19,17-9.1,26.25,6.34,9.63,20.46,3.49,35.6.62A62,62,0,0,1,150,273.09a61.94,61.94,0,0,1,11.55,1.25c15.15,2.87,29.27,9,35.61-.62C203.25,264.46,198.76,254.59,188.06,247.47Z"/><path class="cls-15" d="M138.44,274.34A62,62,0,0,1,150,273.09a61.94,61.94,0,0,1,11.55,1.25c10.21,1.93,19.94,5.34,27.15,4.42a36.13,36.13,0,0,0-5.8-7,45.47,45.47,0,0,0-18.27-10.32,52,52,0,0,0-29.26,0,45.47,45.47,0,0,0-18.27,10.32,36.13,36.13,0,0,0-5.8,7C118.51,279.68,128.24,276.27,138.44,274.34Z"/><path class="cls-16" d="M166.92,239.08a84.56,84.56,0,0,0-33.84,0,60.91,60.91,0,0,0-21.14,8.39l-.29.2c.85,2.35,2,4.59,3.14,4.5s19.36-6.3,36.3-6.08,32.68,6.86,33.74,6.08c.86-.64,1.67-2.86,2.32-5.27A61.7,61.7,0,0,0,166.92,239.08Z"/><path class="cls-8" d="M256.29,56.49H43.71A43.71,43.71,0,0,0,0,100.2v26.07a7.33,7.33,0,0,0,13.35,4.19,44,44,0,0,0,4-7.33,7.31,7.31,0,0,1,12.93-.84c3.66,6,8.85,11.16,15.86,10.91,6.57-.23,11-4.73,14-10.12a7.36,7.36,0,0,1,12.08-1,8.6,8.6,0,0,0,6.57,3.31,11.2,11.2,0,0,0,7.82-3.66,7.35,7.35,0,0,1,12,2.86c2.46,6.69,6.65,12.81,13.77,13.47,5.79.54,9.88-3.18,12.74-8.2a7.36,7.36,0,0,1,12.75-.11c2.65,4.39,6.38,7.79,11.6,8.24V138c.21,0,.4,0,.6,0s.39,0,.6,0V138c5.22-.45,9-3.85,11.6-8.24a7.36,7.36,0,0,1,12.75.11c2.86,5,7,8.74,12.74,8.2,7.12-.66,11.31-6.78,13.77-13.47a7.35,7.35,0,0,1,12-2.86,11.2,11.2,0,0,0,7.82,3.66,8.6,8.6,0,0,0,6.57-3.31,7.36,7.36,0,0,1,12.08,1c3,5.39,7.4,9.89,14,10.12,7,.25,12.2-4.87,15.86-10.91a7.31,7.31,0,0,1,12.93.84,44,44,0,0,0,4,7.33A7.33,7.33,0,0,0,300,126.27V100.2A43.71,43.71,0,0,0,256.29,56.49Z"/><path class="cls-9" d="M13.35,130.46a44,44,0,0,0,4-7.33,7.31,7.31,0,0,1,12.93-.84c3.66,6,8.85,11.16,15.86,10.91,6.57-.23,11-4.73,14-10.12a7.36,7.36,0,0,1,12.08-1,8.6,8.6,0,0,0,6.57,3.31,11.2,11.2,0,0,0,7.82-3.66,7.35,7.35,0,0,1,12,2.86c2.46,6.69,6.65,12.81,13.77,13.47,5.79.54,9.88-3.18,12.74-8.2a7.36,7.36,0,0,1,12.75-.11c2.65,4.39,6.38,7.79,11.6,8.24V138c.21,0,.4,0,.6,0s.39,0,.6,0V138c5.22-.45,9-3.85,11.6-8.24a7.36,7.36,0,0,1,12.75.11c2,3.48,4.56,6.34,7.88,7.58,1.53-19.72.69-54.32-.35-80.91H43.71A43.71,43.71,0,0,0,0,100.2v26.07A7.33,7.33,0,0,0,13.35,130.46Z"/><path class="cls-6" d="M263.62,45H36.38A36.38,36.38,0,0,0,0,81.38v45.18c17.29,2,23-34.43,23-34.43s6.34,30.19,23.12,29.58,19.61-29,19.61-29,2.29,21.14,13,21.14,16.32-19,16.32-19S96,125,112.31,126.53s19.11-30.78,19.11-30.78,1.91,29.31,18,30.72v.06c.21,0,.4,0,.6,0s.39,0,.6,0v-.06c16.07-1.41,18-30.72,18-30.72s2.79,32.3,19.11,30.78,17.24-31.68,17.24-31.68,5.6,19,16.32,19,13-21.14,13-21.14,2.83,28.38,19.61,29S277,92.13,277,92.13s5.72,36.44,23,34.43V81.38A36.38,36.38,0,0,0,263.62,45Z"/></g></svg>