<svg xmlns="http://www.w3.org/2000/svg" xmlns:xlink="http://www.w3.org/1999/xlink" viewBox="0 0 300 345" xmlns:v="https://vecta.io/nano"><style><![CDATA[.P{fill:#196bb3}.Q{fill:#2086df}.R{fill-opacity:.392}.S{fill:#fff}.T{fill:#79b6ec}.U{fill:#dae6f5}.V{fill:#8fc2ef}.W{fill:#63aae9}.X{fill:#4d9ee6}.Y{fill:#3692e2}]]></style><defs><linearGradient gradientUnits="userSpaceOnUse" y2="161.16" x2="150" y1="356.11" x1="150" id="A"><stop stop-color="#dae6f5" offset="0"/><stop stop-color="#73a1d9" offset=".69"/></linearGradient><linearGradient gradientUnits="userSpaceOnUse" y2="43.31" x2="149.89" y1="149.05" x1="149.89" id="B"><stop stop-color="#c2d6ef" offset="0"/><stop stop-color="#5f93d3" offset=".94"/></linearGradient><path id="C" d="M23 264.27a11 11 0 0 1-9.31-8.69v-.12a2.23 2.23 0 0 0-4.22-.56 10.81 10.81 0 0 0-.92 5.85 10.94 10.94 0 0 0 15.56 8.59 2.68 2.68 0 0 0-1-5z"/></defs><path d="M263.62,345H36.38A36.38,36.38,0,0,1,0,308.62V259.14H300v49.48A36.38,36.38,0,0,1,263.62,345Z" fill="url(#A)"/><path d="M263.62 45H36.38A36.38 36.38 0 0 0 0 81.38V262a36.38 36.38 0 0 0 36.38 36.38h227.24A36.38 36.38 0 0 0 300 262V81.38A36.38 36.38 0 0 0 263.62 45zm-29.55 175.2a20.41 20.41 0 0 1-20.42 20.41H86.12a20.41 20.41 0 0 1-20.41-20.41v-71.77A20.41 20.41 0 0 1 86.12 128h127.53a20.41 20.41 0 0 1 20.42 20.41z" class="U"/><path d="M213.65 101.87H86.12a20.41 20.41 0 0 0-20.41 20.42v26.15A20.41 20.41 0 0 1 86.12 128h127.53a20.41 20.41 0 0 1 20.42 20.41V122.3a20.42 20.42 0 0 0-20.42-20.42z" fill="url(#B)"/><g class="T"><path d="M30.06 67.43a22.2 22.2 0 0 0-3.41 1.9 22.53 22.53 0 0 0-3 2.37A22.32 22.32 0 0 0 19 77.58a22.55 22.55 0 0 0-2.44 6.93 29 29 0 0 0-.45 7.34L14.72 90a61.07 61.07 0 0 0 6 1.36 45.07 45.07 0 0 0 6.06.66 19.69 19.69 0 0 0 5.67-.51 6.27 6.27 0 0 0 3.81-2.4L39 92.83l-.65.23-.74.32-1.46.73A19.64 19.64 0 0 0 33.42 96a18.52 18.52 0 0 0-4.31 4.94c-2.3 3.74-3.1 8.38-3.1 13.06l-1.33-1.72A46.18 46.18 0 0 0 31 114a35.44 35.44 0 0 0 6.57.66 21.74 21.74 0 0 0 6.51-.85 14.37 14.37 0 0 0 5.8-3.3 14 14 0 0 1-2.31 2.62 16.1 16.1 0 0 1-3 2 21.64 21.64 0 0 1-6.87 2 35.51 35.51 0 0 1-7.14.13 34.9 34.9 0 0 1-3.54-.43c-1.2-.2-2.32-.42-3.56-.75l-1.2-.3-.15-1.4a29.76 29.76 0 0 1 .17-8A23.85 23.85 0 0 1 25 98.52a22.44 22.44 0 0 1 5.32-6.39 24.28 24.28 0 0 1 3.43-2.36 19.31 19.31 0 0 1 1.87-1 13.03 13.03 0 0 1 1-.41 10.84 10.84 0 0 1 1.06-.36l6.5-1.92-3.75 5.72a9.86 9.86 0 0 1-3.1 2.94 12.43 12.43 0 0 1-3.66 1.47 23.49 23.49 0 0 1-7.12.49 43.47 43.47 0 0 1-6.7-1 52.31 52.31 0 0 1-6.44-1.87L12 93.3v-1.38a32.93 32.93 0 0 1 1.19-8.23 24.74 24.74 0 0 1 3.6-7.5 22.7 22.7 0 0 1 5.91-5.66 20.9 20.9 0 0 1 7.36-3.1zm-12.12 63.5a19.21 19.21 0 0 0-2.33 2.7 20 20 0 0 0-1.85 3 20.61 20.61 0 0 0-2.08 13.13 26.56 26.56 0 0 0 1.86 6.43l-1.94-1.33 5.57-.68a41.12 41.12 0 0 0 5.39-1.29 18.23 18.23 0 0 0 4.67-2.15 5.5 5.5 0 0 0 2.45-3.11l3.85 2.64-.47.38-.53.5-1 1.07a17.42 17.42 0 0 0-4 7.9 22.21 22.21 0 0 0 1.3 12.15l-1.83-1.2a43.5 43.5 0 0 0 5.94-.49 31.64 31.64 0 0 0 5.84-1.4 19.59 19.59 0 0 0 5.36-2.66 13.49 13.49 0 0 0 4-4.57 12.55 12.55 0 0 1-1.17 3 14.14 14.14 0 0 1-2 2.61 19.86 19.86 0 0 1-5.3 3.87 32.86 32.86 0 0 1-6.12 2.34 31.54 31.54 0 0 1-3.2.73l-3.3.45-1.2.1-.62-1.27a27.29 27.29 0 0 1-2.33-7 21.85 21.85 0 0 1-.11-7.57 20.77 20.77 0 0 1 2.65-7.2 21.69 21.69 0 0 1 2.25-3.12 19.64 19.64 0 0 1 1.34-1.4c.23-.23.48-.44.73-.66s.48-.4.86-.68l5.5-4-1.64 6.6a9.22 9.22 0 0 1-1.81 3.57A11.82 11.82 0 0 1 30 154.8a21.81 21.81 0 0 1-6 2.61 39.74 39.74 0 0 1-6.1 1.17 46.3 46.3 0 0 1-6.15.34h-1.52l-.43-1.3a30.59 30.59 0 0 1-1.47-7.49 22.63 22.63 0 0 1 .86-7.6 20.71 20.71 0 0 1 3.41-6.7 18.93 18.93 0 0 1 5.34-4.89z"/><path d="M37.35 125.13a21.68 21.68 0 0 0-1.2 3.71 22.56 22.56 0 0 0-.59 3.8 22.15 22.15 0 0 0 .64 7.46 23.06 23.06 0 0 0 2.94 6.72 31.37 31.37 0 0 0 4.68 5.68l-2.4-.4 4.7-3.5 4.54-3.7 4.3-4 2.07-2.2 2.07-2.42a15 15 0 0 1-1.48 6.43 22.69 22.69 0 0 1-3.62 5.52 28.92 28.92 0 0 1-4.9 4.36 28.53 28.53 0 0 1-5.78 3.17l-1.5.6-.9-1a32.06 32.06 0 0 1-4.74-6.83 24 24 0 0 1-2.49-7.94 22.83 22.83 0 0 1 .46-8.17 20.93 20.93 0 0 1 3.21-7.28z"/></g><path d="M11.38 272.75s-5.73 15.9 10.93 27.1c0 0 11.66-2.2 18.22-15.12 0 0-2.08 12.46 14.27 20.5 0 0 14.43-7.9 11.2-19.8" class="U"/><path d="M11.38 272.75a23.1 23.1 0 0 0 6.3 20.83 29.82 29.82 0 0 0 5.77 4.58l-1.52-.32a15.03 15.03 0 0 0 1.22-.39l1.3-.5a27.92 27.92 0 0 0 2.56-1.25 27.1 27.1 0 0 0 4.56-3.24 27.39 27.39 0 0 0 3.82-4.09 30.67 30.67 0 0 0 3-4.76l6.1-12.14-1.5 13.68v1.2a13.37 13.37 0 0 0 .1 1.4 14.26 14.26 0 0 0 .61 2.78 17.39 17.39 0 0 0 2.65 5.15 23.36 23.36 0 0 0 4.12 4.33 35.45 35.45 0 0 0 5.17 3.49h-1.78a31.79 31.79 0 0 0 4.78-3.12 23.82 23.82 0 0 0 4.12-4 15.41 15.41 0 0 0 2.76-5 13.68 13.68 0 0 0 .47-5.93 12.78 12.78 0 0 1 .83 3 13.08 13.08 0 0 1 0 3.19 16 16 0 0 1-2.08 6.12 27.71 27.71 0 0 1-6.34 7.25 28.36 28.36 0 0 1-2.68 1.93l-.77.48-1-.44a29.45 29.45 0 0 1-11.43-8.39 21.77 21.77 0 0 1-3.57-6.52 20.79 20.79 0 0 1-.84-3.69 17.53 17.53 0 0 1-.15-1.92v-1a9.23 9.23 0 0 1 .11-1.13l4.67 1.54a33.54 33.54 0 0 1-3.55 5.53 30.65 30.65 0 0 1-4.64 4.68 29.76 29.76 0 0 1-5.56 3.57 31 31 0 0 1-3 1.3 19.88 19.88 0 0 1-3.31.92l-.88.16-.65-.47a33 33 0 0 1-6.07-5.68 24.62 24.62 0 0 1-4.1-7.24 22.67 22.67 0 0 1-1.27-8.08 20.83 20.83 0 0 1 1.66-7.8z" class="T"/><path d="M84.7 280.37s-9 14.34 5 28.8c0 0 12.93-6.55 16.76-17.64" class="U"/><g class="T"><path d="M84.7 280.37a20.88 20.88 0 0 0-1.21 3.71 23.59 23.59 0 0 0-.58 3.8 21.89 21.89 0 0 0 .63 7.46 23.33 23.33 0 0 0 2.94 6.72 31 31 0 0 0 4.69 5.68l-2.4-.4 4.68-3.5 4.54-3.7 4.3-4 2.08-2.2 2.07-2.42A15 15 0 0 1 105 298a22.69 22.69 0 0 1-3.66 5.51 29.36 29.36 0 0 1-4.9 4.36 28.53 28.53 0 0 1-5.83 3.13l-1.5.6-.9-1a31.68 31.68 0 0 1-4.75-6.82 24.24 24.24 0 0 1-2.46-7.96 22.83 22.83 0 0 1 .45-8.17 20.77 20.77 0 0 1 3.24-7.28zm-63.54-87.3a31.32 31.32 0 0 0-2.29 6.32 30.21 30.21 0 0 0-.86 6.27 31.12 31.12 0 0 0 .46 6.17 40.48 40.48 0 0 0 1.58 6.07l-1.55-1.4a16.13 16.13 0 0 0 1.41.35l1.55.25a24.2 24.2 0 0 0 3.19.24 27.34 27.34 0 0 0 6.42-.6 28.91 28.91 0 0 0 6.24-2.12 39 39 0 0 0 5.85-3.6 23.17 23.17 0 0 1-4.8 5.25A23.81 23.81 0 0 1 32 219.9a25.51 25.51 0 0 1-7.23 1.65 27.61 27.61 0 0 1-3.75 0c-.63 0-1.26-.1-1.9-.18a17.66 17.66 0 0 1-2-.36l-1.05-.26-.5-1.15a27.46 27.46 0 0 1-2.06-7.06 22.88 22.88 0 0 1 .1-7.43 20.4 20.4 0 0 1 2.58-6.9 15.61 15.61 0 0 1 4.96-5.15zm10.26 40.44a30.56 30.56 0 0 0 .14 6.72 29.58 29.58 0 0 0 1.44 6.16 31 31 0 0 0 2.64 5.61 40.72 40.72 0 0 0 3.66 5.1l-1.95-.76c.36 0 .95-.1 1.44-.18l1.54-.32a25.59 25.59 0 0 0 3.06-.92 27.24 27.24 0 0 0 5.77-2.92 28.48 28.48 0 0 0 5.07-4.22 38.11 38.11 0 0 0 4.16-5.46A23 23 0 0 1 55.8 249a23.57 23.57 0 0 1-4.59 5.68 25.56 25.56 0 0 1-6.21 4.11 27.78 27.78 0 0 1-3.48 1.4l-1.82.5a18.24 18.24 0 0 1-2 .37l-1.07.14-.88-.9a27.21 27.21 0 0 1-4.46-5.84 22.48 22.48 0 0 1-2.57-7 20.24 20.24 0 0 1-.08-7.36 15.59 15.59 0 0 1 2.78-6.6zM269.94 67.43a20.9 20.9 0 0 1 7.34 3.1 22.7 22.7 0 0 1 5.91 5.66 24.74 24.74 0 0 1 3.6 7.5 32.93 32.93 0 0 1 1.21 8.23v1.38l-1.42.52a52.31 52.31 0 0 1-6.44 1.87 43.47 43.47 0 0 1-6.7 1 23.49 23.49 0 0 1-7.12-.49 12.43 12.43 0 0 1-3.66-1.47 9.86 9.86 0 0 1-3.1-2.94l-3.75-5.7 6.5 1.92a10.84 10.84 0 0 1 1.11.38l1 .4a19.31 19.31 0 0 1 1.87 1 24.28 24.28 0 0 1 3.43 2.36A22.44 22.44 0 0 1 275 98.5a23.85 23.85 0 0 1 2.64 7.77 29.76 29.76 0 0 1 .17 8l-.15 1.4-1.2.3c-1.24.33-2.37.55-3.56.75a34.9 34.9 0 0 1-3.54.43 35.51 35.51 0 0 1-7.14-.13 21.64 21.64 0 0 1-6.87-2 16.1 16.1 0 0 1-3-2 13.61 13.61 0 0 1-2.31-2.62 14.37 14.37 0 0 0 5.8 3.3 21.74 21.74 0 0 0 6.51.85A35.44 35.44 0 0 0 269 114a46.18 46.18 0 0 0 6.33-1.65L274 114c.06-4.7-.78-9.35-3.1-13.13a18.52 18.52 0 0 0-4.32-4.87 19.64 19.64 0 0 0-2.74-1.85c-.47-.27-1-.5-1.46-.73-.25-.12-.5-.22-.74-.32l-.65-.23 2.74-3.77a6.27 6.27 0 0 0 3.81 2.4 19.69 19.69 0 0 0 5.67.51 45.07 45.07 0 0 0 6.06-.66 61.07 61.07 0 0 0 6-1.36l-1.4 1.9a29 29 0 0 0-.45-7.34 22.55 22.55 0 0 0-2.43-6.97 24.24 24.24 0 0 0-11.06-10.15zm12.12 63.5a18.93 18.93 0 0 1 5.43 4.87 20.71 20.71 0 0 1 3.41 6.7 22.63 22.63 0 0 1 .86 7.6 30.59 30.59 0 0 1-1.47 7.49l-.43 1.3h-1.52a46.3 46.3 0 0 1-6.15-.34 39.74 39.74 0 0 1-6.1-1.17 21.81 21.81 0 0 1-6-2.61 11.82 11.82 0 0 1-2.76-2.43 9.22 9.22 0 0 1-1.81-3.57l-1.64-6.6 5.5 4 .86.68.73.66 1.34 1.4a21.69 21.69 0 0 1 2.25 3.12 20.77 20.77 0 0 1 2.65 7.2 21.85 21.85 0 0 1-.11 7.57 27.29 27.29 0 0 1-2.33 7l-.66 1.2-1.2-.1a36.24 36.24 0 0 1-3.31-.45 31.54 31.54 0 0 1-3.2-.73 32.86 32.86 0 0 1-6.12-2.34 19.86 19.86 0 0 1-5.3-3.87 14.14 14.14 0 0 1-2-2.61 12.55 12.55 0 0 1-1.17-3 13.49 13.49 0 0 0 4 4.57 19.59 19.59 0 0 0 5.36 2.66 31.64 31.64 0 0 0 5.84 1.4 43.5 43.5 0 0 0 5.94.49l-1.84 1.17a22.21 22.21 0 0 0 1.3-12.15 17.42 17.42 0 0 0-4-7.9l-1-1.07-.53-.5-.47-.38 3.85-2.64a5.5 5.5 0 0 0 2.45 3.11 18.23 18.23 0 0 0 4.67 2.15 41.12 41.12 0 0 0 5.39 1.29c1.83.32 3.77.54 5.57.68l-1.94 1.33a26.56 26.56 0 0 0 1.86-6.43 21.37 21.37 0 0 0-3.93-16.11 19.21 19.21 0 0 0-2.25-2.65z"/><path d="M262.65 125.13a20.93 20.93 0 0 1 3.25 7.28 22.83 22.83 0 0 1 .46 8.17 24.26 24.26 0 0 1-2.49 7.94 32.06 32.06 0 0 1-4.74 6.83l-.9 1-1.5-.6a28.53 28.53 0 0 1-5.78-3.17 28.92 28.92 0 0 1-4.9-4.36 22.69 22.69 0 0 1-3.66-5.51 15 15 0 0 1-1.48-6.43l2.07 2.42 2.07 2.2 4.3 4 4.54 3.7 4.7 3.5-2.4.4a31.37 31.37 0 0 0 4.68-5.68 23.06 23.06 0 0 0 2.94-6.72 22.15 22.15 0 0 0 .64-7.46 22.56 22.56 0 0 0-.59-3.8 21.68 21.68 0 0 0-1.2-3.72z"/></g><path d="M288.62 272.75s5.73 15.9-10.93 27.1c0 0-11.66-2.2-18.22-15.12 0 0 2.08 12.46-14.27 20.5 0 0-14.43-7.9-11.2-19.8" class="U"/><path d="M288.62 272.75a20.83 20.83 0 0 1 1.65 7.8 22.67 22.67 0 0 1-1.27 8.08 24.62 24.62 0 0 1-4.1 7.24 33 33 0 0 1-6.07 5.68l-.65.47-.88-.16a19.88 19.88 0 0 1-3.31-.92 31 31 0 0 1-3-1.3 29.76 29.76 0 0 1-5.52-3.57 30.65 30.65 0 0 1-4.64-4.68 33.54 33.54 0 0 1-3.55-5.53l4.67-1.54a9.23 9.23 0 0 1 .11 1.13v1a17.53 17.53 0 0 1-.15 1.92 20.79 20.79 0 0 1-.84 3.69 21.77 21.77 0 0 1-3.57 6.52 29.45 29.45 0 0 1-11.44 8.42l-1 .44-.77-.48a28.36 28.36 0 0 1-2.68-1.93 27.71 27.71 0 0 1-6.38-7.26 16 16 0 0 1-2.08-6.12 13.08 13.08 0 0 1 0-3.19 12.78 12.78 0 0 1 .83-3 13.68 13.68 0 0 0 .47 5.93 15.41 15.41 0 0 0 2.76 5 23.82 23.82 0 0 0 4.12 4 31.79 31.79 0 0 0 4.78 3.12h-1.78a35.45 35.45 0 0 0 5.17-3.49 23.36 23.36 0 0 0 4.17-4.33 17.39 17.39 0 0 0 2.65-5.15 14.26 14.26 0 0 0 .61-2.78 13.37 13.37 0 0 0 .1-1.4v-1.2l-1.43-13.68 6.1 12.14a30.67 30.67 0 0 0 3 4.76 27.39 27.39 0 0 0 3.82 4.09 27.1 27.1 0 0 0 4.56 3.24 27.92 27.92 0 0 0 2.51 1.25q.65.27 1.3.5l1.22.4-1.52.32a29.82 29.82 0 0 0 5.77-4.58 23.74 23.74 0 0 0 6.3-20.83z" class="T"/><path d="M215.3 280.37s8.95 14.34-5 28.8c0 0-12.93-6.55-16.76-17.64" class="U"/><path d="M215.3 280.37a20.77 20.77 0 0 1 3.26 7.28 22.83 22.83 0 0 1 .45 8.17 24.24 24.24 0 0 1-2.48 7.94 31.68 31.68 0 0 1-4.75 6.82l-.9 1-1.5-.6a28.53 28.53 0 0 1-5.78-3.17 29.36 29.36 0 0 1-4.9-4.36 22.69 22.69 0 0 1-3.66-5.51 15 15 0 0 1-1.49-6.43l2.07 2.42 2.08 2.2 4.3 4 4.54 3.7 4.68 3.5-2.4.4a31 31 0 0 0 4.69-5.68 23.33 23.33 0 0 0 2.94-6.72 21.89 21.89 0 0 0 .63-7.46 23.59 23.59 0 0 0-.58-3.8 20.88 20.88 0 0 0-1.21-3.71zm63.54-87.3a15.61 15.61 0 0 1 4.92 5.2 20.4 20.4 0 0 1 2.58 6.9 22.88 22.88 0 0 1 .1 7.43 27.46 27.46 0 0 1-2.06 7.06l-.5 1.15-1.05.26a17.66 17.66 0 0 1-2 .36l-1.9.18a27.61 27.61 0 0 1-3.75 0 25.51 25.51 0 0 1-7.19-1.7 23.81 23.81 0 0 1-6.33-3.65 23.17 23.17 0 0 1-4.8-5.25 39 39 0 0 0 5.85 3.6 28.91 28.91 0 0 0 6.24 2.12 27.34 27.34 0 0 0 6.42.6 24.2 24.2 0 0 0 3.19-.24l1.55-.25c.55-.1 1.06-.24 1.4-.35l-1.53 1.4a40.48 40.48 0 0 0 1.58-6.07 31.12 31.12 0 0 0 .46-6.17 30.21 30.21 0 0 0-.86-6.27 31.32 31.32 0 0 0-2.34-6.32zm-10.26 40.44a15.59 15.59 0 0 1 2.73 6.62 20.24 20.24 0 0 1-.08 7.36 22.48 22.48 0 0 1-2.57 7 27.21 27.21 0 0 1-4.46 5.84l-.88.9-1.07-.14a18.24 18.24 0 0 1-2-.37l-1.82-.5a27.78 27.78 0 0 1-3.48-1.4 25.56 25.56 0 0 1-6.17-4.14 23.57 23.57 0 0 1-4.58-5.67 23 23 0 0 1-2.59-6.62 38.11 38.11 0 0 0 4.16 5.46 28.48 28.48 0 0 0 5.07 4.22 27.24 27.24 0 0 0 5.77 2.87 25.59 25.59 0 0 0 3.06.92l1.54.32 1.44.18-1.95.76a40.72 40.72 0 0 0 3.66-5.1 31 31 0 0 0 2.64-5.59 29.58 29.58 0 0 0 1.44-6.16 30.56 30.56 0 0 0 .14-6.75zm-152.36 18.02a18.58 18.58 0 0 0-3.27 5.66 19.43 19.43 0 0 0-1.25 6.27 20.63 20.63 0 0 0 .75 6.26 28.29 28.29 0 0 0 2.36 5.86l-1.4-.8a40.9 40.9 0 0 0 6.63-1.5 31.79 31.79 0 0 0 6.2-2.59 18.51 18.51 0 0 0 5-4 13.9 13.9 0 0 0 1.72-2.5 13.22 13.22 0 0 0 1-2.8l2.45-9.9 1.93 10.1a43.48 43.48 0 0 0 1.94 6.78 47.19 47.19 0 0 0 2.95 6.46 32.35 32.35 0 0 0 4 5.69 25.49 25.49 0 0 0 5.15 4.43l-2.57-.08c.32-.18.8-.5 1.2-.77l1.24-.9a30.09 30.09 0 0 0 2.33-2 25.51 25.51 0 0 0 3.87-4.77 22.83 22.83 0 0 0 2.46-5.51 20.43 20.43 0 0 0 .75-6l-.26-16.25 4.6 15.5a7.87 7.87 0 0 0 .37 1c.16.35.33.7.52 1a19.58 19.58 0 0 0 1.28 2 19.32 19.32 0 0 0 3.28 3.55 21.42 21.42 0 0 0 4.1 2.71 28.41 28.41 0 0 0 4.67 1.86l-1.47.4a33.46 33.46 0 0 0 4.41-5.29 29.4 29.4 0 0 0 3.28-6.13 20.25 20.25 0 0 0 1.37-6.81 17.16 17.16 0 0 0-1.4-6.94 16.45 16.45 0 0 1 2.4 6.89 20.25 20.25 0 0 1-.64 7.42 30.83 30.83 0 0 1-2.86 6.9 36.67 36.67 0 0 1-4.37 6.15l-.53.6-.93-.18a25.84 25.84 0 0 1-10.41-4.55 23.32 23.32 0 0 1-4.22-4 19.51 19.51 0 0 1-1.69-2.43l-.72-1.32a12.47 12.47 0 0 1-.64-1.51l4.3-.76a24.83 24.83 0 0 1-.64 7.38 23.94 23.94 0 0 1-2.85 6.84 30.14 30.14 0 0 1-4.53 5.75 32.85 32.85 0 0 1-2.71 2.43l-1.46 1.1c-.46.35-1 .68-1.62 1.06l-1.3.72-1.28-.83a29.29 29.29 0 0 1-6.14-5.38 37 37 0 0 1-4.58-6.59 43.75 43.75 0 0 1-3.16-7.24 47.26 47.26 0 0 1-1.92-7.69l4.38.2a16.17 16.17 0 0 1-4 7.09 22.35 22.35 0 0 1-6.35 4.51 34.75 34.75 0 0 1-7.06 2.5 41.51 41.51 0 0 1-7.34 1.08l-1 .05-.38-.87a28.21 28.21 0 0 1-2-6.62 22.57 22.57 0 0 1-.15-6.91 20 20 0 0 1 2.09-6.5 18.1 18.1 0 0 1 4.11-5.28z" class="T"/><circle r="13.93" cy="126.58" cx="29.31" class="P R"/><circle r="13.93" cy="121.78" cx="29.31" class="Q"/><path d="M32.25,127.3a11,11,0,0,1-9.31-8.68.5.5,0,0,1,0-.12,2.23,2.23,0,0,0-4.23-.57,10.94,10.94,0,0,0,14.65,14.44,2.68,2.68,0,0,0-1-5.05Z" class="P"/><circle r="4.16" cy="115.02" cx="32.32" class="S"/><circle r="13.93" cy="82.21" cx="53.7" class="P R"/><circle r="13.93" cy="77.41" cx="53.7" class="Q"/><path d="M56.64,82.94a11,11,0,0,1-9.31-8.69.5.5,0,0,0,0-.12,2.23,2.23,0,0,0-4.22-.57A10.93,10.93,0,0,0,57.73,88a2.68,2.68,0,0,0-1-5Z" class="P"/><circle r="4.16" cy="70.66" cx="56.71" class="S"/><circle r="13.93" cy="211.47" cx="45.56" class="P R"/><circle r="13.93" cy="206.68" cx="45.56" class="Q"/><path d="M48.5 212.2a11 11 0 0 1-9.3-8.69v-.12a2.23 2.23 0 0 0-4.22-.56 10.94 10.94 0 0 0 14.62 14.44 2.68 2.68 0 0 0-1-5.05z" class="P"/><circle r="4.16" cy="199.92" cx="48.58" class="S"/><circle r="13.93" cy="263.54" cx="20.07" class="P R"/><circle r="13.93" cy="258.75" cx="20.07" class="Q"/><use xlink:href="#C" class="P"/><circle r="4.16" cy="251.99" cx="23.08" class="S"/><circle r="13.93" cy="268.34" cx="73.64" class="P R"/><circle r="13.93" cy="263.54" cx="73.64" class="Q"/><path d="M76.58,269.07a11,11,0,0,1-9.31-8.69.5.5,0,0,1,0-.12,2.23,2.23,0,0,0-4.23-.57A10.94,10.94,0,0,0,71.5,275.1a10.91,10.91,0,0,0,6.17-1,2.68,2.68,0,0,0-1-5.05Z" class="P"/><circle r="4.16" cy="256.79" cx="76.65" class="S"/><circle r="13.93" cy="82.29" cx="246.3" class="P R"/><circle r="13.93" cy="77.5" cx="246.3" class="Q"/><use xlink:href="#C" x="226.24" y="-181.27" class="P"/><circle r="4.16" cy="70.74" cx="249.31" class="S"/><circle r="13.93" cy="126.76" cx="270.69" class="P R"/><circle r="13.93" cy="121.97" cx="270.69" class="Q"/><path d="M273.63 127.5a11 11 0 0 1-9.3-8.69v-.12a2.23 2.23 0 0 0-4.22-.56 10.94 10.94 0 0 0 14.65 14.44 2.68 2.68 0 0 0-1-5z" class="P"/><circle r="4.16" cy="115.21" cx="273.71" class="S"/><circle r="13.93" cy="211.47" cx="254.44" class="P R"/><circle r="13.93" cy="206.68" cx="254.44" class="Q"/><path d="M257.37,212.2a11,11,0,0,1-9.3-8.69.5.5,0,0,1,0-.12,2.23,2.23,0,0,0-4.23-.56,10.94,10.94,0,0,0,14.65,14.44,2.68,2.68,0,0,0-1-5.05Z" class="P"/><circle r="4.16" cy="199.92" cx="257.45" class="S"/><circle r="13.93" cy="263.34" cx="279.93" class="P R"/><circle r="13.93" cy="258.55" cx="279.93" class="Q"/><path d="M282.87,264.07a11,11,0,0,1-9.31-8.69.5.5,0,0,0,0-.12,2.23,2.23,0,0,0-4.22-.56A10.94,10.94,0,0,0,284,269.14a2.68,2.68,0,0,0-1-5.05Z" class="P"/><circle r="4.16" cy="251.79" cx="282.94" class="S"/><circle r="13.93" cy="268.14" cx="226.36" class="P R"/><circle r="13.93" cy="263.34" cx="226.36" class="Q"/><path d="M229.3,268.87a11,11,0,0,1-9.31-8.69.5.5,0,0,0,0-.12,2.23,2.23,0,0,0-4.22-.57,10.94,10.94,0,0,0,14.65,14.44,2.68,2.68,0,0,0-1-5.05Z" class="P"/><circle r="4.16" cy="256.59" cx="229.38" class="S"/><path d="M34.5 164c-1.82-3.72-8.7-6-8.7-6s-.5.3-1.24.8a24.78 24.78 0 0 0-6.14-3.21 25.6 25.6 0 0 0-2.36 1.58c-4.5-.9-11 2.17-11 2.17s-2 6.9-.43 11.22a25.35 25.35 0 0 0-1.2 2.58 24.88 24.88 0 0 0 4.11 5.58c-.37.8-.58 1.34-.58 1.34s3.36 6.43 7.35 7.65c1.66 2.3 4.24 5 7 4.88a3.92 3.92 0 0 0 1.89-.68 5 5 0 0 0 2.78.78 4.22 4.22 0 0 0 2.41-1.07c2.7 1.18 7.27 0 10.3-3.54s3.5-8.25 1.9-10.73a4.18 4.18 0 0 0 .68-2.54 4.94 4.94 0 0 0-1.2-2.63 3.81 3.81 0 0 0 .39-2c-.34-2.73-3.47-4.85-5.98-6.17z" class="P R"/><path d="M20.76 151.14c2.42 2.07 2.28 7.6-1.15 11.6s-8.87 5-11.3 2.94c-4-3.44-1.05-13.5-1.05-13.5s9.48-4.5 13.5-1.05z" class="V"/><path d="M29.78 156c-.44-4.6-9.12-7.53-9.12-7.53s-7.54 4.3-7.52 8.77c-4.42.68-7.5 8.78-7.5 8.78s4.23 8.13 8.84 7.86c2.78-.17 5.6-4.1 5.32-8.7a10.19 10.19 0 0 0-.52-2.69 10.36 10.36 0 0 0 2.74.11c4.6-.48 8.03-3.87 7.76-6.6z" class="T"/><path d="M37.17 158.4c-.45-4.6-9.13-7.53-9.13-7.53a23.22 23.22 0 0 0-6.15 5.22 28.8 28.8 0 0 0-7.47 2.23 28.32 28.32 0 0 0-1 7.72 23.21 23.21 0 0 0-4.21 6.88s4.2 8.1 8.8 7.86c2.78-.17 5.6-4.1 5.32-8.7a3.13 3.13 0 0 0 0-.43A11.87 11.87 0 0 0 29 165h.44c4.56-.46 8-3.85 7.73-6.6z" class="W"/><path d="M42.62 163.06c-.44-4.6-9.12-7.53-9.12-7.53a23.05 23.05 0 0 0-6.15 5.22 28.8 28.8 0 0 0-7.47 2.25 28.56 28.56 0 0 0-1.05 7.72 23.07 23.07 0 0 0-4.2 6.88s4.23 8.13 8.84 7.86c2.78-.17 5.6-4.08 5.32-8.7v-.43a11.79 11.79 0 0 0 5.67-6.63h.44c4.56-.48 8-3.87 7.72-6.64z" class="X"/><path d="M43.44 167.65c-.44-4.6-9.13-7.52-9.13-7.52s-7.53 4.3-7.52 8.77c-4.42.67-7.5 8.78-7.5 8.78s4.24 8.13 8.85 7.85c2.77-.16 5.6-4.08 5.32-8.7a10.61 10.61 0 0 0-.53-2.69 10 10 0 0 0 2.74.1c4.6-.44 8.04-3.83 7.77-6.6z" class="Y"/><path d="M42 169.32c2.42 2.07 2.28 7.6-1.16 11.6s-8.87 5-11.28 2.93c-4-3.43-1.05-13.5-1.05-13.5s9.5-4.48 13.5-1.05z" class="Q"/><path d="M123.2 272.46c-.6-4.13-6.44-8.42-6.44-8.42s-.56.12-1.42.37a24.8 24.8 0 0 0-4.89-4.91 26.39 26.39 0 0 0-2.72.78c-4-2.22-11.17-1.26-11.17-1.26s-4 6-3.8 10.56a25.11 25.11 0 0 0-1.92 2.1 24.68 24.68 0 0 0 2.23 6.55l-1 1.1s1.25 7.14 4.68 9.52c.9 2.68 2.52 6.08 5.15 6.75a3.84 3.84 0 0 0 2-.08 5.06 5.06 0 0 0 2.41 1.59 4.2 4.2 0 0 0 2.62-.3c2.2 1.95 6.94 2.2 10.9-.25s5.82-6.8 5.06-9.65a4.12 4.12 0 0 0 1.42-2.21 5 5 0 0 0-.34-2.87 4 4 0 0 0 1-1.76c.58-2.66-1.75-5.62-3.76-7.62z" class="P R"/><path d="M114 257.76c1.68 2.7-.13 7.92-4.62 10.7s-10 2.1-11.64-.6c-2.8-4.5 3.08-13.18 3.08-13.18s10.4-1.4 13.18 3.1z" class="V"/><path d="M121.14 265.1c1-4.52-6.42-9.94-6.42-9.94s-8.48 1.8-9.82 6.08c-4.4-.7-9.8 6.1-9.8 6.1s1.57 9 6.05 10.16c2.7.7 6.56-2.2 7.7-6.67a10.29 10.29 0 0 0 .31-2.72 10.26 10.26 0 0 0 2.58.92c4.52.98 8.82-1.22 9.4-3.93z" class="T"/><path d="M127.45 269.63c1-4.52-6.42-9.94-6.42-9.94a23 23 0 0 0-7.44 3.12 28.42 28.42 0 0 0-7.79-.14 28.55 28.55 0 0 0-3.34 7 23 23 0 0 0-6.09 5.33s1.57 9 6 10.16c2.7.68 6.56-2.2 7.7-6.67 0-.15.06-.3.1-.43a11.95 11.95 0 0 0 7.41-4.6l.43.1c4.56.97 8.86-1.22 9.45-3.94z" class="W"/><path d="M131.23 275.73c1-4.5-6.42-9.93-6.42-9.93a23.2 23.2 0 0 0-7.44 3.11 28.44 28.44 0 0 0-7.79-.14 28.71 28.71 0 0 0-3.33 7 23.28 23.28 0 0 0-6.1 5.29s1.58 9 6 10.16c2.7.7 6.57-2.2 7.7-6.67l.1-.43a11.84 11.84 0 0 0 7.41-4.6l.42.1c4.57 1 8.87-1.18 9.45-3.9z" class="X"/><path d="M130.62 280.36c1-4.52-6.42-9.93-6.42-9.93s-8.48 1.8-9.82 6.07c-4.42-.7-9.8 6.1-9.8 6.1s1.58 9 6.05 10.17c2.7.68 6.57-2.2 7.7-6.68a10.67 10.67 0 0 0 .31-2.72 10.27 10.27 0 0 0 2.58.93c4.52.97 8.78-1.22 9.4-3.94z" class="Y"/><path d="M128.75 281.52c1.68 2.7-.12 7.92-4.6 10.7s-10 2.08-11.65-.62c-2.8-4.5 3.1-13.18 3.1-13.18s10.42-1.43 13.17 3.1z" class="Q"/><path d="M281.55 170.1c3.16-2.73 3.65-10 3.65-10s-.4-.4-1.08-1a24.67 24.67 0 0 0 1.52-6.76 24.29 24.29 0 0 0-2.12-1.87c-.28-4.6-4.93-10.1-4.93-10.1s-7.2-.2-11 2.45a24.31 24.31 0 0 0-2.8-.49 24.61 24.61 0 0 0-4.33 5.4c-.88-.16-1.45-.22-1.45-.22s-5.35 4.9-5.5 9.06c-1.8 2.2-3.8 5.4-2.93 8a3.91 3.91 0 0 0 1.14 1.65 5 5 0 0 0 0 2.89 4.27 4.27 0 0 0 1.65 2.05c-.46 2.9 1.86 7 6.06 9s8.87 1.26 10.86-.9a4.18 4.18 0 0 0 2.64 0 5 5 0 0 0 2.23-1.83 3.82 3.82 0 0 0 2-.14c2.55-.86 3.85-4.4 4.4-7.18z" class="P R"/><path d="M279 146.52c-1.38 2.86-6.75 4.14-11.5 1.85s-7.12-7.3-5.74-10.15c2.3-4.77 12.78-4.48 12.78-4.48s6.72 8 4.47 12.78z" class="V"/><path d="M276.6 156.47c4.33-1.6 4.93-10.75 4.93-10.75s-6.08-6.18-10.4-5c-1.8-4.1-10.4-5-10.4-5s-6.78 6.18-5.33 10.57c.87 2.64 5.38 4.36 9.77 2.9a10.22 10.22 0 0 0 2.46-1.2 10.15 10.15 0 0 0 .61 2.68c1.6 4.32 5.76 6.76 8.37 5.8z" class="T"/><path d="M276.16 164.23c4.33-1.6 4.93-10.75 4.93-10.75a23.15 23.15 0 0 0-6.62-4.61 28.38 28.38 0 0 0-4.07-6.64 28.35 28.35 0 0 0-7.73 1 23.23 23.23 0 0 0-7.73-2.3s-6.77 6.18-5.32 10.56c.87 2.64 5.38 4.36 9.76 2.92l.4-.16a11.89 11.89 0 0 0 3.57 2.64 11.74 11.74 0 0 0 4.29 1.15l.14.4c1.6 4.3 5.76 6.75 8.37 5.78z" class="W"/><path d="M273.05 170.7c4.33-1.6 4.95-10.7 4.95-10.7a23.15 23.15 0 0 0-6.62-4.61 28.76 28.76 0 0 0-4.07-6.64 28.58 28.58 0 0 0-7.73 1 23.1 23.1 0 0 0-7.73-2.31s-6.77 6.18-5.33 10.57c.87 2.64 5.38 4.36 9.77 2.9l.4-.15a11.85 11.85 0 0 0 7.86 3.78c0 .14.08.28.13.42 1.6 4.25 5.75 6.7 8.36 5.73z" class="X"/><path d="M268.8 172.67c4.33-1.6 4.93-10.75 4.93-10.75s-6.08-6.18-10.4-5c-1.8-4.1-10.4-5-10.4-5s-6.77 6.18-5.32 10.56c.87 2.64 5.38 4.36 9.76 2.92a10.29 10.29 0 0 0 2.47-1.2 10.37 10.37 0 0 0 .6 2.67c1.6 4.3 5.77 6.77 8.37 5.8z" class="Y"/><path d="M266.83 171.7c-1.38 2.87-6.75 4.15-11.5 1.86s-7.1-7.3-5.73-10.16c2.3-4.76 12.77-4.47 12.77-4.47s6.76 8.06 4.47 12.77z" class="Q"/><path d="M201.2 275.28c3.85-1.6 6.6-8.3 6.6-8.3s-.25-.5-.7-1.28a25.07 25.07 0 0 0 3.57-5.94 25.17 25.17 0 0 0-1.43-2.45c1.18-4.45-1.5-11.14-1.5-11.14s-6.74-2.44-11.17-1.16a25.84 25.84 0 0 0-2.51-1.35 24.6 24.6 0 0 0-5.81 3.76c-.8-.42-1.3-.66-1.3-.66s-6.62 3-8.08 6.86c-2.4 1.52-5.3 3.93-5.3 6.65a3.9 3.9 0 0 0 .57 1.92 4.9 4.9 0 0 0-.95 2.73 4.18 4.18 0 0 0 .92 2.47c-1.35 2.62-.45 7.26 2.9 10.5s8 4 10.6 2.56a4.2 4.2 0 0 0 2.5.84 5 5 0 0 0 2.7-1 3.91 3.91 0 0 0 1.94.51c2.72-.1 5.02-3.08 6.47-5.5z" class="P R"/><path d="M206.16 252.08c-2.2 2.28-7.7 1.8-11.5-1.87s-4.45-9.16-2.24-11.44c3.68-3.8 13.53-.22 13.53-.22s3.9 9.73.22 13.53z" class="V"/><path d="M200.8 260.8c4.6-.16 8.06-8.65 8.06-8.65s-3.82-7.78-8.28-8c-.4-4.45-8.3-8-8.3-8s-8.37 3.73-8.38 8.35c0 2.78 3.73 5.83 8.35 5.84a10.37 10.37 0 0 0 2.71-.36 10.59 10.59 0 0 0-.27 2.73c.16 4.55 3.32 8.18 6.12 8.1z" class="T"/><path d="M197.93 268c4.6-.16 8.07-8.65 8.07-8.65a23 23 0 0 0-4.84-6.46 28.56 28.56 0 0 0-1.76-7.59 28.57 28.57 0 0 0-7.64-1.52 23.3 23.3 0 0 0-6.62-4.62s-8.37 3.73-8.38 8.35c0 2.78 3.73 5.83 8.35 5.84h.44a11.85 11.85 0 0 0 6.27 6.06v.44c.18 4.62 3.33 8.25 6.1 8.15z" class="W"/><path d="M192.93 273.17c4.62-.16 8.07-8.65 8.07-8.65a23.09 23.09 0 0 0-4.83-6.46 28.81 28.81 0 0 0-1.77-7.59 28.46 28.46 0 0 0-7.64-1.52 23.17 23.17 0 0 0-6.61-4.62s-8.37 3.73-8.38 8.35c0 2.78 3.73 5.83 8.35 5.84h.43a12 12 0 0 0 2.56 3.63 11.77 11.77 0 0 0 3.71 2.43v.44c.18 4.6 3.33 8.25 6.1 8.15z" class="X"/><path d="M188.3 273.7c4.62-.16 8.07-8.65 8.07-8.65s-3.82-7.78-8.3-8c-.4-4.45-8.3-8-8.3-8s-8.38 3.72-8.4 8.34c0 2.78 3.74 5.84 8.36 5.85a10.37 10.37 0 0 0 2.71-.36 10.52 10.52 0 0 0-.27 2.72c.16 4.56 3.33 8.2 6.1 8.1z" class="Y"/><path d="M186.72 272.17c-2.22 2.3-7.72 1.8-11.52-1.86s-4.45-9.16-2.24-11.45c3.68-3.8 13.54-.22 13.54-.22s3.9 9.73.22 13.53zm-37.78-193.9s16.85 28.55 17.46 43.2-9.7 31.7-3.25 42.9l19.37-23 4.1 25.47s22.3-31.14 11.8-53.23c-8.5-18-19.65-8.6-21.66-24.54" class="Q"/><path d="M198.44 113.58c-8.5-18-19.65-8.6-21.66-24.54l-27.84-10.76a226.15 226.15 0 0 1 11.88 23.61C172 110 187.1 115 200.1 118.1a26.88 26.88 0 0 0-1.66-4.51z" fill="#1d78c9"/><path d="M151.06 78.28s-16.85 28.55-17.46 43.2 9.7 31.7 3.25 42.9l-19.37-23-4.1 25.47s-22.3-31.14-11.8-53.23c8.5-18 19.65-8.6 21.66-24.54" class="Q"/><path d="M101.56 113.58c8.5-18 19.65-8.6 21.66-24.54l27.84-10.76a226.15 226.15 0 0 0-11.88 23.61C128 110 112.9 115 99.9 118.1a26.88 26.88 0 0 1 1.66-4.51z" fill="#1d78c9"/><g class="Q"><path d="M221 26.6c5.8 6.5 6.93 16.86 3.62 25.48a33.89 33.89 0 0 0-2.33 12 33.9 33.9 0 0 0 2.33 12c3.3 8.62 2.2 19-3.62 25.47-5 5.6-12.13 8.4-19.55 6.68-24-5.58-55.72-17.92-55.72-44.12s31.7-38.53 55.72-44.12C208.87 18.18 216 21 221 26.6z"/><path d="M79 26.6c-5.8 6.5-6.93 16.86-3.62 25.48a33.89 33.89 0 0 1 2.33 12 33.9 33.9 0 0 1-2.33 12c-3.3 8.62-2.2 19 3.62 25.47 5 5.6 12.13 8.4 19.55 6.68 24-5.58 55.72-17.92 55.72-44.12s-31.7-38.6-55.72-44.2C91.13 18.18 84 21 79 26.6z"/></g><g class="P"><ellipse ry="23.34" rx="24.03" cy="64.03" cx="149.83"/><path d="M194.1 46.7a89.69 89.69 0 0 1-7.8 6.1l-8.15 5.4-8.4 4.92-4.27 2.3-4.33 2.2-.15-7.2q4.33 2 8.6 4.16 4.26 2.16 8.4 4.56l8.2 5a89.15 89.15 0 0 1 7.87 5.74 92.19 92.19 0 0 1-9.49-2.2l-9.17-2.9-9-3.37-8.77-3.76L150 64.2l11.97-5.86 4.4-2 9-3.75 9.2-3.28a93.24 93.24 0 0 1 9.5-2.6zm-88.52 0a93.24 93.24 0 0 1 9.56 2.57l9.2 3.28 9 3.75 4.4 2 11.96 5.86-7.73 3.52-8.77 3.76-9 3.37-9.17 2.9a92.19 92.19 0 0 1-9.49 2.2 89.15 89.15 0 0 1 7.87-5.74l8.2-5 8.4-4.56 8.6-4.16-.12 7.2-4.33-2.2-4.27-2.3-8.4-4.92-8.15-5.4a89.69 89.69 0 0 1-7.79-6.14z"/></g><ellipse ry="16.84" rx="17.34" cy="64.03" cx="149.83" class="Q"/></svg>