<svg id="Layer_1" data-name="Layer 1" xmlns="http://www.w3.org/2000/svg" xmlns:xlink="http://www.w3.org/1999/xlink" viewBox="0 0 300 345"><defs><style>.cls-1{fill:url(#linear-gradient);}.cls-2{fill:#c2def4;}.cls-3{fill:url(#radial-gradient);}.cls-4{fill:url(#radial-gradient-2);}.cls-5{fill:#80aecf;}.cls-6{fill:#15141a;}</style><linearGradient id="linear-gradient" x1="150" y1="355.75" x2="150" y2="167.11" gradientUnits="userSpaceOnUse"><stop offset="0" stop-color="#dae6f5"/><stop offset="0.69" stop-color="#73a0d5"/></linearGradient><radialGradient id="radial-gradient" cx="257.54" cy="187.7" r="37.58" gradientUnits="userSpaceOnUse"><stop offset="0" stop-color="#f493aa"/><stop offset="0.09" stop-color="#f395ac" stop-opacity="0.97"/><stop offset="0.22" stop-color="#f19cb2" stop-opacity="0.89"/><stop offset="0.38" stop-color="#eea7bc" stop-opacity="0.76"/><stop offset="0.56" stop-color="#e9b7ca" stop-opacity="0.57"/><stop offset="0.76" stop-color="#e3cadc" stop-opacity="0.33"/><stop offset="0.97" stop-color="#dbe2f1" stop-opacity="0.05"/><stop offset="1" stop-color="#dae6f5" stop-opacity="0"/></radialGradient><radialGradient id="radial-gradient-2" cx="42.46" cy="187.7" r="37.58" xlink:href="#radial-gradient"/></defs><g id="halloween"><path class="cls-1" d="M250.77,341.43l-10-5c-19.29-9.53-41.81-6.18-61.53,2.43h0a73,73,0,0,1-58.42,0h0c-19.72-8.61-42.24-12-61.53-2.43l-10,5C27.34,352.24,1,337.29,0,312.9q0-.75,0-1.5V261.92H300V311.4q0,.75,0,1.5C299,337.29,272.66,352.24,250.77,341.43Z"/><path class="cls-2" d="M263.62,45H36.38A36.38,36.38,0,0,0,0,81.38V264.79q0,.75,0,1.5c1,24.39,27.31,39.35,49.2,28.53l10-5c19.29-9.53,41.81-6.18,61.53,2.43h0a72.93,72.93,0,0,0,58.42,0h0c19.72-8.61,42.24-12,61.53-2.43l10,5c21.89,10.82,48.21-4.14,49.2-28.53q0-.75,0-1.5V81.38A36.38,36.38,0,0,0,263.62,45Z"/><circle class="cls-3" cx="257.54" cy="187.7" r="37.58"/><circle class="cls-4" cx="42.46" cy="187.7" r="37.58"/><path class="cls-2" d="M42.32,222.76s15.07-19.63,49.61-12c18.33,4.05,24.63,17.89,21.22,30s-16.29,14.52-39,14.24c-16.29-.19-22.47,12.48-22.47,12.48"/><path class="cls-5" d="M42.32,222.76a21.13,21.13,0,0,1,3.14-4.34,29,29,0,0,1,4-3.69l1.07-.84,1.12-.77c.77-.49,1.51-1.05,2.32-1.46l2.42-1.3c.83-.39,1.68-.72,2.52-1.08l1.28-.53c.43-.16.87-.28,1.3-.42.88-.27,1.76-.55,2.64-.8,1.78-.45,3.58-.78,5.39-1.09s3.65-.38,5.47-.46,3.65,0,5.47,0l5.44.45c1.79.25,3.57.57,5.36.86A39,39,0,0,1,102,210.69a29.87,29.87,0,0,1,9.31,7.09,24.86,24.86,0,0,1,5.41,22.5c-.12.48-.22,1-.36,1.45l-.52,1.45a18,18,0,0,1-1.3,2.83,8.55,8.55,0,0,1-.85,1.33c-.3.44-.6.87-.92,1.29l-1.09,1.17a8.94,8.94,0,0,1-1.14,1.08A25.36,25.36,0,0,1,99.89,256a64.18,64.18,0,0,1-10.84,1.5c-3.58.22-7.11.22-10.64.19l-2.63-.06c-.88,0-1.79-.05-2.54,0a28.83,28.83,0,0,0-4.74.32,27.68,27.68,0,0,0-16.84,9.57,22.6,22.6,0,0,1,10.58-12.16,25.5,25.5,0,0,1,5.29-2,28,28,0,0,1,5.61-.8c1-.08,1.8-.07,2.67-.09l2.58,0c3.42-.11,6.84-.25,10.2-.6A57.19,57.19,0,0,0,98.31,250a20.18,20.18,0,0,0,7.93-4,12.65,12.65,0,0,0,3.91-7.21,20,20,0,0,0-.09-8.78c-1.39-5.71-5.62-10.44-11.14-13.22a33.54,33.54,0,0,0-9-3.06c-1.63-.31-3.26-.66-4.9-.94l-5-.55a59.62,59.62,0,0,0-19.57,1.83A51,51,0,0,0,42.32,222.76Z"/><path class="cls-2" d="M257.68,222.76s-15.07-19.63-49.61-12c-18.33,4.05-24.63,17.89-21.22,30s16.29,14.52,39,14.24c16.29-.19,22.47,12.48,22.47,12.48"/><path class="cls-5" d="M257.68,222.76a51,51,0,0,0-18.18-8.69,59.62,59.62,0,0,0-19.57-1.83l-5,.55c-1.64.28-3.27.63-4.9.94a33.54,33.54,0,0,0-9,3.06c-5.52,2.78-9.75,7.51-11.14,13.22a20,20,0,0,0-.09,8.78,12.65,12.65,0,0,0,3.91,7.21,20.18,20.18,0,0,0,7.93,4,57.19,57.19,0,0,0,9.72,1.73c3.36.35,6.78.49,10.2.6l2.58,0c.87,0,1.69,0,2.67.09a28,28,0,0,1,5.61.8,25.5,25.5,0,0,1,5.29,2,20.35,20.35,0,0,1,2.4,1.48,21.06,21.06,0,0,1,8.18,10.68,27.68,27.68,0,0,0-16.84-9.57,28.83,28.83,0,0,0-4.74-.32c-.75,0-1.66,0-2.54,0l-2.63.06c-3.53,0-7.06,0-10.64-.19a64.18,64.18,0,0,1-10.84-1.5,25.36,25.36,0,0,1-10.63-5.09,8.94,8.94,0,0,1-1.14-1.08l-1.09-1.17c-.32-.42-.62-.85-.92-1.29a8.55,8.55,0,0,1-.85-1.33,18,18,0,0,1-1.3-2.83l-.52-1.45c-.14-.48-.24-1-.36-1.45a24.86,24.86,0,0,1,5.41-22.5,29.87,29.87,0,0,1,9.31-7.09,39,39,0,0,1,10.75-3.39c1.79-.29,3.57-.61,5.36-.86l5.44-.45c1.82-.06,3.65,0,5.47,0s3.65.29,5.47.46,3.61.64,5.39,1.09c.88.25,1.76.53,2.64.8.43.14.87.26,1.3.42l1.28.53c.84.36,1.69.69,2.52,1.08l2.42,1.3c.81.41,1.55,1,2.32,1.46l1.12.77,1.07.84a29,29,0,0,1,4,3.69A21.13,21.13,0,0,1,257.68,222.76Z"/><path class="cls-6" d="M181.89,197.6c0,23.08-11.38,41.78-31.89,41.78s-31.89-18.7-31.89-41.78c0,0,14.28,10.44,31.89,10.44S181.89,197.6,181.89,197.6Z"/><path class="cls-6" d="M260.56,146a49.22,49.22,0,0,0-19.83-11.11,56.82,56.82,0,0,0-31.73,0A49.37,49.37,0,0,0,189.18,146c-10,9.43-14.25,22.5-8.54,34.76,5.94,12.77,19.19,4.63,33.39.83a36.4,36.4,0,0,1,21.67,0c14.21,3.8,27.45,11.94,33.4-.83C274.8,168.54,270.6,155.47,260.56,146Z"/><path class="cls-6" d="M110.82,146A49.25,49.25,0,0,0,91,134.93a56.85,56.85,0,0,0-31.74,0A49.37,49.37,0,0,0,39.44,146c-10,9.43-14.24,22.5-8.54,34.76,6,12.77,19.19,4.63,33.4.83A42.19,42.19,0,0,1,75.13,180,42.27,42.27,0,0,1,86,181.63c14.2,3.8,27.44,11.94,33.39-.83C125.07,168.54,120.86,155.47,110.82,146Z"/></g></svg>