<svg xmlns="http://www.w3.org/2000/svg" viewBox="0 0 300 345"><defs><linearGradient id="A" x1="150" y1="356.11" x2="150" y2="161.16" gradientUnits="userSpaceOnUse"><stop offset="0" stop-color="#e7bf9a"/><stop offset=".69" stop-color="#a3704a"/></linearGradient></defs><path d="M263.62,345H36.38A36.38,36.38,0,0,1,0,308.62V259.14H300v49.48A36.38,36.38,0,0,1,263.62,345Z" fill="url(#A)"/><rect y="45" width="300" height="253.39" rx="36.38" fill="#e7bf9a"/><path d="M184.82 309c0 21.76-20.1 29.72-20.1 29.72l-2.95-11.8s-1.18 9.26-22.9 14.24l-.43-16.6-8.32 17.84s-14.94-14.17-14.94-33.4 9.95-39.23 34.82-39.23 34.82 20 34.82 39.23z" fill="#c59a74"/><path d="M184.82 300.38c0 21.76-20.1 29.72-20.1 29.72v-22s-.54 18.7-22.42 26.08l1.07-28.87-13.26 28.44s-14.94-14.18-14.94-33.4 9.95-39.22 34.82-39.22 34.82 20.03 34.82 39.26z" fill="#e7bf9a"/><ellipse cx="150" cy="141.17" rx="58.76" ry="97.91" fill="#fbe2cd"/><path d="M195.45,270.27C150,285,150,240.83,150,240.83s0,44.15-45.45,29.44" fill="none" stroke="#414042" stroke-linecap="round" stroke-miterlimit="10" stroke-width="12"/><path d="M186.06 228.26a50.63 50.63 0 0 1-7.5 6.75 71.4 71.4 0 0 1-8.37 5.39l-2.2 1.18-2.27 1.07-2.33 1-2.4.9a33.91 33.91 0 0 1-11 2.25 33.92 33.92 0 0 1-11-2.23l-2.4-.92-2.33-1-2.26-1.06-2.2-1.18a71.74 71.74 0 0 1-8.36-5.39 50.28 50.28 0 0 1-7.5-6.77 140 140 0 0 1 19.25 3.35l9 2 2.15.44 2.08.38 1.94.26c.6 0 1.12.05 1.68.1l1.68-.1 1.94-.25c.65-.07 1.38-.27 2.08-.38l2.15-.44 9-2a142 142 0 0 1 19.18-3.36z" fill="#dd7399"/><circle cx="45.19" cy="177.62" r="36.45" fill="#c59a74"/><circle cx="45.19" cy="187.74" r="36.45" fill="#fff"/><path d="M77 182.45a13.21 13.21 0 0 1-19.2-17.9 22.88 22.88 0 1 0 19.2 17.9zM45 202.2a5.45 5.45 0 1 1 5.45-5.45 5.45 5.45 0 0 1-5.54 5.45z" fill="#414042"/><circle cx="254.81" cy="177.62" r="36.45" fill="#c59a74"/><circle cx="254.81" cy="187.74" r="36.45" fill="#fff"/><path d="M267.86 182.32a13.22 13.22 0 0 1-19.08-17.76 22.63 22.63 0 0 0-3.31-.24 22.9 22.9 0 1 0 22.39 18zm-32.22 19.9a5.45 5.45 0 1 1 5.45-5.45 5.45 5.45 0 0 1-5.45 5.45z" fill="#414042"/><g fill="#fbe2cd"><ellipse cx="62.04" cy="125.39" rx="12.66" ry="18.85" transform="matrix(.233954 -.972248 .972248 .233954 -74.38 156.36)"/><ellipse cx="237.96" cy="125.44" rx="18.85" ry="12.66" transform="matrix(.972248 -.233954 .233954 .972248 -22.75 59.17)"/></g><path d="M205.2 97c0-13-2.87-26.12-9.18-37a40.24 40.24 0 0 0-1-1.65l-.18-.27a.41.41 0 0 1 .07.11l-.15-.23a.83.83 0 0 1 .08.12l-.2-.33c-8.7-13.5-23.16-22.93-44.64-22.93-20.54 0-34.65 8.62-43.46 21.17-.4.58-.8 1.16-1.18 1.76l-.2.32.08-.12-.15.24.07-.12-.18.3a64.9 64.9 0 0 0-1 1.64c-6.3 10.87-9.18 24-9.18 37 0 26 17.2 46.13 22.28 51.52.88.93 1.4 1.43 1.4 1.43l13.92-27.3-.42 28c34.68-11.7 36.7-25.3 36.7-25.3l4.64 18.76a52 52 0 0 0 9.57-5.46l.64-.46c9.34-6.7 21.67-19.7 21.67-41.18z" fill="#e7bf9a"/><path d="M201.5 82c0 32.2-29.73 44-29.73 44V93.48s-.78 27.67-33.15 38.58l1.58-42.7-19.62 42.06s-22.1-21-22.1-49.42 14.73-58 51.5-58 51.5 29.55 51.5 58zM217 12.32l2.4 63.78a28.8 28.8 0 1 0 57.6 0c-.01-39.65-60-63.78-60-63.78zm-134 0L80.57 76.1a28.8 28.8 0 1 1-57.6 0C23 36.45 83 12.32 83 12.32z" fill="#c59a74"/><path d="M210.3 6.66l2.4 63.78a28.8 28.8 0 1 0 57.6 0c0-39.65-60-63.78-60-63.78zm-120.6 0l-2.4 63.78a28.8 28.8 0 0 1-57.6 0c0-39.65 60-63.78 60-63.78z" fill="#414042"/></svg>