<svg id="Layer_1" data-name="Layer 1" xmlns="http://www.w3.org/2000/svg" xmlns:xlink="http://www.w3.org/1999/xlink" viewBox="0 0 300 345"><defs><style>.cls-1{fill-opacity:0.8;fill:url(#linear-gradient);}.cls-2{fill:#61cbed;}.cls-3{fill:#0fafd2;}.cls-4{fill-opacity:0.9;fill:url(#linear-gradient-2);}.cls-5{fill:#04859b;opacity:0.5;}.cls-6{fill:none;stroke:#8e281d;stroke-miterlimit:10;stroke-width:12px;}.cls-7{fill:#f18221;}.cls-8{fill:#d25927;}.cls-9{fill:url(#linear-gradient-3);}.cls-10{fill:#fff;}.cls-11{fill:#414042;}</style><linearGradient id="linear-gradient" x1="151.48" y1="-64.9" x2="152.55" y2="697.94" gradientUnits="userSpaceOnUse"><stop offset="0.19" stop-color="#c7eaf7"/><stop offset="0.63" stop-color="#0fafd2"/></linearGradient><linearGradient id="linear-gradient-2" x1="151.81" y1="419.74" x2="151.81" y2="231.31" gradientUnits="userSpaceOnUse"><stop offset="0" stop-color="#61cbed"/><stop offset="0.7" stop-color="#0fafd2"/></linearGradient><linearGradient id="linear-gradient-3" x1="23.95" y1="211.82" x2="230.22" y2="211.82" gradientTransform="matrix(-1, 0, 0, 1, 300, 0)" gradientUnits="userSpaceOnUse"><stop offset="0.19" stop-color="#f18221"/><stop offset="0.85" stop-color="#d25927"/></linearGradient></defs><title>blook_goldfish</title><path class="cls-1" d="M277.06,46.91V36.38A36.38,36.38,0,0,0,240.68,0H63A36.38,36.38,0,0,0,26.57,36.38V46.91A36.39,36.39,0,0,0,1.81,81.38V262a36.38,36.38,0,0,0,36.38,36.38H265.43A36.38,36.38,0,0,0,301.81,262V81.38A36.38,36.38,0,0,0,277.06,46.91Z"/><path class="cls-2" d="M247.25,72.33H52.75c-17.2,0-31.14,14.93-31.14,33.35V247.2h0v42.74c0,18.42,13.94,33.35,31.14,33.35h194.5c17.2,0,31.14-14.93,31.14-33.35V105.68C278.39,87.26,264.45,72.33,247.25,72.33Z"/><path class="cls-3" d="M237.07,82.64H62.93c-15.39,0-27.87,6.19-27.87,13.83V99.1c0,7.64,12.48,13.83,27.87,13.83H237.07c15.39,0,27.87-6.19,27.87-13.83V96.47C264.94,88.83,252.46,82.64,237.07,82.64Z"/><path class="cls-4" d="M265.43,298.39H38.19A36.38,36.38,0,0,1,1.81,262v46.61A36.38,36.38,0,0,0,38.19,345H265.43a36.38,36.38,0,0,0,36.38-36.38V262A36.38,36.38,0,0,1,265.43,298.39Z"/><path class="cls-5" d="M222.59,18.66H77.41c-12.84,0-23.25,5.74-23.25,12.83v2.44c0,7.09,10.41,12.83,23.25,12.83H222.59c12.84,0,23.25-5.74,23.25-12.83V31.49C245.84,24.4,235.43,18.66,222.59,18.66Z"/><path class="cls-6" d="M47.63,236.33c30.22,18.16,46.23,6.63,54.3-6v8a32.87,32.87,0,0,0,32.86,32.87h2.49a133.49,133.49,0,0,0,2.87,16.1c25.63,0,40.37-7.33,48.85-16.1h20.77a32.87,32.87,0,0,0,32.86-32.87V227.8c2.46,1.35,5.25,1.71,7.77-.81,4.39-4.39.13-9.68-2.94-12.56,3.12-2.83,7.43-8.05,3-12.43-2.54-2.53-5.38-2.18-7.88-.84v-15.9a32.86,32.86,0,0,0-32.86-32.86h-7.89c-.08-.27-.17-.54-.25-.81a2.25,2.25,0,0,1-.08-.24c-.18-.53-.37-1.07-.57-1.61l-.1-.25c-.21-.55-.43-1.11-.68-1.67,0-.06,0-.13-.08-.19-5.63-12.77-20-27.74-56.66-27.74a128.12,128.12,0,0,0-3.56,26h0c0,1.76,0,3.52.1,5.25,0,.09,0,.17,0,.26,0,.35.05.7.07,1h-5.29a32.86,32.86,0,0,0-32.86,32.86v2.22c-8.07-12.62-24.08-24.16-54.3-6,0,0,3.51,17.85,16.14,27.42C51.14,218.47,47.63,236.33,47.63,236.33Zm195-21.72v-.33l.17.16Z"/><path class="cls-7" d="M63.77,208.91c-12.63-9.57-16.14-27.42-16.14-27.42,51.46-30.94,61.73,24.27,61.73,24.27-2,1.18-4,2.22-5.84,3.15,1.89.93,3.83,2,5.84,3.14,0,0-10.27,55.22-61.73,24.28C47.63,236.33,51.14,218.47,63.77,208.91Z"/><path class="cls-7" d="M200.33,241.81s3.71,45.54-60.18,45.54c0,0-8-31.12,0-45.54Z"/><path class="cls-8" d="M184.54,275.22H137.81c-1.53-10.33-2.44-24.82,2.34-33.41h60.18A41,41,0,0,1,184.54,275.22Z"/><path class="cls-7" d="M203.64,165.44s3.71-45.55-60.18-45.55c0,0-8,31.12,0,45.55Z"/><path class="cls-8" d="M199.28,145.85a40.79,40.79,0,0,1,4.36,19.59H143.46c-2.86-5.14-3.68-12.38-3.56-19.59Z"/><path class="cls-7" d="M235.84,207.49s8.29-11.86,14.67-5.49c4.38,4.39.07,9.6-3,12.43,3.07,2.88,7.33,8.17,2.94,12.56-6.37,6.37-14.51-5.64-14.51-5.64l6.91-6.91Z"/><rect class="cls-9" x="101.93" y="152.4" width="140.7" height="118.85" rx="32.86"/><rect class="cls-7" x="108.18" y="157.68" width="128.2" height="94.38" rx="29.94"/><circle class="cls-8" cx="191.67" cy="201.61" r="31.15"/><circle class="cls-10" cx="191.67" cy="210.26" r="31.15"/><path class="cls-11" d="M180.06,209.84a19.6,19.6,0,1,0,19.6-19.6,19.09,19.09,0,0,0-2.84.21,11.18,11.18,0,0,1,1.86,6.2,11.29,11.29,0,0,1-18.16,9A19.47,19.47,0,0,0,180.06,209.84ZM203.39,218a4.66,4.66,0,1,1,4.66,4.66A4.66,4.66,0,0,1,203.39,218Z"/></svg>