<svg xmlns="http://www.w3.org/2000/svg" xmlns:xlink="http://www.w3.org/1999/xlink" viewBox="0 0 300 345"><defs><linearGradient id="A" x1="150" y1="356.11" x2="150" y2="161.16" gradientUnits="userSpaceOnUse"><stop offset="0" stop-color="#9f77b5"/><stop offset=".69" stop-color="#613e98"/></linearGradient><linearGradient id="B" x1="150" y1="356.11" x2="150" y2="161.16" gradientUnits="userSpaceOnUse"><stop offset="0" stop-color="#e7bf9a"/><stop offset=".69" stop-color="#b7785f"/></linearGradient><radialGradient id="C" cx="95.53" cy="213.12" r="22.79" gradientUnits="userSpaceOnUse"><stop offset=".09" stop-color="#f080a5" stop-opacity=".97"/><stop offset=".17" stop-color="#f083a5" stop-opacity=".93"/><stop offset=".29" stop-color="#ef8aa3" stop-opacity=".84"/><stop offset=".44" stop-color="#ed95a1" stop-opacity=".68"/><stop offset=".62" stop-color="#eba59f" stop-opacity=".46"/><stop offset=".81" stop-color="#e8b99b" stop-opacity=".2"/><stop offset=".87" stop-color="#e7bf9a" stop-opacity=".1"/></radialGradient><radialGradient id="D" cx="204.47" xlink:href="#C"/><path id="E" d="M263.62,345H36.38A36.38,36.38,0,0,1,0,308.62V259.14H300v49.48A36.38,36.38,0,0,1,263.62,345Z"/></defs><use xlink:href="#E" fill="url(#A)"/><use xlink:href="#E" fill="url(#B)"/><rect y="45" width="300" height="253.39" rx="36.38" fill="#b9e4f4"/><path d="M286.14 215.27l5.47-7.23-13.8-10.44-7.88 10.4-2.9-.4 1.15-12.8-17.2-1.53-1.28 14.16H68.8l-2.46-14.53-17.06 2.9 2 11.64h-14.9a36.78 36.78 0 0 0-5.79.46l-8.5-13.57-14.66 9.18 7.06 11.26A36.33 36.33 0 0 0 0 243.83V262a36.38 36.38 0 0 0 36.38 36.38h227.24A36.38 36.38 0 0 0 300 262v-18.17a36.29 36.29 0 0 0-13.86-28.56z" fill="#e7bf9a"/><path d="M79.554 241.112L51.786 232.4l5.173-16.508 27.768 8.702zM90.472 278.5l-27.768-8.702 5.173-16.508 27.768 8.702zm100.225-1.316l-27.768-8.702 5.173-16.508 27.768 8.702zm-43.537-13.427l-28.118 7.497-4.457-16.716 28.118-7.497zm108.122-30.02l-27.086 10.637-6.324-16.103 27.086-10.637zm-235.958.24L43.3 250.48l-9.8 14.25-23.968-16.503zM239.73 268.64l-27.086 10.637-6.324-16.103 27.086-10.637zm40.87-9.22l-29.077-1.158.688-17.286 29.077 1.158z" fill="#d49d7e"/><path d="M216.16 82.68c-16.78 0-28.93 12.66-35.52 21.8H166.5L170.75 86a19.43 19.43 0 0 0-17.1 3.72l-2.86-12.15c-15.3 3.6-18.32 17.67-18.58 27h-12.85c-6.6-9.14-18.74-21.8-35.52-21.8-42.4 0-38.55 50.87-12.73 58.75v51.2c-2.8 3.74-4.45 8.88-4.45 15.67 0 7.1 1.8 12.42 4.86 16.2.2.34.4.7.6 1a36.87 36.87 0 0 0 17.18 23.17 13.44 13.44 0 0 0-2.75 9.1c.85 11.48 34.36-2.4 38.2-4h50.48c3.84 1.63 37.35 15.5 38.2 4a13.44 13.44 0 0 0-2.75-9.1 36.87 36.87 0 0 0 17.18-23.17 38.54 38.54 0 0 0 .61-1c3.05-3.8 4.86-9.1 4.86-16.2 0-6.8-1.65-11.93-4.45-15.67v-51.3c25.83-7.88 29.67-58.75-12.73-58.75z" fill="none" stroke-miterlimit="10" stroke="#49342b" stroke-width="12"/><g fill="#ce9176"><path d="M198.35 239.8s16 5.83 15.1 18-38.57-4.2-38.57-4.2v-15.54zm-96.7 0s-16 5.83-15.1 18 38.57-4.2 38.57-4.2v-15.54z"/><rect x="71.11" y="104.48" width="157.79" height="149.3" rx="36.85"/><path d="M221.93 142.46L175 113.7s14.94-31 41.2-31c46 0 37.58 59.78 5.77 59.78m-143.9-.02l47-28.76s-14.94-31-41.2-31c-46 0-37.58 59.78-5.77 59.78"/></g><path d="M96.64,234.77c-16.82,0-26.46-9.64-26.46-26.46s9.64-26.47,26.46-26.47h1.55l26.46,52.93Z" fill="#e7bf9a"/><path d="M96.64 184.34l24 47.93h-24c-13.23 0-24-6.63-24-24s10.73-24 24-24m3.1-5h-3.1c-18.13 0-29 10.83-29 29s10.83 29 29 29h32.06l-3.62-7.27-25.38-50.7z" fill="#ce9176"/><path d="M175.35,234.77l26.46-52.93h1.55c16.82,0,26.46,9.65,26.46,26.47s-9.64,26.46-26.46,26.46Z" fill="#e7bf9a"/><path d="M203.36 184.34c13.23 0 24 6.63 24 24s-10.73 24-24 24h-24l24-47.93m0-5h-3.1l-1.38 2.77-27.62 55.16h32.06c18.13 0 29-10.83 29-29s-10.83-29-29-29z" fill="#ce9176"/><path d="M123.8 228.5s12.38 15.76 1.84 22.5-27.1-20.33-27.1-20.33zm53.32-1.5s-12.38 15.77-1.84 22.5 26.2-19.4 26.2-19.4z" fill="#b7785f"/><g fill="#e7bf9a"><path d="M114.6 232.27h-24c-13.24 0-24-6.63-24-24s10.73-24 24-24zm70.8 0h24c13.24 0 24-6.63 24-24s-10.73-24-24-24z"/><path d="M123.55 226.76s11.17 10 1.66 15.24-20.07-9.73-20.07-9.73zm52.9 0s-11.17 10-1.66 15.24 20.07-9.73 20.07-9.73z"/><rect x="78.12" y="110.4" width="143.77" height="121.87" rx="33.58"/></g><g fill="#b7785f"><ellipse cx="185.41" cy="145.8" rx="14.56" ry="10.39" transform="matrix(.95424 -.299041 .299041 .95424 -35.11 62.11)"/><ellipse cx="114.59" cy="145.78" rx="10.39" ry="14.56" transform="matrix(.299041 -.95424 .95424 .299041 -58.78 211.54)"/></g><ellipse cx="95.53" cy="213.12" rx="17.59" ry="13.87" fill="url(#C)"/><ellipse cx="204.47" cy="213.12" rx="17.59" ry="13.87" fill="url(#D)"/><path d="M164.16 217.62c-10.7-4.7-14.16-16.35-14.16-16.35s-3.45 11.66-14.16 16.35" fill="none" stroke-miterlimit="10" stroke="#414042" stroke-linecap="round" stroke-width="7.09"/><path d="M159.36 187.6a5 5 0 0 1 2.36 9.4 24.76 24.76 0 0 1-23.44 0 5 5 0 0 1 2.36-9.4z" fill="#dd7399"/><circle cx="202.98" cy="179.16" r="22.49" fill="#b7785f"/><circle cx="202.98" cy="185.41" r="22.49" fill="#fff"/><path d="M211 182.06a8 8 0 0 1-4.95 1.69 8.17 8.17 0 0 1-6.82-12.65 15.33 15.33 0 0 0-2-.15 14.15 14.15 0 1 0 14.15 14.15 13.88 13.88 0 0 0-.38-3.04zm-19.88 12.28a3.37 3.37 0 1 1 3.37-3.37 3.36 3.36 0 0 1-3.34 3.37z" fill="#414042"/><circle cx="97.02" cy="179.16" r="22.49" fill="#b7785f"/><circle cx="97.02" cy="185.41" r="22.49" fill="#fff"/><path d="M116.62 182.15a8.16 8.16 0 0 1-13.43-6.23 8.05 8.05 0 0 1 1.59-4.82 13.13 13.13 0 0 0-2-.15 14.15 14.15 0 1 0 14.14 14.15 14.33 14.33 0 0 0-.3-2.95zm-19.77 12.2a3.37 3.37 0 1 1 3.36-3.37 3.37 3.37 0 0 1-3.36 3.37z" fill="#414042"/><g fill="#ce9176"><path d="M125.8 107.8l24.2 51.58 24.2-51.58h-48.4z"/><path d="M142.32,107.16s7.56-26,28.43-21.2l-6.05,26.35Z"/><path d="M132.7 112.94s-5.28-29.9 18.1-35.4l7 29.5z"/></g></svg>