<svg xmlns="http://www.w3.org/2000/svg" xmlns:xlink="http://www.w3.org/1999/xlink" viewBox="0 0 300 345"><defs><linearGradient id="A" x1="150" y1="356.11" x2="150" y2="161.16" gradientUnits="userSpaceOnUse"><stop offset="0" stop-color="#414042"/><stop offset=".52" stop-color="#353333"/></linearGradient><linearGradient id="B" x1="262.25" y1="237.53" x2="277.18" y2="292.04" gradientUnits="userSpaceOnUse"><stop offset="0" stop-color="#ecf7fe" stop-opacity=".1"/><stop offset="1" stop-color="#f27ba5"/></linearGradient><linearGradient id="C" x1="42.75" y1="230.25" x2="19.53" y2="297.5" xlink:href="#B"/></defs><path d="M263.62,345H36.38A36.38,36.38,0,0,1,0,308.62V259.14H300v49.48A36.38,36.38,0,0,1,263.62,345Z" fill="url(#A)"/><path d="M150 58.62C57.42 58.62 0 112.16 0 195v67a36.38 36.38 0 0 0 36.38 36.38h227.24A36.38 36.38 0 0 0 300 262v-67c0-82.84-57.42-136.38-150-136.38z" fill="#58595b"/><path d="M169.5 274.77L150 242.55l-19.5 32.22" fill="none" stroke="#414042" stroke-linecap="round" stroke-miterlimit="10" stroke-width="11.65"/><path d="M124.18 227c0 11 15 21.24 25.82 21.24s25.82-11.63 25.82-21.24-51.64-10.94-51.64 0z" fill="#414042"/><ellipse cx="271.63" cy="271.82" rx="17.59" ry="13.87" fill="url(#B)"/><ellipse cx="28.37" cy="271.82" rx="17.59" ry="13.87" fill="url(#C)"/><g fill="#414042"><circle cx="247.53" cy="216.36" r="44.15"/><circle cx="52.47" cy="216.36" r="44.15"/></g><g fill="#fff"><circle cx="247.53" cy="228.62" r="44.15"/><circle cx="52.47" cy="228.62" r="44.15"/></g><path d="M73.6 221.12a18.08 18.08 0 0 1-15-28.12c-15.54.27-21.17 14.1-21.17 31.14 0 17.2 6 31.15 21.63 31.15s21.63-14 21.63-31.15c0-1.5 0-3-.13-4.4a18.07 18.07 0 0 1-6.95 1.37zm-22 23.52a7.48 7.48 0 1 1 7.48-7.48 7.47 7.47 0 0 1-7.45 7.48zm204.92-23.52a18.08 18.08 0 0 1-15-28.14h-.57c-15.9 0-21.63 13.94-21.63 31.15s6 31.15 21.63 31.15 21.63-14 21.63-31.15q0-2-.12-4a17.93 17.93 0 0 1-5.94.99zm-22 23.52a7.48 7.48 0 1 1 .03 0z" fill="#414042"/><path d="M184 115c26-49.85 104.4-72.38 104.4-72.38h-.08s26.28 77.17.24 127c0 0-18.72 2.93-57.5-17.32S184 115 184 115zm-67.94 0C90 65.15 11.67 42.62 11.67 42.62h.08s-26.28 77.17-.24 127c0 0 18.72 2.93 57.5-17.32s47.06-37.3 47.06-37.3z" fill="#58595b"/><path d="M81 101.2C64.86 70.3 16.3 56.33 16.3 56.33h.05S.1 104.14 16.23 135c0 0 11.6 1.82 35.63-10.74S81 101.2 81 101.2zm138 0c16.14-30.9 64.7-44.86 64.7-44.86h-.05s16.3 47.84.15 78.74c0 0-11.6 1.82-35.63-10.74S219 101.2 219 101.2z" fill="#f6a9cb"/><path d="M191.6 117.52L215.76 64s-40.5-5.75-66 25.47l1.7-41.47s-52.23 14.24-52.23 59.56" fill="#58595b"/><g fill="#414042"><path d="M191.6 117.52c1.23-4.8 2.72-9.5 4.3-14.17s3.27-9.27 5-13.86c.86-2.3 1.8-4.55 2.7-6.83s1.9-4.52 2.9-6.76c2-4.48 4.06-8.9 6.43-13.2l2.4 4.3c-1.3-.17-2.84-.27-4.28-.33s-2.95-.07-4.43 0a84.71 84.71 0 0 0-8.86.62 79.55 79.55 0 0 0-17.2 4.1 73.42 73.42 0 0 0-8.08 3.53 67.26 67.26 0 0 0-7.47 4.54 64.88 64.88 0 0 0-12.84 11.93l-5.87 7.07 2.1-50.6 3.87 3.14c-1.47.5-3.1 1.2-4.67 1.85s-3.12 1.38-4.67 2.1c-3.08 1.48-6.1 3.06-9 4.8a83.94 83.94 0 0 0-16.13 12.16A57.28 57.28 0 0 0 106 88c-.8 1.48-1.4 3-2.12 4.58L103 95l-.47 1.2-.4 1.23c-1.2 3.24-1.92 6.65-2.9 10.2a37 37 0 0 1-.84-10.93l.1-1.4c0-.46.13-.9.2-1.37.14-.92.27-1.84.46-2.76a42.31 42.31 0 0 1 1.55-5.38 49.06 49.06 0 0 1 2.2-5.18c.9-1.64 1.8-3.3 2.84-4.86a56.39 56.39 0 0 1 6.92-8.82 73.3 73.3 0 0 1 8.29-7.47 80.15 80.15 0 0 1 9.24-6.1 85.39 85.39 0 0 1 9.9-4.83q2.55-1 5.16-1.92c1.77-.6 3.47-1.08 5.4-1.54l4.1-1.15-1.9 45.7-5.5-2.1a71.92 71.92 0 0 1 14.07-13.13 74.1 74.1 0 0 1 8.23-5 78.94 78.94 0 0 1 8.8-3.85 85.61 85.61 0 0 1 18.57-4.4 89 89 0 0 1 9.51-.67l4.8.05c1.6.05 3.14.16 4.9.38l3.84.3-1.45 4c-1.66 4.62-3.6 9.1-5.66 13.56-1 2.23-2.1 4.43-3.15 6.63s-2.18 4.4-3.33 6.56c-2.28 4.34-4.6 8.67-7.07 12.93s-5 8.53-7.8 12.64z"/><ellipse cx="233.85" cy="154.74" rx="12.66" ry="18.85" transform="matrix(.185838 -.98258 .98258 .185838 38.35 355.77)"/><ellipse cx="66.15" cy="154.74" rx="18.85" ry="12.66" transform="matrix(.98258 -.185838 .185838 .98258 -27.6 14.98)"/></g></svg>