<svg id="Layer_1" data-name="Layer 1" xmlns="http://www.w3.org/2000/svg" xmlns:xlink="http://www.w3.org/1999/xlink" viewBox="0 0 300 345"><defs><style>.cls-1{fill:url(#linear-gradient);}.cls-2{fill:#c68c3c;}.cls-10,.cls-3,.cls-6,.cls-7,.cls-8,.cls-9{stroke:#9e5a25;stroke-linecap:round;stroke-miterlimit:10;}.cls-10,.cls-3,.cls-7,.cls-8,.cls-9{stroke-width:7px;}.cls-3{fill:url(#linear-gradient-2);}.cls-4{fill:#9e5a25;}.cls-5{fill:#75441b;}.cls-6,.cls-9{fill:none;}.cls-6{stroke-width:5px;}.cls-7{fill:url(#linear-gradient-3);}.cls-8{fill:url(#linear-gradient-4);}.cls-10{fill:url(#linear-gradient-5);}</style><linearGradient id="linear-gradient" x1="150" y1="356.11" x2="150" y2="161.16" gradientUnits="userSpaceOnUse"><stop offset="0" stop-color="#c68c3c"/><stop offset="0.69" stop-color="#90321c"/></linearGradient><linearGradient id="linear-gradient-2" x1="219.58" y1="173.94" x2="219.58" y2="65.86" gradientUnits="userSpaceOnUse"><stop offset="0.14" stop-color="#c68c3c"/><stop offset="0.72" stop-color="#bc753a"/></linearGradient><linearGradient id="linear-gradient-3" x1="73.91" y1="253.1" x2="73.91" y2="205.82" gradientUnits="userSpaceOnUse"><stop offset="0.1" stop-color="#c68c3c"/><stop offset="0.87" stop-color="#bc753a"/></linearGradient><linearGradient id="linear-gradient-4" x1="91.35" y1="154.17" x2="91.35" y2="26.22" gradientUnits="userSpaceOnUse"><stop offset="0.4" stop-color="#c68c3c"/><stop offset="0.72" stop-color="#bc753a"/></linearGradient><linearGradient id="linear-gradient-5" x1="250.27" y1="257.64" x2="250.27" y2="186.54" gradientUnits="userSpaceOnUse"><stop offset="0.37" stop-color="#c68c3c"/><stop offset="0.72" stop-color="#bc753a"/></linearGradient></defs><g id="space"><g id="meteor"><path class="cls-1" d="M263.62,345H36.38A36.38,36.38,0,0,1,0,308.62V259.14H300v49.48A36.38,36.38,0,0,1,263.62,345Z"/><rect class="cls-2" y="45" width="300" height="253.39" rx="36.38"/><path class="cls-3" d="M170.08,163.61V122.92a22.64,22.64,0,0,1,22.64-22.64h53.73a22.64,22.64,0,0,1,22.64,22.64v40.69"/><rect class="cls-4" x="188.96" y="117.49" width="61.25" height="25.36" rx="12.68"/><path class="cls-5" d="M237.53,130.16H201.64a12.67,12.67,0,0,0-11,6.34,12.65,12.65,0,0,0,11,6.34h35.89a12.65,12.65,0,0,0,11-6.34A12.67,12.67,0,0,0,237.53,130.16Z"/><line class="cls-6" x1="210.49" y1="163.61" x2="210.49" y2="172.5"/><line class="cls-6" x1="228.68" y1="163.61" x2="228.68" y2="172.5"/><path class="cls-7" d="M32.54,251.87V222.54a16.32,16.32,0,0,1,16.32-16.31H99a16.32,16.32,0,0,1,16.32,16.31v29.33"/><rect class="cls-4" x="46.15" y="218.63" width="55.52" height="18.28" rx="9.14"/><path class="cls-5" d="M92.53,227.76H55.29a9.15,9.15,0,0,0-7.91,4.57,9.13,9.13,0,0,0,7.91,4.57H92.53a9.13,9.13,0,0,0,7.91-4.57A9.15,9.15,0,0,0,92.53,227.76Z"/><line class="cls-6" x1="64.82" y1="251.87" x2="64.82" y2="260.76"/><line class="cls-6" x1="83.01" y1="251.87" x2="83.01" y2="260.76"/><path class="cls-8" d="M60.66,103V92A13.64,13.64,0,0,1,74.3,78.4h34.1A13.64,13.64,0,0,1,122,92v11"/><path class="cls-9" d="M22.37,128.1v-11A13.64,13.64,0,0,1,36,103.5H63.28a13.64,13.64,0,0,1,13.64,13.64h0a11,11,0,0,0,11,11h36.57A10.59,10.59,0,0,1,135,138.68v10.89"/><path class="cls-10" d="M219.58,232.35v-11a13.64,13.64,0,0,1,13.64-13.64h34.1A13.64,13.64,0,0,1,281,221.39v11"/></g></g></svg>