<svg xmlns="http://www.w3.org/2000/svg" viewBox="0 0 300 345"><defs><linearGradient id="A" x1="150" y1="356.11" x2="150" y2="161.16" gradientUnits="userSpaceOnUse"><stop offset="0" stop-color="#995b3c"/><stop offset=".69" stop-color="#51291b"/></linearGradient></defs><path d="M263.62,345H36.38A36.38,36.38,0,0,1,0,308.62V259.14H300v49.48A36.38,36.38,0,0,1,263.62,345Z" fill="url(#A)"/><path d="M66.65 299.22c0 24.52 19.3 44.9 46.36 44.9h37.07l36.9-.17c27 0 46.36-20.37 46.36-44.9v-1.15H66.7c-.03.46-.04.9-.04 1.3z" fill="#7b412e"/><g fill="#995b3c"><path d="M205.94,45H94.06A94.06,94.06,0,0,0,0,139.06V262a36.38,36.38,0,0,0,36.38,36.38H263.62A36.38,36.38,0,0,0,300,262V139.06A94.06,94.06,0,0,0,205.94,45Z"/><path d="M192.22 185.2c-5-12.58-18-21-32.6-21h-19.38c-14.54.07-27.5 8.43-32.43 21-13 32.9-34.06 95-34.06 111.24 0 22.43 17.66 41.07 42.4 41.07h33.9l33.76-.15c24.75 0 42.4-18.64 42.4-41.06 0-7.93-3.2-26.85-10.42-47.86-7.58-21.98-16.96-46.4-23.6-63.24z"/></g><path d="M121.92 255.65c10.56 0 17.65 6 26.48 6s16-6.08 26.6-6.08a33.28 33.28 0 0 1 19.6 6.4 3.57 3.57 0 0 0 5.53-3.91v-.15c-6-20.2-15.1-77.22-20.08-94.2-3.7-12.68-13.44-21.12-24.36-21.12h-14.5c-10.86.07-20.54 8.5-24.23 21.12-5.17 17.7-13.67 67.64-20.57 94.87a3.57 3.57 0 0 0 5.56 3.78 33.4 33.4 0 0 1 19.97-6.71z" fill="#bb6d4a"/><path d="M207.28 299.2a14.27 14.27 0 1 1-24.16 15.19c-4.2-6.67.5-26 .5-26s19.46 4.13 23.65 10.8z" fill="#663723"/><path d="M204.42 306.6a14.11 14.11 0 0 1 2.12 8.84 14.26 14.26 0 0 0 .74-16.24c-4.2-6.68-23.65-10.8-23.65-10.8s-.8 3.35-1.46 7.73c4.53 1.1 18.74 4.87 22.25 10.48z" fill="#4c281b"/><path d="M92.72 299.2a14.27 14.27 0 1 0 24.16 15.19c4.2-6.67-.5-26-.5-26s-19.46 4.13-23.65 10.8z" fill="#663723"/><path d="M95.58 306.6c3.5-5.6 17.72-9.4 22.25-10.48-.65-4.38-1.46-7.73-1.46-7.73s-19.46 4.13-23.65 10.8a14.26 14.26 0 0 0 .74 16.24 14.11 14.11 0 0 1 2.12-8.84z" fill="#4c281b"/><path d="M80.43 183.83a36.46 36.46 0 0 1-72.91 0c0-20.14 16.32-26.34 36.46-26.34s36.45 6.2 36.45 26.34z" fill="#663723"/><path d="M80.43 200.06a36.46 36.46 0 0 1-72.91 0c0-20.13 16.32-25.22 36.46-25.22s36.45 5.1 36.45 25.22z" fill="#fff"/><path d="M75.74 194.77a13.21 13.21 0 0 1-19.19-17.91 23 23 0 1 0 19.19 17.91zm-32 19.76a5.46 5.46 0 1 1 5.46-5.45 5.45 5.45 0 0 1-5.51 5.45z" fill="#414042"/><path d="M292.48 183.83a36.46 36.46 0 0 1-72.91 0c0-20.14 16.32-26.34 36.45-26.34s36.46 6.2 36.46 26.34z" fill="#663723"/><path d="M292.48 200.06a36.46 36.46 0 0 1-72.91 0c0-20.13 16.32-25.22 36.45-25.22s36.46 5.1 36.46 25.22z" fill="#fff"/><path d="M269.07 194.64A13.22 13.22 0 0 1 250 176.87a24.25 24.25 0 0 0-3.32-.24 23 23 0 1 0 22.39 18zm-32.2 19.9a5.46 5.46 0 1 1 5.45-5.45 5.45 5.45 0 0 1-5.45 5.45z" fill="#414042"/><path d="M63 51.3c0 23.17-30.84 59.55-30.84 59.55S1.26 89.58 1.26 67.37c0-12.42 10-45 18.5-59.6a14.66 14.66 0 0 1 25.33 0S63 38.33 63 51.3zm235.74 15.57c0 22.2-30.9 43.47-30.9 43.47S237 73.93 237 50.77c0-13 17.9-43.5 17.9-43.5a14.67 14.67 0 0 1 25.33 0c8.5 14.6 18.5 47.18 18.5 59.6z" fill="#995b3c"/><g fill="#663723"><path d="M28.7 13.76a32.16 32.16 0 0 1 6.05 5.83l2.5 3.34 2.2 3.53a63.56 63.56 0 0 1 6.27 15.33l.9 4c.3 1.3.54 2.7.68 4.08l.45 4.12c.1 1.38.1 2.76.1 4.14a55.84 55.84 0 0 1-.56 8.26 36.28 36.28 0 0 1-.8 4.08 41.13 41.13 0 0 1-1.17 4 75.32 75.32 0 0 1-2.51-7.83L40.74 59l-1-3.77-1-3.74-.46-1.87-.5-1.85-1-3.72-4-14.87-4.07-15.42z"/><path d="M39.27 37.37l.3-.08a1.82 1.82 0 0 1-.23.15 6.94 6.94 0 0 0-.66.47 15.42 15.42 0 0 0-1.5 1.32A17.41 17.41 0 0 0 35.65 41l-.76 1-.7 1a55.67 55.67 0 0 0-4.88 9.87c-.38.9-.66 1.83-1 2.75l-.95 2.82-1.73 5.8-.8 3-.82 3-1.67 6.12-1.37-6.25c-.37-2.1-.56-4.23-.78-6.37a26.61 26.61 0 0 1-.19-3.23v-3.25c0-1.08.12-2.17.17-3.27l.28-3.3a43.83 43.83 0 0 1 3.74-13.26l.8-1.64 1-1.6a27.56 27.56 0 0 1 2.31-3.12 24 24 0 0 1 3.06-2.85A17.78 17.78 0 0 1 33.2 27l1.14-.58.7-.3.36-.14.65-.2zm232.03-24.1l-9.66 35.93-.46 1.87-1 3.74-.95 3.77-2.1 7.64a75.32 75.32 0 0 1-2.48 7.79 41.13 41.13 0 0 1-1.17-4 36.28 36.28 0 0 1-.8-4.08 55.84 55.84 0 0 1-.56-8.26l.1-4.14.45-4.12c.15-1.38.4-2.72.68-4.08l.9-4a63.56 63.56 0 0 1 6.3-15.32l2.2-3.53 2.5-3.34a32.48 32.48 0 0 1 6.05-5.87z"/><path d="M264 25.25l.65.2.36.14.7.3 1.14.58a17.78 17.78 0 0 1 1.89 1.27 24 24 0 0 1 3.06 2.85 27.56 27.56 0 0 1 2.31 3.12l1 1.6.8 1.64a44 44 0 0 1 3.74 13.26c.15 1.1.18 2.2.28 3.3l.17 3.26L280 60a26.89 26.89 0 0 1-.17 3.23l-.78 6.36-1.37 6.25-1.67-6.12c-.22-1-.54-2-.82-3l-.8-3-1.73-5.8c-.27-1-.64-1.88-.95-2.82l-1-2.75a55.67 55.67 0 0 0-4.88-9.87l-.7-1.06-.76-1a17.41 17.41 0 0 0-1.5-1.74 15.42 15.42 0 0 0-1.5-1.32 6.94 6.94 0 0 0-.66-.47 1.82 1.82 0 0 1-.23-.15l.3.08z"/></g><path d="M83.56 115.45c5.33 13.54 5.13 29.38-11.14 35.08S45 144.35 39.7 130.8s.17-27.95 12.28-32.2 26.24 3.3 31.57 16.84zm132.88 0c-5.33 13.54-5.13 29.38 11.14 35.08s27.38-6.18 32.7-19.72-.17-27.95-12.28-32.2-26.24 3.3-31.57 16.84z" fill="#7d4429"/><path d="M78.52 117.27c4.28 10.87 4.12 23.6-8.94 28.17s-22-5-26.26-15.83.13-22.44 9.85-25.85 21.07 2.65 25.35 13.5zm142.96 0c-4.28 10.87-4.12 23.6 8.94 28.17s22-5 26.26-15.83-.13-22.44-9.85-25.85-21.07 2.65-25.35 13.5z" fill="#663723"/><path d="M104.3 86.82c-16.32 5.87-25.78-4.14-33 3.8-4.5 5-3.27 10-1 15.2a12.85 12.85 0 0 1 1-1.21c7.2-7.93 16.65 2.08 33-3.8 10.28-3.7 21.87-30.87 18.43-47.45-2.33 14.8-10.73 30.7-18.43 33.46zm-64.1 13.42c-4-24.86-26.8-15.42-31.14-38.7a137.84 137.84 0 0 1-2-16.53 129 129 0 0 0 2 30.58c4.35 23.3 30.48 13.85 34.47 38.7M195.7 86.82c16.32 5.87 25.78-4.14 33 3.8 4.5 5 3.27 10 1 15.2a12.85 12.85 0 0 0-1-1.21c-7.2-7.93-16.65 2.08-33-3.8-10.28-3.7-21.87-30.87-18.43-47.45 2.33 14.8 10.73 30.7 18.43 33.46zm64.1 13.42c4-24.86 26.8-15.42 31.14-38.7A139.73 139.73 0 0 0 293 45a129.44 129.44 0 0 1-2 30.58c-4.34 23.3-30.48 13.85-34.47 38.7" fill="#7b412e"/><path d="M63.18 138.85c-10 0-22.42-10.06-27-38.3-1.96-11.7-8.37-15.1-15.18-18.72S6.76 74.25 4.42 61.9c-.74-3.85-6.83-38.06 4.46-53a16.14 16.14 0 0 1 11.78-6.7c.58 0 1.15-.08 1.7-.08 13 0 14.15 14.18 15.2 26.68 1.13 13.46 2.36 21.63 9.9 21.63h.2c5.6-.1 6.17-6.73 6.45-17.64.28-11.1.62-24.9 13.45-25.54h1.34c18.5 0 18.6 19 18.65 32.87C87.58 46.57 87.6 54 90 54h.3c3.83-.46 5.24-5 7-11.93C99 35 101 26.94 109 26.94a15.59 15.59 0 0 1 5.38 1.1c7.16 2.66 11.07 9.9 11 20.4C125.26 65.6 114.8 87.5 105 91a34.5 34.5 0 0 1-11.84 2.1 57.68 57.68 0 0 1-8.72-.8 39.19 39.19 0 0 0-5.52-.57 7.42 7.42 0 0 0-6.11 2.56c-4.3 4.75-2.47 9.3.9 16.3 2.5 5.23 5.36 11.17 3.58 17.53a14.5 14.5 0 0 1-14.1 10.72z" fill="#fbe2cd"/><path d="M22.36 4.07c21.85 0 4.85 48.3 25.1 48.3h.22c16.76-.3-.86-42.15 20-43.18h1.24C96 9.17 78.77 56 90 56h.55c11.3-1.38 6-27 18.36-27a13.57 13.57 0 0 1 4.69 1c20.42 7.6 4.38 54.3-9.34 59.24a32.44 32.44 0 0 1-11.1 1.86c-5.7 0-10.32-1.37-14.24-1.37a9.43 9.43 0 0 0-7.59 3.21c-9.8 10.8 7.57 22 4 34.66a12.55 12.55 0 0 1-12.18 9.25c-9.14 0-20.62-9.43-25.07-36.6C34 75.38 10.8 84.82 6.38 61.53 3 43.62.58 6 20.85 4.14c.52 0 1-.07 1.5-.07m0-4c-.6 0-1.24 0-1.88.1a18.05 18.05 0 0 0-13.2 7.49C-4.52 23.33 1.7 58.33 2.45 62.27 5 75.57 13 79.84 20.1 83.6c6.88 3.66 12.32 6.55 14.08 17.27 2.15 13.16 6 23.37 11.6 30.35 4.93 6.2 11.1 9.62 17.42 9.62a16.48 16.48 0 0 0 16-12.18c2-7.1-1-13.38-3.7-18.94-3.45-7.18-4.52-10.46-1.22-14.1a5.47 5.47 0 0 1 4.63-1.9 37.6 37.6 0 0 1 5.23.55 60.73 60.73 0 0 0 9 .82 36.11 36.11 0 0 0 12.49-2.19c11.58-4.16 21.6-27.92 21.7-44.46.06-11.4-4.32-19.3-12.32-22.3a17.42 17.42 0 0 0-5.99-1.22c-9.48 0-11.85 9.6-13.6 16.6-1.4 5.65-2.64 9.74-4.97 10.36-.84-1.9-.87-7.85-.9-11.9 0-7.1-.07-15.17-2.38-21.82-3-8.54-9.28-13-18.27-13h-1.44c-4.57.23-10.6 2.24-13.38 10.54-1.67 5-1.82 11.08-2 16.95C52 37.5 51.87 42 51 45.15c-.88 3-2 3.2-3.33 3.23h-.15c-5.4 0-6.75-5.83-7.92-19.8-.53-6.35-1.08-12.92-3.06-18.13C33.2 1.87 27 .07 22.36.07z" fill="#aa7750"/><path d="M236.82 138.85a14.5 14.5 0 0 1-14.1-10.72c-1.78-6.36 1.07-12.3 3.58-17.53 3.36-7 5.2-11.56.9-16.3a7.42 7.42 0 0 0-6.11-2.56 39.19 39.19 0 0 0-5.52.57 59 59 0 0 1-8.72.8A34.5 34.5 0 0 1 195 91c-9.8-3.53-20.28-25.42-20.37-42.6-.05-10.5 3.86-17.74 11-20.4a15.59 15.59 0 0 1 5.38-1.1c8 .03 10 8.1 11.7 15.1 1.7 6.9 3.12 11.47 7 11.93h.3c2.43 0 2.46-7.4 2.5-13.94.06-13.88.15-32.87 18.65-32.87h1.34c12.83.64 13.17 14.44 13.45 25.54.28 10.9.85 17.54 6.45 17.64h.2c7.55 0 8.78-8.17 9.9-21.63C263.54 16.16 264.72 2 277.7 2c.55 0 1.12 0 1.7.08a16.14 16.14 0 0 1 11.78 6.7c11.3 15 5.2 49.2 4.46 53.05-2.34 12.35-9.92 16.4-16.6 19.94s-13.2 7-15.1 18.72c-4.67 28.3-17.05 38.37-27.1 38.37z" fill="#fbe2cd"/><path d="M277.64 4.07l1.5.07C299.42 6 297 43.62 293.62 61.53c-4.43 23.3-27.66 13.85-31.73 38.7-4.45 27.18-15.93 36.6-25.07 36.6a12.55 12.55 0 0 1-12.18-9.25c-3.54-12.68 13.82-23.86 4-34.66a9.43 9.43 0 0 0-7.59-3.21c-3.92 0-8.55 1.37-14.24 1.37a32.44 32.44 0 0 1-11.14-1.95c-13.67-4.93-29.73-51.65-9.3-59.24a13.57 13.57 0 0 1 4.69-1c12.35 0 7 25.63 18.36 27h.55c11.27 0-6-46.82 21.14-46.82h1.24c20.83 1 3.2 42.9 20 43.18h.22c20.26 0 3.26-48.3 25.1-48.3m0-4c-4.64 0-10.85 1.8-14.13 10.4-2 5.2-2.53 11.77-3.06 18.12-1.17 14-2.53 19.8-7.92 19.8h-.15c-1.3 0-2.45-.28-3.33-3.23-.92-3.12-1-7.66-1.16-12.46-.15-5.87-.3-11.94-2-16.95-2.77-8.3-8.8-10.3-13.38-10.54h-1.44c-9 0-15.3 4.5-18.27 13-2.3 6.66-2.35 14.72-2.38 21.83 0 4 0 10-.9 11.88-2.33-.62-3.52-4.7-4.9-10.36-1.74-7-4.1-16.6-13.6-16.6a17.42 17.42 0 0 0-6.05 1.33c-8 3-12.38 10.9-12.32 22.3.1 16.54 10.12 40.3 21.7 44.46a36.11 36.11 0 0 0 12.49 2.19 60.73 60.73 0 0 0 9-.82 37.6 37.6 0 0 1 5.23-.55 5.47 5.47 0 0 1 4.63 1.9c3.3 3.64 2.23 6.92-1.22 14.1-2.66 5.56-5.68 11.85-3.7 18.94a16.48 16.48 0 0 0 16 12.18c6.3 0 12.5-3.4 17.42-9.62 5.54-7 9.44-17.2 11.6-30.35 1.76-10.72 7.2-13.6 14.08-17.27 7.08-3.77 15.1-8 17.64-21.34.75-3.94 7-38.94-4.83-54.62A18.05 18.05 0 0 0 279.52.16c-.64-.06-1.27-.1-1.88-.1z" fill="#aa7750"/></svg>