<svg id="Layer_1" data-name="Layer 1" xmlns="http://www.w3.org/2000/svg" xmlns:xlink="http://www.w3.org/1999/xlink" viewBox="0 0 300 345"><defs><style>.cls-1{fill:#e7b893;}.cls-2{fill:url(#linear-gradient);}.cls-3{fill:#d9916d;}.cls-4{fill:#15141a;}.cls-5{fill:#fff;}.cls-6{fill:#daa682;}.cls-7{fill:#e8d8c7;}</style><linearGradient id="linear-gradient" x1="150" y1="377.4" x2="150" y2="182.45" gradientUnits="userSpaceOnUse"><stop offset="0" stop-color="#bc7545"/><stop offset="0.35" stop-color="#cc845b"/><stop offset="0.69" stop-color="#d68e68"/><stop offset="1" stop-color="#d9916d"/></linearGradient></defs><g id="halloween"><path class="cls-1" d="M266.9,9.45a4.55,4.55,0,0,0-5,2.15C257.62,19,252,25.31,249,24.17c-2.79-1.08-3.35-7.71-2.77-15.77a4.53,4.53,0,0,0-3.46-4.73L228.34.13a4.52,4.52,0,0,0-5.56,4c-3.61,39.68-46.56,63.35-46.56,63.35h77S276.75,55.3,279,16a4.49,4.49,0,0,0-3.48-4.55Z"/><path class="cls-2" d="M263.62,345H36.38A36.38,36.38,0,0,1,0,308.62V259.14H300v49.48A36.38,36.38,0,0,1,263.62,345Z"/><rect class="cls-3" y="45" width="300" height="253.39" rx="36.38"/><path class="cls-4" d="M300,196.09,150,214.53,0,196.09v-24.9s23.7-51.44,150-51.44S300,159,300,159Z"/><path class="cls-5" d="M272.94,136.46a50.54,50.54,0,1,1-97.3,27.38Z"/><path class="cls-4" d="M238,198.8a50.29,50.29,0,0,0,16.2-7.9c-.43-17.18-11.84-31-25.86-31-14.3,0-25.89,14.31-25.89,32a38.57,38.57,0,0,0,.2,3.9A50.35,50.35,0,0,0,238,198.8Z"/><path class="cls-5" d="M27.06,136.46a50.54,50.54,0,1,0,97.3,27.38Z"/><path class="cls-4" d="M62,198.8a50.29,50.29,0,0,1-16.2-7.9c.43-17.18,11.84-31,25.86-31,14.3,0,25.89,14.31,25.89,32a38.57,38.57,0,0,1-.2,3.9A50.35,50.35,0,0,1,62,198.8Z"/><path class="cls-3" d="M277.79,295.53s10.31,12.26,15.41,34.25a36.14,36.14,0,0,0,6.8-21.16V259.14H272.84Z"/><path class="cls-6" d="M37.11,259.14H0v49.48A36.31,36.31,0,0,0,13.6,337c5.22-25.28,22.78-38.59,22.78-38.59Z"/><path class="cls-6" d="M112.53,221.88s9.27,41.73,68.35,62.6c2.88-4.76,8.82-13.73,12-12.28,2.86,1.33,1.84,10.48.89,16.25l.29.08c1.37-4.43,4-10.28,7.87-9.23s4.67,7.65,4.63,12.11c19.53,3.87,43,5.65,71.28,4.12A36.4,36.4,0,0,0,300,262V221.78Z"/><path class="cls-1" d="M0,262a36.38,36.38,0,0,0,36.38,36.38h2.19c.34,0,134.38-2.9,174.48-47.62L0,232.47Z"/><path class="cls-6" d="M0,162.78C14.91,159.61,73.49,145,150,145c68.4,0,126.69,13.39,150,18.06V85.49H246.56L224.83,58.54,204,85.49H0Z"/><path class="cls-1" d="M84.15,58.62C20.75,60,0,104.81,0,104.81v71.6a569.29,569.29,0,0,1,92.59-53.94c-1.22-5.91-3.7-19.24-1.78-20.77s13.22,8.47,18.68,13.44c49.46-20.32,80.5-23,80.5-23V73.34S147.54,57.26,84.15,58.62Z"/><path class="cls-7" d="M263.62,45H36.38A36.38,36.38,0,0,0,0,81.38v33.41s12.19-7,40.69-13.4c-.78-4.14-1.61-10.71.74-11.83,3.47-1.66,5.59.76,6.49,3.17.57,1.52,1.38,4.64,1.9,6.75,2.36-.46,4.82-.91,7.36-1.35-.62-6.82-2.11-25.6.24-26.83,2.88-1.51,6.65-1.66,8.31,2.71,1.38,3.62,5.73,17.13,7.21,21.71A582.43,582.43,0,0,1,150,91c23.65,0,44.11,1.13,61.65,2.89,3.1-6.58,10.78-22.18,14.23-22.77,4.38-.76,6.34,3.62,6.49,6.79.1,2.06-.63,11.81-1.15,18.35,48.75,7,68.78,18.5,68.78,18.5V81.38A36.38,36.38,0,0,0,263.62,45Z"/><path class="cls-7" d="M300,187A761.53,761.53,0,0,1,150,202.2C81.6,202.2,23.31,191,0,186.74v48.91s36.23,25.16,150,25.16,150-25.16,150-25.16Z"/></g></svg>