<svg id="Layer_1" data-name="Layer 1" xmlns="http://www.w3.org/2000/svg" xmlns:xlink="http://www.w3.org/1999/xlink" viewBox="0 0 300 345"><defs><style>.cls-1{fill:url(#linear-gradient);}.cls-2{fill:url(#linear-gradient-2);}.cls-3{fill:#bc6234;}.cls-4{fill:#2f2c38;}.cls-5{fill:#15141a;}.cls-6{fill:#fff;}.cls-7{fill:#414042;}.cls-8{fill:#231f20;}</style><linearGradient id="linear-gradient" x1="150" y1="356.11" x2="150" y2="161.16" gradientUnits="userSpaceOnUse"><stop offset="0" stop-color="#bc6234"/><stop offset="0.48" stop-color="#84381c"/></linearGradient><linearGradient id="linear-gradient-2" x1="150.36" y1="349.54" x2="149.02" y2="160.84" gradientUnits="userSpaceOnUse"><stop offset="0" stop-color="#2f2c38"/><stop offset="0.36" stop-color="#15141a"/></linearGradient></defs><title>blook_orangutan</title><g id="tropical"><path class="cls-1" d="M263.62,345H36.38A36.38,36.38,0,0,1,0,308.62V259.14H300v49.48A36.38,36.38,0,0,1,263.62,345Z"/><polygon class="cls-2" points="201.53 345 98.47 345 75.53 298.39 224.47 298.39 201.53 345"/><rect class="cls-3" y="45" width="300" height="253.39" rx="36.38"/><rect class="cls-4" x="75.53" y="285.83" width="148.95" height="12.57"/><path class="cls-4" d="M149,55.6c-93.09,0-159,61-143.56,150.94a128.3,128.3,0,0,0,5.77,21.63C26.45,270.5,67,291.42,112,291.42h76c45,0,85.57-20.92,100.8-63.25a128.3,128.3,0,0,0,5.77-21.63C310.05,116.63,242.11,55.6,149,55.6Z"/><circle class="cls-5" cx="242.58" cy="171.57" r="36.45"/><circle class="cls-5" cx="57.42" cy="171.57" r="36.45"/><path class="cls-6" d="M279,181.69a36.45,36.45,0,1,1-72.9,0c0-20.13,16.32-28.2,36.45-28.2S279,161.56,279,181.69Z"/><path class="cls-6" d="M93.87,181.69a36.45,36.45,0,1,1-72.9,0c0-20.13,16.32-28.2,36.45-28.2S93.87,161.56,93.87,181.69Z"/><path class="cls-7" d="M89.18,176.4A13.21,13.21,0,0,1,70,158.5a22.94,22.94,0,1,0,19.19,17.9Zm-32,19.76a5.45,5.45,0,1,1,5.45-5.45A5.45,5.45,0,0,1,57.14,196.16Z"/><path class="cls-7" d="M255.63,176.27a13.1,13.1,0,0,1-8,2.73,13.23,13.23,0,0,1-13.23-13.23,13.09,13.09,0,0,1,2.18-7.26,23,23,0,1,0,19.07,17.76Zm-32.22,19.89a5.45,5.45,0,1,1,5.46-5.45A5.45,5.45,0,0,1,223.41,196.16Z"/><path class="cls-3" d="M116.63,223.23S91.72,230.65,87,246.05l6.56-.76A29.79,29.79,0,0,0,80.4,270.2l9.92-4.33s-12.64,12.5-7.2,28.09l11.38-5.13s-6,12.5,3.11,21.75l12.68-8.82s-4.09,14,5,21.65l10.87-14.8a13.08,13.08,0,0,0,5.2,11.41l8.84-14.45Z"/><path class="cls-3" d="M183.37,223.23s24.91,7.42,29.66,22.82l-6.56-.76A29.79,29.79,0,0,1,219.6,270.2l-9.92-4.33s12.64,12.5,7.2,28.09l-11.38-5.13s5.95,12.5-3.11,21.75l-12.68-8.82s4.09,14-5,21.65l-10.87-14.8a13.08,13.08,0,0,1-5.2,11.41l-8.84-14.45Z"/><path class="cls-5" d="M110.05,271.77c-12.91,0-4.46,34.89,40,34.89s52.64-34.89,40-34.89c-9.1,0-24.72,9.17-40.07,9.17C133.59,280.94,117.5,271.77,110.05,271.77Z"/><path class="cls-4" d="M195.07,275.67c13.06-13.52,5-75.61-45.13-75.61S92,262.44,104.81,275.67c6.39,6.62,25.86,11.95,45.19,12S188.54,282.44,195.07,275.67Z"/><path class="cls-8" d="M144.1,221.22c-3.47,3.47-7.75,2.07-11.25-1.43s-5.54-11.25-5.54-11.25,11.86-2.07,15.36,1.43S147.57,217.75,144.1,221.22Z"/><path class="cls-8" d="M155.9,221.22c3.47,3.47,7.75,2.07,11.25-1.43s5.54-11.25,5.54-11.25-11.86-2.07-15.36,1.43S152.43,217.75,155.9,221.22Z"/><path class="cls-5" d="M205.2,96.68c0-13-2.87-26.13-9.18-37h0c-.32-.56-.65-1.1-1-1.65l-.18-.27a.41.41,0,0,1,.07.11l-.15-.23a.83.83,0,0,1,.08.12l-.21-.33C185.93,43.93,171.48,34.5,150,34.5c-20.54,0-34.65,8.62-43.46,21.17h0c-.41.58-.8,1.16-1.18,1.76l-.21.32.08-.12-.15.24.07-.12L105,58c-.34.54-.67,1.08-1,1.64h0c-6.31,10.86-9.18,24-9.18,37,0,26,17.2,46.13,22.28,51.52.88.93,1.41,1.43,1.41,1.43l13.92-27.31-.42,28c34.68-11.7,36.71-25.3,36.71-25.3l4.64,18.76a52,52,0,0,0,9.57-5.46h0l.64-.46h0C192.87,131.12,205.2,118.14,205.2,96.68Z"/><path class="cls-3" d="M201.51,81.65c0,32.19-29.73,44-29.73,44V93.13s-.78,27.67-33.15,38.58L140.21,89l-19.62,42.06s-22.1-21-22.1-49.42,14.73-58,51.51-58S201.51,53.2,201.51,81.65Z"/></g></svg>