<svg xmlns="http://www.w3.org/2000/svg" viewBox="0 0 300 345"><defs><linearGradient id="A" x1="150" y1="356.11" x2="150" y2="161.16" gradientUnits="userSpaceOnUse"><stop offset="0" stop-color="#594a42"/><stop offset=".69" stop-color="#281813"/></linearGradient></defs><path d="M263.62,345H36.38A36.38,36.38,0,0,1,0,308.62V259.14H300v49.48A36.38,36.38,0,0,1,263.62,345Z" fill="url(#A)"/><path d="M150 45A150 150 0 0 0 0 195v29.4l36.38 39.1 45 .94 68.6-22 73.8 22 39.82-.94 36.4-39.1V195A150 150 0 0 0 150 45z" fill="#aa7750"/><path d="M0 228.58V262a36.38 36.38 0 0 0 36.38 36.38h227.24A36.38 36.38 0 0 0 300 262v-33.42S288.23 253 256.35 262c-22.55 6.36-52.9-1.77-106.35-1.77-43.47 0-78 8.05-100.27 3.3C5.9 254.12 0 228.58 0 228.58z" fill="#594a42"/><path d="M280.05 120.2a91.1 91.1 0 0 0-11.34 1.79A149.73 149.73 0 0 0 150 63.64 149.73 149.73 0 0 0 31.29 122 91.1 91.1 0 0 0 20 120.21a149.59 149.59 0 0 0-11.62 25.25c21.7 12.74 85.8 51.65 101.67 76.12.67 1 1.36 2 2 2.87 0 0 14.92 23 37.9 0 23 23 37.9 0 37.9 0 .7-.9 1.38-1.84 2-2.87 15.88-24.47 80-63.38 101.67-76.12a149.59 149.59 0 0 0-11.47-25.25z" fill="#8b5e3c"/><path d="M294.2 153.58a73.2 73.2 0 0 0-58.49-29.19h-4.24l-2.7 3.26-40.42 48.87-7 5.4-13.12 7.27-18.18-23-18.18 23-13.12-7.27-7-5.4-43.22-52.13H64.3A73.2 73.2 0 0 0 5.8 153.58 149.74 149.74 0 0 0 0 195v2.68a64.29 64.29 0 0 1 64.29-64.29l32.24 39-13.76 53.78s-10 11.48-12.18 25.22c0 0 2.7 1.65 11.06 1.36a37.84 37.84 0 0 0-1.59 7.25A64.3 64.3 0 0 1 0 197.68v35.15a73.18 73.18 0 0 0 103.89 26.47c-1.3 2.7-4.6 10.62-1.63 17.28 0 0 20.95.58 26.32-10.58 0 0-2.08 10.88 2.26 16.62 0 0 16.48-1.5 19.16-13 2.68 11.48 19.16 13 19.16 13 4.34-5.74 2.26-16.62 2.26-16.62 5.37 11.16 26.32 10.58 26.32 10.58 3-6.66-.33-14.6-1.63-17.28A73.18 73.18 0 0 0 300 232.83v-35.15A64.3 64.3 0 0 1 219.94 260a37.84 37.84 0 0 0-1.59-7.26c8.36.3 11.06-1.36 11.06-1.36-2.13-13.74-12.18-25.22-12.18-25.22l-13.76-53.8 32.24-39A64.29 64.29 0 0 1 300 197.68V195a149.74 149.74 0 0 0-5.8-41.42z" fill="#f1f2f2"/><path d="M187.9 224.45c.7-.9 1.38-1.84 2-2.87 4.14-6.38 11.56-13.74 20.64-21.36l-7.12-27.86 32.24-39a64.08 64.08 0 0 1 45.12 18.5l7.92-4.73a73.09 73.09 0 0 0-53-22.77h-4.24l-2.7 3.26-40.42 48.87-7 5.4-13.12 7.27-18.18-23-18.18 23-13.12-7.27-7-5.4-43.2-52.1H64.3a73.09 73.09 0 0 0-53 22.77l7.92 4.73a64.08 64.08 0 0 1 45.12-18.5l32.24 39-7.12 27.86c9.08 7.62 16.5 15 20.64 21.36.67 1 1.36 2 2 2.87 0 0 14.92 23 37.9 0 23 22.95 37.9-.03 37.9-.03z" fill="#d1d3d4"/><path d="M150 201.45s-15.13 3.68-15.13 22.9S150 260.2 150 260.2s15.13-16.6 15.13-35.84-15.13-22.9-15.13-22.9z" fill="#414042"/><circle cx="57.42" cy="200.06" r="40.95" transform="matrix(.16 -.99 .99 .16 -149.26 224.69)" fill="#ffda73"/><path d="M57.42 163.6A36.45 36.45 0 1 1 21 200.06a36.45 36.45 0 0 1 36.45-36.45m0-9a45.45 45.45 0 1 0 45.45 45.45 45.5 45.5 0 0 0-45.45-45.45z" fill="#3f312b"/><path d="M89.18 194.77A13.21 13.21 0 0 1 70 176.86a23 23 0 1 0 19.19 17.91zm-32 19.76a5.46 5.46 0 1 1 5.45-5.45 5.45 5.45 0 0 1-5.49 5.45z" fill="#414042"/><g fill="#fff"><path d="M92.74,191a36.43,36.43,0,0,0-12.41-19.29,13.23,13.23,0,1,0,.38,26.45A13.58,13.58,0,0,0,92.74,191Z"/><ellipse cx="57.42" cy="209.24" rx="5.75" ry="5.62"/></g><circle cx="242.58" cy="200.06" r="40.95" transform="matrix(.92388 -.382683 .382683 .92388 -58.09 108.06)" fill="#ffda73"/><path d="M242.58 163.6a36.45 36.45 0 1 1-36.45 36.45 36.45 36.45 0 0 1 36.45-36.45m0-9A45.45 45.45 0 1 0 288 200.06a45.5 45.5 0 0 0-45.45-45.45z" fill="#3f312b"/><path d="M255.84 194.77a13.21 13.21 0 0 1-19.19-17.91 23 23 0 1 0 19.19 17.91zm-32 19.76a5.46 5.46 0 1 1 5.45-5.45 5.45 5.45 0 0 1-5.49 5.45z" fill="#414042"/><g fill="#fff"><ellipse cx="247.37" cy="184.93" rx="13.55" ry="13.24"/><ellipse cx="224.08" cy="209.24" rx="5.75" ry="5.62"/></g><path d="M150 45a150 150 0 0 0-132.87 80.34c12.3 2.66 42.22 10.8 59 29.73a309.62 309.62 0 0 1 35.95 50.75s14.92 23 37.9 0c23 23 37.9 0 37.9 0a309.62 309.62 0 0 1 35.95-50.75c16.8-18.92 46.72-27.07 59-29.73A150 150 0 0 0 150 45z" fill="#594a42"/><path d="M198.14 160.86c-6.5 9.93-10.24 16.8-10.24 16.8s-14.92 23-37.9 0c-23 23-37.9 0-37.9 0s-3.74-6.86-10.24-16.8h-9.38a305.11 305.11 0 0 1 19.62 30.38s14.92 23 37.9 0c23 23 37.9 0 37.9 0a305.11 305.11 0 0 1 19.62-30.38z" fill="#f1f2f2"/><path d="M72.37 153.5C72.37 92.2 0 101.64 0 101.64l34.94 33.43zm155.26 0c0-61.3 72.37-51.85 72.37-51.85l-34.94 33.43z" fill="#594a42"/><path d="M187.9 205.82l2-2.88c19.2-29.58 108.9-80.3 108.9-80.3s-108-25.28-110.9 83.18zm-75.8 0l-2-2.88c-19.2-29.58-108.9-80.3-108.9-80.3s108-25.28 110.9 83.18z" fill="#726658"/><path d="M71.23 90.47s23 14.77 39.54 43.47c0 0 12.08-49.5-39.54-43.47zm157.54 0s-23 14.77-39.54 43.47c0 0-12.08-49.5 39.54-43.47zM120.6 68.58s-.87 22.42 18.3 41.66c0 0 11.5-30.8-18.3-41.66zm58.8 0s.87 22.42-18.3 41.66c0 0-11.5-30.8 18.3-41.66zm-51.7 51.02s-.67 17 13.88 31.62c0 0 8.72-23.37-13.88-31.62zm44.6 0s.67 17-13.88 31.62c0 0-8.72-23.37 13.88-31.62z" fill="#3f312b"/></svg>