<svg id="Layer_1" data-name="Layer 1" xmlns="http://www.w3.org/2000/svg" xmlns:xlink="http://www.w3.org/1999/xlink" viewBox="0 0 300 345"><defs><style>.cls-1{fill:url(#linear-gradient);}.cls-2{fill:#414042;}.cls-3{fill:url(#linear-gradient-2);}.cls-4{fill:#2f2c38;}.cls-5,.cls-7{fill:#15141a;}.cls-6{fill:#fff;}.cls-7{fill-opacity:0.5;}.cls-8{fill:#d75927;}.cls-9{fill:#534d63;}</style><linearGradient id="linear-gradient" x1="150" y1="356.11" x2="150" y2="161.16" gradientUnits="userSpaceOnUse"><stop offset="0.05" stop-color="#c7eaf7"/><stop offset="0.07" stop-color="#c8e7f0"/><stop offset="0.11" stop-color="#cdd"/><stop offset="0.15" stop-color="#d2cebe"/><stop offset="0.19" stop-color="#dbb992"/><stop offset="0.24" stop-color="#e69e5b"/><stop offset="0.29" stop-color="#f18221"/></linearGradient><linearGradient id="linear-gradient-2" x1="148.78" y1="20.88" x2="150.64" y2="333.54" gradientUnits="userSpaceOnUse"><stop offset="0.41" stop-color="#fbb040"/><stop offset="0.89" stop-color="#d25927"/></linearGradient></defs><title>blook_penguin</title><g id="tundra"><path class="cls-1" d="M263.62,345H36.38A36.38,36.38,0,0,1,0,308.62V259.14H300v49.48A36.38,36.38,0,0,1,263.62,345Z"/><path class="cls-2" d="M150,45C16.37,45,0,169.85,0,189.94V262a36.38,36.38,0,0,0,36.38,36.38H263.62A36.38,36.38,0,0,0,300,262V189.94C300,169.85,283.63,45,150,45Z"/><path class="cls-3" d="M150,45C16.37,45,0,169.85,0,189.94V262a36.38,36.38,0,0,0,36.38,36.38H263.62A36.38,36.38,0,0,0,300,262V189.94C300,169.85,283.63,45,150,45Z"/><path class="cls-4" d="M269.46,213.2c0-29.17,28.9-39.84,28.9-39.84C291.84,133.35,262.41,45,150,45,36.38,45,7.54,135.26,1.44,174.63c0,0,27.67,9.69,27.67,38.57,0,42.86,20.12,77.54,45.93,86.81H226.77C252.58,290.74,269.46,256.06,269.46,213.2Z"/><path class="cls-5" d="M263.62,298.22H36.38A36.38,36.38,0,0,1,0,261.84v10.57a36.38,36.38,0,0,0,36.38,36.38H263.62A36.38,36.38,0,0,0,300,272.41V261.84A36.38,36.38,0,0,1,263.62,298.22Z"/><circle class="cls-5" cx="242.58" cy="195" r="36.45"/><circle class="cls-5" cx="57.42" cy="195" r="36.45"/><circle class="cls-6" cx="242.58" cy="205.12" r="36.45"/><circle class="cls-6" cx="57.42" cy="205.12" r="36.45"/><path class="cls-5" d="M89.18,199.83A13.21,13.21,0,0,1,70,181.92a24.56,24.56,0,0,0-3.23-.23,23,23,0,1,0,22.42,18.14Zm-32,19.76a5.46,5.46,0,1,1,5.45-5.45A5.45,5.45,0,0,1,57.14,219.59Z"/><path class="cls-5" d="M255.63,199.7a13.21,13.21,0,0,1-19.07-17.76,23,23,0,1,0,19.07,17.76Zm-32.22,19.89a5.46,5.46,0,1,1,5.46-5.45A5.45,5.45,0,0,1,223.41,219.59Z"/><path class="cls-6" d="M93.24,198.37a36.47,36.47,0,0,0-16.6-24.22,15.52,15.52,0,1,0,16.6,24.22Z"/><circle class="cls-6" cx="247.3" cy="189.09" r="15.53"/><circle class="cls-6" cx="58.09" cy="214.14" r="6.41"/><circle class="cls-6" cx="223.41" cy="214.14" r="6.41"/><path class="cls-7" d="M182,214.19c-.32-4.71-3.71-9-9-10.85l-17.86-6.08a16,16,0,0,0-10.26,0L127,203.34c-5.32,1.81-8.71,6.14-9,10.85-8.21.53-14.35,7.83-11.46,15.26C117.25,257,137.27,303.59,150,303.59s32.75-46.61,43.48-74.14C196.37,222,190.23,214.72,182,214.19Z"/><path class="cls-8" d="M131.39,211.38l-1.3-.31a9.38,9.38,0,0,0-11,12.16c7.63,22.35,21.9,60.17,31,60.17s23.33-37.82,31-60.17a9.38,9.38,0,0,0-11.05-12.16l-1.3.31A80.7,80.7,0,0,1,131.39,211.38Z"/><path class="cls-5" d="M146.35,197.1,133.62,202a10.09,10.09,0,0,0-5.92,12.62c5.12,15.22,15.69,44,22.3,44s17.18-28.81,22.3-44A10.09,10.09,0,0,0,166.38,202l-12.73-4.94A10.1,10.1,0,0,0,146.35,197.1Z"/><ellipse class="cls-9" cx="101.29" cy="91.38" rx="30.51" ry="20.49" transform="translate(-25.46 40.95) rotate(-20.36)"/><circle class="cls-9" cx="160.18" cy="74.81" r="16.43"/></g></svg>