<svg xmlns="http://www.w3.org/2000/svg" viewBox="0 0 300 345"><defs><linearGradient id="A" x1="150" y1="356.11" x2="150" y2="161.16" gradientUnits="userSpaceOnUse"><stop offset="0" stop-color="#f6a9cb"/><stop offset=".69" stop-color="#ce5384"/></linearGradient></defs><path d="M263.62,345H36.38A36.38,36.38,0,0,1,0,308.62V259.14H300v49.48A36.38,36.38,0,0,1,263.62,345Z" fill="url(#A)"/><rect y="45" width="300" height="253.39" rx="36.38" fill="#f6a9cb"/><path d="M150 210c-37.32 0-69.1 58.36-57.34 70.12s104 10.7 114.67 0S187.3 210 150 210z" fill="#dd7399"/><path d="M191.8 256.16a14.27 14.27 0 1 1-24.16 15.19c-4.2-6.67.5-26 .5-26s19.46 4.13 23.65 10.8z" fill="#cc4d8c"/><path d="M188.94 263.56a14.11 14.11 0 0 1 2.12 8.84 14.25 14.25 0 0 0 .74-16.24c-4.2-6.68-23.65-10.8-23.65-10.8s-.8 3.34-1.46 7.72c4.53 1.1 18.74 4.92 22.25 10.48z" fill="#c62c6b"/><path d="M108.2 256.16a14.27 14.27 0 1 0 24.16 15.19c4.2-6.67-.5-26-.5-26s-19.46 4.13-23.65 10.8z" fill="#cc4d8c"/><path d="M111.06 263.56c3.5-5.6 17.72-9.4 22.25-10.48-.65-4.38-1.46-7.72-1.46-7.72s-19.46 4.12-23.65 10.8a14.25 14.25 0 0 0 .74 16.24 14.11 14.11 0 0 1 2.12-8.84z" fill="#c62c6b"/><g fill="#dd7399"><circle cx="242.58" cy="204.01" r="36.45"/><circle cx="57.42" cy="204.01" r="36.45"/></g><g fill="#fff"><circle cx="242.58" cy="214.14" r="36.45"/><circle cx="57.42" cy="214.14" r="36.45"/></g><path d="M89.18 208.85A13.21 13.21 0 0 1 70 190.94a23 23 0 1 0 19.19 17.91zm-32 19.75a5.45 5.45 0 1 1 5.45-5.45 5.45 5.45 0 0 1-5.49 5.45zm198.45-19.9a13.21 13.21 0 0 1-19.07-17.7 23 23 0 1 0 19.07 17.76zm-32.22 19.9a5.45 5.45 0 1 1 5.46-5.45 5.45 5.45 0 0 1-5.46 5.45z" fill="#414042"/><ellipse cx="150.02" cy="120.82" rx="54.28" ry="41.02" transform="matrix(.99454 -.104355 .104355 .99454 -11.8 16.33)" fill="#f7c5dc"/><path d="M286.14 83.33a35.76 35.76 0 1 1-66.6-26.07c3.94-10.08 21.6-25.7 36.75-37.77a17.69 17.69 0 0 1 28.5 11.15c2.93 19.14 5.3 42.6 1.35 52.7z" fill="#dd7399"/><g fill="#c62c6b"><path d="M264.2 30.3a34.49 34.49 0 0 1 7 13.72 51.27 51.27 0 0 1-1.06 30.36 38.54 38.54 0 0 1-7.7 13.29c-.17-2.68.1-5.12.17-7.58l.4-7.2c.35-4.7.5-9.33.7-13.93s.24-9.24.3-13.95l.08-7.2c0-2.43.04-4.9.12-7.53z"/><path d="M267.08 54.86h.07-.35c-.23 0-.55.06-.83.08l-.92.14c-.3 0-.64.16-1 .23a5.42 5.42 0 0 0-1 .27l-1 .3c-.66.33-1.37.5-2 .87a34.24 34.24 0 0 0-8.05 5.65l-1 .85-.94 1-1.94 1.9-3.7 4.18-1.8 2.23-1.83 2.26-3.7 4.68.88-6c.34-2 1-3.9 1.57-5.86a30 30 0 0 1 1.07-2.87l1.2-2.87 1.46-2.78.76-1.4.9-1.33a32.81 32.81 0 0 1 9.26-9.6 12.77 12.77 0 0 1 1.51-.94l1.57-.88 1.7-.73a12.72 12.72 0 0 1 1.76-.65 22.74 22.74 0 0 1 3.77-.85l2.06-.15h1.1l.63.05h.34l.52.07z"/></g><path d="M13.86 83.33a35.76 35.76 0 1 0 66.6-26.07c-3.94-10.08-21.6-25.7-36.75-37.77a17.69 17.69 0 0 0-28.5 11.15c-2.93 19.14-5.3 42.6-1.35 52.7z" fill="#dd7399"/><g fill="#c62c6b"><path d="M35.8 30.3l.13 7.53L36 45l.3 13.95.7 13.93.4 7.2s.34 4.9.17 7.58a38.54 38.54 0 0 1-7.7-13.29A51.27 51.27 0 0 1 28.82 44a34.49 34.49 0 0 1 6.99-13.7z"/><path d="M30.93 42.78l.52-.07h.34l.63-.05h1.1c.74 0 1.37.1 2.06.15a22.74 22.74 0 0 1 3.77.85 12.72 12.72 0 0 1 1.76.65l1.7.73c.56.26 1.05.58 1.57.88a12.77 12.77 0 0 1 1.51.94 32.81 32.81 0 0 1 9.26 9.6l.86 1.27.76 1.4 1.46 2.78 1.2 2.87a30 30 0 0 1 1.07 2.87l1.57 5.86c.42 1.96.68 4 .88 6l-3.7-4.68c-.56-.8-1.23-1.5-1.83-2.26l-1.8-2.23-3.7-4.18-1.9-1.93-.94-1-1-.85A34.24 34.24 0 0 0 40 56.83c-.67-.36-1.38-.54-2-.87l-1-.3a5.42 5.42 0 0 0-1-.27c-.32-.07-.65-.2-1-.23l-.95-.15c-.28 0-.6-.08-.83-.08h-.44s-.07 0 0 0h.16z"/></g></svg>