<svg id="Layer_1" data-name="Layer 1" xmlns="http://www.w3.org/2000/svg" xmlns:xlink="http://www.w3.org/1999/xlink" viewBox="0 0 300 345"><defs><style>.cls-1{fill:url(#linear-gradient);}.cls-2{fill:#19184d;}.cls-3{fill:#7ca1d5;}.cls-4{fill:url(#linear-gradient-2);}.cls-5{fill:#d69b5a;}.cls-12,.cls-6,.cls-7,.cls-9{fill:none;}.cls-6{stroke:#cd8029;}.cls-12,.cls-6,.cls-7{stroke-miterlimit:10;}.cls-6,.cls-7{stroke-width:8.61px;}.cls-7{stroke:#bc6234;}.cls-8{fill:#9dc6ea;}.cls-9{stroke:#9dc6ea;stroke-linejoin:round;stroke-width:6px;}.cls-12,.cls-9{stroke-linecap:round;}.cls-10{fill:#00c0f3;}.cls-11{fill:#a46735;}.cls-12{stroke:#742b1f;stroke-width:4.94px;}.cls-13{fill:#fff;}.cls-14{fill:#b84f29;}</style><linearGradient id="linear-gradient" x1="150" y1="356.11" x2="150" y2="161.16" gradientUnits="userSpaceOnUse"><stop offset="0" stop-color="#342f77"/><stop offset="0.06" stop-color="#2c2867"/><stop offset="0.25" stop-color="#141239"/><stop offset="0.4" stop-color="#05051d"/><stop offset="0.48" stop-color="#000012"/></linearGradient><linearGradient id="linear-gradient-2" x1="151.73" y1="290.54" x2="151.73" y2="142.69" gradientTransform="translate(20.5 -14.31) rotate(6.87)" gradientUnits="userSpaceOnUse"><stop offset="0" stop-color="#d69b5a"/><stop offset="0.5" stop-color="#9a5e39"/></linearGradient></defs><g id="space"><path class="cls-1" d="M263.62,345H36.38A36.38,36.38,0,0,1,0,308.62V259.14H300v49.48A36.38,36.38,0,0,1,263.62,345Z"/><rect class="cls-2" y="45" width="300" height="253.39" rx="36.38"/><rect class="cls-3" x="139.55" y="54.36" width="25.24" height="213.7" transform="translate(-26.08 293) rotate(-83.13)"/><path class="cls-4" d="M199.36,291.4,75.42,276.46a27.58,27.58,0,0,1-24.09-30.69l4.49-37.26,178.72,21.54-4.49,37.25A27.59,27.59,0,0,1,199.36,291.4Z"/><rect class="cls-5" x="70.33" y="78.43" width="161.96" height="180.02" rx="27.59" transform="translate(-34.02 298.51) rotate(-83.13)"/><path class="cls-6" d="M67.52,111.38c14.89,1.8,13.35,14.63,28.24,16.42s16.44-11,31.33-9.24,13.35,14.62,28.24,16.42,16.44-11,31.33-9.24,13.35,14.62,28.25,16.42,16.44-11,31.33-9.24"/><path class="cls-6" d="M57,199c14.9,1.8,13.35,14.62,28.24,16.42s16.44-11,31.33-9.24,13.35,14.62,28.24,16.42,16.44-11,31.34-9.24,13.35,14.62,28.24,16.42,16.44-11,31.34-9.24"/><path class="cls-7" d="M239.52,188.7c-14.89-1.79-13.35-14.62-28.24-16.41s-16.44,11-31.33,9.23-13.35-14.62-28.24-16.41-16.44,11-31.33,9.24S107,159.73,92.13,157.93s-16.44,11-31.33,9.24"/><path class="cls-8" d="M44.18,199.38,248,223.94c15.13,1.82,24.55-6.69,25.81-17.18l3-24.71c1.18-9.82-4.48-19.67-18.13-22.36l-15.43-1.86-.61,5.08,5.11.62c5.7.69,9.92,4.55,9.43,8.63l-1.52,12.59c-1.09,9.09-12.28,15.22-25,13.69L67.09,178.73c-12.71-1.53-22.12-10.14-21-19.23l1.52-12.6c.49-4.07,5.51-6.82,11.21-6.14l5.11.62.61-5.08-15.43-1.86c-13.9-.63-21.74,7.6-22.92,17.42l-3,24.7C21.93,187.05,29.05,197.55,44.18,199.38Z"/><path class="cls-9" d="M252.5,233.7l7.4-.72A23.12,23.12,0,0,0,279,219l3.28-7.73"/><path class="cls-9" d="M17.58,146.8l3.29-10A17.17,17.17,0,0,1,37.18,125H50.43"/><rect class="cls-10" x="155.59" y="58.46" width="27.88" height="17.82" rx="1.83"/><ellipse class="cls-11" cx="155.52" cy="96.88" rx="4.21" ry="2.63"/><line class="cls-12" x1="155.59" y1="95.6" x2="155.59" y2="59.56"/><path class="cls-13" d="M172,61.31l1.09,2.2,2.42.35a1.85,1.85,0,0,1,1,3.15l-1.76,1.72.41,2.41a1.85,1.85,0,0,1-2.68,2L170.3,72l-2.17,1.14a1.85,1.85,0,0,1-2.68-2l.42-2.41L164.11,67a1.85,1.85,0,0,1,1-3.15l2.43-.35,1.09-2.2A1.85,1.85,0,0,1,172,61.31Z"/><circle class="cls-13" cx="243.77" cy="105.11" r="2.49"/><circle class="cls-13" cx="264.43" cy="109.24" r="4.13"/><circle class="cls-13" cx="232.35" cy="77.16" r="4.13"/><circle class="cls-13" cx="23.2" cy="262.3" r="4.13"/><circle class="cls-13" cx="42.77" cy="116.63" r="1.94"/><circle class="cls-14" cx="221.96" cy="222.57" r="4.64"/><circle class="cls-13" cx="250.71" cy="95.6" r="1.28"/><circle class="cls-13" cx="27.17" cy="100.88" r="1.74"/><circle class="cls-14" cx="249.52" cy="214.96" r="2.98"/><circle class="cls-13" cx="258.07" cy="262.3" r="3.51"/><circle class="cls-13" cx="264.66" cy="251.05" r="1.72"/><circle class="cls-13" cx="280.53" cy="238.89" r="1.72"/><circle class="cls-14" cx="284.97" cy="166.98" r="3.52"/><circle class="cls-13" cx="51.13" cy="100.42" r="1.72"/><circle class="cls-14" cx="266.22" cy="141.88" r="3.41"/><circle class="cls-14" cx="248.14" cy="178.45" r="1.96"/><circle class="cls-14" cx="55.35" cy="155.21" r="3.82"/><circle class="cls-14" cx="21.45" cy="177.99" r="8.4"/><circle class="cls-14" cx="48.97" cy="189.96" r="2.55"/></g></svg>