<svg id="Layer_1" data-name="Layer 1" xmlns="http://www.w3.org/2000/svg" xmlns:xlink="http://www.w3.org/1999/xlink" viewBox="0 0 300 345"><defs><style>.cls-1{fill:url(#linear-gradient);}.cls-2{fill:#dae6f5;}.cls-3{fill:url(#radial-gradient);}.cls-4{fill:#414042;}.cls-5{fill:#9dc6ea;}.cls-6{fill:#fff;}.cls-7{fill:none;stroke:#414042;stroke-linecap:round;stroke-miterlimit:10;stroke-width:12px;}</style><linearGradient id="linear-gradient" x1="150" y1="356.11" x2="150" y2="161.16" gradientUnits="userSpaceOnUse"><stop offset="0" stop-color="#9dc6ea"/><stop offset="0.69" stop-color="#416eb5"/></linearGradient><radialGradient id="radial-gradient" cx="150.01" cy="222.49" r="68.25" gradientUnits="userSpaceOnUse"><stop offset="0" stop-color="#414042"/><stop offset="1" stop-color="#bfe7fb" stop-opacity="0"/></radialGradient></defs><title>blook_polar-bear</title><path class="cls-1" d="M263.62,345H36.38A36.38,36.38,0,0,1,0,308.62V259.14H300v49.48A36.38,36.38,0,0,1,263.62,345Z"/><rect class="cls-2" y="45" width="300" height="253.39" rx="36.38"/><path class="cls-3" d="M207.36,280.5c16.63-18.68,6.4-129.89-57.42-129.89S76.24,262.22,92.51,280.5,190.74,299.19,207.36,280.5Z"/><path class="cls-4" d="M115.79,200.12c0,14.52,19.87,28.14,34.21,28.14s34.21-15.41,34.21-28.14S115.79,185.6,115.79,200.12Z"/><circle class="cls-5" cx="242.58" cy="189.94" r="36.45"/><circle class="cls-5" cx="57.42" cy="189.94" r="36.45"/><circle class="cls-6" cx="242.58" cy="200.06" r="36.45"/><circle class="cls-6" cx="57.42" cy="200.06" r="36.45"/><path class="cls-4" d="M89.18,194.77A13.21,13.21,0,0,1,70,176.86a23,23,0,1,0,19.19,17.91Zm-32,19.76a5.46,5.46,0,1,1,5.45-5.45A5.45,5.45,0,0,1,57.14,214.53Z"/><path class="cls-4" d="M255.63,194.64a13.22,13.22,0,0,1-19.07-17.77,24.25,24.25,0,0,0-3.32-.24,23,23,0,1,0,22.39,18Zm-32.22,19.89a5.46,5.46,0,1,1,5.46-5.45A5.45,5.45,0,0,1,223.41,214.53Z"/><polyline class="cls-7" points="131.57 246.1 150 226.93 168.43 246.1"/><ellipse class="cls-5" cx="232.67" cy="124.54" rx="18.85" ry="12.66" transform="translate(-7.16 14.41) rotate(-3.49)"/><circle class="cls-2" cx="62.76" cy="40.08" r="40.08"/><circle class="cls-2" cx="237.24" cy="40.08" r="40.08"/><path class="cls-4" d="M82.38,48.58c0,12.28-37.68,12.28-37.68,0s8.43-22.24,18.84-22.24S82.38,36.29,82.38,48.58Z"/><path class="cls-4" d="M255.3,48.58c0,12.28-37.68,12.28-37.68,0s8.44-22.24,18.84-22.24S255.3,36.29,255.3,48.58Z"/><ellipse class="cls-5" cx="67.35" cy="124.55" rx="12.66" ry="18.85" transform="translate(-61.07 184.18) rotate(-86.51)"/></svg>