<svg xmlns="http://www.w3.org/2000/svg" viewBox="0 0 300 345"><defs><linearGradient id="A" x1="150" y1="356.11" x2="150" y2="161.16" gradientUnits="userSpaceOnUse"><stop offset="0" stop-color="#414042"/><stop offset=".52" stop-color="#353333"/></linearGradient></defs><path d="M263.62,345H36.38A36.38,36.38,0,0,1,0,308.62V259.14H300v49.48A36.38,36.38,0,0,1,263.62,345Z" fill="url(#A)"/><path d="M299.58 75.84c-1.4-24.53-6.8-48.07-22-50.12-12.2-1.64-27.3 7.36-41.47 19.28H63.9C49.75 33.08 34.63 24.08 22.44 25.72 7.2 27.77 1.83 51.3.42 75.84A36.22 36.22 0 0 0 0 81.38V262a36.38 36.38 0 0 0 36.38 36.38h227.24A36.38 36.38 0 0 0 300 262V81.38a36.22 36.22 0 0 0-.42-5.54z" fill="#6d6e71"/><g fill="#ecf7fe"><path d="M67.6 242S79 298.4 150 298.4s82.4-56.4 82.4-56.4l-83.57-24.25z"/><path d="M88.6 261s-12.42 9.6-22.38 12 2.4 12.74 14.78 10.12c0 0-4.1 3.67-1.9 8s15.78 1.2 21.2-8.76"/></g><path d="M88.6 261a75.56 75.56 0 0 1-10.31 8.15 63.12 63.12 0 0 1-5.77 3.33l-3.1 1.4a15.68 15.68 0 0 1-1.62.59l-1.54.52c-.83.27-1.53.78-1.56 1s0 0 0 .13a1.92 1.92 0 0 0 .3.55 7.18 7.18 0 0 0 1.77 1.58 15.39 15.39 0 0 0 2.45 1.3 19.76 19.76 0 0 0 11.23 1.21l9.83-2-7.63 6.25a4.71 4.71 0 0 0-.49.5 7.62 7.62 0 0 0-.48.64 5.78 5.78 0 0 0-.68 1.33 3.38 3.38 0 0 0 .07 2.54c.06.15 0 .1 0 .15l.05.1a1.27 1.27 0 0 0 .31.25 4.23 4.23 0 0 0 1.34.42 12.05 12.05 0 0 0 3.67-.12 22.17 22.17 0 0 0 7.55-2.9 22.68 22.68 0 0 0 6.31-5.58 18.14 18.14 0 0 1-5 7.33 21 21 0 0 1-3.69 2.71 20.3 20.3 0 0 1-4.27 1.91 14.39 14.39 0 0 1-4.9.71 7.63 7.63 0 0 1-2.83-.62 5.57 5.57 0 0 1-1.48-.94 5.7 5.7 0 0 1-.66-.72 5.76 5.76 0 0 1-.48-.79 8 8 0 0 1-.57-5.87 9.83 9.83 0 0 1 1.15-2.57 11 11 0 0 1 .78-1.11 11.37 11.37 0 0 1 1-1.09l2.15 4.25a22.44 22.44 0 0 1-14.24-1.63 17.55 17.55 0 0 1-3.18-1.9 10.68 10.68 0 0 1-2.8-3 5.64 5.64 0 0 1-.83-2.47 4.26 4.26 0 0 1 .84-2.95 5.38 5.38 0 0 1 2-1.6 9.07 9.07 0 0 1 1.94-.69l1.6-.35a13.63 13.63 0 0 0 1.49-.39l3-1c2-.73 3.93-1.6 5.88-2.5 3.8-1.82 7.62-3.9 11.4-6.06z" fill="#414042"/><path d="M212.82 262s11 8.6 21 11-2.4 12.76-14.8 10.14c0 0 4.1 3.67 1.9 8s-15.78 1.2-21.2-8.76" fill="#ecf7fe"/><path d="M212.82 262a116.4 116.4 0 0 0 11.18 5.71 56.43 56.43 0 0 0 5.72 2.24l2.9.84 1.45.32a13.69 13.69 0 0 1 1.77.46 6.9 6.9 0 0 1 1.93 1 4.51 4.51 0 0 1 1.63 2.26 4.69 4.69 0 0 1-.06 2.86 7.13 7.13 0 0 1-1.08 2 12.44 12.44 0 0 1-2.82 2.64 18.59 18.59 0 0 1-3.13 1.75 22.41 22.41 0 0 1-13.79 1.42l2.15-4.25a11.37 11.37 0 0 1 1 1.09 11 11 0 0 1 .78 1.11 9.83 9.83 0 0 1 1.15 2.57 8 8 0 0 1-.57 5.87 5.76 5.76 0 0 1-.48.79 5.7 5.7 0 0 1-.66.72 5.57 5.57 0 0 1-1.48.94 7.63 7.63 0 0 1-2.83.62 14.39 14.39 0 0 1-4.9-.71 20.3 20.3 0 0 1-4.27-1.91 21 21 0 0 1-3.69-2.71 18.14 18.14 0 0 1-5-7.33 22.68 22.68 0 0 0 6.31 5.58 22.17 22.17 0 0 0 7.52 2.86 12.05 12.05 0 0 0 3.67.12 4.23 4.23 0 0 0 1.34-.42 1.27 1.27 0 0 0 .31-.25l.05-.1v-.15a3.38 3.38 0 0 0 .07-2.54 5.78 5.78 0 0 0-.68-1.33 7.62 7.62 0 0 0-.48-.64 4.71 4.71 0 0 0-.49-.5l-7.66-6.2 9.82 2a19.69 19.69 0 0 0 10.88-1.07 11.71 11.71 0 0 0 4.31-2.71 3 3 0 0 0 .49-.69c.1-.2.1-.23.1-.23s0-.1-.14-.28a2.9 2.9 0 0 0-.8-.53 9.7 9.7 0 0 0-1.23-.47l-1.58-.52-3-1.27a51.71 51.71 0 0 1-5.67-3.11 63.28 63.28 0 0 1-10.04-7.84z" fill="#414042"/><path d="M300 162.1c-10.57-20.42-30.14-42.2-65.52-42.2-52.9 0-76.86 38.2-84.48 54-7.62-15.75-31.58-54-84.48-54-35.38 0-54.95 21.77-65.52 42.2v37.3l120.56 24.05h58.88L300 199.42z" fill="#ecf7fe"/><path d="M298.2 174.43c-5.36-8.74-23.5-31.35-65.05-25.75a58.89 58.89 0 0 0-17.35 5.18c.16-3.86-1.53-6.7-6.26-7.45-16-2.6-28.76 22.9-33.05 32.77a15.77 15.77 0 0 1-12.88-13.68c-.12-1-4.84-19.2-5.58-22.4-2.58-11.2-13.46-11.2-16 0-.74 3.2-5.46 21.4-5.58 22.4a15.77 15.77 0 0 1-12.88 13.68c-4.3-9.88-17-35.36-33-32.77-4.73.76-6.42 3.6-6.26 7.45a58.89 58.89 0 0 0-17.35-5.18c-41.55-5.6-59.7 17-65 25.75A12.22 12.22 0 0 0 0 180.85v55.6a12.06 12.06 0 0 0 .71 4.12c2.17 6 10.38 22.88 41.52 29.66 42 9.15 46.76-12.8 64.3-28.58a22.28 22.28 0 0 1 15.2-6.09c9.26 0 15.87 13.33 20.36 17.05a12.33 12.33 0 0 0 15.82 0c4.5-3.72 11.1-17.05 20.36-17.05a22.28 22.28 0 0 1 15.2 6.09c17.54 15.77 24.5 38.63 64.3 28.58 30.9-7.8 39.35-23.68 41.52-29.66a12.06 12.06 0 0 0 .71-4.12v-55.6a12.22 12.22 0 0 0-1.81-6.42z" fill="#414042"/><path d="M162.7 279.2L150 260.46l-12.7 18.75" fill="none" stroke="#231f20" stroke-linecap="round" stroke-miterlimit="10" stroke-width="10"/><g fill="#231f20"><path d="M131.5 250.27c0 7.85 10.75 15.22 18.5 15.22s18.5-8.34 18.5-15.22-37.02-7.86-37.02 0z"/><circle cx="242.58" cy="204.08" r="36.45"/><circle cx="57.42" cy="204.08" r="36.45"/></g><g fill="#fff"><circle cx="242.58" cy="214.2" r="36.45"/><circle cx="57.42" cy="214.2" r="36.45"/></g><path d="M87.17 209.56A13.71 13.71 0 0 1 67.26 191a24.8 24.8 0 0 0-3.35-.24 23.76 23.76 0 1 0 23.26 18.82zm-33.25 20.5a5.66 5.66 0 1 1 5.66-5.65 5.66 5.66 0 0 1-5.66 5.65zm205.4-20.64A13.72 13.72 0 0 1 239.53 191a24.33 24.33 0 0 0-3.44-.25 23.81 23.81 0 1 0 23.23 18.68zm-33.42 20.63a5.66 5.66 0 1 1 5.66-5.65 5.65 5.65 0 0 1-5.66 5.65z" fill="#414042"/><path d="M263.74 75.88c-9.67-1.23-22.32 7.82-32.85 17.55-.67-.73-1.32-1.48-2-2.27a12.91 12.91 0 0 1 .43-16.28C239.9 63 261.54 41 276.25 42.9c15.27 1.94 14.47 37.1 13.2 53.92-.4 5.45-4.08 9.9-8.93 10.78l-3.07.48c-.6-15.32-3.68-30.93-13.7-32.2zm-227.48 0c9.67-1.23 22.32 7.82 32.85 17.55.67-.73 1.32-1.48 2-2.27a12.91 12.91 0 0 0-.43-16.28C60.1 63 38.46 41 23.75 42.9 8.48 44.85 9.28 80 10.55 96.83c.4 5.45 4.08 9.9 8.93 10.78l3.07.48c.6-15.32 3.68-30.93 13.7-32.2z" fill="#ecf7fe"/><path d="M201.43 80.54c8.4-10 21.08-24.1 34.66-35.54h-28.8c-4.47 3.76-8.84 7.8-13 11.9a20.46 20.46 0 0 0 1.39 30.33c.53.44 1 .9 1.55 1.35a21.51 21.51 0 0 1 4.18-8.05zM105.68 56.9c-4.15-4.1-8.52-8.15-13-11.9H63.9c13.6 11.43 26.28 25.55 34.67 35.54a21.51 21.51 0 0 1 4.17 8c.5-.45 1-.9 1.55-1.35a20.46 20.46 0 0 0 1.39-30.28z" fill="#58595b"/></svg>