<svg id="Layer_1" data-name="Layer 1" xmlns="http://www.w3.org/2000/svg" xmlns:xlink="http://www.w3.org/1999/xlink" viewBox="0 0 300 345"><defs><style>.cls-1{fill:url(#linear-gradient);}.cls-2{fill:#dae6f5;}.cls-3{fill:url(#radial-gradient);}.cls-4{fill:#231f20;}.cls-5{fill:#414042;}.cls-6{fill:none;stroke:#231f20;stroke-miterlimit:10;stroke-width:8px;}.cls-7{fill:#fff;}</style><linearGradient id="linear-gradient" x1="150" y1="356.11" x2="150" y2="161.16" gradientUnits="userSpaceOnUse"><stop offset="0" stop-color="#9dc6ea"/><stop offset="0.69" stop-color="#416eb5"/></linearGradient><radialGradient id="radial-gradient" cx="150" cy="230.73" r="57.17" gradientUnits="userSpaceOnUse"><stop offset="0" stop-color="#414042"/><stop offset="1" stop-color="#bfe7fb" stop-opacity="0"/></radialGradient></defs><title>blook_seal</title><path class="cls-1" d="M263.62,345H36.38A36.38,36.38,0,0,1,0,308.62V259.14H300v49.48A36.38,36.38,0,0,1,263.62,345Z"/><path class="cls-2" d="M0,195.17V262a36.38,36.38,0,0,0,36.38,36.38H263.62A36.38,36.38,0,0,0,300,262V195.17s-4.3-144.7-150-144.7S0,195.17,0,195.17Z"/><circle class="cls-3" cx="150" cy="230.73" r="57.17"/><ellipse class="cls-4" cx="149.94" cy="266.83" rx="36.9" ry="27.77"/><path class="cls-5" d="M153.18,258a32.78,32.78,0,1,1-65.56,0c0-18.11,14.67-24.94,32.78-24.94S153.18,239.84,153.18,258Z"/><path class="cls-5" d="M212.38,258a32.78,32.78,0,1,1-65.56,0c0-18.1,14.68-24.93,32.78-24.93S212.38,239.86,212.38,258Z"/><path class="cls-4" d="M127.75,228.41c-3.86,4.84,13.34,27.89,22.25,27.89s25.66-23.63,22.26-27.89S131.61,223.58,127.75,228.41Z"/><line class="cls-6" x1="150" y1="250.76" x2="150" y2="280.28"/><path class="cls-4" d="M102.44,260.22c-.23-.07-.61-.14-1-.21s-.71-.14-1.07-.2c-.72-.14-1.46-.24-2.2-.33-1.48-.23-3-.32-4.51-.45a82.29,82.29,0,0,0-9.16,0c-1.53.09-3.08.13-4.6.34l-2.3.26a22.31,22.31,0,0,0-2.3.32l-4.58.8-4.53,1.08-1.13.27-1.12.34-2.23.69a46.4,46.4,0,0,0-4.44,1.51l-4.38,1.7c-1.44.63-2.84,1.33-4.27,2-2.9,1.25-5.55,2.95-8.33,4.48l-1,.59-1,.66-2,1.33-4,2.66L36.06,275l1.83-1.54.92-.77,1-.69c2.62-1.83,5.13-3.84,7.93-5.42,1.37-.82,2.73-1.69,4.13-2.49l4.3-2.21a47.23,47.23,0,0,1,4.4-2l2.23-1,1.12-.48L65,258l4.6-1.62,4.7-1.34c.78-.23,1.58-.42,2.38-.59l2.39-.52c1.6-.39,3.22-.61,4.84-.88a89.51,89.51,0,0,1,9.85-1c1.66,0,3.32-.1,5,0,.84,0,1.68.05,2.54.11.43,0,.85,0,1.29.1s.85.08,1.4.17l.13,0a4,4,0,1,1-1.23,7.92A4.1,4.1,0,0,1,102.44,260.22Z"/><path class="cls-4" d="M104.39,276.52c-.24,0-.62.05-1,.09s-.72.08-1.08.13c-.73.09-1.46.2-2.2.34-1.48.23-3,.6-4.43.92A85.87,85.87,0,0,0,87,280.7c-1.43.55-2.89,1.05-4.28,1.71l-2.12.93c-.71.31-1.42.63-2.09,1l-4.13,2.13-4,2.39-1,.6-1,.66-1.92,1.33c-1.28.89-2.59,1.76-3.78,2.77L59,297.15c-1.18,1-2.31,2.13-3.47,3.19a93.94,93.94,0,0,0-6.6,6.78l-.81.87-.74.92-1.48,1.86-3,3.72,2.57-4,1.29-2,.65-1,.71-1c1.95-2.52,3.75-5.19,5.94-7.54,1.06-1.2,2.1-2.43,3.2-3.61l3.43-3.4c1.12-1.16,2.36-2.2,3.59-3.25l1.85-1.58.92-.79,1-.74,3.9-2.92L76,280c.68-.46,1.38-.88,2.09-1.27l2.13-1.22c1.41-.85,2.89-1.54,4.35-2.29a90.49,90.49,0,0,1,9.1-3.89c1.58-.52,3.14-1.09,4.77-1.52.8-.24,1.62-.46,2.45-.66.42-.1.83-.2,1.27-.29s.83-.18,1.38-.26l.13,0a4,4,0,0,1,1.21,7.93A4.21,4.21,0,0,1,104.39,276.52Z"/><path class="cls-4" d="M196,252.38c.55-.09,1-.12,1.4-.17s.86-.07,1.29-.1c.86-.06,1.7-.1,2.54-.11,1.68-.07,3.34,0,5,0a89.51,89.51,0,0,1,9.85,1c1.62.27,3.24.49,4.84.88l2.39.52c.8.17,1.6.36,2.38.59l4.7,1.34L235,258l1.14.41,1.12.48,2.23,1a47.23,47.23,0,0,1,4.4,2l4.3,2.21c1.4.8,2.76,1.67,4.13,2.49,2.8,1.58,5.31,3.59,7.93,5.42l1,.69.92.77,1.83,1.54,3.65,3.06-3.95-2.66-2-1.33-1-.66-1-.59c-2.78-1.53-5.43-3.23-8.33-4.48-1.43-.67-2.83-1.37-4.27-2l-4.38-1.7a46.4,46.4,0,0,0-4.44-1.51l-2.23-.69-1.12-.34-1.13-.27-4.53-1.08-4.58-.8a22.31,22.31,0,0,0-2.3-.32l-2.3-.26c-1.52-.21-3.07-.25-4.6-.34a82.29,82.29,0,0,0-9.16,0c-1.51.13-3,.22-4.51.45-.74.09-1.48.19-2.2.33-.36.06-.73.12-1.07.2s-.72.14-.95.21a4,4,0,0,1-2.19-7.72,3.78,3.78,0,0,1,.46-.1Z"/><path class="cls-4" d="M196.45,268.57c.55.08.94.17,1.38.26s.85.19,1.27.29c.83.2,1.65.42,2.45.66,1.63.43,3.19,1,4.77,1.52a90.49,90.49,0,0,1,9.1,3.89c1.46.75,2.94,1.44,4.35,2.29l2.13,1.22c.71.39,1.41.81,2.09,1.27l4.08,2.69,3.9,2.92,1,.74.92.79,1.85,1.58c1.23,1.05,2.47,2.09,3.59,3.25l3.43,3.4c1.1,1.18,2.13,2.41,3.2,3.61,2.19,2.35,4,5,5.94,7.54l.71,1,.65,1,1.29,2,2.57,4-3-3.72-1.48-1.86-.74-.92-.81-.87a93.94,93.94,0,0,0-6.6-6.78c-1.16-1.06-2.29-2.16-3.47-3.19l-3.67-2.93c-1.19-1-2.5-1.88-3.78-2.77l-1.92-1.33-1-.66-1-.6-4-2.39-4.12-2.13c-.68-.37-1.39-.69-2.1-1l-2.12-.93c-1.39-.66-2.85-1.16-4.28-1.71a85.87,85.87,0,0,0-8.76-2.7c-1.48-.32-2.95-.69-4.43-.92-.74-.14-1.47-.25-2.2-.34-.36-.05-.73-.11-1.08-.13s-.73-.08-1-.09a4,4,0,1,1,.22-8,3.56,3.56,0,0,1,.47.05Z"/><circle class="cls-5" cx="242.58" cy="202.6" r="36.45"/><circle class="cls-5" cx="57.42" cy="202.6" r="36.45"/><circle class="cls-7" cx="242.58" cy="212.72" r="36.45"/><circle class="cls-7" cx="57.42" cy="212.72" r="36.45"/><path class="cls-5" d="M90,205.81a17.69,17.69,0,0,1-25.69-24,30.7,30.7,0,1,0,25.69,24ZM47.13,232.26a7.3,7.3,0,1,1,7.29-7.3A7.3,7.3,0,0,1,47.13,232.26Z"/><path class="cls-5" d="M270,205.63a17.69,17.69,0,0,1-25.53-23.78,30.69,30.69,0,1,0,26.25,30.37A30.52,30.52,0,0,0,270,205.63Zm-43.12,26.63a7.3,7.3,0,1,1,7.3-7.3A7.3,7.3,0,0,1,226.84,232.26Z"/><ellipse class="cls-5" cx="100.14" cy="163.35" rx="13.02" ry="12.66"/><ellipse class="cls-5" cx="199.86" cy="163.35" rx="13.02" ry="12.66"/></svg>