<svg xmlns="http://www.w3.org/2000/svg" viewBox="0 0 300 345"><defs><linearGradient id="A" x1="150" y1="340.94" x2="150" y2="145.99" gradientUnits="userSpaceOnUse"><stop offset="0" stop-color="#ffebd1"/><stop offset=".69" stop-color="#d89864"/></linearGradient></defs><path d="M263.62,345H36.38A36.38,36.38,0,0,1,0,308.62V259.14H300v49.48A36.38,36.38,0,0,1,263.62,345Z" fill="url(#A)"/><path d="M38.5 120.82h223V298.4h-223z" fill="#414042"/><path d="M300 150.2l-95.4-38.76H95.4L0 143.1c4.2 7 12.22 11.64 26.58 11.64A53 53 0 0 0 61 142.54a53 53 0 0 0 34.33 12.15 54.32 54.32 0 0 0 27.31-7.19 55.41 55.41 0 0 0 54.75 0 54.29 54.29 0 0 0 27.36 7.22 53 53 0 0 0 34.37-12.19 53.11 53.11 0 0 0 34.34 12.15c12.12.03 20.67-1.63 26.54-4.47z" fill="#231f20"/><path d="M300 116.13V262a36.38 36.38 0 0 1-36.38 36.38h-12.3c1.87-12.5 4.2-23.23 6.9-26a42.72 42.72 0 0 1-4.94-53.69 42.75 42.75 0 0 1 0-47.5 42.73 42.73 0 0 1 4.93-53.61H41.76a42.71 42.71 0 0 1 5 53.64 42.75 42.75 0 0 1 0 47.59 42.72 42.72 0 0 1-5 53.56c2.7 2.77 5 13.54 6.93 26h-12.3A36.38 36.38 0 0 1 0 262V116.13l38.26-9.76h226.1z" fill="#ffebd1"/><path d="M26.58 154.73A54.33 54.33 0 0 0 54 147.48a42.55 42.55 0 0 0-12.19-29.87L0 116.13v27c4.2 7 12.22 11.6 26.58 11.6zm219.5-7.3v.06a54.24 54.24 0 0 0 27.34 7.22c12.16 0 20.7-1.66 26.58-4.5v-34.08l-41.77 1.46a42.59 42.59 0 0 0-12.15 29.84z" fill="#e7bf9a"/><path d="M273.42 27.5A53 53 0 0 0 239 39.7a53 53 0 0 0-34.33-12.15 54.32 54.32 0 0 0-27.31 7.19 55.41 55.41 0 0 0-54.75 0 54.29 54.29 0 0 0-27.36-7.22 53 53 0 0 0-34.33 12.16 53.06 53.06 0 0 0-34.34-12.15C14.42 27.53 5.87 29.2 0 32v98.06c4.2 7 12.22 11.64 26.58 11.64A53 53 0 0 0 61 129.54a53 53 0 0 0 34.33 12.15 54.32 54.32 0 0 0 27.31-7.19 55.41 55.41 0 0 0 54.75 0 54.29 54.29 0 0 0 27.36 7.22 53 53 0 0 0 34.37-12.19 53.11 53.11 0 0 0 34.34 12.15c12.16 0 20.7-1.66 26.58-4.5V39.15c-4.25-7.04-12.26-11.64-26.62-11.64z" fill="#ffebd1"/><path d="M210.58,269.86c0,29.13-18,50.72-60.58,50.72S89.42,299,89.42,269.86" fill="#414042"/><path d="M210.58 269.86a50.85 50.85 0 0 1-2.38 22.67 43 43 0 0 1-13.71 19.12 56.17 56.17 0 0 1-21.35 10.21A87.9 87.9 0 0 1 161.6 324c-3.87.4-7.74.57-11.6.62s-7.73-.2-11.6-.62a87.86 87.86 0 0 1-11.54-2.09 56.06 56.06 0 0 1-21.36-10.21 43 43 0 0 1-13.71-19.13 51 51 0 0 1-2.37-22.67c.9 7.47 2.64 14.74 6 21.12a41.23 41.23 0 0 0 13.84 15.62 54.87 54.87 0 0 0 19.38 7.89 100.69 100.69 0 0 0 21.36 2.05 100.69 100.69 0 0 0 21.38-2.08 55.11 55.11 0 0 0 19.39-7.89A41.26 41.26 0 0 0 204.61 291c3.33-6.4 5.1-13.67 5.97-21.14z" fill="#231f20"/><path d="M180.55 269.86c0 9.6-7.68 23.7-30.55 23.7s-30.55-14.1-30.55-23.7" fill="#414042"/><path d="M180.55 269.86a19.65 19.65 0 0 1-1.47 11.05 23.62 23.62 0 0 1-7.17 9.14 30.46 30.46 0 0 1-10.5 5.16A45.82 45.82 0 0 1 150 296.7a45.35 45.35 0 0 1-11.41-1.48 30.64 30.64 0 0 1-10.5-5.16 23.58 23.58 0 0 1-7.18-9.15 19.56 19.56 0 0 1-1.46-11.05A23.93 23.93 0 0 0 130.88 286a31 31 0 0 0 9.14 3.45l2.44.46c.8.16 1.67.17 2.5.26l1.24.14h1.27l2.53.08 2.53-.08h1.27l1.25-.13 2.5-.27 2.44-.45a31.25 31.25 0 0 0 9.14-3.45 23.91 23.91 0 0 0 11.43-16.15z" fill="#231f20"/><path d="M150 293.57v26.98" fill="none" stroke="#231f20" stroke-miterlimit="10" stroke-width="8"/><g fill="#231f20"><circle cx="242.58" cy="204.92" r="36.45"/><circle cx="57.42" cy="204.92" r="36.45"/></g><g fill="#fff"><circle cx="242.58" cy="215.04" r="36.45"/><circle cx="57.42" cy="215.04" r="36.45"/></g><path d="M89.18 209.75A13.21 13.21 0 0 1 70 191.84a24.56 24.56 0 0 0-3.23-.23 23 23 0 1 0 22.42 18.14zm-32 19.76a5.46 5.46 0 1 1 5.45-5.45 5.45 5.45 0 0 1-5.49 5.45zm198.45-19.9a13.21 13.21 0 0 1-19.07-17.76 23 23 0 1 0 19.07 17.76zm-32.22 19.9a5.46 5.46 0 1 1 5.46-5.45 5.45 5.45 0 0 1-5.46 5.45zm62.73-146.2a35.76 35.76 0 1 1-66.6-26.07c3.94-10.08 21.6-25.7 36.75-37.77a17.69 17.69 0 0 1 28.5 11.15c2.93 19.14 5.3 42.6 1.35 52.7z" fill="#414042"/><g fill="#231f20"><path d="M264.2 30.3a34.49 34.49 0 0 1 7 13.72 51.27 51.27 0 0 1-1.06 30.36 38.54 38.54 0 0 1-7.7 13.29c-.17-2.68.1-5.12.17-7.58l.4-7.2c.35-4.7.5-9.33.7-13.93s.24-9.24.3-13.95l.08-7.2c0-2.43.04-4.9.12-7.53z"/><path d="M267.08 54.86h.07-.35c-.23 0-.55.06-.83.08l-.92.14c-.3 0-.64.16-1 .23a5.42 5.42 0 0 0-1 .27l-1 .3c-.66.33-1.37.5-2 .87a34.24 34.24 0 0 0-8.05 5.65l-1 .85-.94 1-1.94 1.9-3.7 4.18-1.8 2.23-1.83 2.26-3.7 4.68.88-6c.34-2 1-3.9 1.57-5.86a30 30 0 0 1 1.07-2.87l1.2-2.87 1.46-2.78.76-1.4.9-1.33a32.81 32.81 0 0 1 9.26-9.6 12.77 12.77 0 0 1 1.51-.94l1.57-.88 1.7-.73a12.72 12.72 0 0 1 1.76-.65 22.74 22.74 0 0 1 3.77-.85l2.06-.15h1.1l.63.05h.34l.52.07z"/></g><path d="M13.86 83.33a35.76 35.76 0 1 0 66.6-26.07c-3.94-10.08-21.6-25.7-36.75-37.77a17.69 17.69 0 0 0-28.5 11.15c-2.93 19.14-5.3 42.6-1.35 52.7z" fill="#414042"/><g fill="#231f20"><path d="M35.8 30.3l.13 7.53L36 45l.3 13.95.7 13.93.4 7.2s.34 4.9.17 7.58a38.54 38.54 0 0 1-7.7-13.29A51.27 51.27 0 0 1 28.82 44a34.49 34.49 0 0 1 6.99-13.7z"/><path d="M30.93 42.78l.52-.07h.34l.63-.05h1.1c.74 0 1.37.1 2.06.15a22.74 22.74 0 0 1 3.77.85 12.72 12.72 0 0 1 1.76.65l1.7.73c.56.26 1.05.58 1.57.88a12.77 12.77 0 0 1 1.51.94 32.81 32.81 0 0 1 9.26 9.6l.86 1.27.76 1.4 1.46 2.78 1.2 2.87a30 30 0 0 1 1.07 2.87l1.57 5.86c.42 1.96.68 4 .88 6l-3.7-4.68c-.56-.8-1.23-1.5-1.83-2.26l-1.8-2.23-3.7-4.18-1.9-1.93-.94-1-1-.85A34.24 34.24 0 0 0 40 56.83c-.67-.36-1.38-.54-2-.87l-1-.3a5.42 5.42 0 0 0-1-.27c-.32-.07-.65-.2-1-.23l-.95-.15c-.28 0-.6-.08-.83-.08h-.44s-.07 0 0 0h.16z"/></g></svg>