<svg id="Layer_1" data-name="Layer 1" xmlns="http://www.w3.org/2000/svg" xmlns:xlink="http://www.w3.org/1999/xlink" viewBox="0 0 300 345"><defs><style>.cls-1{fill:url(#linear-gradient);}.cls-2{fill:#dae6f5;}.cls-3{fill:#b6cbe9;}.cls-4{fill:#feda3f;}.cls-5{fill:#fff;}.cls-6{fill:#414042;}</style><linearGradient id="linear-gradient" x1="150" y1="356.11" x2="150" y2="161.16" gradientUnits="userSpaceOnUse"><stop offset="0" stop-color="#9dc6ea"/><stop offset="0.69" stop-color="#416eb5"/></linearGradient></defs><title>blook_snowy-owl</title><path class="cls-1" d="M263.62,345H36.38A36.38,36.38,0,0,1,0,308.62V259.14H300v49.48A36.38,36.38,0,0,1,263.62,345Z"/><path class="cls-2" d="M150,45C16.37,45,0,169.85,0,189.94V262a36.38,36.38,0,0,0,36.38,36.38H263.62A36.38,36.38,0,0,0,300,262V189.94C300,169.85,283.63,45,150,45Z"/><circle class="cls-3" cx="242.58" cy="196.03" r="42.55"/><circle class="cls-3" cx="57.42" cy="196.03" r="42.55"/><path class="cls-4" d="M279,196a36.45,36.45,0,1,1-72.9,0C206.13,175.83,279,163.61,279,196Z"/><path class="cls-4" d="M93.87,196A36.45,36.45,0,0,1,21,196C21,163.61,93.87,175.83,93.87,196Z"/><circle class="cls-5" cx="57.42" cy="209.08" r="6.63"/><circle class="cls-5" cx="223.41" cy="209.08" r="6.63"/><path class="cls-6" d="M89.18,194.77A13.21,13.21,0,0,1,70,176.86a23,23,0,1,0,19.19,17.91Zm-32,19.76a5.46,5.46,0,1,1,5.45-5.45A5.45,5.45,0,0,1,57.14,214.53Z"/><path class="cls-6" d="M255.63,194.64a13.22,13.22,0,0,1-19.07-17.77,24.25,24.25,0,0,0-3.32-.24,23,23,0,1,0,22.39,18Zm-32.22,19.89a5.46,5.46,0,1,1,5.46-5.45A5.45,5.45,0,0,1,223.41,214.53Z"/><circle class="cls-5" cx="77.73" cy="187.24" r="13.25"/><circle class="cls-5" cx="244.97" cy="187.24" r="13.25"/><path class="cls-6" d="M248.68,176c16,0,30.35,5.57,30.35,19.94a36.45,36.45,0,1,1-72.9,0c0-11.19,22.54-19.94,42.55-19.94m0-9v0h0a83.2,83.2,0,0,0-32.41,6.54c-16.66,7.34-19.14,17.18-19.14,22.4a45.45,45.45,0,1,0,90.9,0c0-9.9-4.87-18.13-13.72-23.17C267.7,169,258.84,167,248.69,167Z"/><path class="cls-6" d="M51.32,176c20,0,42.55,8.74,42.55,19.94A36.45,36.45,0,0,1,21,196C21,181.6,35.34,176,51.32,176m0-9h0c-10.16,0-19,2-25.63,5.76C16.84,177.83,12,186.06,12,196a45.45,45.45,0,0,0,90.9,0c0-5.22-2.48-15.06-19.14-22.41A83.34,83.34,0,0,0,51.32,167Z"/><path class="cls-6" d="M150,201.45s-15.13,3.68-15.13,22.91S150,260.2,150,260.2s15.13-16.6,15.13-35.84S150,201.45,150,201.45Z"/><path class="cls-6" d="M150,110.24s-15.68-28.38,0-28.38S150,110.24,150,110.24Z"/><path class="cls-6" d="M172.86,100.16s-5.92-31.88,9-26.93S172.86,100.16,172.86,100.16Z"/><path class="cls-6" d="M127.14,100.16s5.92-31.88-9-26.93S127.14,100.16,127.14,100.16Z"/><path class="cls-6" d="M139.28,75.05S119,58.13,134.21,54.4,139.28,75.05,139.28,75.05Z"/><path class="cls-6" d="M160.72,75.05S181,58.13,165.79,54.4,160.72,75.05,160.72,75.05Z"/><path class="cls-6" d="M156.77,140.86s-5.92-31.88,9-26.93S156.77,140.86,156.77,140.86Z"/><path class="cls-6" d="M143.23,140.86s5.92-31.88-9-26.93S143.23,140.86,143.23,140.86Z"/><path class="cls-6" d="M186.19,124.89S180.27,93,195.15,98,186.19,124.89,186.19,124.89Z"/><path class="cls-6" d="M213,118.19s2-32.36,15.24-23.94S213,118.19,213,118.19Z"/><path class="cls-6" d="M242.77,112.27s5.73-24.18,15.28-11.75S242.77,112.27,242.77,112.27Z"/><path class="cls-6" d="M207.11,86.43S201.18,62.3,215.36,69,207.11,86.43,207.11,86.43Z"/><path class="cls-6" d="M113.87,124.9s5.92-31.87-9-26.92S113.87,124.9,113.87,124.9Z"/><path class="cls-6" d="M87.09,118.2s-2-32.36-15.25-23.93S87.09,118.2,87.09,118.2Z"/><path class="cls-6" d="M57.28,112.28S51.56,88.1,42,100.54,57.28,112.28,57.28,112.28Z"/><path class="cls-6" d="M92.94,86.44S98.87,62.31,84.7,69,92.94,86.44,92.94,86.44Z"/><path class="cls-6" d="M175.21,309.81A53.77,53.77,0,0,1,164.35,311c-6.72,0-14.35-4.68-14.35-4.68S142.66,311,135.65,311a53.77,53.77,0,0,1-10.86-1.19,104.64,104.64,0,0,1-12.35-3.49,17.39,17.39,0,0,0,3.38,6.44,23.53,23.53,0,0,0,5.44,4.94,26.23,26.23,0,0,0,14.39,4.3c5.1,0,10.23-3.1,14.35-5.88,4.12,2.78,9.25,5.84,14.35,5.88a26.23,26.23,0,0,0,14.39-4.3,23.53,23.53,0,0,0,5.44-4.94,17.39,17.39,0,0,0,3.38-6.44A104.64,104.64,0,0,1,175.21,309.81Z"/><path class="cls-6" d="M87.81,309.31a42.15,42.15,0,0,1-9.56.76c-5.87-.27-12.33-5.26-12.33-5.26s-6.63,4.4-12.75,4.12a41.93,41.93,0,0,1-9.44-1.63,82.84,82.84,0,0,1-10.64-4,18.46,18.46,0,0,0,2.66,6.58,22.35,22.35,0,0,0,4.53,5.15,21,21,0,0,0,12.39,4.87c4.46.15,9.08-2.7,12.81-5.31,3.47,2.94,7.82,6.2,12.27,6.45a20.93,20.93,0,0,0,12.78-3.73,22,22,0,0,0,5-4.71,18.37,18.37,0,0,0,3.25-6.31A84.29,84.29,0,0,1,87.81,309.31Z"/><path class="cls-6" d="M211.89,309.31a42.1,42.1,0,0,0,9.55.76c5.88-.27,12.33-5.26,12.33-5.26s6.64,4.4,12.76,4.12A41.93,41.93,0,0,0,256,307.3a82.75,82.75,0,0,0,10.63-4A18.27,18.27,0,0,1,264,309.9a22.35,22.35,0,0,1-4.53,5.15A21,21,0,0,1,247,319.92c-4.46.15-9.08-2.7-12.81-5.31-3.47,2.94-7.82,6.2-12.28,6.45a20.92,20.92,0,0,1-12.77-3.73,22,22,0,0,1-5-4.71,18.37,18.37,0,0,1-3.25-6.31A84.29,84.29,0,0,0,211.89,309.31Z"/><path class="cls-6" d="M87.56,327.37a46,46,0,0,0,8.79,3.26,34,34,0,0,0,7.59.93c1.26-.05,2.52,0,3.77-.21.64-.05,1.25-.18,1.9-.26.33,0,.63-.16,1-.2a6.64,6.64,0,0,0,1-.23,43.43,43.43,0,0,0,8.76-3.29,11.55,11.55,0,0,1-1.7,5.26,15.2,15.2,0,0,1-3.75,4.22,17.88,17.88,0,0,1-10.93,3.71,17.67,17.67,0,0,1-11-3.67,14.94,14.94,0,0,1-3.75-4.23A11.37,11.37,0,0,1,87.56,327.37Z"/><path class="cls-6" d="M179.68,327.37a46.13,46.13,0,0,0,8.78,3.26,34.17,34.17,0,0,0,7.6.93c1.26-.05,2.52,0,3.77-.21.63-.05,1.25-.18,1.9-.26.33,0,.63-.16,1-.2a6.64,6.64,0,0,0,1-.23,43.27,43.27,0,0,0,8.77-3.29,11.44,11.44,0,0,1-1.71,5.26,15.16,15.16,0,0,1-3.74,4.22,17.88,17.88,0,0,1-10.93,3.71,17.67,17.67,0,0,1-10.95-3.67,14.94,14.94,0,0,1-3.75-4.23A11.37,11.37,0,0,1,179.68,327.37Z"/><path class="cls-6" d="M15.4,307.78c1.51,3.07,2.6,5.62,3.79,7.78a19.27,19.27,0,0,0,3.64,4.93,17.21,17.21,0,0,0,5.23,3.22c2.27,1,5,1.8,8.14,3.15a14.84,14.84,0,0,1-9.06,3.78,14.12,14.12,0,0,1-5.33-.63,13.43,13.43,0,0,1-5-2.88,13.58,13.58,0,0,1-3.38-4.71,14.12,14.12,0,0,1-1.16-5.27,14.91,14.91,0,0,1,.7-5A11.84,11.84,0,0,1,15.4,307.78Z"/><path class="cls-6" d="M284.73,307.78a11.7,11.7,0,0,1,2.47,4.37,14.91,14.91,0,0,1,.71,5,14.32,14.32,0,0,1-1.16,5.27,13.74,13.74,0,0,1-3.39,4.71,13.47,13.47,0,0,1-5,2.88,14.2,14.2,0,0,1-5.34.63,14.83,14.83,0,0,1-9.05-3.78c3.13-1.35,5.87-2.12,8.14-3.15a17.33,17.33,0,0,0,5.23-3.22,19.26,19.26,0,0,0,3.63-4.93C282.13,313.4,283.23,310.85,284.73,307.78Z"/></svg>