<svg id="Layer_1" data-name="Layer 1" xmlns="http://www.w3.org/2000/svg" xmlns:xlink="http://www.w3.org/1999/xlink" viewBox="0 0 300 345"><defs><style>.cls-1{fill:url(#linear-gradient);}.cls-2{fill:#19184d;}.cls-3{fill:url(#linear-gradient-2);}.cls-4{fill:#c68c3c;}.cls-5{fill:#9bd4ee;}.cls-6{fill:#ecf7fe;}.cls-7{fill:none;stroke:#9bd4ee;stroke-linecap:round;stroke-miterlimit:10;stroke-width:4px;}.cls-8{fill:#ad1e32;}.cls-9{fill:#ffcb29;}.cls-10{fill:#f99f1b;}.cls-11{fill:#c2def4;}.cls-12{fill:#fff;}</style><linearGradient id="linear-gradient" x1="150" y1="356.11" x2="150" y2="161.16" gradientUnits="userSpaceOnUse"><stop offset="0" stop-color="#c68c3c"/><stop offset="0.69" stop-color="#90321c"/></linearGradient><linearGradient id="linear-gradient-2" x1="150" y1="63.75" x2="150" y2="257.56" gradientUnits="userSpaceOnUse"><stop offset="0.05" stop-color="#f47e20"/><stop offset="0.21" stop-color="#f47920"/><stop offset="0.39" stop-color="#f36c21"/><stop offset="0.57" stop-color="#f15623"/></linearGradient></defs><g id="space"><path class="cls-1" d="M263.62,345H36.38A36.38,36.38,0,0,1,0,308.62V259.14H300v49.48A36.38,36.38,0,0,1,263.62,345Z"/><rect class="cls-2" y="45" width="300" height="253.39" rx="36.38"/><circle class="cls-3" cx="150" cy="172.5" r="108.33"/><rect class="cls-4" y="206.92" width="300" height="91.48" rx="36.38"/><path class="cls-5" d="M42.2,242.62V219.37a8,8,0,0,1,8-8H71.64a8,8,0,0,1,8,8v7.25a8,8,0,0,0,8,8h51.67a8,8,0,0,1,8,8h0a8,8,0,0,1-8,8H50.2A8,8,0,0,1,42.2,242.62Z"/><path class="cls-5" d="M257.8,242.62V219.37a8,8,0,0,0-8-8H228.36a8,8,0,0,0-8,8v7.25a8,8,0,0,1-8,8H160.69a8,8,0,0,0-8,8h0a8,8,0,0,0,8,8H249.8A8,8,0,0,0,257.8,242.62Z"/><path class="cls-6" d="M268,222.49h-23a6.7,6.7,0,0,0-6.7,6.71v9.28a6.71,6.71,0,0,1-6.71,6.7H202.34a6.7,6.7,0,0,1-6.71-6.7V229.2a6.7,6.7,0,0,0-6.71-6.71H173.13a6.62,6.62,0,0,1-6.71-6.58,6.7,6.7,0,0,0-6.7-6.83H140.28a6.61,6.61,0,0,0-6.7,6.57,6.71,6.71,0,0,1-6.71,6.84H111.08a6.7,6.7,0,0,0-6.71,6.71v9.28a6.7,6.7,0,0,1-6.71,6.7H68.51a6.71,6.71,0,0,1-6.71-6.7V229.2a6.7,6.7,0,0,0-6.7-6.71H32.05a6.44,6.44,0,0,0-6.13,6.71v26.74c0,10.57,7.83,19.13,17.49,19.13h76.9a10.75,10.75,0,0,0,10.76-10.75h0a10.75,10.75,0,0,1,10.75-10.76h13.56a10.76,10.76,0,0,1,10.76,10.76h0a10.75,10.75,0,0,0,10.75,10.75h79.7c9.66,0,17.49-8.57,17.49-19.13V229.2A6.44,6.44,0,0,0,268,222.49Z"/><rect class="cls-6" x="260.9" y="203.18" width="12.42" height="12.42" rx="4.26"/><rect class="cls-6" x="248.46" y="195.39" width="9.34" height="9.34" rx="2.87"/><rect class="cls-6" x="24.53" y="195.39" width="16.6" height="16.6" rx="4.37"/><rect class="cls-5" x="18.64" y="219.22" width="11.77" height="11.77" rx="3.77"/><line class="cls-7" x1="143.32" y1="210.09" x2="143.32" y2="229.05"/><line class="cls-7" x1="156.68" y1="210.09" x2="156.68" y2="229.05"/><path class="cls-8" d="M128.61,192.88l1.45,14.65a6.61,6.61,0,0,0,6.57,6h26.74a6.61,6.61,0,0,0,6.57-6l1.45-14.65Z"/><path class="cls-8" d="M195.93,95.11s24.42,19.37,28.36,47a6.58,6.58,0,0,1-6.55,7.45H193.12Z"/><path class="cls-8" d="M104.07,95.11s-24.42,19.37-28.36,47a6.58,6.58,0,0,0,6.55,7.45h24.62Z"/><path class="cls-9" d="M198.11,103.5c-7.65-35.34-33-62.43-43.47-72.43a6.74,6.74,0,0,0-9.28,0c-10.52,10-35.82,37.09-43.47,72.43-8.18,37.82,11.76,78.08,18.34,90a6.76,6.76,0,0,0,5.91,3.49h47.72a6.76,6.76,0,0,0,5.91-3.49C186.35,181.58,206.29,141.32,198.11,103.5Z"/><path class="cls-10" d="M197.89,102.55h0c-.12,20.19-6.52,39.53-12.27,52.88a29.68,29.68,0,0,1-27.28,17.92H141.67a29.68,29.68,0,0,1-27.28-17.92c-5.75-13.35-12.15-32.69-12.27-52.88h0c-8.73,38.09,11.48,78.93,18.11,90.91a6.77,6.77,0,0,0,5.92,3.5h47.72a6.77,6.77,0,0,0,5.92-3.5C186.41,181.48,206.62,140.64,197.89,102.55Z"/><circle class="cls-11" cx="150" cy="109" r="26.56"/><rect class="cls-6" x="156.32" y="88.6" width="7.38" height="53.13" transform="translate(86.33 -67.7) rotate(32.31)"/><rect class="cls-6" x="148.2" y="82.35" width="5.12" height="55.82" transform="translate(82.28 -63.51) rotate(32.31)"/><path class="cls-10" d="M150,82.43A26.57,26.57,0,1,1,123.44,109,26.56,26.56,0,0,1,150,82.43m0-6.19A32.76,32.76,0,1,0,182.75,109,32.79,32.79,0,0,0,150,76.24Z"/><circle class="cls-12" cx="228.6" cy="59.92" r="2.2"/><circle class="cls-12" cx="74.64" cy="59.92" r="2.2"/><circle class="cls-12" cx="264.22" cy="64.17" r="1.06"/><circle class="cls-12" cx="14.78" cy="135.56" r="1.06"/><circle class="cls-12" cx="29.08" cy="149.85" r="1.06"/><circle class="cls-12" cx="40.07" cy="64.17" r="1.06"/><circle class="cls-12" cx="250.65" cy="94.39" r="0.97"/><circle class="cls-12" cx="284.3" cy="109.79" r="2.2"/><circle class="cls-12" cx="32.83" cy="109.79" r="2.2"/><circle class="cls-12" cx="272.53" cy="149.57" r="2.2"/></g></svg>