<?xml version="1.0" encoding="UTF-8" standalone="no"?>
<svg
   xmlns="http://www.w3.org/2000/svg"
   xmlns:xlink="http://www.w3.org/1999/xlink"
   version="1.1"
   viewBox="0 0 300 345"
   data-name="Layer 1"
   id="Layer_1">
  <defs
     id="defs895">
    <style
       id="style870">.cls-1{fill:url(#linear-gradient);}.cls-2{fill:#c2def4;}.cls-3{fill:url(#radial-gradient);}.cls-4{fill:url(#radial-gradient-2);}.cls-5{fill:#80aecf;}.cls-6{fill:#15141a;}</style>
    <linearGradient
       gradientUnits="userSpaceOnUse"
       y2="167.11"
       x2="150"
       y1="355.75"
       x1="150"
       id="linear-gradient">
      <stop
         style="stop-color:#66f59b;stop-opacity:1"
         id="stop872"
         stop-color="#dae6f5"
         offset="0" />
      <stop
         style="stop-color:#0ff062;stop-opacity:1"
         id="stop874"
         stop-color="#73a0d5"
         offset="0.72385776" />
    </linearGradient>
    <radialGradient
       gradientUnits="userSpaceOnUse"
       r="37.58"
       cy="187.7"
       cx="257.54"
       id="radial-gradient">
      <stop
         id="stop877"
         stop-color="#f493aa"
         offset="0" />
      <stop
         id="stop879"
         stop-opacity="0.97"
         stop-color="#f395ac"
         offset="0.09" />
      <stop
         id="stop881"
         stop-opacity="0.89"
         stop-color="#f19cb2"
         offset="0.22" />
      <stop
         id="stop883"
         stop-opacity="0.76"
         stop-color="#eea7bc"
         offset="0.38" />
      <stop
         id="stop885"
         stop-opacity="0.57"
         stop-color="#e9b7ca"
         offset="0.56" />
      <stop
         id="stop887"
         stop-opacity="0.33"
         stop-color="#e3cadc"
         offset="0.76" />
      <stop
         id="stop889"
         stop-opacity="0.05"
         stop-color="#dbe2f1"
         offset="0.97" />
      <stop
         id="stop891"
         stop-opacity="0"
         stop-color="#dae6f5"
         offset="1" />
    </radialGradient>
    <radialGradient
       xlink:href="#radial-gradient"
       r="37.58"
       cy="187.7"
       cx="42.46"
       id="radial-gradient-2" />
  </defs>
  <g
     id="spooky-ghost">
    <path
       style="fill:url(#linear-gradient)"
       id="path897"
       d="M250.77,341.43l-10-5c-19.29-9.53-41.81-6.18-61.53,2.43h0a73,73,0,0,1-58.42,0h0c-19.72-8.61-42.24-12-61.53-2.43l-10,5C27.34,352.24,1,337.29,0,312.9q0-.75,0-1.5V261.92H300V311.4q0,.75,0,1.5C299,337.29,272.66,352.24,250.77,341.43Z"
       class="cls-1" />
    <path
       style="fill:#66f59b;fill-opacity:1"
       id="path899"
       d="M263.62,45H36.38A36.38,36.38,0,0,0,0,81.38V264.79q0,.75,0,1.5c1,24.39,27.31,39.35,49.2,28.53l10-5c19.29-9.53,41.81-6.18,61.53,2.43h0a72.93,72.93,0,0,0,58.42,0h0c19.72-8.61,42.24-12,61.53-2.43l10,5c21.89,10.82,48.21-4.14,49.2-28.53q0-.75,0-1.5V81.38A36.38,36.38,0,0,0,263.62,45Z"
       class="cls-2" />
    <path
       style="fill:#66f59b;fill-opacity:1"
       id="path905"
       d="M42.32,222.76s15.07-19.63,49.61-12c18.33,4.05,24.63,17.89,21.22,30s-16.29,14.52-39,14.24c-16.29-.19-22.47,12.48-22.47,12.48"
       class="cls-2" />
    <path
       style="fill:#0ed858;fill-opacity:1"
       id="path907"
       d="M42.32,222.76a21.13,21.13,0,0,1,3.14-4.34,29,29,0,0,1,4-3.69l1.07-.84,1.12-.77c.77-.49,1.51-1.05,2.32-1.46l2.42-1.3c.83-.39,1.68-.72,2.52-1.08l1.28-.53c.43-.16.87-.28,1.3-.42.88-.27,1.76-.55,2.64-.8,1.78-.45,3.58-.78,5.39-1.09s3.65-.38,5.47-.46,3.65,0,5.47,0l5.44.45c1.79.25,3.57.57,5.36.86A39,39,0,0,1,102,210.69a29.87,29.87,0,0,1,9.31,7.09,24.86,24.86,0,0,1,5.41,22.5c-.12.48-.22,1-.36,1.45l-.52,1.45a18,18,0,0,1-1.3,2.83,8.55,8.55,0,0,1-.85,1.33c-.3.44-.6.87-.92,1.29l-1.09,1.17a8.94,8.94,0,0,1-1.14,1.08A25.36,25.36,0,0,1,99.89,256a64.18,64.18,0,0,1-10.84,1.5c-3.58.22-7.11.22-10.64.19l-2.63-.06c-.88,0-1.79-.05-2.54,0a28.83,28.83,0,0,0-4.74.32,27.68,27.68,0,0,0-16.84,9.57,22.6,22.6,0,0,1,10.58-12.16,25.5,25.5,0,0,1,5.29-2,28,28,0,0,1,5.61-.8c1-.08,1.8-.07,2.67-.09l2.58,0c3.42-.11,6.84-.25,10.2-.6A57.19,57.19,0,0,0,98.31,250a20.18,20.18,0,0,0,7.93-4,12.65,12.65,0,0,0,3.91-7.21,20,20,0,0,0-.09-8.78c-1.39-5.71-5.62-10.44-11.14-13.22a33.54,33.54,0,0,0-9-3.06c-1.63-.31-3.26-.66-4.9-.94l-5-.55a59.62,59.62,0,0,0-19.57,1.83A51,51,0,0,0,42.32,222.76Z"
       class="cls-5" />
    <path
       style="fill:#66f59b;fill-opacity:1"
       id="path909"
       d="m 249.77646,262.31757 c 0,0 24.74488,-0.36443 39.2523,-32.62529 7.69825,-17.12099 0.35969,-30.43944 -11.39008,-34.93643 -11.74978,-4.497 -21.37479,4.39467 -34.71267,22.77737 -9.57603,13.17952 -23.42923,10.56989 -23.42923,10.56989"
       class="cls-2" />
    <path
       style="fill:#0ed858;fill-opacity:1"
       id="path911"
       d="m 249.77646,262.31757 a 51,51 0 0 0 17.82731,-9.39232 59.62,59.62 0 0 0 13.15507,-14.60403 l 2.54486,-4.33892 c 0.75483,-1.48264 1.44754,-2.99907 2.17233,-4.49161 a 33.54,33.54 0 0 0 2.92043,-9.04626 c 1.06674,-6.08776 -0.20098,-12.30537 -3.95081,-16.8303 a 20,20 0 0 0 -6.9886,-5.31563 12.65,12.65 0 0 0 -8.11814,-1.16965 20.18,20.18 0 0 0 -7.94417,3.97177 57.19,57.19 0 0 0 -7.19243,6.76316 c -2.28733,2.486 -4.44206,5.14554 -6.57272,7.823 l -1.54078,2.06939 c -0.51957,0.69782 -1.00927,1.35554 -1.66672,2.08784 a 28,28 0 0 1 -3.99198,4.02196 25.5,25.5 0 0 1 -4.76338,3.04866 20.35,20.35 0 0 1 -2.62038,1.04115 21.06,21.06 0 0 1 -13.45144,0.18298 27.68,27.68 0 0 0 17.73289,-7.79197 28.83,28.83 0 0 0 3.08741,-3.61081 c 0.4479,-0.60157 0.99136,-1.33147 1.5169,-2.03731 l 1.52251,-2.14533 c 2.10813,-2.83138 4.21625,-5.66276 6.50663,-8.42077 a 64.18,64.18 0 0 1 7.67681,-7.79886 25.36,25.36 0 0 1 10.43091,-5.48647 8.94,8.94 0 0 1 1.54707,-0.2694 l 1.58939,-0.17555 c 0.52799,-0.006 1.05204,0.0103 1.58413,0.0325 a 8.55,8.55 0 0 1 1.5744,0.1125 18,18 0 0 1 3.04628,0.64736 l 1.47357,0.44886 c 0.46862,0.17436 0.94542,0.4047 1.37803,0.57719 a 24.86,24.86 0 0 1 14.81617,17.77637 29.87,29.87 0 0 1 0.12687,11.70162 39,39 0 0 1 -3.70084,10.64699 c -0.83639,1.60893 -1.64274,3.22776 -2.51121,4.8128 l -2.88784,4.63212 c -1.03878,1.49563 -2.17979,2.92763 -3.2667,4.38743 -1.0869,1.45981 -2.41239,2.75444 -3.63565,4.11272 -1.22327,1.35828 -2.66924,2.51334 -4.0932,3.67232 -0.72607,0.55654 -1.47619,1.09516 -2.21829,1.63976 -0.36909,0.26129 -0.72811,0.54254 -1.11324,0.79189 l -1.18953,0.71016 c -0.7904,0.45876 -1.56271,0.94346 -2.37121,1.37629 l -2.48795,1.1647 c -0.81259,0.40484 -1.72775,0.64603 -2.55656,0.98893 l -1.28647,0.4385 -1.31277,0.35658 a 29,29 0 0 1 -5.34852,1.00469 21.13,21.13 0 0 1 -5.44844,-0.11697 z"
       class="cls-5" />
    <path
       id="path913"
       d="M181.89,197.6c0,23.08-11.38,41.78-31.89,41.78s-31.89-18.7-31.89-41.78c0,0,14.28,10.44,31.89,10.44S181.89,197.6,181.89,197.6Z"
       class="cls-6" />
    <path
       id="path915"
       d="M260.56,146a49.22,49.22,0,0,0-19.83-11.11,56.82,56.82,0,0,0-31.73,0A49.37,49.37,0,0,0,189.18,146c-10,9.43-14.25,22.5-8.54,34.76,5.94,12.77,19.19,4.63,33.39.83a36.4,36.4,0,0,1,21.67,0c14.21,3.8,27.45,11.94,33.4-.83C274.8,168.54,270.6,155.47,260.56,146Z"
       class="cls-6" />
    <path
       id="path917"
       d="M110.82,146A49.25,49.25,0,0,0,91,134.93a56.85,56.85,0,0,0-31.74,0A49.37,49.37,0,0,0,39.44,146c-10,9.43-14.24,22.5-8.54,34.76,6,12.77,19.19,4.63,33.4.83A42.19,42.19,0,0,1,75.13,180,42.27,42.27,0,0,1,86,181.63c14.2,3.8,27.44,11.94,33.39-.83C125.07,168.54,120.86,155.47,110.82,146Z"
       class="cls-6" />
  </g>

  <style>
    #spooky-ghost {
      animation: shake 2s linear 0s infinite alternate;
    }
    @keyframes shake {
      0% { transform: translateY(0%); }
      100% { transform: translateY(-7.5%); }
    }
  </style>
</svg>
