<svg id="Layer_1" data-name="Layer 1" xmlns="http://www.w3.org/2000/svg" xmlns:xlink="http://www.w3.org/1999/xlink" viewBox="0 0 300 345"><defs><style>.cls-1{fill:url(#linear-gradient);}.cls-2{fill:#f7aa74;}.cls-3{fill:#f49849;}.cls-4{fill:#d25927;}.cls-5{fill:#e17f34;}.cls-6{fill:#fff;}.cls-7{fill:#414042;}.cls-8{fill:none;stroke:#231f20;stroke-linecap:round;stroke-miterlimit:10;stroke-width:10px;}.cls-9{fill:#231f20;}.cls-10{fill:#b84f29;}</style><linearGradient id="linear-gradient" x1="150" y1="356.11" x2="150" y2="161.16" gradientUnits="userSpaceOnUse"><stop offset="0" stop-color="#f49849"/><stop offset="0.69" stop-color="#d25927"/></linearGradient></defs><title>blook_squirrel</title><g id="forest"><path class="cls-1" d="M263.62,345H36.38A36.38,36.38,0,0,1,0,308.62V259.14H300v49.48A36.38,36.38,0,0,1,263.62,345Z"/><path class="cls-2" d="M86.55,345h126.9s8-48.23-30.57-48.23H117.12C78.6,296.77,86.55,345,86.55,345Z"/><rect class="cls-3" y="77.71" width="300" height="220.68" rx="36.38"/><path class="cls-4" d="M300,190.2V114.09a36.38,36.38,0,0,0-36.38-36.38H36.38A36.38,36.38,0,0,0,0,114.09v72.68C9.49,167.9,26.7,153,57.42,153c83.76,0,56.4,109.81,56.4,109.81h70.73S157.19,153,241,153C273.51,153,290.9,169.74,300,190.2Z"/><circle class="cls-5" cx="242.58" cy="225.76" r="36.45"/><circle class="cls-5" cx="57.42" cy="225.76" r="36.45"/><circle class="cls-6" cx="242.58" cy="235.88" r="36.45"/><circle class="cls-6" cx="57.42" cy="235.88" r="36.45"/><path class="cls-7" d="M89,229.87a15.22,15.22,0,0,1-22.1-20.63,26.92,26.92,0,0,0-3.72-.26A26.39,26.39,0,1,0,89,229.87ZM52.06,252.62a6.28,6.28,0,1,1,6.28-6.28A6.28,6.28,0,0,1,52.06,252.62Z"/><path class="cls-7" d="M262.64,229.72a15.23,15.23,0,0,1-22-20.46,26.73,26.73,0,0,0-3.82-.28,26.43,26.43,0,1,0,25.79,20.74Zm-37.1,22.9a6.28,6.28,0,1,1,6.28-6.28A6.28,6.28,0,0,1,225.54,252.62Z"/><path class="cls-4" d="M178.74,292.29c0,17.2-12.87,31.15-28.74,31.15s-28.74-13.95-28.74-31.15,12.87-18.46,28.74-18.46S178.74,275.08,178.74,292.29Z"/><ellipse class="cls-4" cx="119.03" cy="277.15" rx="35.05" ry="26.91"/><ellipse class="cls-4" cx="180.97" cy="277.15" rx="35.05" ry="26.91"/><path class="cls-8" d="M172.09,296.21C150,296.21,150,277.47,150,277.47s0,18.74-22.09,18.74"/><path class="cls-9" d="M131.49,263.27c0,7.85,10.75,15.23,18.51,15.23s18.51-8.34,18.51-15.23S131.49,255.42,131.49,263.27Z"/><path class="cls-4" d="M82.39,114.54H5.93l7.81-43.45C7.5,64.56,6.3,50.41,6.3,50.41l11,.64c-11.11,0-10.9-24.18-10.9-24.18l10.9,4.57c-4.65-12.18,9-25.5,9-25.5-.24,4.51-.21,9.31,1.32,13.79,8.73,25.59,34.9,24.23,45,63.92Z"/><path class="cls-4" d="M17.34,31.44c-4.65-12.18,9-25.5,9-25.5-.24,4.51-.21,9.31,1.32,13.79,8.73,25.59,34.9,24.23,45,63.92l9.75,30.89"/><path class="cls-10" d="M17.34,31.44a14.86,14.86,0,0,1-1.4-3.38,17.62,17.62,0,0,1-.48-3.71,21.83,21.83,0,0,1,1.26-7.42A33.81,33.81,0,0,1,24.64,4.26h0L28.75,0l-.1,6.07A53.73,53.73,0,0,0,29,13.54a26.44,26.44,0,0,0,.7,3.5c.15.56.33,1.11.52,1.65l.68,1.7a39,39,0,0,0,8,12.13c3.41,3.59,7.44,6.8,11.46,10.27A88.8,88.8,0,0,1,61.93,54.28,69.77,69.77,0,0,1,66.71,61a67,67,0,0,1,3.87,7.29c.6,1.24,1,2.53,1.58,3.8s.93,2.57,1.36,3.86.83,2.61,1.16,3.89.64,2.58,1,3.82c3.08,10,6,20,6.68,30.84-5.66-9.23-9-19.22-12.29-29.23-.43-1.25-.75-2.5-1.13-3.75s-.79-2.41-1.19-3.62-.89-2.36-1.36-3.53-1-2.32-1.54-3.43a66.1,66.1,0,0,0-3.58-6.57,68.11,68.11,0,0,0-4.38-6A93.71,93.71,0,0,0,46.16,47.69a131.42,131.42,0,0,1-11.8-10.94,44,44,0,0,1-5.08-6.69,42.94,42.94,0,0,1-3.68-7.6c-.24-.66-.47-1.31-.69-2s-.4-1.42-.55-2.13a31.81,31.81,0,0,1-.61-4.27,51.28,51.28,0,0,1,.19-8.25l4,1.81h0c-.69.74-1.5,1.61-2.2,2.46s-1.45,1.72-2.13,2.61a42.25,42.25,0,0,0-3.73,5.6,24.71,24.71,0,0,0-2.45,6.24A16.84,16.84,0,0,0,17.34,31.44Z"/><path class="cls-4" d="M217.61,114.54h76.46l-7.81-43.45c6.24-6.53,7.44-20.68,7.44-20.68l-11,.64c11.11,0,10.9-24.18,10.9-24.18l-10.9,4.57c4.65-12.18-9-25.5-9-25.5.24,4.51.21,9.31-1.32,13.79-8.73,25.59-34.9,24.23-45,63.92Z"/><path class="cls-4" d="M282.66,31.44c4.65-12.18-9-25.5-9-25.5.24,4.51.21,9.31-1.32,13.79-8.73,25.59-34.9,24.23-45,63.92l-9.75,30.89"/><path class="cls-10" d="M282.66,31.44a16.84,16.84,0,0,0-.1-6.9,24.71,24.71,0,0,0-2.45-6.24,42.25,42.25,0,0,0-3.73-5.6c-.68-.89-1.4-1.76-2.13-2.61s-1.51-1.72-2.2-2.46h0l4-1.81a51.28,51.28,0,0,1,.19,8.25,31.81,31.81,0,0,1-.61,4.27c-.15.71-.34,1.42-.55,2.13s-.45,1.33-.69,2a42.94,42.94,0,0,1-3.68,7.6,44,44,0,0,1-5.08,6.69,131.42,131.42,0,0,1-11.8,10.94,93.71,93.71,0,0,0-10.76,10.69,68.11,68.11,0,0,0-4.38,6A66.1,66.1,0,0,0,235.12,71c-.58,1.11-1,2.29-1.54,3.43s-.93,2.34-1.36,3.53-.83,2.37-1.19,3.62-.7,2.5-1.13,3.75c-3.25,10-6.63,20-12.29,29.23.66-10.8,3.6-20.83,6.68-30.84.39-1.24.68-2.55,1-3.82s.78-2.6,1.16-3.89.89-2.58,1.36-3.86,1-2.56,1.58-3.8A67,67,0,0,1,233.29,61a69.77,69.77,0,0,1,4.78-6.76,88.8,88.8,0,0,1,11.54-11.49c4-3.47,8.05-6.68,11.46-10.27a39,39,0,0,0,8-12.13l.68-1.7c.19-.54.37-1.09.52-1.65a26.44,26.44,0,0,0,.7-3.5,53.73,53.73,0,0,0,.36-7.47L271.25,0l4.11,4.25h0a33.81,33.81,0,0,1,7.92,12.67,21.83,21.83,0,0,1,1.26,7.42,17.62,17.62,0,0,1-.48,3.71A14.86,14.86,0,0,1,282.66,31.44Z"/><path class="cls-10" d="M58,112a41.08,41.08,0,0,0-1.63-7.86,33.93,33.93,0,0,0-3-7.18,35.06,35.06,0,0,0-4.5-6c-.4-.44-.81-.89-1.3-1.36s-.91-.92-1.4-1.36L43.2,85.53c-4-3.6-8.08-7.46-11-12.45a25,25,0,0,1-3.14-8,21,21,0,0,1,.15-8.4,43.53,43.53,0,0,0,2.62,7.5,34.94,34.94,0,0,0,4.11,6.36C39,74.46,43,77.87,46.83,81.69c1,.94,1.93,1.92,2.9,2.91.48.49,1,1,1.42,1.52.24.26.48.5.71.78l.7.86a23.83,23.83,0,0,1,4,7.72A37.11,37.11,0,0,1,58,112Z"/><path class="cls-10" d="M242,112a37.11,37.11,0,0,1,1.42-16.47,23.83,23.83,0,0,1,4-7.72l.7-.86c.23-.28.47-.52.71-.78.47-.5.94-1,1.42-1.52,1-1,1.92-2,2.9-2.91C257,77.87,261,74.46,264.1,70.52a34.94,34.94,0,0,0,4.11-6.36,43.53,43.53,0,0,0,2.62-7.5,21,21,0,0,1,.15,8.4,25,25,0,0,1-3.14,8c-3,5-7.09,8.85-11,12.45l-2.91,2.71c-.49.44-.93.91-1.4,1.36s-.9.92-1.3,1.36a35.06,35.06,0,0,0-4.5,6,33.93,33.93,0,0,0-3.05,7.18A41.08,41.08,0,0,0,242,112Z"/><ellipse class="cls-4" cx="52.25" cy="179.49" rx="21.32" ry="15.21" transform="translate(-51.28 23.84) rotate(-17.4)"/><ellipse class="cls-4" cx="247.75" cy="179.49" rx="15.21" ry="21.32" transform="translate(2.39 362.24) rotate(-72.6)"/><path class="cls-4" d="M124.26,101.06,106,141.49s30.57,4.34,49.84-19.22l-1.3,31.27s39.42-10.75,39.42-45"/><path class="cls-10" d="M124.26,101.06c-.93,3.64-2.06,7.18-3.24,10.7s-2.47,7-3.79,10.46-2.73,6.88-4.23,10.26-3.07,6.72-4.85,10l-1.81-3.27h0a50.34,50.34,0,0,0,6.57.28,62.5,62.5,0,0,0,6.69-.48,59.53,59.53,0,0,0,13-3.09,55.82,55.82,0,0,0,6.09-2.66,50.93,50.93,0,0,0,5.67-3.44,49.6,49.6,0,0,0,9.7-9l4.43-5.34-.29,6.91-1.3,31.28-3-2.35h0c2.29-.83,4.74-1.9,7.05-3s4.61-2.31,6.82-3.61A64,64,0,0,0,180,135.52a43.3,43.3,0,0,0,8.85-12.17A67.16,67.16,0,0,0,194,108.58a27.78,27.78,0,0,1,.64,8.25,18.12,18.12,0,0,1-.23,2.08c-.1.7-.2,1.4-.34,2.09a32.37,32.37,0,0,1-1.17,4.06,35.26,35.26,0,0,1-1.66,3.91c-.69,1.23-1.35,2.49-2.14,3.67a43.16,43.16,0,0,1-5.22,6.66,56.94,56.94,0,0,1-13.24,10.24,64.36,64.36,0,0,1-7.47,3.64,53.89,53.89,0,0,1-8,2.62h0l-3.09.86.14-3.21,1.3-31.28,4.14,1.58a54.37,54.37,0,0,1-10.62,9.87,57.74,57.74,0,0,1-6.22,3.76,60,60,0,0,1-6.63,2.9,64.05,64.05,0,0,1-14,3.34,68.91,68.91,0,0,1-7.18.51c-1.2,0-2.4,0-3.61,0s-2.37-.12-3.7-.29h0l-2.9-.22,1.1-3.05c1.25-3.49,2.72-6.88,4.27-10.24s3.18-6.67,4.89-10,3.47-6.54,5.33-9.76S122.15,104.16,124.26,101.06Z"/></g></svg>