<svg xmlns="http://www.w3.org/2000/svg" xmlns:xlink="http://www.w3.org/1999/xlink" viewBox="0 0 300 345"><defs><style>.cls-1{isolation:isolate;}.cls-2{fill:url(#linear-gradient);}.cls-3{fill:#19184d;}.cls-4{fill-opacity:0.35;fill:url(#linear-gradient-2);}.cls-5{opacity:0.51;mix-blend-mode:multiply;}.cls-6{fill:#004d77;}.cls-7{fill:#10325e;}.cls-8{fill:#fff;}</style><linearGradient id="linear-gradient" x1="150" y1="359.51" x2="150" y2="164.56" gradientUnits="userSpaceOnUse"><stop offset="0" stop-color="#342f77"/><stop offset="0.06" stop-color="#2c2867"/><stop offset="0.25" stop-color="#141239"/><stop offset="0.4" stop-color="#05051d"/><stop offset="0.48" stop-color="#000012"/></linearGradient><linearGradient id="linear-gradient-2" x1="245.64" y1="306.02" x2="68.74" y2="57.57" gradientUnits="userSpaceOnUse"><stop offset="0.18" stop-color="#342f77"/><stop offset="0.52" stop-color="#781f5f"/><stop offset="0.89" stop-color="#342f77"/></linearGradient></defs><g class="cls-1"><g id="Layer_1" data-name="Layer 1"><g id="space"><g id="stars"><path class="cls-2" d="M263.62,345H36.38A36.38,36.38,0,0,1,0,308.62V259.14H300v49.48A36.38,36.38,0,0,1,263.62,345Z"/><rect class="cls-3" y="45" width="300" height="253.39" rx="36.38"/><rect class="cls-4" y="45" width="300" height="253.39" rx="36.38"/><g class="cls-5"><circle class="cls-6" cx="155.61" cy="135.82" r="4.84"/><circle class="cls-6" cx="103.99" cy="267.87" r="1.41"/><circle class="cls-6" cx="126.72" cy="156.56" r="1.41"/><circle class="cls-6" cx="94.13" cy="186.16" r="1.41"/><circle class="cls-6" cx="105.4" cy="156.28" r="1.41"/><circle class="cls-6" cx="139.34" cy="162.88" r="1.41"/><circle class="cls-6" cx="149.93" cy="149.38" r="1.41"/><circle class="cls-6" cx="71.09" cy="213.07" r="2.38"/><circle class="cls-6" cx="81.12" cy="185.33" r="2.38"/><circle class="cls-6" cx="115.12" cy="175.08" r="2.38"/><circle class="cls-6" cx="166.58" cy="220.06" r="4.84"/><circle class="cls-6" cx="218.2" cy="88.01" r="1.41"/><circle class="cls-6" cx="228.06" cy="169.72" r="1.41"/><circle class="cls-6" cx="216.79" cy="199.6" r="1.41"/><circle class="cls-6" cx="182.85" cy="193" r="1.41"/><circle class="cls-6" cx="241.07" cy="170.55" r="2.38"/><circle class="cls-6" cx="225.31" cy="191.18" r="1.41"/><circle class="cls-6" cx="160.96" cy="255.66" r="1.41"/><circle class="cls-6" cx="143.99" cy="266.42" r="1.41"/><circle class="cls-6" cx="128.24" cy="273.19" r="1.41"/><circle class="cls-6" cx="171.1" cy="267.31" r="2.38"/><circle class="cls-6" cx="78.64" cy="150.6" r="4.84"/><circle class="cls-6" cx="17.88" cy="218.76" r="4.84"/><circle class="cls-6" cx="43.89" cy="174.12" r="1.41"/><circle class="cls-6" cx="46.77" cy="198.02" r="1.41"/><circle class="cls-6" cx="79.36" cy="168.41" r="1.41"/><circle class="cls-6" cx="68.09" cy="198.29" r="1.41"/><circle class="cls-6" cx="1.38" cy="215.87" r="1.41"/><circle class="cls-6" cx="34.15" cy="191.7" r="1.41"/><circle class="cls-6" cx="23.56" cy="205.19" r="1.41"/><circle class="cls-6" cx="184.71" cy="214.14" r="2.38"/><circle class="cls-7" cx="202.73" cy="251.65" r="4.84"/><circle class="cls-7" cx="6.91" cy="134.51" r="4.84"/><circle class="cls-7" cx="237.33" cy="237.93" r="1.41"/><circle class="cls-7" cx="214.57" cy="238.82" r="1.41"/><circle class="cls-7" cx="152.05" cy="278.01" r="1.41"/><circle class="cls-7" cx="194.83" cy="267.64" r="1.41"/><circle class="cls-7" cx="170.63" cy="288.46" r="1.41"/><circle class="cls-7" cx="23.41" cy="137.39" r="1.41"/><circle class="cls-7" cx="248.07" cy="223.82" r="2.38"/><circle class="cls-7" cx="44.86" cy="126.31" r="2.38"/><circle class="cls-7" cx="190.59" cy="234.58" r="2.38"/><circle class="cls-7" cx="227.94" cy="255.05" r="2.38"/><circle class="cls-7" cx="205.86" cy="281.81" r="2.38"/><circle class="cls-7" cx="102.44" cy="121.99" r="1.41"/><circle class="cls-7" cx="69.5" cy="86.7" r="1.41"/><circle class="cls-7" cx="82.89" cy="133.66" r="1.41"/><circle class="cls-7" cx="105.11" cy="104.46" r="2.38"/><circle class="cls-7" cx="59.8" cy="141.42" r="2.38"/><circle class="cls-6" cx="102.4" cy="141.5" r="2.38"/><circle class="cls-6" cx="144.98" cy="80.93" r="1.41"/><circle class="cls-6" cx="244.09" cy="62.18" r="4.84"/><circle class="cls-6" cx="227.78" cy="66.02" r="1.41"/><circle class="cls-6" cx="212.43" cy="84.66" r="2.38"/><circle class="cls-6" cx="171.82" cy="75.62" r="4.84"/><circle class="cls-6" cx="161.2" cy="111.29" r="1.41"/><circle class="cls-6" cx="174.57" cy="92.86" r="1.41"/><circle class="cls-6" cx="165.64" cy="128.46" r="2.38"/><circle class="cls-6" cx="192.74" cy="76.64" r="2.38"/><circle class="cls-6" cx="153.56" cy="93.33" r="2.38"/><circle class="cls-6" cx="92.38" cy="169.24" r="2.38"/><circle class="cls-6" cx="58.37" cy="179.5" r="2.38"/></g><circle class="cls-8" cx="244.09" cy="157.97" r="4.26"/><circle class="cls-8" cx="135.81" cy="206.24" r="4.84"/><circle class="cls-8" cx="67.32" cy="266.63" r="4.84"/><circle class="cls-8" cx="213.36" cy="129.21" r="1.41"/><circle class="cls-8" cx="275" cy="61.28" r="1.41"/><circle class="cls-8" cx="262.58" cy="69.03" r="1.41"/><circle class="cls-8" cx="213.36" cy="171.7" r="1.41"/><circle class="cls-8" cx="204.42" cy="147.97" r="1.41"/><circle class="cls-8" cx="162.87" cy="180.69" r="1.41"/><circle class="cls-8" cx="229.2" cy="156.28" r="1.41"/><circle class="cls-8" cx="134.39" cy="141.71" r="1.41"/><circle class="cls-8" cx="184.08" cy="147.83" r="1.41"/><circle class="cls-8" cx="181.25" cy="130.62" r="1.41"/><circle class="cls-8" cx="142.06" cy="189.94" r="1.41"/><circle class="cls-8" cx="98.49" cy="225.43" r="1.41"/><circle class="cls-8" cx="98.49" cy="249.5" r="1.41"/><circle class="cls-8" cx="134.39" cy="224.02" r="1.41"/><circle class="cls-8" cx="251.86" cy="175.08" r="1.41"/><circle class="cls-8" cx="202.74" cy="209.29" r="1.41"/><circle class="cls-8" cx="202.04" cy="187.11" r="1.41"/><circle class="cls-8" cx="213.16" cy="188.53" r="1.41"/><circle class="cls-8" cx="119.62" cy="252.33" r="1.41"/><circle class="cls-8" cx="51.28" cy="261.79" r="1.41"/><circle class="cls-8" cx="86.71" cy="241.71" r="1.41"/><circle class="cls-8" cx="74.59" cy="253.84" r="1.41"/><circle class="cls-8" cx="202.04" cy="118.81" r="2.38"/><circle class="cls-8" cx="257.71" cy="81.48" r="2.38"/><circle class="cls-8" cx="279.92" cy="79.1" r="2.38"/><circle class="cls-8" cx="213.36" cy="157.98" r="2.38"/><circle class="cls-8" cx="167.62" cy="163.61" r="2.38"/><circle class="cls-8" cx="28.66" cy="270.23" r="2.38"/><circle class="cls-8" cx="185.05" cy="165.28" r="2.38"/><circle class="cls-8" cx="193.59" cy="194.88" r="2.38"/><circle class="cls-8" cx="183.15" cy="184.44" r="2.38"/><circle class="cls-8" cx="179.84" cy="222.6" r="2.38"/><circle class="cls-8" cx="257.71" cy="161.23" r="2.38"/><circle class="cls-8" cx="118.21" cy="194.88" r="2.38"/><circle class="cls-8" cx="160.49" cy="200.06" r="2.38"/><circle class="cls-8" cx="147.21" cy="226.4" r="2.38"/><circle class="cls-8" cx="112.22" cy="232.5" r="2.38"/><circle class="cls-8" cx="262.58" cy="129.67" r="6.43"/><polygon class="cls-8" points="243.63 90.84 270.35 98.92 243.63 107 235.54 133.73 227.46 107 200.74 98.92 227.46 90.84 235.54 64.11 243.63 90.84"/></g></g></g></g></svg>