<svg id="Layer_1" data-name="Layer 1" xmlns="http://www.w3.org/2000/svg" xmlns:xlink="http://www.w3.org/1999/xlink" viewBox="0 0 300 345"><defs><style>.cls-1{fill:url(#linear-gradient);}.cls-2{fill:#2fa04a;}.cls-3{fill:#238250;}.cls-4,.cls-7{fill:#1a673d;}.cls-5{fill:#ce2235;}.cls-6{fill:#8c141c;}.cls-7{fill-opacity:0.6;}.cls-8{fill:#67b146;}.cls-9{fill:#fff;}.cls-10{fill:#414042;}.cls-11{fill:#4ab96d;}</style><linearGradient id="linear-gradient" x1="150" y1="356.11" x2="150" y2="161.16" gradientUnits="userSpaceOnUse"><stop offset="0" stop-color="#1f8e58"/><stop offset="1" stop-color="#104931"/><stop offset="1" stop-color="#176737"/></linearGradient></defs><g id="halloween"><path class="cls-1" d="M263.62,345H36.38A36.38,36.38,0,0,1,0,308.62V259.14H300v49.48A36.38,36.38,0,0,1,263.62,345Z"/><rect class="cls-2" y="45" width="300" height="253.39" rx="36.38"/><path class="cls-3" d="M200,273.13c15.36,19.37,9.88,29.11-11.56,21.27-9.53-3.49-22.1-6.06-38.44-6.06s-28.91,2.57-38.44,6.06c-21.44,7.84-26.92-1.9-11.56-21.27,12-15.07,29.91-23,50-23S188.05,258.06,200,273.13Z"/><path class="cls-4" d="M193.11,291.52a85.7,85.7,0,0,0-21.26-6.21c-3.61-.59-7.24-1-10.88-1.26s-7.3-.35-11-.37-7.32.13-11,.37-7.27.68-10.87,1.27a86,86,0,0,0-21.27,6.2c5.6-5.22,12.81-8.65,20.22-10.8a77.33,77.33,0,0,1,11.36-2.33,93.32,93.32,0,0,1,23.06,0,76.05,76.05,0,0,1,11.36,2.33C180.3,282.88,187.5,286.31,193.11,291.52Z"/><path class="cls-5" d="M202.63,277.37c-2.46,0-5.56-1.05-9.21-3.12C186,270.05,172.49,265,150,265s-36,5-43.42,9.21c-3.64,2.07-6.74,3.12-9.21,3.12a6.75,6.75,0,0,1-5.58-2.58c-1-1.26-1.92-3.48-1-6.93,4.41-16.45,18.27-36.05,59.21-36.05s54.8,19.6,59.21,36.05c.92,3.45,0,5.67-1,6.93A6.75,6.75,0,0,1,202.63,277.37Z"/><path class="cls-6" d="M150,236.81c26,0,47.87,8.1,54.38,32.35.63,2.34-.21,3.21-1.75,3.21-1.74,0-4.37-1.12-6.74-2.46C187.43,265.1,173.05,260,150,260s-37.43,5.06-45.89,9.87c-2.37,1.34-5,2.46-6.74,2.46-1.54,0-2.38-.86-1.75-3.21,6.51-24.25,28.39-32.35,54.38-32.35m0-10c-44.11,0-59.17,21.62-64,39.76-1.53,5.7.51,9.5,1.86,11.26a11.85,11.85,0,0,0,9.55,4.54c3.39,0,7.21-1.23,11.68-3.77,6.87-3.9,19.56-8.56,41-8.56s34.08,4.66,40.95,8.56c4.47,2.54,8.29,3.77,11.68,3.77a11.85,11.85,0,0,0,9.55-4.54c1.35-1.76,3.39-5.56,1.86-11.26-4.87-18.14-19.93-39.76-64-39.76Z"/><path class="cls-4" d="M78.06,253.64A33.46,33.46,0,0,1,82.42,240a45.31,45.31,0,0,1,21.11-19.35,39.59,39.59,0,0,1,6.82-2.36,22.3,22.3,0,0,1,3.54-.66c1.19-.16,2.37-.3,3.56-.37-2,1.43-4,2.47-6,3.74s-3.87,2.39-5.65,3.77a97.09,97.09,0,0,0-19.53,17.87A131.73,131.73,0,0,0,78.06,253.64Z"/><path class="cls-4" d="M221.94,253.64a131.73,131.73,0,0,0-8.25-11,97.09,97.09,0,0,0-19.53-17.87c-1.78-1.38-3.75-2.47-5.65-3.77s-4-2.31-6-3.74c1.19.07,2.37.21,3.56.37a22.3,22.3,0,0,1,3.54.66,39.59,39.59,0,0,1,6.82,2.36A45.31,45.31,0,0,1,217.58,240,33.61,33.61,0,0,1,221.94,253.64Z"/><path class="cls-7" d="M259.34,253.18a10.49,10.49,0,0,0-13.6,3.92c-5.58,9.15-14,24.81-16.15,39.25-2.24,14.94,5,33.34,23.41,32.29,11.17-.64,16.88-10,19.64-17.23a10.58,10.58,0,0,1,10.26-6.67c4.37.09,9.58-1.49,12.93-8.2C302,284.17,290.55,268.69,259.34,253.18Z"/><path class="cls-8" d="M248.63,239s-18,25-21.3,47.15c-2.24,14.94,5,33.34,23.4,32.29s22-25.77,22-25.77,14.16,7.09,20.84-6.33S286.19,255.83,248.63,239Z"/><path class="cls-2" d="M246.77,270.41a57.11,57.11,0,0,0,3.78,4.46,33.47,33.47,0,0,0,4.44,3.87c3.19,2.28,7.08,4,11,3.79a27,27,0,0,1-8.8-6.33,61.45,61.45,0,0,1-6.65-8.44c-2-3-3.8-6.18-5.49-9.42-1.33-2.49-2.59-5.07-3.8-7.62-.92,1.59-1.87,3.3-2.83,5.11.7,1.62,1.45,3.21,2.25,4.79A69.13,69.13,0,0,0,246.77,270.41Z"/><path class="cls-2" d="M239.27,289.05a57.28,57.28,0,0,0,3.94,4.32,35.68,35.68,0,0,0,4.54,3.76c.42.27.82.56,1.24.81s.87.49,1.3.74a19.52,19.52,0,0,0,2.71,1.23,14.88,14.88,0,0,0,5.75,1,29.48,29.48,0,0,1-8.88-6.37,73.22,73.22,0,0,1-7-8.33c-2.12-3-4.1-6.06-6-9.23-1.61-2.69-3.15-5.46-4.65-8.19-.78,1.95-1.51,3.93-2.17,5.93.79,1.62,1.64,3.2,2.54,4.77A72.53,72.53,0,0,0,239.27,289.05Z"/><path class="cls-7" d="M40.66,253.18a10.49,10.49,0,0,1,13.6,3.92c5.58,9.15,14,24.81,16.15,39.25,2.24,14.94-5,33.34-23.41,32.29-11.17-.64-16.88-10-19.64-17.23a10.58,10.58,0,0,0-10.26-6.67c-4.37.09-9.58-1.49-12.93-8.2C-2,284.17,9.45,268.69,40.66,253.18Z"/><path class="cls-8" d="M51.37,239s18,25,21.3,47.15c2.24,14.94-5,33.34-23.4,32.29s-22-25.77-22-25.77-14.16,7.09-20.84-6.33S13.81,255.83,51.37,239Z"/><path class="cls-2" d="M53.23,270.41a57.11,57.11,0,0,1-3.78,4.46A33.47,33.47,0,0,1,45,278.74c-3.19,2.28-7.08,4-11,3.79a27,27,0,0,0,8.8-6.33,61.45,61.45,0,0,0,6.65-8.44c2-3,3.8-6.18,5.49-9.42,1.33-2.49,2.59-5.07,3.8-7.62.92,1.59,1.87,3.3,2.83,5.11-.7,1.62-1.45,3.21-2.25,4.79A69.13,69.13,0,0,1,53.23,270.41Z"/><path class="cls-2" d="M60.73,289.05a57.28,57.28,0,0,1-3.94,4.32,35.68,35.68,0,0,1-4.54,3.76c-.42.27-.82.56-1.24.81s-.87.49-1.3.74A19.52,19.52,0,0,1,47,299.91a14.88,14.88,0,0,1-5.75,1,29.48,29.48,0,0,0,8.88-6.37,73.22,73.22,0,0,0,6.95-8.33c2.12-3,4.1-6.06,6-9.23,1.61-2.69,3.15-5.46,4.65-8.19.78,1.95,1.51,3.93,2.17,5.93-.79,1.62-1.64,3.2-2.54,4.77A72.53,72.53,0,0,1,60.73,289.05Z"/><path class="cls-9" d="M279,191c0,20.13-16.32,32.2-36.45,32.2s-36.45-12.07-36.45-32.2,16.32-31.78,36.45-31.78S279,170.88,279,191Z"/><path class="cls-9" d="M93.87,191c0,20.13-16.32,32.2-36.45,32.2S21,211.15,21,191s16.32-31.78,36.45-31.78S93.87,170.88,93.87,191Z"/><path class="cls-10" d="M79.84,188.35a13.21,13.21,0,0,1-19.19-17.91,23,23,0,1,0,19.19,17.91ZM47.79,208.11a5.46,5.46,0,1,1,5.46-5.46A5.46,5.46,0,0,1,47.79,208.11Z"/><path class="cls-10" d="M265,188.22a13.22,13.22,0,0,1-19.07-17.77,24.25,24.25,0,0,0-3.32-.24,23,23,0,1,0,22.39,18Zm-32.21,19.89a5.46,5.46,0,1,1,5.45-5.46A5.46,5.46,0,0,1,232.76,208.11Z"/><path class="cls-4" d="M293.29,188.67a50.05,50.05,0,0,0-13.72-15.5,45.71,45.71,0,0,0-17.95-8,63,63,0,0,0-19.69-.75,59.6,59.6,0,0,0-18.93,5.1c-1.5.64-2.92,1.46-4.37,2.22s-2.82,1.65-4.17,2.6a75.76,75.76,0,0,0-7.92,6.08c-5.13,4.4-9.92,9.46-15.11,14.53s-10.83,10.3-17.84,14.34A46.86,46.86,0,0,1,162.24,214a47.63,47.63,0,0,1-24.52.15,47.28,47.28,0,0,1-11.46-4.62c-7.1-4-12.84-9.19-18.09-14.19s-10.1-10-15.23-14.32a77.16,77.16,0,0,0-7.9-5.93c-1.35-.91-2.75-1.7-4.14-2.52s-2.82-1.54-4.3-2.15A58.39,58.39,0,0,0,58,165.52a64.58,64.58,0,0,0-19.31.68,46.52,46.52,0,0,0-17.74,7.53A53.12,53.12,0,0,0,6.71,188.67a33.4,33.4,0,0,1,3.34-10.54,41,41,0,0,1,6.37-9.41,44.93,44.93,0,0,1,19.51-12.59A60.61,60.61,0,0,1,59,153.53a71.11,71.11,0,0,1,22.66,5.27A68,68,0,0,1,92,164.18a91.81,91.81,0,0,1,9.31,6.7c5.86,4.76,11.07,9.9,16.12,14.69s10.08,9.1,15.42,12.12a35.34,35.34,0,0,0,34.39.27c5.43-3,10.55-7.22,15.67-12s10.38-9.81,16.25-14.47a88.39,88.39,0,0,1,9.29-6.55c1.61-1,3.32-1.92,5-2.84s3.45-1.71,5.26-2.41a70.13,70.13,0,0,1,22.35-5.08,61.21,61.21,0,0,1,22.69,2.53,45.29,45.29,0,0,1,19.29,12.11,42.43,42.43,0,0,1,6.5,9.11A35.53,35.53,0,0,1,293.29,188.67Z"/><path class="cls-4" d="M67.77,135.85A48.94,48.94,0,0,1,92,134.92a58.52,58.52,0,0,1,11.8,3.9,79.54,79.54,0,0,1,10.76,6.05c6.83,4.45,12.89,9.64,18.72,14a51.86,51.86,0,0,0,8.53,5.44,18.29,18.29,0,0,0,8,2.12,21,21,0,0,0,8.33-1.7,55.25,55.25,0,0,0,9-4.82c3-1.93,6.13-4.09,9.28-6.3s6.38-4.45,9.73-6.61c6.66-4.35,14.05-8.22,22.05-10.28a46.13,46.13,0,0,1,24.12-.17c-3.85,1.17-7.5,2.31-11,3.67a88.85,88.85,0,0,0-10,4.63,143.24,143.24,0,0,0-18.27,12c-5.92,4.5-11.64,9.54-18.26,14.34a67,67,0,0,1-11.08,6.55,34.49,34.49,0,0,1-14.09,3.06,25.27,25.27,0,0,1-3.79-.31,27.78,27.78,0,0,1-3.67-.77,35.4,35.4,0,0,1-6.69-2.62,62.18,62.18,0,0,1-10.7-7.26c-6.25-5.18-11.61-10.35-17.38-14.79A100.22,100.22,0,0,0,98.43,149,103.89,103.89,0,0,0,89,143.79c-3.26-1.56-6.66-2.94-10.19-4.25S71.61,137.17,67.77,135.85Z"/><path class="cls-4" d="M100.31,113a25.53,25.53,0,0,1,15.18-2.32,32.43,32.43,0,0,1,7.61,2.1,45.46,45.46,0,0,1,6.87,3.65c4.33,2.68,8.12,5.84,11.57,8.3a30.32,30.32,0,0,0,4.72,3,8.84,8.84,0,0,0,3.6,1,10.41,10.41,0,0,0,3.91-.73,30.21,30.21,0,0,0,5-2.53c1.79-1.06,3.66-2.29,5.59-3.58s4-2.59,6.07-3.87a41.72,41.72,0,0,1,14.08-5.79,24.89,24.89,0,0,1,15.17,1.54c-2.32,1.16-4.45,2.16-6.45,3.24s-3.85,2.2-5.64,3.36c-3.56,2.33-6.86,4.84-10.32,7.54s-6.81,5.83-10.93,8.89a42.62,42.62,0,0,1-7.14,4.25,23.06,23.06,0,0,1-9.65,2.06,20.88,20.88,0,0,1-5.2-.77,23.86,23.86,0,0,1-4.55-1.82,38.22,38.22,0,0,1-6.87-4.75c-3.84-3.3-6.94-6.41-10.2-9.09-1.63-1.34-3.3-2.52-5-3.69s-3.38-2.28-5.19-3.37-3.71-2.13-5.74-3.2S102.63,114.29,100.31,113Z"/><path class="cls-11" d="M267.81,62.49c12.92,6.64,19.82,19,13.23,31.84s-18.16,9.58-31.09,2.94-21.89-15-15.73-27S254.88,55.85,267.81,62.49Z"/><circle class="cls-11" cx="276.16" cy="124.42" r="11.63"/></g></svg>