<svg id="Layer_1" data-name="Layer 1" xmlns="http://www.w3.org/2000/svg" xmlns:xlink="http://www.w3.org/1999/xlink" viewBox="0 0 300 345"><defs><style>.cls-1{fill:#d8bcb4;}.cls-2{fill:#f18221;}.cls-3{fill:url(#linear-gradient);}.cls-4{fill:#d76a27;}.cls-5{fill:#ecf7fe;}.cls-6{fill:none;stroke:#414042;stroke-linecap:round;stroke-miterlimit:10;stroke-width:10px;}.cls-7{fill:#414042;}.cls-8{fill:#fff;}.cls-9{fill:#00aeef;}.cls-10{fill:#4cc9f5;}.cls-11{fill:#d25927;}</style><linearGradient id="linear-gradient" x1="150" y1="356.11" x2="150" y2="161.16" gradientUnits="userSpaceOnUse"><stop offset="0" stop-color="#c7eaf7"/><stop offset="0.69" stop-color="#6eb8cc"/></linearGradient></defs><title>blook_tiger</title><g id="tropical"><path class="cls-1" d="M202.13,47.35c15-5,21.62-14.9,27.29-23.36C236.33,13.66,241.79,5.5,260.58,5.5a23.11,23.11,0,0,1,17.76,7.77C293.53,29.59,294.71,66,294.46,81.61Z"/><path class="cls-2" d="M260.58,11a17.66,17.66,0,0,1,13.73,6c11.18,12,14.27,38.26,14.68,56.7l-72.9-27c8.64-5.79,13.68-13.3,17.9-19.61,6.7-10,10.74-16,26.59-16m0-11C215,0,234.92,45,180,45l119.7,44.41S306.17,0,260.58,0Z"/><path class="cls-1" d="M5.54,81.61c-.25-15.66.93-52,16.12-68.34A23.11,23.11,0,0,1,39.42,5.5C58.21,5.5,63.67,13.66,70.58,24c5.67,8.46,12.32,18.4,27.29,23.36Z"/><path class="cls-2" d="M39.42,11C55.27,11,59.31,17,66,27.05c4.22,6.31,9.26,13.82,17.9,19.61L11,73.71C11.42,55.26,14.51,29,25.69,17a17.66,17.66,0,0,1,13.73-6m0-11C-6.17,0,.32,89.41.32,89.41L120,45C65.08,45,85,0,39.42,0Z"/><path class="cls-3" d="M263.62,345H36.38A36.38,36.38,0,0,1,0,308.62V259.14H300v49.48A36.38,36.38,0,0,1,263.62,345Z"/><rect class="cls-2" y="45" width="300" height="253.39" rx="36.38"/><path class="cls-4" d="M75.8,151.45s12.25-2.88,27.76,21.05c10.5,16.21,20.4,31.85,20.4,46.8,0,37-18,43.54-18,43.54C34.36,262.84,75.8,151.45,75.8,151.45Z"/><path class="cls-4" d="M224.2,151.45S212,148.57,196.44,172.5c-10.5,16.21-20.4,31.85-20.4,46.8,0,37,18.05,43.54,18.05,43.54C265.64,262.84,224.2,151.45,224.2,151.45Z"/><path class="cls-5" d="M131.84,226.39c-26.95,0-32.83,32.75-32.83,32.75-23.54,0-23.23-51.29-99-56.92V262a36.38,36.38,0,0,0,36.38,36.38H263.62A36.38,36.38,0,0,0,300,262V202.22c-75.78,5.63-75.47,56.92-99,56.92,0,0-5.88-32.75-32.83-32.75Z"/><polyline class="cls-6" points="165.39 274.84 150 239.26 134.61 274.84"/><path class="cls-7" d="M127.83,225.93c0,9.41,12.87,18.24,22.17,18.24s22.17-10,22.17-18.24S127.83,216.52,127.83,225.93Z"/><path class="cls-5" d="M278.35,195.06c7.72-19.62-10.11-84.09-61.22-67.53-37.15,12-26.93,72.38-12.1,87.21S270.64,214.69,278.35,195.06Z"/><path class="cls-5" d="M21.65,195.06C13.93,175.44,31.76,111,82.87,127.53c37.15,12,26.93,72.38,12.1,87.21S29.36,214.69,21.65,195.06Z"/><path class="cls-7" d="M75.2,262.15a28.21,28.21,0,0,1-11.3,2.77A35.92,35.92,0,0,1,44,259.84,28.31,28.31,0,0,1,35.44,252a28,28,0,0,1,11.31-2.79,34.92,34.92,0,0,1,10.31,1.1,35.53,35.53,0,0,1,9.56,4A28.57,28.57,0,0,1,75.2,262.15Z"/><path class="cls-7" d="M88.56,277.54a36.82,36.82,0,0,1-11.66,6.82,50.62,50.62,0,0,1-12.09,2.86,49.7,49.7,0,0,1-12.42-.13A36.37,36.37,0,0,1,39.53,283a36.37,36.37,0,0,1,11.65-6.84,49.74,49.74,0,0,1,12.09-2.84,50.76,50.76,0,0,1,12.43.14A37,37,0,0,1,88.56,277.54Z"/><path class="cls-7" d="M224.8,262.15a28.66,28.66,0,0,1,8.57-7.87,35.73,35.73,0,0,1,9.57-4,34.92,34.92,0,0,1,10.31-1.1A28,28,0,0,1,264.56,252a28.31,28.31,0,0,1-8.57,7.88,35.92,35.92,0,0,1-19.89,5.08A28.25,28.25,0,0,1,224.8,262.15Z"/><path class="cls-7" d="M211.44,277.54a37,37,0,0,1,12.86-4.1,50.76,50.76,0,0,1,12.43-.14,49.63,49.63,0,0,1,12.09,2.84A36.37,36.37,0,0,1,260.47,283a36.37,36.37,0,0,1-12.86,4.11,49.7,49.7,0,0,1-12.42.13,50.62,50.62,0,0,1-12.09-2.86A36.82,36.82,0,0,1,211.44,277.54Z"/><path class="cls-7" d="M300,106.61c-1.27,1-2.47,2.08-3.67,3.11-1,.78-1.9,1.58-2.81,2.39-.47.4-.91.83-1.36,1.24l-1.4,1.16c-.94.78-1.85,1.57-2.75,2.39s-1.87,1.52-2.8,2.3c-.47.38-.91.79-1.37,1.19s-1,.73-1.43,1.1l-2.85,2.28c-3.89,2.91-7.93,5.74-12.29,8.41A128.11,128.11,0,0,1,253,139.83a20.85,20.85,0,0,0,4.19,1.47,20.48,20.48,0,0,0,2.17.47c.72.12,1.47.26,2.2.33a38.57,38.57,0,0,0,4.43.25c.74,0,1.48,0,2.23,0s1.48-.1,2.22-.18a54.58,54.58,0,0,0,17.2-4.69,62,62,0,0,0,7.78-4.4c1.21-.86,2.5-1.65,3.64-2.59.34-.27.66-.57,1-.85Z"/><path class="cls-7" d="M300,141.77c-1.27,1-2.47,2.07-3.67,3.11-1,.78-1.9,1.57-2.81,2.39-.47.4-.91.82-1.36,1.24l-1.4,1.16c-.94.77-1.85,1.57-2.75,2.39s-1.87,1.52-2.8,2.3c-.47.37-.91.79-1.37,1.18s-1,.74-1.43,1.11l-2.85,2.28c-3.89,2.9-7.93,5.74-12.29,8.41A128.11,128.11,0,0,1,253,175a20.24,20.24,0,0,0,4.19,1.47,20.48,20.48,0,0,0,2.17.47c.72.13,1.47.26,2.2.33a38.57,38.57,0,0,0,4.43.25c.74,0,1.48,0,2.23,0s1.48-.09,2.22-.17a54.85,54.85,0,0,0,17.2-4.69,62,62,0,0,0,7.78-4.41c1.21-.86,2.5-1.64,3.64-2.58.34-.28.66-.57,1-.85Z"/><path class="cls-7" d="M0,106.61c1.27,1,2.47,2.08,3.67,3.11,1,.78,1.9,1.58,2.81,2.39.47.4.91.83,1.36,1.24l1.4,1.16c.94.78,1.85,1.57,2.75,2.39s1.87,1.52,2.8,2.3c.47.38.91.79,1.37,1.19s1,.73,1.43,1.1l2.85,2.28c3.89,2.91,7.93,5.74,12.29,8.41a128.11,128.11,0,0,0,14.32,7.65,20.85,20.85,0,0,1-4.19,1.47,20.48,20.48,0,0,1-2.17.47c-.72.12-1.47.26-2.2.33a38.57,38.57,0,0,1-4.43.25c-.74,0-1.48,0-2.23,0s-1.48-.1-2.22-.18a54.58,54.58,0,0,1-17.2-4.69,62,62,0,0,1-7.78-4.4c-1.21-.86-2.5-1.65-3.64-2.59-.34-.27-.66-.57-1-.85Z"/><path class="cls-7" d="M0,141.77c1.27,1,2.47,2.07,3.67,3.11,1,.78,1.9,1.57,2.81,2.39.47.4.91.82,1.36,1.24l1.4,1.16c.94.77,1.85,1.57,2.75,2.39s1.87,1.52,2.8,2.3c.47.37.91.79,1.37,1.18s1,.74,1.43,1.11l2.85,2.28c3.89,2.9,7.93,5.74,12.29,8.41A128.11,128.11,0,0,0,47.05,175a20.24,20.24,0,0,1-4.19,1.47,20.48,20.48,0,0,1-2.17.47c-.72.13-1.47.26-2.2.33a38.57,38.57,0,0,1-4.43.25c-.74,0-1.48,0-2.23,0s-1.48-.09-2.22-.17a54.85,54.85,0,0,1-17.2-4.69,62,62,0,0,1-7.78-4.41c-1.21-.86-2.5-1.64-3.64-2.58-.34-.28-.66-.57-1-.85Z"/><path class="cls-7" d="M52,64a87.35,87.35,0,0,0,13.18,19.3,66,66,0,0,0,8.65,7.91,50.66,50.66,0,0,0,4.86,3.24,41.78,41.78,0,0,0,5.17,2.62c-2-3.32-3.92-6.47-5.64-9.68S74.89,81,73.44,77.78c-2.86-6.47-5.33-13-7.52-19.63C64.51,53.8,63.22,49.41,62,45H44.34A114.58,114.58,0,0,0,52,64Z"/><path class="cls-7" d="M138.13,60q.66,14.57,2.2,29.13t3.79,29.13c1.58,9.71,3.36,19.42,5.88,29.13,2.52-9.71,4.3-19.42,5.88-29.13s2.78-19.42,3.79-29.13,1.76-19.42,2.2-29.13c.22-5,.35-10,.36-15H137.76Q137.79,52.49,138.13,60Z"/><path class="cls-7" d="M238,45c-1.22,4.41-2.51,8.8-3.92,13.15-2.19,6.63-4.66,13.16-7.52,19.63-1.45,3.24-3,6.42-4.73,9.65s-3.63,6.36-5.64,9.68a41.78,41.78,0,0,0,5.17-2.62,50.66,50.66,0,0,0,4.86-3.24,66,66,0,0,0,8.65-7.91A87.35,87.35,0,0,0,248.05,64a114.58,114.58,0,0,0,7.61-19Z"/><path class="cls-7" d="M282.09,178.29a44.58,44.58,0,1,1-85,27c-7.46-23.46,10.46-33,33.92-40.42S274.63,154.83,282.09,178.29Z"/><path class="cls-8" d="M275.06,181.76c6.17,17.79-4.25,37.56-23.27,44.16s-39.45-2.49-45.62-20.28,8.19-26.22,27.21-32.81S268.89,164,275.06,181.76Z"/><path class="cls-9" d="M248.53,195.83a13.17,13.17,0,0,1-10.94-20.52h-.42c-11.59,0-15.77,10.17-15.77,22.72s4.37,22.72,15.77,22.72S253,210.57,253,198c0-1,0-2-.09-2.93A13,13,0,0,1,248.53,195.83Zm-16,17.16a5.46,5.46,0,1,1,5.45-5.46A5.45,5.45,0,0,1,232.52,213Z"/><path class="cls-7" d="M17.91,178.29a44.58,44.58,0,1,0,85,27c7.46-23.46-10.46-33-33.92-40.42S25.37,154.83,17.91,178.29Z"/><path class="cls-8" d="M24.94,181.76c-6.17,17.79,4.25,37.56,23.27,44.16s39.45-2.49,45.62-20.28-8.19-26.22-27.21-32.81S31.11,164,24.94,181.76Z"/><path class="cls-9" d="M74.19,195.83a13.18,13.18,0,0,1-10.95-20.52h-.41c-11.59,0-15.78,10.17-15.78,22.72s4.38,22.72,15.78,22.72S78.6,210.57,78.6,198c0-1,0-2-.08-2.93A13,13,0,0,1,74.19,195.83ZM58.17,213a5.46,5.46,0,1,1,5.45-5.46A5.45,5.45,0,0,1,58.17,213Z"/><ellipse class="cls-7" cx="90.08" cy="142.4" rx="12.66" ry="18.85" transform="translate(-76.28 169.21) rotate(-66.84)"/><ellipse class="cls-7" cx="209.92" cy="142.5" rx="18.85" ry="12.66" transform="translate(-39.13 94.05) rotate(-23.16)"/><path class="cls-5" d="M14.48,277.54S1.71,296.35,11.76,306.4c5.38,5.38,12.19,2.55,17.35-1.24,2,4.47,5.22,8.42,10.49,9.5,13.92,2.85,16.22-20.92,16.22-20.92"/><path class="cls-10" d="M14.48,277.54a62.77,62.77,0,0,0-3.63,11.89c-.73,3.92-.79,7.91.49,11a10.1,10.1,0,0,0,2.81,3.86A6.36,6.36,0,0,0,17.92,306a9.76,9.76,0,0,0,4.44-.88,24.82,24.82,0,0,0,4.69-2.72l3.53-2.47,1.71,3.87a20.51,20.51,0,0,0,2.31,4,11.56,11.56,0,0,0,3.13,2.82,9.89,9.89,0,0,0,3.91,1.3,7.32,7.32,0,0,0,1.93,0,7.05,7.05,0,0,0,1.85-.65c2.49-1.23,4.64-4.13,6.28-7.24a61.69,61.69,0,0,0,4.12-10.21,31.83,31.83,0,0,1-.08,5.69,33,33,0,0,1-1,5.7,24,24,0,0,1-2.21,5.59,14.82,14.82,0,0,1-4.28,5,12,12,0,0,1-3.21,1.63,12.21,12.21,0,0,1-3.58.56,15,15,0,0,1-6.76-1.55,16.52,16.52,0,0,1-5.37-4.25,22.28,22.28,0,0,1-1.93-2.67,29.43,29.43,0,0,1-1.48-2.83L31.17,308a27,27,0,0,1-6.2,3.55,15.47,15.47,0,0,1-7.85,1.14,12.65,12.65,0,0,1-7.34-3.78A15.29,15.29,0,0,1,6,302.19a18.33,18.33,0,0,1-.38-7.26,27.52,27.52,0,0,1,1.85-6.54,36.68,36.68,0,0,1,3.08-5.78A35,35,0,0,1,14.48,277.54Z"/><path class="cls-5" d="M244.18,294.08s2.3,23.76,16.22,20.91c5.27-1.08,8.51-5,10.49-9.5,5.16,3.79,12,6.63,17.35,1.24,10.05-10-2.72-28.85-2.72-28.85"/><path class="cls-10" d="M244.18,294.08a61.18,61.18,0,0,0,4.12,10.21c1.63,3.11,3.78,6,6.27,7.25a7.47,7.47,0,0,0,1.86.64,7.32,7.32,0,0,0,1.93,0,9.89,9.89,0,0,0,3.91-1.3,11.58,11.58,0,0,0,3.13-2.82,19.82,19.82,0,0,0,2.31-4l1.71-3.87,3.53,2.48a26,26,0,0,0,4.69,2.72,9.74,9.74,0,0,0,4.44.87,6.43,6.43,0,0,0,3.76-1.66,10,10,0,0,0,2.81-3.86c1.28-3.09,1.22-7.07.49-11a62.64,62.64,0,0,0-3.62-11.88,34.44,34.44,0,0,1,4,5.06,36.68,36.68,0,0,1,3.08,5.78,27.52,27.52,0,0,1,1.85,6.54,18.32,18.32,0,0,1-.38,7.26,15.27,15.27,0,0,1-3.83,6.69,12.62,12.62,0,0,1-7.35,3.78,14,14,0,0,1-4.14-.08,17.33,17.33,0,0,1-3.71-1.06,27.37,27.37,0,0,1-6.2-3.55l5.24-1.4a27.25,27.25,0,0,1-1.48,2.83,22.28,22.28,0,0,1-1.93,2.67,16.69,16.69,0,0,1-5.38,4.25,14.92,14.92,0,0,1-6.75,1.54,11.89,11.89,0,0,1-3.58-.56,11.75,11.75,0,0,1-3.2-1.62,14.81,14.81,0,0,1-4.28-5,24,24,0,0,1-2.21-5.59,35.89,35.89,0,0,1-1.08-11.38Z"/><path class="cls-5" d="M19.05,244.17S-.1,256.57,4.82,269.42s24.5.91,30.76-.45"/><path class="cls-10" d="M19.05,244.17c-1.83,2.15-3.57,4.23-5.18,6.37A48,48,0,0,0,9.65,257a17.88,17.88,0,0,0-2.18,6.48,10.19,10.19,0,0,0,.11,3,9.31,9.31,0,0,0,1,2.68,4.84,4.84,0,0,0,1.56,1.79,6.07,6.07,0,0,0,2.4,1,20.82,20.82,0,0,0,7-.17c2.53-.37,5.14-1,7.81-1.55,1.34-.28,2.69-.58,4.07-.81a19.89,19.89,0,0,1,4.23-.4c-2.42,1.4-4.62,3-7,4.41a44.94,44.94,0,0,1-7.68,3.68,21.32,21.32,0,0,1-9.22,1.42,12.47,12.47,0,0,1-5.26-1.73,11.61,11.61,0,0,1-3.91-4.17A14.7,14.7,0,0,1,.93,262.42,19.78,19.78,0,0,1,5.09,254a30.56,30.56,0,0,1,6.43-5.9,33.11,33.11,0,0,1,3.65-2.21A25.68,25.68,0,0,1,19.05,244.17Z"/><path class="cls-5" d="M281,244.26s19.15,12.41,14.23,25.25-24.5.91-30.76-.45"/><path class="cls-10" d="M281,244.26a24.75,24.75,0,0,1,3.88,1.69,31.56,31.56,0,0,1,3.65,2.2,30.56,30.56,0,0,1,6.43,5.9,19.78,19.78,0,0,1,4.16,8.46,14.7,14.7,0,0,1-1.53,10.16,11.61,11.61,0,0,1-3.91,4.17,12.33,12.33,0,0,1-5.26,1.73,21.32,21.32,0,0,1-9.22-1.42,44.59,44.59,0,0,1-7.68-3.68c-2.43-1.4-4.63-3-7.05-4.41a20.56,20.56,0,0,1,4.23.4c1.38.23,2.73.53,4.07.81,2.67.57,5.28,1.18,7.81,1.55a20.82,20.82,0,0,0,7,.17,5.92,5.92,0,0,0,2.4-1,4.8,4.8,0,0,0,1.56-1.78,9.48,9.48,0,0,0,1-2.69,10.19,10.19,0,0,0,.11-3,18,18,0,0,0-2.18-6.48,48,48,0,0,0-4.22-6.47C284.52,248.49,282.78,246.41,281,244.26Z"/><path class="cls-2" d="M171.9,101.18s15.57,25.34,29.59,14.53c5.32-4.1,6.78-10.28,6.55-16.37,7.85,1.42,17,.87,20.1-8.1,5.74-16.74-18.83-30.81-18.83-30.81"/><path class="cls-11" d="M171.9,101.18a72.48,72.48,0,0,0,9.89,9.5,32.29,32.29,0,0,0,5.52,3.49,14.44,14.44,0,0,0,5.7,1.58,9.66,9.66,0,0,0,2.65-.25,10.56,10.56,0,0,0,2.42-1,13.17,13.17,0,0,0,4-3.8,15,15,0,0,0,2.15-5.18,24.65,24.65,0,0,0,.43-6l-.15-4.13,4.13.67a32.15,32.15,0,0,0,7,.49,12.85,12.85,0,0,0,5.88-1.63,8.8,8.8,0,0,0,3.61-4.39,13.17,13.17,0,0,0,1-6.26c-.37-4.39-2.78-8.85-5.87-12.8a72.68,72.68,0,0,0-10.92-11A48.18,48.18,0,0,1,222.79,69a33.73,33.73,0,0,1,5.44,6.29,22.54,22.54,0,0,1,3.35,8.12,18.24,18.24,0,0,1-.68,9.17,16.21,16.21,0,0,1-.93,2.21l-.58,1.07-.71,1A16.39,16.39,0,0,1,227,98.84c-.31.28-.64.54-1,.81a7.14,7.14,0,0,1-1,.74,16.77,16.77,0,0,1-4.43,2.06,22.15,22.15,0,0,1-4.55.79,33.74,33.74,0,0,1-8.64-.57l4-3.46a35.85,35.85,0,0,1-.1,3.87,29.42,29.42,0,0,1-.66,3.9,20,20,0,0,1-3.51,7.39,18,18,0,0,1-6.37,5.22,13.58,13.58,0,0,1-8.33,1.27,18,18,0,0,1-7.28-3,30.06,30.06,0,0,1-5.53-4.85,47.33,47.33,0,0,1-7.74-11.82Z"/><path class="cls-2" d="M183.89,46.72S204.82,28,215.4,39.79c13.95,15.48-11.49,27.47-15,33.69"/><path class="cls-11" d="M183.89,46.72A33,33,0,0,1,199.48,33.5,21.33,21.33,0,0,1,205,32.15a16.08,16.08,0,0,1,6.19.52,14.14,14.14,0,0,1,5.62,3.21,21.36,21.36,0,0,1,2,2.25,24.52,24.52,0,0,1,1.64,2.39,16.58,16.58,0,0,1,2.16,5.7,13.71,13.71,0,0,1-.34,6.22,17.55,17.55,0,0,1-2.51,5.22,27,27,0,0,1-3.5,4.05,55.15,55.15,0,0,1-8,6.15l-4.1,2.65a19.46,19.46,0,0,0-3.8,3,9.22,9.22,0,0,1,1.21-2.19,24.76,24.76,0,0,1,1.54-2c1.07-1.27,2.19-2.47,3.29-3.66a83.92,83.92,0,0,0,6.17-7.19A27.74,27.74,0,0,0,215,54.74,13.2,13.2,0,0,0,216.18,51a8.31,8.31,0,0,0-.2-3.42,10.81,10.81,0,0,0-1.58-3.22,15.65,15.65,0,0,0-1.23-1.54,10.75,10.75,0,0,0-1.32-1.26A8.38,8.38,0,0,0,209,40.14a15.29,15.29,0,0,0-7.43.15A58.3,58.3,0,0,0,193,43Z"/></g></svg>