<svg id="Layer_1" data-name="Layer 1" xmlns="http://www.w3.org/2000/svg" xmlns:xlink="http://www.w3.org/1999/xlink" viewBox="0 0 300 345"><defs><style>.cls-1,.cls-12{fill:#15141a;}.cls-2{fill:#2f2c38;}.cls-3{fill:url(#linear-gradient);}.cls-4{fill:#f4fbfe;}.cls-5{fill:#c7eafb;}.cls-6{fill:#ffca34;}.cls-7{fill:#2b3990;}.cls-8{fill:#4cc9f5;fill-opacity:0.2;}.cls-9{fill:#fff;}.cls-10{fill:#ecb423;}.cls-11{fill:#d08b29;}.cls-12{fill-opacity:0.25;}.cls-13{fill:#f7941d;}.cls-14{fill:#f15a29;}</style><linearGradient id="linear-gradient" x1="150" y1="356.11" x2="150" y2="161.16" gradientUnits="userSpaceOnUse"><stop offset="0" stop-color="#2f2c38"/><stop offset="0.69" stop-color="#15141a"/></linearGradient></defs><title>blook_toucan</title><g id="tropical"><path class="cls-1" d="M259.29,248.74s-73.17-139-69.73-148.42S225.65,78.26,233.05,81c8.86,3.24,43,158.33,43,158.33"/><path class="cls-2" d="M252.59,238.09S208,87.42,213.18,78.91s39.71-14.59,46.43-10.49c8.06,4.9,11.25,163.68,11.25,163.68"/><path class="cls-2" d="M264.64,225.72S244.55,69.87,251,62.3s42.37-3.21,46.82,1-7.13,160.06-7.13,160.06"/><path class="cls-3" d="M263.62,345H36.38A36.38,36.38,0,0,1,0,308.62V259.14H300v49.48A36.38,36.38,0,0,1,263.62,345Z"/><path class="cls-2" d="M101.78,71.44C-5.66,71.44,0,169.85,0,189.94V262a36.38,36.38,0,0,0,36.38,36.38H263.62A36.38,36.38,0,0,0,300,262V212.54a22.6,22.6,0,0,0-22.6-22.6H210.49S209.23,71.44,101.78,71.44Z"/><path class="cls-4" d="M250.26,298.39S306.94,141,150,141,47.73,298.39,47.73,298.39Z"/><rect class="cls-5" x="47.72" y="298.39" width="202.57" height="46.61"/><path class="cls-6" d="M40.24,222.49s-36.91-71.34,21.92-104c53.74-29.8,99.62,17,99.62,17l-11.47,58.32S109.18,251.42,40.24,222.49Z"/><circle class="cls-7" cx="90.01" cy="176.74" r="43.41"/><circle class="cls-8" cx="98.96" cy="176.63" r="34.47"/><path class="cls-1" d="M130,170.07a16.65,16.65,0,0,1-24.18-22.56,28.88,28.88,0,1,0,24.82,28.6A29.33,29.33,0,0,0,130,170.07Z"/><circle class="cls-9" cx="114.81" cy="162.32" r="17.15"/><ellipse class="cls-9" cx="69.47" cy="181.71" rx="10.64" ry="8.23"/><path class="cls-10" d="M90,129.7a43.4,43.4,0,0,1,43.39,42.61,44.48,44.48,0,1,0-86.78,0A43.41,43.41,0,0,1,90,129.7Z"/><path class="cls-11" d="M133.25,173.48c.11-1.24.17-2.48.17-3.74a43.41,43.41,0,1,0-86.82,0c0,1.26.07,2.5.17,3.74a43.39,43.39,0,0,1,86.48,0Z"/><path class="cls-12" d="M150.09,236.34c-4.73-1.34-8.58-3.85-9-8.55-.75-7.66-1.59-18.57-.81-23.07,1.14-6.62,23.69-72.57,27.39-71.31,52.25,17.73,117.8,26.46,116.41,91.26C283.88,232.52,172.77,242.74,150.09,236.34Z"/><path class="cls-6" d="M142.51,238.66s-7.75-24.49-7.85-32.34c-.09-7.13,10.68-80.43,14.79-79.84,60.68,8.78,140.68,13.52,140.68,91.44Z"/><path class="cls-13" d="M149.45,132.86c59,8.53,136.22,13.26,140.49,85.09l.19,0c0-77.92-80-82.66-140.68-91.44-.77-.11-1.77,2.38-2.9,6.54C141.68,151.05,145.72,132.32,149.45,132.86Z"/><path class="cls-1" d="M257.85,154.46c-12.48,1.38-22.45,8.1-27.54,23.1-7.45,21.91,4.1,36.16,23.28,45.49l36.54-5.13C290.13,186.63,277.22,167.15,257.85,154.46Z"/><path class="cls-14" d="M134.85,208.73c1.21,9.53,7.66,29.93,7.66,29.93l147.62-20.74c0-.34,0-.66,0-1C260.67,211.16,186.68,198.81,134.85,208.73Z"/><path class="cls-1" d="M151.26,206.24s10.42-74.87,18.47-77c-6.9-.95-13.7-1.86-20.28-2.81-4.11-.59-14.88,72.71-14.79,79.84.1,7.85,7.85,32.34,7.85,32.34l21.12-3S165.75,215.39,151.26,206.24Z"/><path class="cls-4" d="M39.81,222.41a34.58,34.58,0,0,0-10.42,30.8s19.46-.68,28.75-11.32c0,0-9.5,7.92-4.29,26.94,0,0,22.41-.68,26.26-18.79"/><path class="cls-1" d="M39.81,222.41c-.72,1.29-1.52,2.45-2.17,3.69a38.68,38.68,0,0,0-1.79,3.74,35,35,0,0,0-2.33,7.6c-.1.65-.28,1.27-.34,1.91L33,241.27c0,.65-.06,1.29-.11,1.92s0,1.27-.07,1.9c0,1.27,0,2.52,0,3.78v3.23a1.73,1.73,0,0,1,0,.36l-3.45-2.66h0c1.08-.28,2.38-.51,3.57-.75l3.65-.66c2.43-.44,4.85-.88,7.27-1.39s4.78-1.18,7.18-2a52.59,52.59,0,0,0,7.2-3.15h0a20.81,20.81,0,0,0-2.31,6.58,27.93,27.93,0,0,0-.41,6.55l.1,1.62c.06.53.14,1.07.21,1.6.09,1.06.36,2.13.48,3.19s.4,2.13.51,3.2a21,21,0,0,1,.42,3.3l-3.4-2.51h0c.49-.14,1.21-.29,1.82-.43l1.93-.43c1.28-.29,2.55-.59,3.82-.91a44.47,44.47,0,0,0,7.36-2.46,22.87,22.87,0,0,0,6.48-4.32,25,25,0,0,0,5-6.83,18.1,18.1,0,0,1-2,9A22.29,22.29,0,0,1,72,266.43,27.77,27.77,0,0,1,63.47,271a27.35,27.35,0,0,1-4.63,1.1c-.79.11-1.58.17-2.38.22a19.58,19.58,0,0,1-2.51-.05h0l-2.18.33-1.21-2.84a26.06,26.06,0,0,1-1.22-3.65,33.49,33.49,0,0,1-.54-3.86,25.93,25.93,0,0,1,.09-3.94c.09-.66.15-1.31.25-2l.42-1.94a24,24,0,0,1,3.07-7.24,15,15,0,0,1,5.51-5.24h0a19.57,19.57,0,0,1-5,6.83A32.72,32.72,0,0,1,46,253.36,36.93,36.93,0,0,1,38,256a30.51,30.51,0,0,1-4.15.6,23,23,0,0,1-4.31,0h0l-2.45.46-1-3.13-.22-.67a5,5,0,0,1-.16-.61,9.92,9.92,0,0,1-.25-1.18,18.6,18.6,0,0,1-.28-2.35,24.28,24.28,0,0,1,.17-4.67A30.63,30.63,0,0,1,28,235.59l.5-1,.57-1c.39-.66.72-1.34,1.16-2A32.46,32.46,0,0,1,33,228a28.23,28.23,0,0,1,3.21-3.08A14.17,14.17,0,0,1,38,223.61C38.59,223.19,39.21,222.81,39.81,222.41Z"/><path class="cls-2" d="M63.05,81.75A34.59,34.59,0,0,0,35,65.31s-3.27,19.2,5.27,30.45c0,0-5.84-10.91-25.52-9.67,0,0-3.87,22.09,13.09,29.53"/><path class="cls-1" d="M63.05,81.75c-1.11-1-2.09-2-3.18-2.87a36.7,36.7,0,0,0-3.29-2.51,35.21,35.21,0,0,0-7-3.82c-.61-.24-1.18-.53-1.81-.72L46,71.22c-.63-.16-1.25-.32-1.85-.5s-1.25-.28-1.85-.45c-1.24-.28-2.47-.55-3.69-.8l-1.84-.38-.9-.18-.43-.09a1.37,1.37,0,0,1-.35-.1l3.3-2.83h0c.06,1.11,0,2.42,0,3.64l-.1,3.71c-.06,2.47-.12,4.93-.1,7.4s.18,4.92.45,7.43a52.58,52.58,0,0,0,1.64,7.69h0a20.82,20.82,0,0,0-6-3.6A27.92,27.92,0,0,0,28,90.43l-1.6-.23c-.53,0-1.08-.07-1.61-.12-1.06-.13-2.16-.07-3.22-.17s-2.16,0-3.24-.15A21.91,21.91,0,0,1,15,89.5l3.14-2.82h0c0,.51,0,1.24.06,1.87l0,2c0,1.32.05,2.63.11,3.93a45.11,45.11,0,0,0,.92,7.71,22.76,22.76,0,0,0,2.92,7.22,24.82,24.82,0,0,0,5.69,6.24,18.05,18.05,0,0,1-8.41-3.74,22.38,22.38,0,0,1-6-7.56,27.89,27.89,0,0,1-2.74-9.23,27.08,27.08,0,0,1-.13-4.76c0-.8.15-1.58.27-2.37a18.32,18.32,0,0,1,.55-2.45h0l.12-2.2,3-.61a27.26,27.26,0,0,1,3.82-.45,31.62,31.62,0,0,1,3.89.25,25.73,25.73,0,0,1,3.84.89c.63.22,1.25.41,1.87.64l1.82.8a24.14,24.14,0,0,1,6.47,4.48,15.15,15.15,0,0,1,4,6.46h0a19.49,19.49,0,0,1-5.68-6.28,32.14,32.14,0,0,1-3.09-8,36.56,36.56,0,0,1-1-8.38A32.72,32.72,0,0,1,30.76,69a24,24,0,0,1,.88-4.21h0l0-2.5L35,61.9l.7-.07c.22,0,.43,0,.63,0,.4,0,.81,0,1.2,0a18.47,18.47,0,0,1,2.36.2,24.56,24.56,0,0,1,4.55,1.11,30.6,30.6,0,0,1,8.14,4.43l.92.69.87.76c.57.52,1.17,1,1.69,1.54A30.73,30.73,0,0,1,58.94,74a27,27,0,0,1,2.37,3.76,14.53,14.53,0,0,1,.93,2C62.53,80.4,62.79,81.08,63.05,81.75Z"/></g></svg>