<svg xmlns="http://www.w3.org/2000/svg" viewBox="0 0 300 345"  xmlns:v="https://vecta.io/nano"><defs><linearGradient gradientUnits="userSpaceOnUse" y2="303.57" x2="149.82" y1="-102.84" x1="150.28" id="A"><stop stop-color="#fb7c2f" offset=".3"/><stop stop-color="#fcf956" offset=".96"/></linearGradient></defs><rect rx="36.38" height="132.55" width="257.06" y="212.45" x="21.47" fill="#2a91c7"/><path d="M212.7 212.45H87.3a65.82 65.82 0 0 0-65.82 65.81h0a29.31 29.31 0 0 0 27.86 29.4h201.34a29.31 29.31 0 0 0 27.86-29.4h0a65.82 65.82 0 0 0-65.82-65.81z" fill="#247aa8"/><g fill="url(#A)"><rect width="300" height="288.2" rx="51.53" fill-opacity=".8"/><rect rx="51.53" height="288.2" width="300" fill-opacity=".8" opacity=".55"/></g><path d="M240.77 198.85H59.23c-26.24 0-47.5 15.43-47.5 34.47v6.4c0 19 21.27 34.47 47.5 34.47h181.54c26.24 0 47.5-15.43 47.5-34.47v-6.4c0-19.04-21.28-34.47-47.5-34.47z" fill="#deba85"/><ellipse ry="8.53" rx="44.91" cy="236.51" cx="214" fill="#d3a55f"/><path d="M214.168 150.706l-1.11-8.15c-.07-.07-.1-.042-1.31 1.932-2.32 3.753-5.608 8.333-8.332 11.603-1.813 2.176-5.125 5.81-5.548 6.086-.304.2-.623.105-3.9-1.152-1.957-.753-3.638-1.37-3.736-1.37-.23 0-.223.667.048 4.702l.22 3.26-.336.33c-.752.74-14.004 10.816-14.226 10.817-.29.001-.714-1.73-1.225-5.005-.3-1.92-.343-2.786-.347-6.825-.003-3.637.053-5.03.265-6.522.72-5.07 2.434-10.752 4.447-14.75.29-.577.507-1.105.482-1.174s-.695.146-1.487.477c-2.822 1.18-5.48 2.115-5.734 2.02-.14-.053-1.417-1.353-2.834-2.9s-2.634-2.775-2.705-2.752-.81 1.69-1.645 3.705c-.922 2.227-1.615 3.7-1.767 3.758-.372.143-17.15 3.567-17.476 3.567-.154 0-.315-.055-.357-.123-.1-.146.498-2.534 1.14-4.634 1.05-3.426 3.16-8.006 5.216-11.32 3.314-5.34 8.44-10.655 13.906-14.42.608-.42 1.092-.802 1.075-.852s-.46-.234-.986-.4l-.955-.32-.558-3.792-.57-3.906c-.025-.273-.53.001-3.566 1.934-1.77 1.126-3.334 2.048-3.477 2.048s-3.722-1.494-7.95-3.32c-8.473-3.658-8.828-3.818-8.828-3.97 0-.182 1.912-1.905 3.377-3.043 7.44-5.778 16.056-9.21 25.493-10.152 2.658-.265 9.178-.105 11.702.287 1.084.17 2.467.42 3.072.558s1.163.23 1.24.2-.5-1.006-1.302-2.174c-1.632-2.406-3.995-6.308-3.995-6.596 0-.105.946-1.463 2.102-3.016 2.316-3.113 2.55-3.456 2.433-3.573-.044-.044-1.714-.43-3.7-.856s-3.772-.866-3.946-.975c-.223-.14-1.28-2.602-3.588-8.365l-3.358-8.43c-.108-.335.262-.34 3.71-.044 8.388.717 17.123 4.046 23.997 9.145 4.462 3.3 8.677 7.69 11.622 12.08 1.938 2.888 3.854 6.484 4.878 9.153.2.52.41.948.464.948s.382-.512.725-1.138c.846-1.54 3.104-4.885 4.305-6.375 8.106-10.057 19.515-16.43 32.314-18.05 2.64-.334 6.78-.44 9.3-.24 2.922.234 3.55.332 3.64.566.067.176-8.94 14.996-9.414 15.493-.173.18-4.588.48-7.184.488-.754.002-.948.05-.948.238 0 .13.763 1.716 1.696 3.526 1.336 2.594 1.674 3.372 1.594 3.67-.056.21-.648 1-1.317 1.78s-1.215 1.453-1.215 1.517 1.997.12 4.436.126c3.722.008 4.766.06 6.486.33 9.25 1.44 17.1 4.9 24.038 10.598 2 1.64 2.538 2.154 2.472 2.35-.058.173-15.85 7.066-16.517 7.21-.32.07-1.013-.31-3.716-2.042-1.827-1.17-3.375-2.075-3.44-2.01s-.36 1.816-.65 3.894c-.375 2.66-.6 3.83-.757 3.95-.552.42-6.99 1.883-10.986 2.494-1.2.185-2.253.384-2.318.44s.685.562 1.668 1.12c3.747 2.13 7.088 4.74 10.444 8.16 8.355 8.51 12.905 18.654 13.943 31.08.072.86.046 1.2-.104 1.314s-2.246-.633-8.542-3.1l-8.513-3.437c-.094-.1-.422-1.308-.728-2.684-.957-4.304-1.17-5.157-1.286-5.157-.062 0-1.497 1.058-3.19 2.35s-3.154 2.35-3.25 2.35c-.264 0-2.836-1.48-5.25-3.02-5.1-3.255-10.19-7.225-14.86-11.59-1.037-.97-1.91-1.74-1.942-1.708s.59 1.787 1.376 3.903c1.858 81.045-1.146 75.874-12.348 7.867z" fill="#d6e0a3"/><path d="M215.646 179.296c.15-11.156-.4-20.996-1.776-31.775-.554-4.334-.747-5.482-.905-5.384-.067.04-.55.775-1.073 1.63-3.848 6.287-9.265 13.334-13.306 17.31l-1.06 1.042-3.575-1.383c-1.966-.76-3.714-1.383-3.884-1.383-.38 0-.378-.138-.07 4.58.13 2.007.183 3.705.114 3.773-.522.518-13.96 10.745-14.07 10.71-.08-.025-.2-.246-.268-.49-.222-.794-.86-4.65-1.042-6.285-.26-2.353-.22-7.718.078-10.238.645-5.477 2.216-10.923 4.494-15.58.47-.96.7-1.592.6-1.68s-.99.203-2.39.775c-2.592 1.058-4.73 1.85-4.99 1.85-.1 0-1.39-1.3-2.87-2.89-1.527-1.64-2.786-2.87-2.91-2.844s-.84 1.544-1.725 3.677c-.828 1.997-1.564 3.69-1.638 3.764-.166.166-16.986 3.63-17.335 3.57-.23-.04-.212-.212.183-1.772 1.4-5.577 3.996-11.233 7.252-15.865 3.276-4.66 7.833-9.16 12.385-12.23.837-.564 1.418-1.057 1.397-1.185s-.44-.338-1-.5c-.69-.203-.99-.374-1.086-.615-.072-.184-.35-1.938-.616-3.898s-.566-3.65-.666-3.757c-.145-.153-.81.2-3.283 1.798l-3.488 2.2c-.36.187-.94-.04-8.67-3.375l-8.283-3.576 1.458-1.262c6.645-5.75 14.746-9.6 23.4-11.117 3.037-.533 4.982-.685 8.645-.676 3.797.01 5.887.21 9.4.895 2.192.43 2.288.438 2.288.197 0-.098-.698-1.207-1.55-2.465-1.828-2.694-3.91-6.12-3.91-6.434 0-.122 1.068-1.648 2.374-3.39 1.828-2.44 2.333-3.21 2.194-3.35-.1-.1-1.93-.557-4.072-1.018l-3.893-.838-.545-1.288c-.3-.708-1.804-4.427-3.344-8.265l-2.914-7.027c-.646-.287 1.39-.23 3.98.112 6.392.843 11.252 2.298 16.557 4.957 10.483 5.253 18.894 14.393 23.22 25.232.28.704.583 1.304.67 1.333s.54-.615 1-1.432c2.16-3.812 4.503-6.865 7.842-10.215 2.805-2.814 4.58-4.285 7.583-6.285 6.886-4.585 14.605-7.274 22.892-7.974 3.18-.268 10.347-.02 10.74.374.066.066-8.515 14.152-9.177 15.064-.172.236-.673.29-4.247.447l-4.1.192c-.182.06.205.955 1.714 3.97l1.752 3.5-.367.48c-.202.264-.854 1.04-1.448 1.728s-1.08 1.312-1.08 1.4c0 .235.22.248 2.313.13 2.443-.136 6.78.09 9.418.495 5.52.843 11.033 2.667 15.72 5.198 2.002 1.08 5.653 3.477 7.207 4.728 1.857 1.495 2.983 2.543 2.855 2.657-.237.21-16.07 6.98-16.32 6.98-.14 0-1.753-.956-3.587-2.123s-3.405-2.123-3.5-2.123c-.215 0-.256.215-.82 4.288-.275 1.983-.57 3.675-.653 3.76-.4.4-7.81 2.05-11.92 2.65-1.198.176-1.782.324-1.782.453 0 .105.7.587 1.555 1.07 12.948 7.32 21.866 20.018 24.223 34.488.337 2.066.7 5.874.588 5.996-.07.07-16.582-6.318-16.74-6.475-.037-.037-.412-1.598-.834-3.47-.986-4.375-1.032-4.54-1.265-4.54-.108 0-1.58 1.058-3.27 2.35s-3.168 2.35-3.282 2.35-.874-.385-1.7-.854c-6.365-3.665-13.247-8.855-18.727-14.124-1.015-.976-1.87-1.703-1.898-1.615s.417 1.383.992 2.878c5.706 14.853 9.643 30.755 11.77 47.538-9.118 34.338-12.68 35.95-21.957-9.48z" fill="#c6b4a6"/><path d="M215.757 176.414c.002-7.643-.124-11.312-.597-17.442-.527-6.822-1.698-16.476-2.04-16.818-.084-.084-.367.236-.715.806a184.21 184.21 0 0 1-5.132 7.755c-2.6 3.572-6.436 8.148-8.686 10.36l-1.06 1.042-3.575-1.383c-1.966-.76-3.714-1.383-3.884-1.383-.38 0-.378-.138-.07 4.58.13 2.007.183 3.705.114 3.773-.522.518-13.96 10.745-14.07 10.71-.08-.025-.2-.246-.268-.49-.222-.794-.86-4.65-1.042-6.285-.26-2.353-.22-7.718.078-10.238.645-5.477 2.216-10.923 4.494-15.58.47-.96.7-1.592.6-1.68s-.99.203-2.39.775c-2.592 1.058-4.73 1.85-4.99 1.85-.1 0-1.39-1.3-2.87-2.89-1.527-1.64-2.786-2.87-2.91-2.844s-.84 1.544-1.725 3.677c-.828 1.997-1.564 3.69-1.638 3.764-.166.166-16.986 3.63-17.335 3.57-.23-.04-.212-.212.183-1.772 1.4-5.577 3.996-11.233 7.252-15.865 3.276-4.66 7.833-9.16 12.385-12.23.837-.564 1.418-1.057 1.397-1.185s-.44-.338-1-.5c-.69-.203-.99-.374-1.086-.615-.072-.184-.35-1.938-.616-3.898s-.566-3.65-.666-3.757c-.145-.153-.81.2-3.283 1.798l-3.488 2.2c-.36.187-.94-.04-8.67-3.375l-8.283-3.576 1.458-1.262c6.645-5.75 14.746-9.6 23.4-11.117 3.037-.533 4.982-.685 8.645-.676 3.797.01 5.887.21 9.4.895 2.192.43 2.288.438 2.288.197 0-.098-.698-1.207-1.55-2.465-1.828-2.694-3.91-6.12-3.91-6.434 0-.122 1.068-1.648 2.374-3.39 1.828-2.44 2.333-3.21 2.194-3.35-.1-.1-1.93-.557-4.072-1.018l-3.893-.838-.545-1.288c-.3-.708-1.804-4.427-3.344-8.265l-2.914-7.027c-.646-.287 1.39-.23 3.98.112 6.392.843 11.252 2.298 16.557 4.957 10.483 5.253 18.894 14.393 23.22 25.232.28.704.583 1.304.67 1.333s.54-.615 1-1.432c2.16-3.812 4.503-6.865 7.842-10.215 2.805-2.814 4.58-4.285 7.583-6.285 6.886-4.585 14.605-7.274 22.892-7.974 3.18-.268 10.347-.02 10.74.374.066.066-8.515 14.152-9.177 15.064-.172.236-.673.29-4.247.447l-4.1.192c-.182.06.205.955 1.714 3.97l1.752 3.5-.367.48c-.202.264-.854 1.04-1.448 1.728s-1.08 1.312-1.08 1.4c0 .235.22.248 2.313.13 2.443-.136 6.78.09 9.418.495 5.52.843 11.033 2.667 15.72 5.198 2.002 1.08 5.653 3.477 7.207 4.728 1.857 1.495 2.983 2.543 2.855 2.657-.237.21-16.07 6.98-16.32 6.98-.14 0-1.753-.956-3.587-2.123s-3.405-2.123-3.5-2.123c-.215 0-.256.215-.82 4.288-.275 1.983-.57 3.675-.653 3.76-.4.4-7.81 2.05-11.92 2.65-1.198.176-1.782.324-1.782.453 0 .105.7.587 1.555 1.07 12.948 7.32 21.866 20.018 24.223 34.488.337 2.066.7 5.874.588 5.996-.07.07-16.582-6.318-16.74-6.475-.037-.037-.412-1.598-.834-3.47-.986-4.375-1.032-4.54-1.265-4.54-.108 0-1.58 1.058-3.27 2.35s-3.168 2.35-3.282 2.35-.874-.385-1.7-.854c-6.364-3.664-13.453-9.012-18.715-14.12-1.5-1.456-2.107-1.93-2.107-1.65 0 .033.674 1.86 1.498 4.057 7.207 19.232 11.42 39.53 12.76 61.48-12.685 7.895-14.785 20.723-23.147-27.453z" fill="#c6d659"/><path d="M214.473 151.616l-1.218-9.133c-.155-.672-.137-.766.308-1.543.26-.455.416-.863.345-.907s-.704-.372-1.407-.73c-.95-.484-1.57-.945-2.416-1.794-1.948-1.957-2.84-3.915-2.993-6.572l-.086-1.493-.47.106c-1.407.317-1.788.365-2.91.37-2.648.014-5-.98-6.977-2.944-2.148-2.137-3.02-4.23-3.006-7.212.008-1.488.07-1.923.423-2.958a13.68 13.68 0 0 1 .936-2.096c.287-.486.522-.956.522-1.044 0-.28-6.72-.043-9.176.325-6.096.913-12.418 3.118-17.43 6.08l-1.302.77-1.1-.324c-.604-.178-1.15-.37-1.2-.428s-.355-1.838-.652-3.956-.576-3.908-.618-3.976-.143-.125-.224-.125-1.642.956-3.47 2.123-3.447 2.12-3.598 2.115c-.418-.012-16.167-6.868-16.233-7.067-.125-.378 4.69-4.1 7.632-5.916 2.22-1.362 6.368-3.36 8.755-4.218 3.19-1.145 7.113-2.074 10.87-2.574.375-.05 1.806-.154 3.18-.23 4.188-.235 9.302.19 13.222 1.095l1.463.338 1.647 2.145c.906 1.18 2.37 2.988 3.254 4.02 2.77 3.232 6.984 7.562 7.357 7.562.07 0 .673-.268 1.344-.595 1.685-.823 3.246-1.14 4.998-1.02.758.053 1.555.136 1.772.186l.394.1.1-1.492c.268-4.458 2.893-8.5 6.843-10.534 1.71-.88 1.63-.773 1.29-1.76-.16-.467-.292-.972-.292-1.123 0-.353 1.388-2.777 2.812-4.91 1.694-2.54 3.552-4.785 5.903-7.135 9.572-9.572 22.542-14.733 35.877-14.277 2.347.08 5.133.33 5.277.475.064.064-9.013 14.792-9.293 15.08-.154.157-1.16.245-4.123.36-2.806.11-3.98.208-4.128.347-.175.164.074.743 1.555 3.613.97 1.88 1.762 3.54 1.76 3.69s-.377.717-.833 1.26-1.086 1.317-1.4 1.72c-2.537 3.274-8.463 8.852-13.7 12.887-.876.676-1.635 1.29-1.686 1.363s-.136.588-.188 1.144c-.202 2.15-1.138 4.564-2.45 6.313-.373.497-.628.95-.567 1.008s.726.184 1.477.28c3.392.44 7.59 1.517 10.845 2.782 2.274.884 4.093 1.722 4.473 2.062.167.15.916.6 1.664 1.003s2.264 1.336 3.37 2.074c11.712 7.826 19.465 20.34 21.19 34.2.396 3.182.447 4.143.22 4.145-.294.002-16.245-6.227-16.464-6.43-.1-.093-.58-1.91-1.062-4.036-.705-3.106-.93-3.876-1.14-3.916-.154-.03-1.43.848-3.11 2.136l-3.177 2.4c-.3.186-.49.112-2.123-.83-6.174-3.555-13.298-8.953-18.86-14.292-1.258-1.208-1.818-1.625-1.818-1.356 0 .033.674 1.86 1.498 4.057 7.207 19.232 11.42 39.53 12.76 61.48-15.334 20.155-15.59 20.913-24.43-52.25z" fill="#b7a08e"/><path d="M214.55 151.312l-1.304-9.295c-.108-.203-.027-.476.324-1.088.257-.45.4-.853.34-.897s-.704-.372-1.407-.73c-.95-.484-1.57-.945-2.416-1.794-1.948-1.957-2.84-3.915-2.993-6.572l-.086-1.493-.47.106c-1.407.317-1.788.365-2.91.37-2.648.014-5-.98-6.977-2.944-2.148-2.137-3.02-4.23-3.006-7.212.008-1.488.07-1.923.423-2.958a13.68 13.68 0 0 1 .936-2.096c.287-.486.522-.956.522-1.044 0-.28-6.72-.043-9.176.325-6.096.913-12.418 3.118-17.43 6.08l-1.302.77-1.1-.324c-.604-.178-1.15-.37-1.2-.428s-.355-1.838-.652-3.956-.576-3.908-.618-3.976-.143-.125-.224-.125-1.642.956-3.47 2.123-3.447 2.12-3.598 2.115c-.418-.012-16.167-6.868-16.233-7.067-.125-.378 4.69-4.1 7.632-5.916 2.22-1.362 6.368-3.36 8.755-4.218 3.19-1.145 7.113-2.074 10.87-2.574.375-.05 1.806-.154 3.18-.23 4.188-.235 9.302.19 13.222 1.095l1.463.338 1.647 2.145c.906 1.18 2.37 2.988 3.254 4.02 2.77 3.232 6.984 7.562 7.357 7.562.07 0 .673-.268 1.344-.595 1.685-.823 3.246-1.14 4.998-1.02.758.053 1.555.136 1.772.186l.394.1.1-1.492c.268-4.458 2.893-8.5 6.843-10.534 1.71-.88 1.63-.773 1.29-1.76-.16-.467-.292-.972-.292-1.123 0-.353 1.388-2.777 2.812-4.91 1.694-2.54 3.552-4.785 5.903-7.135 9.572-9.572 22.542-14.733 35.877-14.277 2.347.08 5.133.33 5.277.475.064.064-9.013 14.792-9.293 15.08-.154.157-1.16.245-4.123.36-2.806.11-3.98.208-4.128.347-.175.164.074.743 1.555 3.613.97 1.88 1.762 3.54 1.76 3.69s-.377.717-.833 1.26-1.086 1.317-1.4 1.72c-2.537 3.274-8.463 8.852-13.7 12.887-.876.676-1.635 1.29-1.686 1.363s-.136.588-.188 1.144c-.202 2.15-1.138 4.564-2.45 6.313-.373.497-.628.95-.567 1.008s.726.184 1.477.28c3.392.44 7.59 1.517 10.845 2.782 2.274.884 4.093 1.722 4.473 2.062.167.15.916.6 1.664 1.003s2.264 1.336 3.37 2.074c11.712 7.826 19.465 20.34 21.19 34.2.396 3.182.447 4.143.22 4.145-.294.002-16.245-6.227-16.464-6.43-.1-.093-.58-1.91-1.062-4.036-.705-3.106-.93-3.876-1.14-3.916-.154-.03-1.43.848-3.11 2.136l-3.177 2.4c-.3.186-.49.112-2.123-.83-6.197-3.568-13.05-8.76-18.89-14.317-1.447-1.376-1.938-1.744-1.938-1.45 0 .05.584 1.624 1.297 3.497 6.292 16.524 10.413 34.324 12.266 52.985-10.4 22.504-11.393 14.342-23.507-43.378z" fill="#a1c15a"/><path d="M211.81 219.337c4.698-23.96 5.37-50.13 1.916-74.506l-.435-3.068.44-.8c.242-.44.442-.85.444-.91s-.492-.34-1.097-.622c-3.542-1.65-5.628-4.715-5.837-8.575l-.085-1.57-.47.09-1.153.237c-1.146.246-3.04.184-4.306-.14-3.27-.836-5.96-3.36-7.017-6.582-.346-1.055-.405-1.497-.408-3.053-.003-1.595.048-1.97.414-3.033 1.513-4.402 5.572-7.174 10.015-6.84l1.833.135.455.03.097-1.44a11.6 11.6 0 0 1 1.27-4.795c1.908-3.956 5.74-6.69 10.046-7.168 7.994-.888 14.922 5.85 14.124 13.735-.074.735-.274 1.844-.444 2.464-.646 2.357-2.473 5.13-4.357 6.61-.977.77-2.818 1.767-3.787 2.054-.355.105-.645.25-.645.323s.45.553 1 1.067c2.236 2.092 3.24 4.384 3.246 7.403.003 2.348-.748 4.5-2.187 6.268-.523.643-.676.932-.556 1.052.09.09.166.262.166.38s.584 1.745 1.297 3.618c6.292 16.524 10.413 34.324 12.266 52.985.788 7.94 1.006 12.223 1.1 21.456-13.087 10.074-12.762 16.528-27.335 3.2z" fill="#a7846a"/><path d="M207.287 237.78c-.047-.076.157-.98.454-2l1.366-5.21 1.13-3.943c.358-.713.622-1.842 1.644-7.053 1.96-9.99 3.044-18.564 3.823-30.26.26-3.882.356-17.51.158-22.144-.35-8.163-1.056-15.835-2.148-23.287l-.3-2.053.953-1.76.93.127c3.035.413 5.654-.23 7.962-1.956.64-.48.842-.564.946-.4.072.114.133.27.134.35s.405 1.17.897 2.427c5.683 14.515 9.874 31.228 11.983 47.787 1.362 10.692 1.806 18.47 1.858 32.534.025 6.787-.02 9.138-.238 12.134-.148 2.044-.316 3.955-.375 4.247l-.107.53-15.492.04c-9.24.023-15.527-.017-15.578-.1z" fill="#907559"/><g fill="#fff"><circle r="10.8" cy="69.95" cx="54.57"/><circle r="5.89" cy="33.94" cx="92.22"/><circle r="17.34" cy="80.64" cx="150.54"/><circle r="5.89" cy="116.13" cx="108.07"/><circle r="4.36" cy="32.42" cx="203"/><circle r="10.75" cy="56.92" cx="256.26"/><circle r="2.47" cy="95.51" cx="267.68"/><circle r="3.73" cy="156.31" cx="153.73"/><circle r="7.64" cy="165.9" cx="79.48"/><circle r="5.09" cy="75.04" cx="103.2"/><circle r="5.89" cy="29.18" cx="155.89"/><circle r="7.03" cy="155.75" cx="251.88"/><circle r="4.1" cy="149.96" cx="213.18"/><circle r="7.76" cy="201.32" cx="186.47"/><circle r="3.88" cy="197.44" cx="276.33"/><circle r="6.11" cy="115.22" cx="53.96"/><circle r="6.34" cy="160.96" cx="37.43"/><circle r="2.21" cy="130.11" cx="88.54"/><circle r="2.88" cy="161.14" cx="117.97"/><circle r="1.47" cy="188.47" cx="62.45"/><circle r="3.74" cy="106.73" cx="20.56"/><circle r="1.7" cy="27.49" cx="39.13"/><circle r="1.99" cy="130.8" cx="280.52"/><circle r="2.55" cy="54.37" cx="209.91"/><circle r="6.26" cy="26.16" cx="241.8"/><circle r="5.77" cy="200.47" cx="105.24"/><circle r="4.98" cy="238.84" cx="55.09"/><circle r="6.79" cy="229.28" cx="136.37"/><circle r="5.94" cy="249.76" cx="114.92"/><circle r="3.88" cy="197.44" cx="138.67"/><circle r="4.64" cy="203.49" cx="32.79"/><circle cx="198.553" cy="82.039" r="5.545"/><circle r="3.735" cy="88.828" cx="238.382"/><circle cx="169.361" cy="127.526" r="8.487"/><circle cx="237.397" cy="191.053" r="5.22"/><circle cx="268.409" cy="227.538" r="6.822"/><circle cx="207.465" cy="235.458" r="3.88"/><circle cx="174.804" cy="243.306" r="6.11"/><circle cx="246.885" cy="250.703" r="3.507"/></g></svg>