<svg xmlns="http://www.w3.org/2000/svg" xmlns:xlink="http://www.w3.org/1999/xlink" viewBox="0 0 300 345"><defs><linearGradient id="A" x1="150.68" y1="356.11" x2="150.68" y2="161.16" gradientUnits="userSpaceOnUse"><stop offset="0" stop-color="#9f77b5"/><stop offset=".69" stop-color="#613e98"/></linearGradient><linearGradient id="B" x1="150.68" y1="356.11" x2="150.68" y2="161.16" gradientUnits="userSpaceOnUse"><stop offset="0" stop-color="#e7bf9a"/><stop offset=".69" stop-color="#b7785f"/></linearGradient><radialGradient id="C" cx="95.53" cy="228.51" r="22.79" gradientUnits="userSpaceOnUse"><stop offset=".09" stop-color="#f080a5" stop-opacity=".97"/><stop offset=".17" stop-color="#ec83a3" stop-opacity=".93"/><stop offset=".28" stop-color="#e28b9e" stop-opacity=".84"/><stop offset=".43" stop-color="#d19895" stop-opacity=".7"/><stop offset=".6" stop-color="#baa989" stop-opacity=".48"/><stop offset=".79" stop-color="#9dc07a" stop-opacity=".22"/><stop offset=".87" stop-color="#90ca73" stop-opacity=".1"/></radialGradient><radialGradient id="D" cx="204.47" xlink:href="#C"/><path id="E" d="M264.3,345H37.06A36.38,36.38,0,0,1,.68,308.62V259.14h300v49.48A36.38,36.38,0,0,1,264.3,345Z"/><path id="F" d="M80.236 241.12l-27.768-8.702 5.173-16.508 27.768 8.702z"/></defs><use xlink:href="#E" fill="url(#A)"/><use xlink:href="#E" fill="url(#B)"/><rect x=".68" y="45" width="300" height="253.39" rx="36.38" fill="#b9e4f4"/><path d="M286.82 215.27l5.47-7.23-13.8-10.44-7.88 10.4-2.9-.4 1.15-12.8-17.23-1.54-1.28 14.16H69.5L67 192.92l-17 2.9 2 11.64H37.06a36.78 36.78 0 0 0-5.79.46l-8.5-13.57-14.66 9.18 7.06 11.26A36.31 36.31 0 0 0 .68 243.83V262a36.38 36.38 0 0 0 36.38 36.38H264.3A36.38 36.38 0 0 0 300.68 262v-18.17a36.29 36.29 0 0 0-13.86-28.56z" fill="#e7bf9a"/><g fill="#d49d7e"><use xlink:href="#F"/><use xlink:href="#F" x="10.917" y="37.367"/><use xlink:href="#F" x="111.142" y="36.064"/><path d="M147.834 263.753l-28.118 7.497-4.457-16.716 28.118-7.497zm108.126-30.016l-27.086 10.637-6.324-16.103 27.086-10.637zm-235.956.237l23.968 16.503-9.8 14.25-23.968-16.503zm220.412 34.664l-27.086 10.637-6.324-16.103 27.086-10.637zm40.864-9.214l-29.077-1.158.688-17.286 29.077 1.158z"/></g><path d="M150.77 70.66c-128.34 0-107.67 139.1-107.67 139.1 0 16.95 9.1 22.58 22.66 24.46a38.23 38.23 0 0 0 19.26 18 7.24 7.24 0 0 0 3.24 4.93 81.87 81.87 0 0 0 20.44 9.56 32.33 32.33 0 0 0 5.6 7.28c8.07 8.06 17.84 11.36 26.3 2.9a18 18 0 0 0 3.46-4.68c1.73.05 3.5.07 5.3.07a175.18 175.18 0 0 0 6.57-.13 18.06 18.06 0 0 0 3.5 4.75c8.45 8.45 18.22 5.15 26.3-2.9a31.39 31.39 0 0 0 5.85-7.77 82.37 82.37 0 0 0 19-9 7.28 7.28 0 0 0 3.24-4.62A38.13 38.13 0 0 0 234 234.2c13.54-1.88 22.6-7.52 22.6-24.45 0 0 22.5-139.1-105.84-139.1z" fill="none" stroke="#192314" stroke-miterlimit="10" stroke-width="12"/><path d="M150.77 70.66c-128.34 0-107.67 139.1-107.67 139.1 0 25.52 20.62 25.4 46.06 25.4h121.4c25.44 0 46.06.12 46.06-25.4 0 0 22.5-139.1-105.84-139.1z" fill="#425634"/><path d="M204.56 80.34s-36.12 30.7-54.56 30.7-54.56-30.7-54.56-30.7m149.74 40S195.55 187.6 150 187.6s-95.18-67.28-95.18-67.28m205.9 60.1S195.55 248.17 150 248.17 39.28 180.43 39.28 180.43" fill="none" stroke="#192314" stroke-miterlimit="10" stroke-width="6"/><path d="M150.64 102.12c-106 0-89 114.9-89 114.9a38.12 38.12 0 0 0 38.1 38.18H200a38.12 38.12 0 0 0 38.08-38.2s18.58-114.88-87.44-114.88z" fill="#c67b46"/><path d="M205.73 243.6H92.45c-7.4-.2-10.37 9.5-4.2 13.6 13.74 9.08 33.3 15.14 61.08 15.14s47.36-6 61.24-15.1a7.41 7.41 0 0 0-4.13-13.63z" fill="#e4e417"/><path d="M206.45 243.6h-114a7.1 7.1 0 0 0-6.75 4.07 7.28 7.28 0 0 0 3.11 4.29c13.74 9.08 33.3 15.15 61.07 15.15s47.37-6 61.25-15.1a7.55 7.55 0 0 0 2.61-2.84 7.29 7.29 0 0 0-7.29-5.57z" fill="#aebc32"/><g fill="#619a3c"><ellipse cx="126" cy="262.32" rx="16.53" ry="20.64" transform="matrix(.707107 -.707107 .707107 .707107 -148.59 165.92)"/><ellipse cx="174" cy="262.33" rx="20.64" ry="16.53" transform="matrix(.707107 -.707107 .707107 .707107 -134.53 199.87)"/></g><path d="M188.6 247.73a17.23 17.23 0 0 0-6.21-4.13h-9.52a28.11 28.11 0 0 0-10.56 7c-5 5-8.22 10.75-7.82 16.38 15.47-.38 28.3-2.73 38.93-6.45.58-4.3-.72-8.7-4.82-12.8zm-77.2-.01c-4.12 4.12-5.45 8.53-4.82 12.9 10.6 3.7 23.43 6 38.93 6.4.4-5.64-2.78-11.36-7.82-16.4a28.18 28.18 0 0 0-10.53-7h-9.57a17.26 17.26 0 0 0-6.19 4.09z" fill="#4f7c39"/><path d="M150.68 115.43c-95.2 0-79.88 102.85-79.88 102.85a34.17 34.17 0 0 0 34.2 34.17h90a34.17 34.17 0 0 0 34.17-34.17s16.72-102.85-78.5-102.85z" fill="#a7d054"/><ellipse cx="95.53" cy="228.51" rx="17.59" ry="13.87" fill="url(#C)"/><ellipse cx="204.47" cy="228.51" rx="17.59" ry="13.87" fill="url(#D)"/><circle cx="203.66" cy="200.08" r="22.49" fill="#619a3c"/><path d="M226.15 206.33a22.5 22.5 0 0 1-45 0c0-12.43 10.08-13.35 22.5-13.35s22.5.92 22.5 13.35z" fill="#fff"/><path d="M211.7 206.25a8.16 8.16 0 0 1-11.77-11 13.84 13.84 0 0 0-2.05-.15A14.15 14.15 0 1 0 212 209.29a13.88 13.88 0 0 0-.29-3.04zm-19.88 12.27a3.37 3.37 0 1 1 3.37-3.36 3.35 3.35 0 0 1-3.37 3.36z" fill="#414042"/><circle cx="97.7" cy="200.08" r="22.49" fill="#619a3c"/><path d="M120.2 206.33a22.49 22.49 0 0 1-45 0c0-12.43 10.07-12.55 22.5-12.55s22.5.12 22.5 12.55z" fill="#fff"/><path d="M117.3 206.33a8.15 8.15 0 0 1-11.84-11.05 14.6 14.6 0 0 0-2-.14 14.15 14.15 0 1 0 14.15 14.15 14.43 14.43 0 0 0-.31-2.96zm-19.78 12.2a3.37 3.37 0 1 1 3.37-3.36 3.36 3.36 0 0 1-3.37 3.36z" fill="#414042"/><path d="M133.9 225.64a10 10 0 0 1 8.15 1.65 9.83 9.83 0 0 1 4 7.3 9.87 9.87 0 0 1-4.67 0 9.86 9.86 0 0 1-6.07-4.49 9.9 9.9 0 0 1-1.41-4.46zm32.2 0a9.9 9.9 0 0 1-1.41 4.44 9.86 9.86 0 0 1-6.07 4.49 9.87 9.87 0 0 1-4.67 0 9.82 9.82 0 0 1 7.49-8.92 9.94 9.94 0 0 1 4.66-.01z" fill="#619a3c"/><path d="M196.25 151.54c-3.93 9-13.46 11-22.42 7s-13.92-12.3-10-21.25 13.87-11.9 22.82-8 13.53 13.3 9.6 22.25zm20.45 15.53c-2.45 5.58-7.87 7.07-12.8 4.9s-7.52-7.16-5.07-12.74 8.13-7.64 13.06-5.48 7.26 7.74 4.8 13.32zm-24.1 7.4c-1.78 4.05-5.84 5.07-9.58 3.43s-5.74-5.32-4-9.38a7.4 7.4 0 1 1 13.54 5.95zm-28.95-43.68c-1.78 4.06-5.85 5.08-9.6 3.44s-5.73-5.33-3.95-9.38a7.393 7.393 0 1 1 13.54 5.94zm-4.82 13.65c-1.15 2.62-3.78 3.3-6.2 2.22a4.45 4.45 0 0 1-2.56-6.08 4.791 4.791 0 1 1 8.77 3.86z" fill="#cfdd4f"/></svg>