<svg id="Layer_1" data-name="Layer 1" xmlns="http://www.w3.org/2000/svg" xmlns:xlink="http://www.w3.org/1999/xlink" viewBox="0 0 300 345"><defs><style>.cls-1{fill:url(#linear-gradient);}.cls-2{fill:#19184d;}.cls-3{fill:#80a55d;}.cls-4{fill:none;stroke:#066936;stroke-linecap:round;stroke-linejoin:round;stroke-width:4.6px;}.cls-5{fill:#f9ed32;fill-opacity:0.8;}.cls-6{fill:#a15095;}.cls-7{fill:url(#linear-gradient-2);}.cls-8{fill:#5b2f57;}.cls-9{fill:#cf1f3d;}.cls-10{fill:#fff;}.cls-11{fill:#3a272c;}.cls-12{fill-opacity:0.5;stroke:#19184d;stroke-miterlimit:10;stroke-width:3.94px;fill:url(#linear-gradient-3);}.cls-13{fill:#ffcd05;}.cls-14{fill:#e4ab24;}</style><linearGradient id="linear-gradient" x1="150" y1="356.11" x2="150" y2="161.16" gradientUnits="userSpaceOnUse"><stop offset="0" stop-color="#53824b"/><stop offset="0.69" stop-color="#425634"/></linearGradient><linearGradient id="linear-gradient-2" x1="150.04" y1="174.54" x2="150.04" y2="102.98" gradientUnits="userSpaceOnUse"><stop offset="0.13" stop-color="#a15095"/><stop offset="0.49" stop-color="#822778"/></linearGradient><linearGradient id="linear-gradient-3" x1="150.05" y1="9.58" x2="150.05" y2="109.3" gradientUnits="userSpaceOnUse"><stop offset="0" stop-color="#00c2f3"/><stop offset="1" stop-color="#0086cb"/></linearGradient></defs><g id="space"><path class="cls-1" d="M263.62,345H36.38A36.38,36.38,0,0,1,0,308.62V259.14H300v49.48A36.38,36.38,0,0,1,263.62,345Z"/><rect class="cls-2" y="45" width="300" height="253.39" rx="36.38"/><rect class="cls-3" y="202.32" width="300" height="96.08" rx="36.38"/><path class="cls-3" d="M30.87,207.9s3.92-15.55,9.5-16,9.06,16,9.06,16,1.06-13.58,6.34-13.73,5.59,14.49,5.59,14.49"/><path class="cls-3" d="M245.73,207.37s.91-16.52,7.82-17.43S260,207.37,260,207.37s3.82-15.34,10.06-15.48,4.43,17.19,4.43,17.19"/><path class="cls-4" d="M230.46,251.67s-1.8-13.43,5.39-14,9.4,14,9.4,14-.2-10.26,6-10.86,6,10.86,6,10.86"/><path class="cls-4" d="M29.94,254.69s-6.32-12.9.93-15.85,11.77,12.83,11.77,12.83.68-14.14,9.06-14,5.2,9.83,5.2,9.83"/><path class="cls-4" d="M201.88,273.56s-.6-13.28,10-12.68,3.44,14.79,3.44,14.79"/><path class="cls-5" d="M186.92,144.2,150,137.64l-36.91,6.56L96.94,234.14A14.36,14.36,0,0,0,100.83,247a73.18,73.18,0,0,0,50.54,20.32c25.34,0,41.12-12.62,48.34-20.25a14.49,14.49,0,0,0,3.45-12.41Z"/><path class="cls-6" d="M279,102.39c-12-36.83-84.31-42-129-42s-117,5.13-129,42c-5.89,18.08,15.56,62.49,129,62.49S285.14,121.14,279,102.39Z"/><path class="cls-7" d="M150,146.8c-73.9,0-111.92-15.92-129.16-32.58,4.9,20.73,36,50.66,129.19,50.66s124.42-29.47,129.26-50.4C262,131.1,223.92,146.8,150,146.8Z"/><path class="cls-8" d="M188.12,79.56c0,7.66-17,12.26-38.07,12.26S112,87.22,112,79.56s17-12.19,38.07-12.19S188.12,71.9,188.12,79.56Z"/><path class="cls-9" d="M161,39.74H139A5.26,5.26,0,0,0,133.73,45V90.79a122.83,122.83,0,0,0,16.32,1,121.58,121.58,0,0,0,16.22-1V45A5.26,5.26,0,0,0,161,39.74Z"/><path class="cls-9" d="M162.28,83.13s7.53.11,7.53,0V77.89a1.84,1.84,0,0,1,1.84-1.84h1.93a1.84,1.84,0,0,0,1.84-1.84V69.63a1.83,1.83,0,0,1,1.83-1.84h0a1.84,1.84,0,0,1,1.84,1.84v7.53A1.84,1.84,0,0,1,177.25,79h-2.37A1.83,1.83,0,0,0,173,80.83V85a1.84,1.84,0,0,1-1.84,1.84h-8.11"/><path class="cls-9" d="M137.72,83.13s-7.53.11-7.53,0V77.89a1.84,1.84,0,0,0-1.84-1.84h-1.93a1.84,1.84,0,0,1-1.84-1.84V69.63a1.83,1.83,0,0,0-1.83-1.84h0a1.84,1.84,0,0,0-1.84,1.84v7.53A1.84,1.84,0,0,0,122.75,79h2.37A1.83,1.83,0,0,1,127,80.83V85a1.84,1.84,0,0,0,1.84,1.84h8.11"/><rect class="cls-10" x="144.52" y="62.23" width="10.95" height="10.95" rx="2.86"/><rect class="cls-10" x="160.48" y="60.69" width="10.95" height="10.95" rx="2.86"/><rect class="cls-10" x="128.57" y="60.69" width="10.95" height="10.95" rx="2.86"/><rect class="cls-11" x="147.54" y="66.17" width="5.04" height="5.04" rx="1.31"/><rect class="cls-11" x="162.27" y="64.81" width="5.04" height="5.04" rx="1.31"/><rect class="cls-11" x="132.74" y="64.81" width="5.04" height="5.04" rx="1.31"/><path class="cls-12" d="M150.05,17.23c39.81,0,55.24,31.82,60.35,47.06a16.27,16.27,0,0,1-2.81,15.45c-7.61,9.29-24.78,20-57.54,20S100.12,89,92.51,79.74A16.27,16.27,0,0,1,89.7,64.29C94.81,49.05,110.24,17.23,150.05,17.23Z"/><path class="cls-13" d="M59.48,68.33c6.45,6.45,3.75,14.2-2.7,20.65s-14.2,9.15-20.65,2.7A16.51,16.51,0,1,1,59.48,68.33Z"/><path class="cls-13" d="M98.71,114.09c0,9.12-7.39,13.65-16.51,13.65s-16.52-4.53-16.52-13.65a16.52,16.52,0,1,1,33,0Z"/><path class="cls-13" d="M234.32,114.09c0,9.12-7.4,13.65-16.52,13.65s-16.51-4.53-16.51-13.65a16.52,16.52,0,1,1,33,0Z"/><path class="cls-13" d="M166.51,128.57c0,9.12-7.39,13.65-16.51,13.65s-16.51-4.53-16.51-13.65a16.51,16.51,0,0,1,33,0Z"/><path class="cls-13" d="M263.87,91.68c-6.45,6.45-14.2,3.75-20.65-2.7s-9.15-14.2-2.7-20.65a16.51,16.51,0,0,1,23.35,23.35Z"/><path class="cls-14" d="M56.78,77.52c-6.45,6.45-14.2,9.15-20.65,2.7a16.47,16.47,0,0,1-3.8-5.94,16.48,16.48,0,0,0,3.8,17.4c6.45,6.45,14.2,3.75,20.65-2.7,5.56-5.56,8.32-12.1,4.84-17.93A25.47,25.47,0,0,1,56.78,77.52Z"/><path class="cls-14" d="M82.2,119.14a16.5,16.5,0,0,1-15.47-10.78,16.28,16.28,0,0,0-1,5.73c0,9.12,7.4,13.65,16.52,13.65s16.51-4.53,16.51-13.65a16.5,16.5,0,0,0-1-5.73A16.5,16.5,0,0,1,82.2,119.14Z"/><path class="cls-14" d="M217.8,119.14a16.5,16.5,0,0,1-15.47-10.78,16.5,16.5,0,0,0-1,5.73c0,9.12,7.39,13.65,16.51,13.65s16.52-4.53,16.52-13.65a16.28,16.28,0,0,0-1-5.73A16.5,16.5,0,0,1,217.8,119.14Z"/><path class="cls-14" d="M150,133.63a16.51,16.51,0,0,1-15.47-10.79,16.5,16.5,0,0,0-1,5.73c0,9.12,7.39,13.65,16.51,13.65s16.51-4.53,16.51-13.65a16.5,16.5,0,0,0-1-5.73A16.51,16.51,0,0,1,150,133.63Z"/><path class="cls-14" d="M263.87,80.22c-6.45,6.45-14.2,3.75-20.65-2.7a25.47,25.47,0,0,1-4.84-6.47c-3.48,5.83-.72,12.37,4.84,17.93,6.45,6.45,14.2,9.15,20.65,2.7a16.48,16.48,0,0,0,3.8-17.4A16.47,16.47,0,0,1,263.87,80.22Z"/></g></svg>