<svg id="Layer_1" data-name="Layer 1" xmlns="http://www.w3.org/2000/svg" xmlns:xlink="http://www.w3.org/1999/xlink" viewBox="0 0 300 345"><defs><style>.cls-1{fill:url(#linear-gradient);}.cls-2{fill:#7d4f33;}.cls-3,.cls-4{fill:#573321;}.cls-3,.cls-7{fill-opacity:0.5;}.cls-5{fill:#3e2117;}.cls-6{fill:#dd7399;}.cls-7{fill:#c62c6b;}.cls-8{fill:#cde2b4;}.cls-9{fill:#9ba48b;}.cls-10{fill:#be7347;}.cls-11{fill:#fff;}.cls-12{fill:#414042;}.cls-13{fill:#925835;}</style><linearGradient id="linear-gradient" x1="150" y1="356.11" x2="150" y2="161.16" gradientUnits="userSpaceOnUse"><stop offset="0" stop-color="#7d4f33"/><stop offset="0.69" stop-color="#573321"/></linearGradient></defs><title>blook_walrus</title><path class="cls-1" d="M263.62,345H36.38A36.38,36.38,0,0,1,0,308.62V259.14H300v49.48A36.38,36.38,0,0,1,263.62,345Z"/><path class="cls-2" d="M0,177.83V262a36.38,36.38,0,0,0,36.38,36.38H263.62A36.38,36.38,0,0,0,300,262V177.83S300,40,150,40,0,177.83,0,177.83Z"/><path class="cls-3" d="M202.16,345C210,322.46,219,269.57,219,259.1c0-14.11-9-27.38-24.13-27.38S170.68,245,170.68,259.1c0,10.47,9,63.36,16.79,85.9Z"/><path class="cls-3" d="M112.53,345c7.83-22.54,16.79-75.43,16.79-85.9,0-14.11-9-27.38-24.14-27.38S81.05,245,81.05,259.1c0,10.47,9,63.36,16.79,85.9Z"/><ellipse class="cls-4" cx="150" cy="247.28" rx="39.67" ry="30.37"/><path class="cls-5" d="M189.67,242.08c0-16.77-17.76-30.37-39.67-30.37s-39.67,13.6-39.67,30.37c0,7.3,1.7,14,6.14,19.22,24-13.44,33.53-31.24,33.53-31.24s9.51,17.8,33.53,31.24C188,256.07,189.67,249.38,189.67,242.08Z"/><ellipse class="cls-6" cx="150" cy="230.14" rx="31.72" ry="30.37"/><path class="cls-7" d="M181.72,230.14a30.08,30.08,0,0,0-15.09-25.86H133.37a30.08,30.08,0,0,0-15.09,25.86c0,9.61,2.83,18.18,9.6,23.75a98.1,98.1,0,0,0,8.33-7,20.12,20.12,0,0,1,27.58,0,98.1,98.1,0,0,0,8.33,7C178.89,248.32,181.72,239.75,181.72,230.14Z"/><path class="cls-8" d="M118.54,251.87c0,12.57-14.49,81-21.49,81s-21.48-68.44-21.48-81,8-24.37,21.48-24.37S118.54,239.31,118.54,251.87Z"/><path class="cls-8" d="M224.43,251.87c0,12.57-14.49,81-21.48,81s-21.49-68.44-21.49-81,8-24.37,21.49-24.37S224.43,239.31,224.43,251.87Z"/><path class="cls-9" d="M224.43,251.87c0-12.56-8-24.37-21.48-24.37s-21.49,11.81-21.49,24.37a72,72,0,0,0,.87,8.75,113.7,113.7,0,0,0,38.92,13.56C223.19,264,224.43,255.55,224.43,251.87Z"/><path class="cls-9" d="M97.05,227.5c-13.46,0-21.48,11.81-21.48,24.37,0,3.68,1.24,12.16,3.18,22.31a113.7,113.7,0,0,0,38.92-13.56,72,72,0,0,0,.87-8.75C118.54,239.31,110.51,227.5,97.05,227.5Z"/><path class="cls-2" d="M150,220.06S174.51,266,244.37,266l-14-71.72H69.66L55.63,266C125.49,266,150,220.06,150,220.06Z"/><path class="cls-10" d="M84.6,235.85l-3,1c-1,.35-2.1.69-3.14,1.07-2.1.73-4.17,1.55-6.22,2.4-1,.42-2,.88-3,1.35s-2,.95-3,1.44c-2,1-3.87,2.13-5.74,3.31a56,56,0,0,0-10.3,8.38A55.06,55.06,0,0,0,41.9,266a31.75,31.75,0,0,1,4-14.29,36.44,36.44,0,0,1,4.29-6.32,44,44,0,0,1,5.37-5.46,56.78,56.78,0,0,1,12.76-8.26,60.85,60.85,0,0,1,7-2.82c1.21-.37,2.41-.77,3.65-1.06.62-.15,1.24-.3,1.87-.43s1.22-.24,2-.35a4.51,4.51,0,0,1,2,8.76Z"/><path class="cls-10" d="M79.49,250.68c-.1.11-.29.31-.47.48s-.37.35-.56.55c-.37.37-.76.73-1.13,1.13-.75.77-1.5,1.57-2.24,2.37s-1.47,1.62-2.18,2.46l-1,1.27c-.35.42-.72.82-1.05,1.27-.66.88-1.36,1.72-2,2.62l-1.92,2.7-1.79,2.78c-.63.92-1.1,1.91-1.68,2.86l-.84,1.45-.74,1.49c-.48,1-1,2-1.49,3s-.89,2.06-1.36,3.09-.82,2.11-1.25,3.17c-.89,2.13-1.53,4.33-2.28,6.57-.42,1.12-.68,2.26-1,3.42s-.66,2.32-1.06,3.5a43.7,43.7,0,0,1-1.17-14.71,48.31,48.31,0,0,1,1.17-7.42c.25-1.24.7-2.41,1-3.63l.58-1.81.69-1.76a56.47,56.47,0,0,1,12.35-19c.93-.89,1.82-1.8,2.83-2.61.49-.42,1-.84,1.52-1.23.26-.2.52-.4.81-.6l.91-.63a4.49,4.49,0,0,1,5.77,6.78Z"/><path class="cls-10" d="M217.11,227c.79.11,1.35.23,2,.35s1.25.28,1.87.43c1.24.29,2.44.69,3.65,1.06a60.85,60.85,0,0,1,7,2.82,56.78,56.78,0,0,1,12.76,8.26,44,44,0,0,1,5.37,5.46,36.44,36.44,0,0,1,4.29,6.32,31.75,31.75,0,0,1,4,14.29,55.06,55.06,0,0,0-8.24-11.25,56,56,0,0,0-10.3-8.38c-1.87-1.18-3.78-2.27-5.74-3.31-1-.49-2-1-3-1.44s-2-.93-3-1.35c-2-.85-4.12-1.67-6.22-2.4-1-.38-2.1-.72-3.14-1.07l-3-1-.26-.08a4.5,4.5,0,0,1,2-8.76Z"/><path class="cls-10" d="M225.84,243.43l.91.63c.29.2.55.4.81.6.52.39,1,.81,1.52,1.23,1,.81,1.9,1.72,2.83,2.61a56.47,56.47,0,0,1,12.35,19l.69,1.76.58,1.81c.34,1.22.79,2.39,1,3.63a48.31,48.31,0,0,1,1.17,7.42,43.7,43.7,0,0,1-1.17,14.71c-.4-1.18-.73-2.35-1.06-3.5s-.57-2.3-1-3.42c-.75-2.24-1.39-4.44-2.28-6.57-.43-1.06-.74-2.14-1.25-3.17s-.92-2.06-1.36-3.09-1-2-1.49-3l-.74-1.49-.84-1.45c-.58-.95-1.05-1.94-1.68-2.86l-1.79-2.78-1.92-2.7c-.63-.9-1.33-1.74-2-2.62-.33-.45-.7-.85-1.05-1.27l-1-1.27c-.71-.84-1.47-1.63-2.18-2.46s-1.49-1.6-2.24-2.37c-.37-.4-.76-.76-1.13-1.13-.19-.2-.38-.38-.56-.55s-.37-.37-.47-.48l-.43-.46a4.49,4.49,0,0,1,5.76-6.79Z"/><ellipse class="cls-4" cx="132.23" cy="208.2" rx="8.23" ry="10.44" transform="translate(-110.04 254.44) rotate(-68.39)"/><ellipse class="cls-4" cx="167.77" cy="208.2" rx="10.44" ry="8.23" transform="translate(-64.89 76.43) rotate(-21.61)"/><path class="cls-4" d="M292.62,186.79a36.46,36.46,0,0,1-72.91,0c0-20.13,16.32-27.77,36.46-27.77S292.62,166.66,292.62,186.79Z"/><path class="cls-4" d="M80.29,186.79a36.46,36.46,0,0,1-72.91,0C7.38,166.66,23.7,159,43.83,159S80.29,166.66,80.29,186.79Z"/><path class="cls-11" d="M292.62,196.91a36.46,36.46,0,1,1-72.91,0c0-20.13,16.32-23.36,36.46-23.36S292.62,176.78,292.62,196.91Z"/><path class="cls-11" d="M80.29,196.91a36.46,36.46,0,1,1-72.91,0c0-20.13,16.32-23.36,36.45-23.36S80.29,176.78,80.29,196.91Z"/><path class="cls-12" d="M75.6,195.68a13.21,13.21,0,0,1-19.2-17.9,22.88,22.88,0,1,0,19.2,17.9Zm-32,19.76A5.46,5.46,0,1,1,49,210,5.45,5.45,0,0,1,43.55,215.44Z"/><path class="cls-12" d="M269.22,195.55a13.22,13.22,0,0,1-19.08-17.76,22.62,22.62,0,0,0-3.31-.25,22.91,22.91,0,1,0,22.39,18ZM237,215.44a5.46,5.46,0,1,1,5.45-5.45A5.45,5.45,0,0,1,237,215.44Z"/><ellipse class="cls-13" cx="89.96" cy="91.38" rx="30.51" ry="20.49" transform="translate(-26.17 37.01) rotate(-20.36)"/><circle class="cls-13" cx="148.86" cy="74.81" r="16.43"/></svg>