<svg id="Layer_1" data-name="Layer 1" xmlns="http://www.w3.org/2000/svg" xmlns:xlink="http://www.w3.org/1999/xlink" viewBox="0 0 300 345"><defs><style>.cls-1{fill:url(#linear-gradient);}.cls-2{fill:#594a42;}.cls-3{fill:#ce2235;}.cls-4{fill:url(#linear-gradient-2);}.cls-5{fill:#2f2c38;}.cls-5,.cls-6{fill-opacity:0.5;}.cls-6{fill:#15141a;}.cls-7{fill:#726658;}.cls-8{fill:#29211d;}.cls-9{fill:none;stroke:#29211d;stroke-miterlimit:10;stroke-width:4px;}.cls-10{fill:#e4d9cf;}.cls-11{fill:#8a9b9c;}.cls-12{fill:#ecf7fe;}.cls-13{fill:#3f312b;}</style><linearGradient id="linear-gradient" x1="150" y1="356.11" x2="150" y2="161.16" gradientUnits="userSpaceOnUse"><stop offset="0" stop-color="#594a42"/><stop offset="0.69" stop-color="#281813"/></linearGradient><linearGradient id="linear-gradient-2" x1="150" y1="359.3" x2="150" y2="45.31" gradientUnits="userSpaceOnUse"><stop offset="0.03" stop-color="#9d1c20"/><stop offset="0.34" stop-color="#6a140e"/></linearGradient></defs><g id="halloween"><path class="cls-1" d="M263.62,345H36.38A36.38,36.38,0,0,1,0,308.62V259.14H300v49.48A36.38,36.38,0,0,1,263.62,345Z"/><rect class="cls-2" y="45" width="300" height="253.39" rx="36.38"/><path class="cls-3" d="M78,271.15a10.29,10.29,0,0,0-9.67-6.72H62.07a13.23,13.23,0,0,0-8.45,3L43,276.29l-.59-11a2.11,2.11,0,0,0-1.61-1.94L39,262.9a2.06,2.06,0,0,0-1.73.36L18,278.1l1.13-23.65a5.57,5.57,0,0,0-1.53-4.13C6.72,239,1.59,224.25,0,218.92V262a36.52,36.52,0,0,0,1.56,10.57c0,.08.05.17.08.25a36.39,36.39,0,0,0,34.74,25.56h76.17C91.08,298.39,81.64,281.05,78,271.15Z"/><path class="cls-3" d="M280.1,252.6a11.18,11.18,0,0,0-3.31,5.41L271,280.2l-15.33-13.13a11.18,11.18,0,0,0-7.3-2.64H235.21A15.64,15.64,0,0,0,220.87,274c-4.31,10-13.89,24.4-33.42,24.4h76.17A36.38,36.38,0,0,0,300,262V219C298.32,224.74,292.65,241.16,280.1,252.6Z"/><path class="cls-4" d="M263.62,298.39H187.44L150,333.56l-37.44-35.17H36.38A36.38,36.38,0,0,1,0,262v46.61A36.38,36.38,0,0,0,36.38,345H263.62A36.38,36.38,0,0,0,300,308.62V262A36.38,36.38,0,0,1,263.62,298.39Z"/><path class="cls-5" d="M295.5,310.88l-6.28,8.28L270.1,344.41a36.41,36.41,0,0,0,29.18-28.54,36.91,36.91,0,0,0,.72-7.25v-3.69Z"/><polygon class="cls-5" points="244.5 298.39 235.05 310.88 228.78 319.16 209.21 345 228.02 345 238.19 331.58 244.46 323.3 263.32 298.39 244.5 298.39"/><path class="cls-5" d="M235.21,264.43l-.78,0A15.65,15.65,0,0,0,220.87,274a48.5,48.5,0,0,1-8.09,13,35.69,35.69,0,0,1-6.35,5.65,32.56,32.56,0,0,1-19,5.72h15.42l4.77-4.67,6-5.91,22.4-21.94,1.47-1.44Z"/><polygon class="cls-5" points="292.69 249.99 285.93 256.78 273.99 268.77 271.02 280.2 266.48 276.32 264.69 278.12 258.08 284.76 244.5 298.39 263.32 298.39 268.29 293.53 274.94 287.01 296.52 265.87 300 262.46 300 262.01 300 259.14 300 256.32 300 242.65 292.69 249.99"/><polygon class="cls-5" points="187.46 298.39 187.45 298.39 187.44 298.39 175.72 309.4 174.6 310.88 168.33 319.16 148.76 345 167.58 345 177.74 331.58 184.01 323.3 202.87 298.39 187.46 298.39"/><polygon class="cls-5" points="119.02 304.46 114.16 310.88 107.89 319.16 88.31 345 107.13 345 117.3 331.58 123.57 323.3 130.01 314.79 119.02 304.46"/><path class="cls-5" d="M81.91,279.57l-5.34,5.36-13.4,13.46H82l4.77-4.67,3.63-3.55A42.2,42.2,0,0,1,81.91,279.57Z"/><path class="cls-5" d="M63.17,298.39l-9.46,12.49-6.27,8.28-18.92,25a36.34,36.34,0,0,0,7.86.86H46.69l10.16-13.42,6.27-8.28L82,298.39Z"/><path class="cls-5" d="M43,276.29l-.59-11a2.11,2.11,0,0,0-1.61-1.94L39,262.9a2.06,2.06,0,0,0-1.73.36l-6.33,4.87L21,277.77l-6.2,6.05-4.1,4A36.43,36.43,0,0,0,23.36,296L26,293.44,32,287.55l15.32-14.89Z"/><path class="cls-5" d="M10.73,287.81,0,302v6.64A36.21,36.21,0,0,0,2.94,323l20.42-27A36.43,36.43,0,0,1,10.73,287.81Z"/><path class="cls-6" d="M295.5,310.88,282.18,293.3a35.67,35.67,0,0,1-9.54,4l16.58,21.9,5.86,7.73a36.26,36.26,0,0,0,4.2-11Z"/><path class="cls-6" d="M274.94,287l-10.25-8.89-15.76-13.67-.54,0H235.21l-.78,0,1.65,1.41,22,18.89,10.21,8.77,4.35,3.73a35.67,35.67,0,0,0,9.54-4Z"/><polygon class="cls-6" points="244.46 323.3 235.05 310.88 225.6 298.39 213.05 298.39 228.78 319.16 238.19 331.58 248.35 345 260.89 345 244.46 323.3"/><path class="cls-6" d="M213.68,287.81l-.9-.79a35.69,35.69,0,0,1-6.35,5.65l1.21,1.05,5.41,4.67H225.6Z"/><path class="cls-6" d="M292.69,250l-5.7-5a58.66,58.66,0,0,1-6.43,7.13l5.37,4.61,10.59,9.09,3.48,3V256.32Z"/><polygon class="cls-6" points="184.01 323.3 174.6 310.88 174.42 310.63 167.09 317.51 168.33 319.16 177.74 331.58 187.9 345 200.45 345 184.01 323.3"/><polygon class="cls-6" points="123.57 323.3 114.16 310.88 104.7 298.39 92.16 298.39 107.89 319.16 117.3 331.58 127.46 345 140 345 123.57 323.3"/><path class="cls-6" d="M103.39,297.23a32.06,32.06,0,0,1-13-7.06,42.2,42.2,0,0,1-8.47-10.6c-.52-.91-1-1.8-1.43-2.68l-14-12.46H62.07a13.26,13.26,0,0,0-7,2l21.45,18.52,10.18,8.79,5.41,4.67H104.7Z"/><polygon class="cls-6" points="63.12 323.3 53.71 310.88 44.26 298.39 31.71 298.39 47.44 319.16 56.85 331.58 67.01 345 79.56 345 63.12 323.3"/><polygon class="cls-6" points="32.04 287.55 21.03 277.77 19.8 276.68 17.95 278.1 18.09 275.17 0 259.11 0 259.14 0 262.01 0 271.01 14.83 283.82 25.98 293.44 31.71 298.39 44.26 298.39 32.04 287.55"/><path class="cls-7" d="M276.34,99.53C234.88,87.15,195.59,141,195.59,141s.86-14-5.33-14.41c-13.13-.82-32.53,65.15-32.53,65.15L150,193.88l-7.73-2.16s-19.4-66-32.53-65.15c-6.19.39-5.33,14.41-5.33,14.41S65.12,87.15,23.66,99.53,6.25,229.72,48.13,228c0,0-16.12,2.42-15.47,7s13.64,3.65,13.64,3.65-8.31,4.53-6.59,8,12.74-.43,12.74-.43-5.54,6.4-.29,9.07S117.58,238.5,150,244.25c32.42-5.75,92.58,13.75,97.84,11.09s-.29-9.07-.29-9.07,11,3.92,12.74.43-6.59-8-6.59-8,13,1,13.64-3.65-15.47-7-15.47-7C293.75,229.72,317.79,111.91,276.34,99.53Z"/><path class="cls-8" d="M150,215.26c-7,0-15.42-8-21.12-14.56-4.1-4.7-1.61-11.41,5-13.26a60.91,60.91,0,0,1,32.3,0c6.58,1.85,9.07,8.56,5,13.26C165.42,207.24,157,215.26,150,215.26Z"/><line class="cls-9" x1="150" y1="209.43" x2="150" y2="229.72"/><path class="cls-10" d="M188.38,233.78a69.81,69.81,0,0,0-21.32-6.92,104,104,0,0,0-34.13,0,69.84,69.84,0,0,0-21.31,6.92c-10.8,5.87-15.33,14-9.19,21.65,6.39,7.94,20.64,2.88,35.91.51a76.3,76.3,0,0,1,11.66-1,76.06,76.06,0,0,1,11.65,1c15.28,2.37,29.52,7.43,35.92-.51C203.71,247.79,199.18,239.65,188.38,233.78Z"/><path class="cls-11" d="M200.27,247.23a11.41,11.41,0,0,0-.35-1.7l-12.34,6.9-4-17.05-10.2,12.2-5.64-16.25-9.67,13.53L150,230.5l-8.07,14.36-9.67-13.53-5.64,16.25-10.2-12.2-4,17.05-12.34-6.9a11.41,11.41,0,0,0-.35,1.7l13.8,7.72,3.75-16,10,11.91,5.54-16,9.32,13L150,233.88l7.91,14.05,9.32-13,5.54,16L182.72,239l3.75,16Z"/><path class="cls-2" d="M97.55,161.38c-.28-.66-.57-1.32-.86-2l-.17-.36c-.3-.65-.6-1.29-.91-1.92l-.13-.25a69.43,69.43,0,0,0-5.8-9.6l-.05-.07c-.4-.55-.8-1.08-1.21-1.61l-.16-.21c-.4-.51-.8-1-1.21-1.5l-.17-.21c-.42-.5-.84-1-1.27-1.48l0-.06a66,66,0,0,0-7.18-6.95l-.19-.17-1.34-1.08-.27-.2-1.35-1-.21-.15a71.47,71.47,0,0,0-7.72-4.93l-.14-.08c-.48-.27-1-.52-1.44-.77l-.25-.13c-.47-.25-.94-.48-1.41-.72l-.23-.11-1.46-.7-.06,0A91.25,91.25,0,0,0,25,116.92c-15.22,120.74,79.53,83.22,79.53,83.22,0-15.53-2.6-28.15-6.85-38.43Z"/><path class="cls-12" d="M25,127.34s79.53-2.79,79.53,83.22C104.53,210.56,9.78,248.07,25,127.34Z"/><path class="cls-8" d="M69.21,211.71c-20.19,0-29.51-19.24-29.51-43,0-15.69,4.52-29.42,13.13-36.92,16.52,5.34,36.05,17,45.7,42.44C97.17,195.38,87.8,211.71,69.21,211.71Z"/><path class="cls-13" d="M63.93,95.86c4.85,4.68,9.14,9.51,13.45,14.27s8.46,9.49,12.75,14a113.88,113.88,0,0,0,13.48,12.44c4.82,3.58,10,6.6,16.79,6.84a17,17,0,0,1-10.16,2.13A30,30,0,0,1,100,142.68a56.27,56.27,0,0,1-16.41-12.34,87.19,87.19,0,0,1-11.94-16.08A71.31,71.31,0,0,1,63.93,95.86Z"/><path class="cls-2" d="M202.45,161.38c.28-.66.57-1.32.86-2l.17-.36c.3-.65.6-1.29.91-1.92l.13-.25a69.43,69.43,0,0,1,5.8-9.6l.05-.07c.4-.55.8-1.08,1.21-1.61l.16-.21c.4-.51.8-1,1.21-1.5l.17-.21c.42-.5.84-1,1.27-1.48l.05-.06a66,66,0,0,1,7.18-6.95l.19-.17,1.34-1.08.27-.2,1.35-1,.21-.15a71.47,71.47,0,0,1,7.72-4.93l.14-.08c.48-.27,1-.52,1.44-.77l.25-.13c.47-.25.94-.48,1.41-.72l.23-.11,1.46-.7.06,0A91.25,91.25,0,0,1,275,116.92c15.22,120.74-79.53,83.22-79.53,83.22,0-15.53,2.6-28.15,6.85-38.43Z"/><path class="cls-12" d="M275,127.34s-79.53-2.79-79.53,83.22C195.47,210.56,290.22,248.07,275,127.34Z"/><path class="cls-8" d="M230.79,211.71c20.19,0,29.51-19.24,29.51-43,0-15.69-4.52-29.42-13.13-36.92-16.52,5.34-36,17-45.7,42.44C202.83,195.38,212.2,211.71,230.79,211.71Z"/><path class="cls-13" d="M236.07,95.86a71.31,71.31,0,0,1-7.74,18.4,87.19,87.19,0,0,1-11.94,16.08A56.27,56.27,0,0,1,200,142.68a30,30,0,0,1-10.22,2.87,17,17,0,0,1-10.16-2.13c6.8-.25,12-3.26,16.79-6.84a113.88,113.88,0,0,0,13.48-12.44c4.29-4.52,8.48-9.24,12.75-14S231.22,100.54,236.07,95.86Z"/><path class="cls-2" d="M210.17,66.82C228.42,30.57,262,4.2,273,6.73S291.88,53,286.82,85.84"/><path class="cls-13" d="M210.17,66.82A95.88,95.88,0,0,1,220,47.4a133.75,133.75,0,0,1,13.45-17.22,137.08,137.08,0,0,1,16-15,80.12,80.12,0,0,1,9.15-6.3,33.21,33.21,0,0,1,10.73-4.36,11.6,11.6,0,0,1,3.35-.09,7.56,7.56,0,0,1,.91.16c.31.09.62.2.93.31L275,5l.4.23.79.46a15.29,15.29,0,0,1,4.21,4.71,47.88,47.88,0,0,1,4.52,10.43,123,123,0,0,1,4.46,21.57,163,163,0,0,1,1.23,21.86,139.43,139.43,0,0,1-1.79,21.86l-4-.61A167.78,167.78,0,0,0,284.76,43a118.88,118.88,0,0,0-4.27-20.74,43.52,43.52,0,0,0-4-9.38,11.14,11.14,0,0,0-2.88-3.35l-.38-.22L273,9.18l-.18-.06a2.55,2.55,0,0,1-.35-.14c-.12,0-.29,0-.43-.06A6.69,6.69,0,0,0,270,9a29.11,29.11,0,0,0-9.21,3.69,75.59,75.59,0,0,0-8.72,5.87,133.07,133.07,0,0,0-15.76,14.29C226.58,43.24,218.18,54.75,210.17,66.82Z"/><path class="cls-2" d="M279.25,69.59s10.49-8.37,13.69-5.38c4.14,3.88-.22,20.49-6.27,27.32"/><path class="cls-13" d="M279.25,69.59a22.55,22.55,0,0,1,4-4.24,18.63,18.63,0,0,1,5.14-3.14,7.5,7.5,0,0,1,3.63-.52,4.28,4.28,0,0,1,2.27,1.05,5.91,5.91,0,0,1,1.26,1.69,9.8,9.8,0,0,1,.92,3.37,17.28,17.28,0,0,1,0,3.13,33.71,33.71,0,0,1-3.08,11.31,31.3,31.3,0,0,1-2.86,5,19.6,19.6,0,0,1-3.87,4.25,43.48,43.48,0,0,0,4.12-10.25,45.67,45.67,0,0,0,1.81-10.54,10.67,10.67,0,0,0-.63-4.51,2.22,2.22,0,0,0-.39-.57s-.05-.06-.23-.12a4.74,4.74,0,0,0-1.9.14,35,35,0,0,0-4.95,1.74C282.79,68.13,281.07,68.88,279.25,69.59Z"/><path class="cls-13" d="M239.48,76.88a58.21,58.21,0,0,1,4.11-14.68,80.51,80.51,0,0,1,7.13-13.53,79.11,79.11,0,0,1,9.49-12,65.08,65.08,0,0,1,11.72-9.75c-3.13,4-6.4,7.78-9.33,11.8s-5.83,8-8.53,12.12-5.24,8.38-7.66,12.72S241.69,72.31,239.48,76.88Z"/><path class="cls-13" d="M260.77,39a8.53,8.53,0,0,1,.86.62,8.42,8.42,0,0,1,.71.61,14,14,0,0,1,1.25,1.31,19.56,19.56,0,0,1,2,2.89,25.21,25.21,0,0,1,2.54,6.4l.38,1.66c.1.55.18,1.11.25,1.67a24.87,24.87,0,0,1,.22,3.34,33.24,33.24,0,0,1-.21,3.32,27.74,27.74,0,0,1-.68,3.26c-.36-1.07-.63-2.12-.88-3.16s-.56-2.06-.85-3.07c-.61-2-1.12-4-1.89-5.86a34.33,34.33,0,0,0-2.61-5.34,25.56,25.56,0,0,0-1.63-2.38c-.29-.38-.6-.73-.9-1.08l-.46-.49c-.13-.15-.33-.34-.38-.4Z"/><path class="cls-2" d="M89.83,66.82C71.58,30.57,38,4.2,27,6.73S8.12,53,13.18,85.84"/><path class="cls-13" d="M89.83,66.82c-8-12.07-16.41-23.58-26.16-34A133.07,133.07,0,0,0,47.91,18.53a75.59,75.59,0,0,0-8.72-5.87A29.11,29.11,0,0,0,30,9a6.69,6.69,0,0,0-2-.05c-.14,0-.31,0-.43.06a2.55,2.55,0,0,1-.35.14L27,9.18l-.18.12-.38.22a11.14,11.14,0,0,0-2.88,3.35,43.52,43.52,0,0,0-4,9.38A118.88,118.88,0,0,0,15.24,43a167.78,167.78,0,0,0-.08,42.54l-3.95.61A139.43,139.43,0,0,1,9.42,64.28a163,163,0,0,1,1.23-21.86,123,123,0,0,1,4.46-21.57,47.88,47.88,0,0,1,4.52-10.43,15.29,15.29,0,0,1,4.21-4.71l.79-.46L25,5l.45-.17c.31-.11.62-.22.93-.31a7.56,7.56,0,0,1,.91-.16,11.6,11.6,0,0,1,3.35.09A33.21,33.21,0,0,1,41.4,8.83a80.12,80.12,0,0,1,9.15,6.3,137.08,137.08,0,0,1,16,15.05A133.75,133.75,0,0,1,80,47.4,95.88,95.88,0,0,1,89.83,66.82Z"/><path class="cls-2" d="M20.75,69.59S10.26,61.22,7.06,64.21c-4.14,3.88.22,20.49,6.27,27.32"/><path class="cls-13" d="M20.75,69.59c-1.82-.71-3.54-1.46-5.25-2.17a35,35,0,0,0-4.95-1.74,4.75,4.75,0,0,0-1.9-.14c-.18.06-.21.1-.23.12a2.22,2.22,0,0,0-.39.57,10.67,10.67,0,0,0-.63,4.51A45.67,45.67,0,0,0,9.21,81.28a43.48,43.48,0,0,0,4.12,10.25,19.6,19.6,0,0,1-3.87-4.25,31.3,31.3,0,0,1-2.86-5A33.71,33.71,0,0,1,3.52,70.93a17.28,17.28,0,0,1,0-3.13,9.8,9.8,0,0,1,.92-3.37,5.91,5.91,0,0,1,1.26-1.69A4.28,4.28,0,0,1,8,61.69a7.57,7.57,0,0,1,3.64.52,18.72,18.72,0,0,1,5.13,3.14A22.55,22.55,0,0,1,20.75,69.59Z"/><path class="cls-13" d="M60.52,76.88c-2.21-4.57-4.5-9-6.93-13.32S48.65,55,45.93,50.84s-5.5-8.2-8.53-12.12S31.2,31,28.07,26.92a65.08,65.08,0,0,1,11.72,9.75,79.11,79.11,0,0,1,9.49,12A80.51,80.51,0,0,1,56.41,62.2,58.21,58.21,0,0,1,60.52,76.88Z"/><path class="cls-13" d="M41.48,42.27c0,.06-.25.25-.38.4l-.46.49c-.3.35-.61.7-.9,1.08a25.56,25.56,0,0,0-1.63,2.38A34.33,34.33,0,0,0,35.5,52c-.77,1.87-1.28,3.86-1.89,5.86-.29,1-.52,2-.85,3.07s-.52,2.09-.88,3.16a27.74,27.74,0,0,1-.68-3.26A33.24,33.24,0,0,1,31,57.47a24.87,24.87,0,0,1,.22-3.34c.07-.56.15-1.12.25-1.67l.38-1.66a25.21,25.21,0,0,1,2.54-6.4,19.56,19.56,0,0,1,2-2.89,14,14,0,0,1,1.25-1.31,8.42,8.42,0,0,1,.71-.61,8.53,8.53,0,0,1,.86-.62Z"/><path class="cls-2" d="M127.64,53.79s16.6-20,22.32-20.38c6.56-.41,3.63,11.38,3.63,11.38"/><path class="cls-13" d="M127.64,53.79a23.16,23.16,0,0,1,2.51-5.2,35.62,35.62,0,0,1,3.38-4.49A96.05,96.05,0,0,1,141.42,36a30.93,30.93,0,0,1,4.77-3.62,12.27,12.27,0,0,1,1.54-.76,6.71,6.71,0,0,1,2.08-.52,7,7,0,0,1,2.13.2,5.24,5.24,0,0,1,2.12,1.12A6.66,6.66,0,0,1,156.12,36a12.46,12.46,0,0,1,.31,3.31,22.12,22.12,0,0,1-1,6l-3.59-.88a28.62,28.62,0,0,0,.25-5,9.24,9.24,0,0,0-.34-2.19,2.11,2.11,0,0,0-.65-1.16,1.5,1.5,0,0,0-.95-.19,4.92,4.92,0,0,0-1.55.66,32.32,32.32,0,0,0-4.12,3c-2.7,2.32-5.39,4.81-8,7.41a53.9,53.9,0,0,1-4.1,3.72A29.64,29.64,0,0,1,127.64,53.79Z"/><path class="cls-2" d="M142.19,53.49c24.3-20.61,49-27,50.3-25.74,1.74,1,.19,19.09-9.47,26"/><path class="cls-13" d="M142.19,53.49A34.38,34.38,0,0,1,147,47.94a50.64,50.64,0,0,1,5.57-4.67,120.92,120.92,0,0,1,12.21-7.87c2.11-1.2,4.27-2.33,6.47-3.37s4.42-2,6.7-2.91a71.17,71.17,0,0,1,7-2.36c1.19-.34,2.4-.62,3.65-.86.63-.12,1.27-.22,2-.29.34,0,.7-.05,1.11-.05a5.12,5.12,0,0,1,.72.05,2.79,2.79,0,0,1,.53.11,2.85,2.85,0,0,1,.43.16,2.58,2.58,0,0,1,.64.46l-.43-.33h0a2.83,2.83,0,0,1,1.15,1.25,4.12,4.12,0,0,1,.3.77,8.19,8.19,0,0,1,.26,1.2,13.71,13.71,0,0,1,.14,2.08A24.9,24.9,0,0,1,195,35.2a32.39,32.39,0,0,1-2.08,7.38,25.81,25.81,0,0,1-3.9,6.61,15.19,15.19,0,0,1-6,4.6,27.5,27.5,0,0,0,3.75-6,44.49,44.49,0,0,0,2.34-6.49,58.57,58.57,0,0,0,1.4-6.72c.15-1.13.3-2.25.37-3.34,0-.54,0-1.08,0-1.55,0-.23,0-.46,0-.6s0-.11,0-.09a1.57,1.57,0,0,0,.6.54h0l-.43-.33a1.31,1.31,0,0,0,.45.33.93.93,0,0,0,.22.09c.05,0,.12,0,.09,0h-.17c-.18,0-.42.05-.67.1-.5.08-1,.21-1.57.34-1.09.27-2.18.61-3.28.95-2.19.71-4.38,1.53-6.54,2.39s-4.32,1.8-6.44,2.78-4.23,2-6.32,3.1c-4.16,2.19-8.26,4.5-12.23,7.05-2,1.27-4,2.52-6,3.72A71.78,71.78,0,0,1,142.19,53.49Z"/></g></svg>